# Blender 4.0.2
# www.blender.org
mtllib Dungeon_Door.mtl
o Dungeon_Door
v 0.000000 0.000000 -0.062500
v -1.250000 0.000000 -0.062500
v 0.000000 1.375000 -0.062500
v -1.250000 1.375000 -0.062500
v -0.875000 0.625000 -0.125000
v -1.187500 0.625000 -0.125000
v -1.125000 0.562500 -0.125000
v -1.187500 0.375000 -0.062500
v -1.187500 0.562500 -0.062500
v -1.125000 0.375000 -0.125000
v -0.875000 0.562500 -0.125000
v -1.187500 0.562500 -0.125000
v -1.187500 0.562500 -0.125000
v -1.187500 0.375000 -0.125000
v -1.187500 0.562500 -0.125000
v -1.187500 0.375000 -0.125000
v -1.125000 0.375000 -0.062500
v -1.125000 0.562500 -0.062500
v -1.125000 0.375000 -0.125000
v -1.125000 0.562500 -0.125000
v -0.875000 0.562500 -0.125000
v -0.937500 0.375000 -0.062500
v -0.937500 0.562500 -0.062500
v -0.875000 0.375000 -0.125000
v -0.937500 0.562500 -0.125000
v -0.937500 0.375000 -0.125000
v -0.937500 0.562500 -0.125000
v -0.937500 0.375000 -0.125000
v -0.875000 0.375000 -0.062500
v -0.875000 0.562500 -0.062500
v -0.875000 0.375000 -0.125000
v -0.875000 0.562500 -0.125000
v -1.125000 0.375000 -0.125000
v -0.937500 0.312500 -0.062500
v -1.125000 0.312500 -0.062500
v -0.937500 0.375000 -0.125000
v -1.125000 0.312500 -0.125000
v -0.937500 0.312500 -0.125000
v -1.125000 0.312500 -0.125000
v -0.937500 0.312500 -0.125000
v -0.937500 0.375000 -0.062500
v -1.125000 0.375000 -0.062500
v -0.937500 0.375000 -0.125000
v -1.125000 0.375000 -0.125000
v -1.125000 0.375000 -0.062500
v -1.125000 0.312500 -0.062500
v -1.125000 0.375000 -0.125000
v -1.125000 0.312500 -0.125000
v -0.937500 0.375000 -0.062500
v -0.937500 0.312500 -0.062500
v -0.937500 0.375000 -0.125000
v -0.937500 0.312500 -0.125000
v -0.937500 0.375000 -0.062500
v -0.875000 0.375000 -0.062500
v -0.937500 0.375000 -0.125000
v -0.875000 0.375000 -0.125000
v -1.187500 0.375000 -0.062500
v -1.125000 0.375000 -0.062500
v -1.187500 0.375000 -0.125000
v -1.125000 0.375000 -0.125000
v -0.875000 0.625000 -0.125000
v -1.187500 0.625000 -0.125000
v -0.875000 0.625000 -0.062500
v -1.187500 0.625000 -0.062500
v -0.875000 0.562500 -0.125000
v -1.187500 0.562500 -0.125000
v -0.875000 0.562500 -0.062500
v -1.187500 0.562500 -0.062500
v -1.187500 0.625000 -0.062500
v -1.187500 0.562500 -0.062500
v -1.187500 0.625000 -0.125000
v -1.187500 0.562500 -0.125000
v -0.875000 0.625000 -0.062500
v -0.875000 0.562500 -0.062500
v -0.875000 0.625000 -0.125000
v -0.875000 0.562500 -0.125000
v -0.875000 0.625000 0.062500
v -1.187500 0.625000 0.062500
v -0.875000 0.562500 0.062500
v -0.875000 0.375000 0.062500
v -0.875000 0.562500 0.062500
v -0.875000 0.375000 0.062500
v -0.875000 0.562500 0.062500
v -1.187500 0.562500 0.062500
v -0.937500 0.562500 0.062500
v -0.875000 0.375000 0.000000
v -0.875000 0.562500 0.000000
v -0.937500 0.375000 0.062500
v -0.937500 0.375000 0.062500
v -0.937500 0.562500 0.062500
v -0.937500 0.375000 0.000000
v -0.937500 0.562500 0.000000
v -1.125000 0.562500 0.062500
v -1.125000 0.375000 0.062500
v -1.125000 0.562500 0.062500
v -1.125000 0.375000 0.062500
v -1.187500 0.562500 0.062500
v -1.125000 0.375000 0.000000
v -1.125000 0.562500 0.000000
v -1.187500 0.375000 0.062500
v -1.187500 0.375000 0.062500
v -1.187500 0.562500 0.062500
v -1.187500 0.375000 0.000000
v -1.187500 0.562500 0.000000
v -1.125000 0.375000 0.062500
v -0.937500 0.312500 0.062500
v -1.125000 0.312500 0.062500
v -0.937500 0.375000 0.062500
v -1.125000 0.312500 0.062500
v -0.937500 0.312500 0.000000
v -1.125000 0.312500 0.000000
v -0.937500 0.312500 0.062500
v -0.937500 0.375000 0.062500
v -1.125000 0.375000 0.062500
v -0.937500 0.375000 0.000000
v -1.125000 0.375000 0.000000
v -0.937500 0.375000 0.062500
v -0.937500 0.312500 0.062500
v -0.937500 0.375000 0.000000
v -0.937500 0.312500 0.000000
v -1.125000 0.375000 0.062500
v -1.125000 0.312500 0.062500
v -1.125000 0.375000 0.000000
v -1.125000 0.312500 0.000000
v -1.187500 0.375000 0.062500
v -1.125000 0.375000 0.062500
v -1.187500 0.375000 0.000000
v -1.125000 0.375000 0.000000
v -0.937500 0.375000 0.062500
v -0.875000 0.375000 0.062500
v -0.937500 0.375000 0.000000
v -0.875000 0.375000 0.000000
v -0.875000 0.625000 0.000000
v -1.187500 0.625000 0.000000
v -0.875000 0.625000 0.062500
v -1.187500 0.625000 0.062500
v -0.875000 0.562500 0.000000
v -1.187500 0.562500 0.000000
v -0.875000 0.562500 0.062500
v -1.187500 0.562500 0.062500
v -0.875000 0.625000 0.062500
v -0.875000 0.562500 0.062500
v -0.875000 0.625000 0.000000
v -0.875000 0.562500 0.000000
v -1.187500 0.625000 0.062500
v -1.187500 0.562500 0.062500
v -1.187500 0.625000 0.000000
v -1.187500 0.562500 0.000000
v 0.000000 0.000000 0.000000
v -1.250000 0.000000 0.000000
v 0.000000 1.375000 0.000000
v -1.250000 1.375000 0.000000
v 0.000000 1.375000 -0.062500
v -1.250000 1.375000 -0.062500
v 0.000000 1.375000 0.000000
v -1.250000 1.375000 0.000000
v 0.000000 0.000000 -0.062500
v -1.250000 0.000000 -0.062500
v 0.000000 0.000000 0.000000
v -1.250000 0.000000 0.000000
v -1.250000 0.000000 -0.062500
v -1.250000 0.000000 0.000000
v -1.250000 1.375000 -0.062500
v -1.250000 1.375000 0.000000
v 0.000000 0.000000 -0.062500
v 0.000000 0.000000 0.000000
v 0.000000 1.375000 -0.062500
v 0.000000 1.375000 0.000000
vn -0.0000 -0.0000 -1.0000
vn -1.0000 -0.0000 -0.0000
vn 1.0000 -0.0000 -0.0000
vn -0.0000 -1.0000 -0.0000
vn -0.0000 1.0000 -0.0000
vn -0.0000 -0.0000 1.0000
vt 0.858974 0.098684
vt 0.987179 0.098684
vt 0.987179 0.243421
vt 0.858974 0.243421
vt 0.967949 0.072368
vt 0.967949 0.078947
vt 0.935897 0.078947
vt 0.935897 0.072368
vt 0.961538 0.052632
vt 0.967949 0.052632
vt 0.961538 0.072368
vt 0.974359 0.052632
vt 0.980769 0.052632
vt 0.980769 0.072368
vt 0.974359 0.072368
vt 0.974359 0.059211
vt 0.980769 0.059211
vt 0.967949 0.085526
vt 0.935897 0.085526
vt 0.935897 0.092105
vt 0.967949 0.092105
vt 0.961538 0.085526
vt 0.961538 0.092105
vt 0.967949 0.092105
vt 0.967949 0.085526
vt 0.858974 0.236842
vt 0.987179 0.236842
vt 0.980769 0.098684
vt 0.980769 0.243421
vt 0.865385 0.243421
vt 0.865385 0.098684
s 0
usemtl mFD_Dungeon
f 1/1/1 2/2/1 4/3/1 3/4/1
f 12/5/1 6/6/1 5/7/1 11/8/1
f 10/9/1 16/10/1 13/5/1 7/11/1
f 14/12/2 8/13/2 9/14/2 15/15/2
f 19/12/3 20/15/3 18/14/3 17/13/3
f 24/9/1 28/10/1 25/5/1 21/11/1
f 26/12/2 22/13/2 23/14/2 27/15/2
f 31/12/3 32/15/3 30/14/3 29/13/3
f 36/9/1 40/10/1 37/5/1 33/11/1
f 38/12/4 34/13/4 35/14/4 39/15/4
f 43/12/5 44/15/5 42/14/5 41/13/5
f 47/12/2 48/16/2 46/17/2 45/13/2
f 51/12/3 49/13/3 50/17/3 52/16/3
f 55/12/4 56/16/4 54/17/4 53/13/4
f 59/12/4 60/16/4 58/17/4 57/13/4
f 64/18/5 63/19/5 61/20/5 62/21/5
f 68/18/4 66/21/4 65/20/4 67/19/4
f 71/22/2 72/23/2 70/24/2 69/25/2
f 75/22/3 73/25/3 74/24/3 76/23/3
f 84/5/6 83/8/6 77/7/6 78/6/6
f 82/9/6 79/11/6 85/5/6 88/10/6
f 86/12/3 87/15/3 81/14/3 80/13/3
f 91/12/2 89/13/2 90/14/2 92/15/2
f 96/9/6 93/11/6 97/5/6 100/10/6
f 98/12/3 99/15/3 95/14/3 94/13/3
f 103/12/2 101/13/2 102/14/2 104/15/2
f 108/9/6 105/11/6 109/5/6 112/10/6
f 110/12/4 106/13/4 107/14/4 111/15/4
f 115/12/5 116/15/5 114/14/5 113/13/5
f 119/12/3 117/13/3 118/17/3 120/16/3
f 123/12/2 124/16/2 122/17/2 121/13/2
f 127/12/4 128/16/4 126/17/4 125/13/4
f 131/12/4 132/16/4 130/17/4 129/13/4
f 136/18/5 135/19/5 133/20/5 134/21/5
f 140/18/4 138/21/4 137/20/4 139/19/4
f 143/22/3 141/25/3 142/24/3 144/23/3
f 147/22/2 148/23/2 146/24/2 145/25/2
f 149/1/6 151/4/6 152/3/6 150/2/6
f 153/26/5 154/27/5 156/3/5 155/4/5
f 157/26/4 159/4/4 160/3/4 158/27/4
f 161/28/2 162/2/2 164/3/2 163/29/2
f 165/1/3 167/4/3 168/30/3 166/31/3
