# Blender 4.0.2
# www.blender.org
mtllib Flag_15.mtl
o Flag_15
v 0.448063 0.000000 -0.000000
v -0.448063 0.000000 0.000000
v 0.448063 -0.062500 -0.000000
v 0.448063 -0.125000 -0.000000
v 0.448063 -0.187500 -0.000000
v 0.448063 -0.250000 -0.000000
v 0.448063 -0.312500 -0.000000
v 0.448063 -0.375000 -0.000000
v 0.448063 -0.437500 -0.000000
v 0.448063 -0.500000 -0.000000
v 0.448063 -0.562500 -0.000000
v -0.448063 -0.750000 0.000000
v -0.448063 -0.687500 0.000000
v -0.448063 -0.625000 0.000000
v -0.448063 -0.562500 0.000000
v -0.448063 -0.500000 0.000000
v -0.448063 -0.437500 0.000000
v -0.448063 -0.375000 0.000000
v -0.448063 -0.312500 0.000000
v -0.448063 -0.250000 0.000000
v -0.448063 -0.187500 0.000000
v -0.448063 -0.125000 0.000000
v -0.448063 -0.062500 0.000000
v 0.128018 -1.000000 -0.000000
v 0.064009 -1.000000 0.000000
v -0.128018 -1.000000 0.000000
v -0.192027 -1.000000 0.000000
v -0.384054 0.000000 0.000000
v -0.320045 0.000000 0.000000
v -0.256036 0.000000 0.000000
v -0.192027 0.000000 0.000000
v -0.128018 0.000000 0.000000
v -0.064009 0.000000 -0.000000
v -0.000000 0.000000 -0.000000
v 0.064009 0.000000 -0.000000
v 0.128018 0.000000 -0.000000
v 0.192027 0.000000 -0.000000
v 0.256036 0.000000 -0.000000
v 0.320045 0.000000 -0.000000
v 0.384054 0.000000 -0.000000
v -0.192027 -0.937500 0.000000
v -0.128018 -0.937500 0.000000
v -0.064009 -0.937500 0.000000
v 0.064009 -0.937500 -0.000000
v 0.128018 -0.937500 -0.000000
v 0.192027 -0.937500 -0.000000
v 0.256036 -0.937500 -0.000000
v -0.320045 -0.875000 0.000000
v -0.256036 -0.875000 0.000000
v -0.192027 -0.875000 0.000000
v -0.128018 -0.875000 0.000000
v -0.064009 -0.875000 0.000000
v 0.064009 -0.875000 -0.000000
v 0.128018 -0.875000 -0.000000
v 0.192027 -0.875000 -0.000000
v 0.256036 -0.875000 -0.000000
v -0.320045 -0.812500 0.000000
v -0.256036 -0.812500 0.000000
v -0.192027 -0.812500 0.000000
v -0.128018 -0.812500 0.000000
v -0.064009 -0.812500 0.000000
v 0.064009 -0.812500 -0.000000
v 0.128018 -0.812500 -0.000000
v 0.192027 -0.812500 -0.000000
v 0.256036 -0.812500 -0.000000
v 0.320045 -0.812500 -0.000000
v 0.384054 -0.812500 -0.000000
v -0.384054 -0.750000 0.000000
v -0.320045 -0.750000 0.000000
v -0.256036 -0.750000 0.000000
v -0.192027 -0.750000 0.000000
v -0.128018 -0.750000 0.000000
v -0.064009 -0.750000 0.000000
v -0.000000 -0.750000 0.000000
v 0.064009 -0.750000 -0.000000
v 0.128018 -0.750000 -0.000000
v 0.192027 -0.750000 -0.000000
v 0.256036 -0.750000 -0.000000
v 0.320045 -0.750000 -0.000000
v 0.384054 -0.750000 -0.000000
v -0.384054 -0.687500 0.000000
v -0.320045 -0.687500 0.000000
v -0.256036 -0.687500 0.000000
v -0.192027 -0.687500 0.000000
v -0.128018 -0.687500 0.000000
v -0.064009 -0.687500 0.000000
v -0.000000 -0.687500 0.000000
v 0.064009 -0.687500 -0.000000
v 0.128018 -0.687500 -0.000000
v 0.192027 -0.687500 -0.000000
v 0.256036 -0.687500 -0.000000
v 0.320045 -0.687500 -0.000000
v 0.384054 -0.687500 -0.000000
v -0.384054 -0.625000 0.000000
v -0.320045 -0.625000 0.000000
v -0.256036 -0.625000 0.000000
v -0.192027 -0.625000 0.000000
v -0.128018 -0.625000 0.000000
v -0.064009 -0.625000 0.000000
v -0.000000 -0.625000 0.000000
v 0.064009 -0.625000 -0.000000
v 0.128018 -0.625000 -0.000000
v 0.192027 -0.625000 -0.000000
v 0.256036 -0.625000 -0.000000
v 0.320045 -0.625000 -0.000000
v 0.384054 -0.625000 -0.000000
v -0.384054 -0.562500 0.000000
v -0.320045 -0.562500 0.000000
v -0.256036 -0.562500 0.000000
v -0.192027 -0.562500 0.000000
v -0.128018 -0.562500 0.000000
v -0.064009 -0.562500 0.000000
v -0.000000 -0.562500 0.000000
v 0.064009 -0.562500 -0.000000
v 0.128018 -0.562500 -0.000000
v 0.192027 -0.562500 -0.000000
v 0.256036 -0.562500 -0.000000
v 0.320045 -0.562500 -0.000000
v 0.384054 -0.562500 -0.000000
v -0.384054 -0.500000 0.000000
v -0.320045 -0.500000 0.000000
v -0.256036 -0.500000 0.000000
v -0.192027 -0.500000 0.000000
v -0.128018 -0.500000 0.000000
v -0.064009 -0.500000 0.000000
v -0.000000 -0.500000 0.000000
v 0.064009 -0.500000 -0.000000
v 0.128018 -0.500000 -0.000000
v 0.192027 -0.500000 -0.000000
v 0.256036 -0.500000 -0.000000
v 0.320045 -0.500000 -0.000000
v 0.384054 -0.500000 -0.000000
v -0.384054 -0.437500 0.000000
v -0.320045 -0.437500 0.000000
v -0.256036 -0.437500 0.000000
v -0.192027 -0.437500 0.000000
v -0.128018 -0.437500 0.000000
v -0.064009 -0.437500 0.000000
v -0.000000 -0.437500 -0.000000
v 0.064009 -0.437500 -0.000000
v 0.128018 -0.437500 -0.000000
v 0.192027 -0.437500 -0.000000
v 0.256036 -0.437500 -0.000000
v 0.320045 -0.437500 -0.000000
v 0.384054 -0.437500 -0.000000
v -0.384054 -0.375000 0.000000
v -0.320045 -0.375000 0.000000
v -0.256036 -0.375000 0.000000
v -0.192027 -0.375000 0.000000
v -0.128018 -0.375000 0.000000
v -0.064009 -0.375000 0.000000
v -0.000000 -0.375000 -0.000000
v 0.064009 -0.375000 -0.000000
v 0.128018 -0.375000 -0.000000
v 0.192027 -0.375000 -0.000000
v 0.256036 -0.375000 -0.000000
v 0.320045 -0.375000 -0.000000
v 0.384054 -0.375000 -0.000000
v -0.384054 -0.312500 0.000000
v -0.320045 -0.312500 0.000000
v -0.256036 -0.312500 0.000000
v -0.192027 -0.312500 0.000000
v -0.128018 -0.312500 0.000000
v -0.064009 -0.312500 0.000000
v -0.000000 -0.312500 -0.000000
v 0.064009 -0.312500 -0.000000
v 0.128018 -0.312500 -0.000000
v 0.192027 -0.312500 -0.000000
v 0.256036 -0.312500 -0.000000
v 0.320045 -0.312500 -0.000000
v 0.384054 -0.312500 -0.000000
v -0.384054 -0.250000 0.000000
v -0.320045 -0.250000 0.000000
v -0.256036 -0.250000 0.000000
v -0.192027 -0.250000 0.000000
v -0.128018 -0.250000 0.000000
v -0.064009 -0.250000 0.000000
v -0.000000 -0.250000 -0.000000
v 0.064009 -0.250000 -0.000000
v 0.128018 -0.250000 -0.000000
v 0.192027 -0.250000 -0.000000
v 0.256036 -0.250000 -0.000000
v 0.320045 -0.250000 -0.000000
v 0.384054 -0.250000 -0.000000
v -0.384054 -0.187500 0.000000
v -0.320045 -0.187500 0.000000
v -0.256036 -0.187500 0.000000
v -0.192027 -0.187500 0.000000
v -0.128018 -0.187500 0.000000
v -0.064009 -0.187500 0.000000
v -0.000000 -0.187500 -0.000000
v 0.064009 -0.187500 -0.000000
v 0.128018 -0.187500 -0.000000
v 0.192027 -0.187500 -0.000000
v 0.256036 -0.187500 -0.000000
v 0.320045 -0.187500 -0.000000
v 0.384054 -0.187500 -0.000000
v -0.384054 -0.125000 0.000000
v -0.320045 -0.125000 0.000000
v -0.256036 -0.125000 0.000000
v -0.192027 -0.125000 0.000000
v -0.128018 -0.125000 0.000000
v -0.064009 -0.125000 0.000000
v -0.000000 -0.125000 -0.000000
v 0.064009 -0.125000 -0.000000
v 0.128018 -0.125000 -0.000000
v 0.192027 -0.125000 -0.000000
v 0.256036 -0.125000 -0.000000
v 0.320045 -0.125000 -0.000000
v 0.384054 -0.125000 -0.000000
v -0.384054 -0.062500 0.000000
v -0.320045 -0.062500 0.000000
v -0.256036 -0.062500 0.000000
v -0.192027 -0.062500 0.000000
v -0.128018 -0.062500 0.000000
v -0.064009 -0.062500 0.000000
v -0.000000 -0.062500 -0.000000
v 0.064009 -0.062500 -0.000000
v 0.128018 -0.062500 -0.000000
v 0.192027 -0.062500 -0.000000
v 0.256036 -0.062500 -0.000000
v 0.320045 -0.062500 -0.000000
v 0.384054 -0.062500 -0.000000
vn -0.0000 -0.0000 1.0000
vt 0.634615 0.328947
vt 0.634615 0.335526
vt 0.641026 0.335526
vt 0.641026 0.328947
vt 0.634615 0.256579
vt 0.634615 0.263158
vt 0.641026 0.263158
vt 0.641026 0.256579
vt 0.634615 0.269737
vt 0.641026 0.269737
vt 0.634615 0.276316
vt 0.641026 0.276316
vt 0.634615 0.282895
vt 0.641026 0.282895
vt 0.634615 0.289474
vt 0.641026 0.289474
vt 0.634615 0.296053
vt 0.641026 0.296053
vt 0.634615 0.302632
vt 0.641026 0.302632
vt 0.634615 0.309211
vt 0.641026 0.309211
vt 0.634615 0.315789
vt 0.641026 0.315789
vt 0.634615 0.322368
vt 0.641026 0.322368
vt 0.551282 0.322368
vt 0.551282 0.328947
vt 0.557692 0.328947
vt 0.557692 0.322368
vt 0.564103 0.328947
vt 0.564103 0.322368
vt 0.570513 0.328947
vt 0.570513 0.322368
vt 0.576923 0.328947
vt 0.576923 0.322368
vt 0.583333 0.328947
vt 0.583333 0.322368
vt 0.589744 0.328947
vt 0.589744 0.322368
vt 0.596154 0.328947
vt 0.596154 0.322368
vt 0.602564 0.328947
vt 0.602564 0.322368
vt 0.608974 0.328947
vt 0.608974 0.322368
vt 0.615385 0.328947
vt 0.615385 0.322368
vt 0.621795 0.328947
vt 0.621795 0.322368
vt 0.628205 0.328947
vt 0.628205 0.322368
vt 0.551282 0.315789
vt 0.557692 0.315789
vt 0.564103 0.315789
vt 0.570513 0.315789
vt 0.576923 0.315789
vt 0.583333 0.315789
vt 0.589744 0.315789
vt 0.596154 0.315789
vt 0.602564 0.315789
vt 0.608974 0.315789
vt 0.615385 0.315789
vt 0.621795 0.315789
vt 0.628205 0.315789
vt 0.551282 0.309211
vt 0.557692 0.309211
vt 0.564103 0.309211
vt 0.570513 0.309211
vt 0.576923 0.309211
vt 0.583333 0.309211
vt 0.589744 0.309211
vt 0.596154 0.309211
vt 0.602564 0.309211
vt 0.608974 0.309211
vt 0.615385 0.309211
vt 0.621795 0.309211
vt 0.628205 0.309211
vt 0.551282 0.302632
vt 0.557692 0.302632
vt 0.564103 0.302632
vt 0.570513 0.302632
vt 0.576923 0.302632
vt 0.583333 0.302632
vt 0.589744 0.302632
vt 0.596154 0.302632
vt 0.602564 0.302632
vt 0.608974 0.302632
vt 0.615385 0.302632
vt 0.621795 0.302632
vt 0.628205 0.302632
vt 0.551282 0.296053
vt 0.557692 0.296053
vt 0.564103 0.296053
vt 0.570513 0.296053
vt 0.576923 0.296053
vt 0.583333 0.296053
vt 0.589744 0.296053
vt 0.596154 0.296053
vt 0.602564 0.296053
vt 0.608974 0.296053
vt 0.615385 0.296053
vt 0.621795 0.296053
vt 0.628205 0.296053
vt 0.551282 0.289474
vt 0.557692 0.289474
vt 0.564103 0.289474
vt 0.570513 0.289474
vt 0.576923 0.289474
vt 0.583333 0.289474
vt 0.589744 0.289474
vt 0.596154 0.289474
vt 0.602564 0.289474
vt 0.608974 0.289474
vt 0.615385 0.289474
vt 0.621795 0.289474
vt 0.628205 0.289474
vt 0.551282 0.282895
vt 0.557692 0.282895
vt 0.564103 0.282895
vt 0.570513 0.282895
vt 0.576923 0.282895
vt 0.583333 0.282895
vt 0.589744 0.282895
vt 0.596154 0.282895
vt 0.602564 0.282895
vt 0.608974 0.282895
vt 0.615385 0.282895
vt 0.621795 0.282895
vt 0.628205 0.282895
vt 0.551282 0.276316
vt 0.557692 0.276316
vt 0.564103 0.276316
vt 0.570513 0.276316
vt 0.576923 0.276316
vt 0.583333 0.276316
vt 0.589744 0.276316
vt 0.596154 0.276316
vt 0.602564 0.276316
vt 0.608974 0.276316
vt 0.615385 0.276316
vt 0.621795 0.276316
vt 0.628205 0.276316
vt 0.557692 0.269737
vt 0.564103 0.269737
vt 0.570513 0.269737
vt 0.576923 0.269737
vt 0.583333 0.269737
vt 0.589744 0.269737
vt 0.596154 0.269737
vt 0.602564 0.269737
vt 0.608974 0.269737
vt 0.615385 0.269737
vt 0.621795 0.269737
vt 0.628205 0.269737
vt 0.557692 0.263158
vt 0.564103 0.263158
vt 0.570513 0.263158
vt 0.576923 0.263158
vt 0.583333 0.263158
vt 0.589744 0.263158
vt 0.596154 0.263158
vt 0.602564 0.263158
vt 0.608974 0.263158
vt 0.615385 0.263158
vt 0.621795 0.263158
vt 0.628205 0.263158
vt 0.557692 0.256579
vt 0.564103 0.256579
vt 0.570513 0.256579
vt 0.576923 0.256579
vt 0.583333 0.256579
vt 0.589744 0.256579
vt 0.596154 0.256579
vt 0.602564 0.256579
vt 0.608974 0.256579
vt 0.615385 0.256579
vt 0.621795 0.256579
vt 0.628205 0.256579
vt 0.557692 0.250000
vt 0.564103 0.250000
vt 0.570513 0.250000
vt 0.576923 0.250000
vt 0.583333 0.250000
vt 0.589744 0.250000
vt 0.602564 0.250000
vt 0.608974 0.250000
vt 0.615385 0.250000
vt 0.621795 0.250000
vt 0.628205 0.250000
vt 0.570513 0.243421
vt 0.576923 0.243421
vt 0.583333 0.243421
vt 0.589744 0.243421
vt 0.602564 0.243421
vt 0.608974 0.243421
vt 0.615385 0.243421
vt 0.621795 0.243421
vt 0.628205 0.243421
vt 0.570513 0.236842
vt 0.576923 0.236842
vt 0.583333 0.236842
vt 0.589744 0.236842
vt 0.602564 0.236842
vt 0.608974 0.236842
vt 0.615385 0.236842
vt 0.583333 0.230263
vt 0.589744 0.230263
vt 0.608974 0.230263
vt 0.615385 0.230263
vt 0.551282 0.335526
vt 0.557692 0.335526
vt 0.564103 0.335526
vt 0.570513 0.335526
vt 0.576923 0.335526
vt 0.583333 0.335526
vt 0.589744 0.335526
vt 0.596154 0.335526
vt 0.602564 0.335526
vt 0.608974 0.335526
vt 0.615385 0.335526
vt 0.621795 0.335526
vt 0.628205 0.335526
s 0
usemtl mFD_Dungeon
f 211/1/1 28/2/1 2/3/1 23/4/1
f 68/5/1 81/6/1 13/7/1 12/8/1
f 81/6/1 94/9/1 14/10/1 13/7/1
f 94/9/1 107/11/1 15/12/1 14/10/1
f 107/11/1 120/13/1 16/14/1 15/12/1
f 120/13/1 133/15/1 17/16/1 16/14/1
f 133/15/1 146/17/1 18/18/1 17/16/1
f 146/17/1 159/19/1 19/20/1 18/18/1
f 159/19/1 172/21/1 20/22/1 19/20/1
f 172/21/1 185/23/1 21/24/1 20/22/1
f 185/23/1 198/25/1 22/26/1 21/24/1
f 198/25/1 211/1/1 23/4/1 22/26/1
f 4/27/1 3/28/1 223/29/1 210/30/1
f 210/30/1 223/29/1 222/31/1 209/32/1
f 209/32/1 222/31/1 221/33/1 208/34/1
f 208/34/1 221/33/1 220/35/1 207/36/1
f 207/36/1 220/35/1 219/37/1 206/38/1
f 206/38/1 219/37/1 218/39/1 205/40/1
f 205/40/1 218/39/1 217/41/1 204/42/1
f 204/42/1 217/41/1 216/43/1 203/44/1
f 203/44/1 216/43/1 215/45/1 202/46/1
f 202/46/1 215/45/1 214/47/1 201/48/1
f 201/48/1 214/47/1 213/49/1 200/50/1
f 200/50/1 213/49/1 212/51/1 199/52/1
f 199/52/1 212/51/1 211/1/1 198/25/1
f 5/53/1 4/27/1 210/30/1 197/54/1
f 197/54/1 210/30/1 209/32/1 196/55/1
f 196/55/1 209/32/1 208/34/1 195/56/1
f 195/56/1 208/34/1 207/36/1 194/57/1
f 194/57/1 207/36/1 206/38/1 193/58/1
f 193/58/1 206/38/1 205/40/1 192/59/1
f 192/59/1 205/40/1 204/42/1 191/60/1
f 191/60/1 204/42/1 203/44/1 190/61/1
f 190/61/1 203/44/1 202/46/1 189/62/1
f 189/62/1 202/46/1 201/48/1 188/63/1
f 188/63/1 201/48/1 200/50/1 187/64/1
f 187/64/1 200/50/1 199/52/1 186/65/1
f 186/65/1 199/52/1 198/25/1 185/23/1
f 6/66/1 5/53/1 197/54/1 184/67/1
f 184/67/1 197/54/1 196/55/1 183/68/1
f 183/68/1 196/55/1 195/56/1 182/69/1
f 182/69/1 195/56/1 194/57/1 181/70/1
f 181/70/1 194/57/1 193/58/1 180/71/1
f 180/71/1 193/58/1 192/59/1 179/72/1
f 179/72/1 192/59/1 191/60/1 178/73/1
f 178/73/1 191/60/1 190/61/1 177/74/1
f 177/74/1 190/61/1 189/62/1 176/75/1
f 176/75/1 189/62/1 188/63/1 175/76/1
f 175/76/1 188/63/1 187/64/1 174/77/1
f 174/77/1 187/64/1 186/65/1 173/78/1
f 173/78/1 186/65/1 185/23/1 172/21/1
f 7/79/1 6/66/1 184/67/1 171/80/1
f 171/80/1 184/67/1 183/68/1 170/81/1
f 170/81/1 183/68/1 182/69/1 169/82/1
f 169/82/1 182/69/1 181/70/1 168/83/1
f 168/83/1 181/70/1 180/71/1 167/84/1
f 167/84/1 180/71/1 179/72/1 166/85/1
f 166/85/1 179/72/1 178/73/1 165/86/1
f 165/86/1 178/73/1 177/74/1 164/87/1
f 164/87/1 177/74/1 176/75/1 163/88/1
f 163/88/1 176/75/1 175/76/1 162/89/1
f 162/89/1 175/76/1 174/77/1 161/90/1
f 161/90/1 174/77/1 173/78/1 160/91/1
f 160/91/1 173/78/1 172/21/1 159/19/1
f 8/92/1 7/79/1 171/80/1 158/93/1
f 158/93/1 171/80/1 170/81/1 157/94/1
f 157/94/1 170/81/1 169/82/1 156/95/1
f 156/95/1 169/82/1 168/83/1 155/96/1
f 155/96/1 168/83/1 167/84/1 154/97/1
f 154/97/1 167/84/1 166/85/1 153/98/1
f 153/98/1 166/85/1 165/86/1 152/99/1
f 152/99/1 165/86/1 164/87/1 151/100/1
f 151/100/1 164/87/1 163/88/1 150/101/1
f 150/101/1 163/88/1 162/89/1 149/102/1
f 149/102/1 162/89/1 161/90/1 148/103/1
f 148/103/1 161/90/1 160/91/1 147/104/1
f 147/104/1 160/91/1 159/19/1 146/17/1
f 9/105/1 8/92/1 158/93/1 145/106/1
f 145/106/1 158/93/1 157/94/1 144/107/1
f 144/107/1 157/94/1 156/95/1 143/108/1
f 143/108/1 156/95/1 155/96/1 142/109/1
f 142/109/1 155/96/1 154/97/1 141/110/1
f 141/110/1 154/97/1 153/98/1 140/111/1
f 140/111/1 153/98/1 152/99/1 139/112/1
f 139/112/1 152/99/1 151/100/1 138/113/1
f 138/113/1 151/100/1 150/101/1 137/114/1
f 137/114/1 150/101/1 149/102/1 136/115/1
f 136/115/1 149/102/1 148/103/1 135/116/1
f 135/116/1 148/103/1 147/104/1 134/117/1
f 134/117/1 147/104/1 146/17/1 133/15/1
f 10/118/1 9/105/1 145/106/1 132/119/1
f 132/119/1 145/106/1 144/107/1 131/120/1
f 131/120/1 144/107/1 143/108/1 130/121/1
f 130/121/1 143/108/1 142/109/1 129/122/1
f 129/122/1 142/109/1 141/110/1 128/123/1
f 128/123/1 141/110/1 140/111/1 127/124/1
f 127/124/1 140/111/1 139/112/1 126/125/1
f 126/125/1 139/112/1 138/113/1 125/126/1
f 125/126/1 138/113/1 137/114/1 124/127/1
f 124/127/1 137/114/1 136/115/1 123/128/1
f 123/128/1 136/115/1 135/116/1 122/129/1
f 122/129/1 135/116/1 134/117/1 121/130/1
f 121/130/1 134/117/1 133/15/1 120/13/1
f 11/131/1 10/118/1 132/119/1 119/132/1
f 119/132/1 132/119/1 131/120/1 118/133/1
f 118/133/1 131/120/1 130/121/1 117/134/1
f 117/134/1 130/121/1 129/122/1 116/135/1
f 116/135/1 129/122/1 128/123/1 115/136/1
f 115/136/1 128/123/1 127/124/1 114/137/1
f 114/137/1 127/124/1 126/125/1 113/138/1
f 113/138/1 126/125/1 125/126/1 112/139/1
f 112/139/1 125/126/1 124/127/1 111/140/1
f 111/140/1 124/127/1 123/128/1 110/141/1
f 110/141/1 123/128/1 122/129/1 109/142/1
f 109/142/1 122/129/1 121/130/1 108/143/1
f 106/144/1 119/132/1 118/133/1 105/145/1
f 105/145/1 118/133/1 117/134/1 104/146/1
f 104/146/1 117/134/1 116/135/1 103/147/1
f 103/147/1 116/135/1 115/136/1 102/148/1
f 102/148/1 115/136/1 114/137/1 101/149/1
f 101/149/1 114/137/1 113/138/1 100/150/1
f 100/150/1 113/138/1 112/139/1 99/151/1
f 99/151/1 112/139/1 111/140/1 98/152/1
f 98/152/1 111/140/1 110/141/1 97/153/1
f 97/153/1 110/141/1 109/142/1 96/154/1
f 96/154/1 109/142/1 108/143/1 95/155/1
f 93/156/1 106/144/1 105/145/1 92/157/1
f 92/157/1 105/145/1 104/146/1 91/158/1
f 91/158/1 104/146/1 103/147/1 90/159/1
f 90/159/1 103/147/1 102/148/1 89/160/1
f 89/160/1 102/148/1 101/149/1 88/161/1
f 88/161/1 101/149/1 100/150/1 87/162/1
f 86/163/1 99/151/1 98/152/1 85/164/1
f 85/164/1 98/152/1 97/153/1 84/165/1
f 84/165/1 97/153/1 96/154/1 83/166/1
f 83/166/1 96/154/1 95/155/1 82/167/1
f 80/168/1 93/156/1 92/157/1 79/169/1
f 79/169/1 92/157/1 91/158/1 78/170/1
f 78/170/1 91/158/1 90/159/1 77/171/1
f 77/171/1 90/159/1 89/160/1 76/172/1
f 76/172/1 89/160/1 88/161/1 75/173/1
f 75/173/1 88/161/1 87/162/1 74/174/1
f 73/175/1 86/163/1 85/164/1 72/176/1
f 72/176/1 85/164/1 84/165/1 71/177/1
f 70/178/1 83/166/1 82/167/1 69/179/1
f 67/180/1 80/168/1 79/169/1 66/181/1
f 65/182/1 78/170/1 77/171/1 64/183/1
f 64/183/1 77/171/1 76/172/1 63/184/1
f 63/184/1 76/172/1 75/173/1 62/185/1
f 61/186/1 73/175/1 72/176/1 60/187/1
f 60/187/1 72/176/1 71/177/1 59/188/1
f 58/189/1 70/178/1 69/179/1 57/190/1
f 56/191/1 65/182/1 64/183/1 55/192/1
f 54/193/1 63/184/1 62/185/1 53/194/1
f 52/195/1 61/186/1 60/187/1 51/196/1
f 51/196/1 60/187/1 59/188/1 50/197/1
f 49/198/1 58/189/1 57/190/1 48/199/1
f 47/200/1 56/191/1 55/192/1 46/201/1
f 45/202/1 54/193/1 53/194/1 44/203/1
f 43/204/1 52/195/1 51/196/1 42/205/1
f 42/205/1 51/196/1 50/197/1 41/206/1
f 24/207/1 45/202/1 44/203/1 25/208/1
f 26/209/1 42/205/1 41/206/1 27/210/1
f 3/28/1 1/211/1 40/212/1 223/29/1
f 223/29/1 40/212/1 39/213/1 222/31/1
f 222/31/1 39/213/1 38/214/1 221/33/1
f 221/33/1 38/214/1 37/215/1 220/35/1
f 220/35/1 37/215/1 36/216/1 219/37/1
f 219/37/1 36/216/1 35/217/1 218/39/1
f 218/39/1 35/217/1 34/218/1 217/41/1
f 217/41/1 34/218/1 33/219/1 216/43/1
f 216/43/1 33/219/1 32/220/1 215/45/1
f 215/45/1 32/220/1 31/221/1 214/47/1
f 214/47/1 31/221/1 30/222/1 213/49/1
f 213/49/1 30/222/1 29/223/1 212/51/1
f 212/51/1 29/223/1 28/2/1 211/1/1
