# Blender 4.0.2
# www.blender.org
mtllib Flag_11.mtl
o Flag_11
v 0.448063 0.000000 -0.000000
v -0.448063 0.000000 0.000000
v 0.448063 -0.062500 -0.000000
v 0.448063 -0.125000 -0.000000
v 0.448063 -0.187500 -0.000000
v 0.448063 -0.250000 -0.000000
v 0.448063 -0.312500 -0.000000
v 0.448063 -0.375000 -0.000000
v 0.448063 -0.437500 -0.000000
v 0.448063 -0.500000 -0.000000
v -0.448063 -0.750000 0.000000
v -0.448063 -0.687500 0.000000
v -0.448063 -0.625000 0.000000
v -0.448063 -0.562500 0.000000
v -0.448063 -0.500000 0.000000
v -0.448063 -0.437500 0.000000
v -0.448063 -0.375000 0.000000
v -0.448063 -0.312500 0.000000
v -0.448063 -0.250000 0.000000
v -0.448063 -0.187500 0.000000
v -0.448063 -0.125000 0.000000
v -0.448063 -0.062500 0.000000
v 0.128018 -1.000000 -0.000000
v 0.064009 -1.000000 0.000000
v -0.128018 -1.000000 0.000000
v -0.192027 -1.000000 0.000000
v -0.384054 0.000000 0.000000
v -0.320045 0.000000 0.000000
v -0.256036 0.000000 0.000000
v -0.192027 0.000000 0.000000
v -0.128018 0.000000 0.000000
v -0.064009 0.000000 -0.000000
v -0.000000 0.000000 -0.000000
v 0.064009 0.000000 -0.000000
v 0.128018 0.000000 -0.000000
v 0.192027 0.000000 -0.000000
v 0.256036 0.000000 -0.000000
v 0.320045 0.000000 -0.000000
v 0.384054 0.000000 -0.000000
v -0.192027 -0.937500 0.000000
v -0.128018 -0.937500 0.000000
v 0.064009 -0.937500 -0.000000
v 0.128018 -0.937500 -0.000000
v 0.192027 -0.937500 -0.000000
v 0.256036 -0.937500 -0.000000
v -0.192027 -0.875000 0.000000
v -0.128018 -0.875000 0.000000
v -0.064009 -0.875000 0.000000
v -0.000000 -0.875000 0.000000
v 0.064009 -0.875000 -0.000000
v 0.128018 -0.875000 -0.000000
v 0.192027 -0.875000 -0.000000
v 0.256036 -0.875000 -0.000000
v -0.320045 -0.812500 0.000000
v -0.256036 -0.812500 0.000000
v -0.192027 -0.812500 0.000000
v -0.128018 -0.812500 0.000000
v -0.064009 -0.812500 0.000000
v -0.000000 -0.812500 0.000000
v 0.064009 -0.812500 -0.000000
v 0.128018 -0.812500 -0.000000
v 0.192027 -0.812500 -0.000000
v 0.256036 -0.812500 -0.000000
v 0.320045 -0.812500 -0.000000
v 0.384054 -0.812500 -0.000000
v -0.384054 -0.750000 0.000000
v -0.320045 -0.750000 0.000000
v -0.256036 -0.750000 0.000000
v -0.192027 -0.750000 0.000000
v -0.128018 -0.750000 0.000000
v -0.064009 -0.750000 0.000000
v -0.000000 -0.750000 0.000000
v 0.064009 -0.750000 -0.000000
v 0.128018 -0.750000 -0.000000
v 0.192027 -0.750000 -0.000000
v 0.256036 -0.750000 -0.000000
v 0.320045 -0.750000 -0.000000
v 0.384054 -0.750000 -0.000000
v -0.384054 -0.687500 0.000000
v -0.320045 -0.687500 0.000000
v -0.256036 -0.687500 0.000000
v -0.192027 -0.687500 0.000000
v -0.128018 -0.687500 0.000000
v -0.064009 -0.687500 0.000000
v -0.000000 -0.687500 0.000000
v 0.064009 -0.687500 -0.000000
v 0.128018 -0.687500 -0.000000
v 0.192027 -0.687500 -0.000000
v 0.256036 -0.687500 -0.000000
v 0.320045 -0.687500 -0.000000
v 0.384054 -0.687500 -0.000000
v -0.384054 -0.625000 0.000000
v -0.320045 -0.625000 0.000000
v -0.256036 -0.625000 0.000000
v -0.192027 -0.625000 0.000000
v -0.128018 -0.625000 0.000000
v -0.064009 -0.625000 0.000000
v -0.000000 -0.625000 0.000000
v 0.064009 -0.625000 -0.000000
v 0.128018 -0.625000 -0.000000
v 0.192027 -0.625000 -0.000000
v 0.256036 -0.625000 -0.000000
v 0.320045 -0.625000 -0.000000
v 0.384054 -0.625000 -0.000000
v -0.384054 -0.562500 0.000000
v -0.320045 -0.562500 0.000000
v -0.256036 -0.562500 0.000000
v -0.192027 -0.562500 0.000000
v -0.128018 -0.562500 0.000000
v -0.064009 -0.562500 0.000000
v -0.000000 -0.562500 0.000000
v 0.064009 -0.562500 -0.000000
v 0.128018 -0.562500 -0.000000
v 0.192027 -0.562500 -0.000000
v 0.256036 -0.562500 -0.000000
v 0.320045 -0.562500 -0.000000
v 0.384054 -0.562500 -0.000000
v -0.384054 -0.500000 0.000000
v -0.320045 -0.500000 0.000000
v -0.256036 -0.500000 0.000000
v -0.192027 -0.500000 0.000000
v -0.128018 -0.500000 0.000000
v -0.064009 -0.500000 0.000000
v -0.000000 -0.500000 0.000000
v 0.064009 -0.500000 -0.000000
v 0.128018 -0.500000 -0.000000
v 0.192027 -0.500000 -0.000000
v 0.256036 -0.500000 -0.000000
v 0.320045 -0.500000 -0.000000
v 0.384054 -0.500000 -0.000000
v -0.384054 -0.437500 0.000000
v -0.320045 -0.437500 0.000000
v -0.256036 -0.437500 0.000000
v -0.192027 -0.437500 0.000000
v -0.128018 -0.437500 0.000000
v -0.064009 -0.437500 0.000000
v -0.000000 -0.437500 -0.000000
v 0.064009 -0.437500 -0.000000
v 0.128018 -0.437500 -0.000000
v 0.192027 -0.437500 -0.000000
v 0.256036 -0.437500 -0.000000
v 0.320045 -0.437500 -0.000000
v 0.384054 -0.437500 -0.000000
v -0.384054 -0.375000 0.000000
v -0.320045 -0.375000 0.000000
v -0.256036 -0.375000 0.000000
v -0.192027 -0.375000 0.000000
v -0.128018 -0.375000 0.000000
v -0.064009 -0.375000 0.000000
v -0.000000 -0.375000 -0.000000
v 0.064009 -0.375000 -0.000000
v 0.128018 -0.375000 -0.000000
v 0.192027 -0.375000 -0.000000
v 0.256036 -0.375000 -0.000000
v 0.320045 -0.375000 -0.000000
v 0.384054 -0.375000 -0.000000
v -0.384054 -0.312500 0.000000
v -0.320045 -0.312500 0.000000
v -0.256036 -0.312500 0.000000
v -0.192027 -0.312500 0.000000
v -0.128018 -0.312500 0.000000
v -0.064009 -0.312500 0.000000
v -0.000000 -0.312500 -0.000000
v 0.064009 -0.312500 -0.000000
v 0.128018 -0.312500 -0.000000
v 0.192027 -0.312500 -0.000000
v 0.256036 -0.312500 -0.000000
v 0.320045 -0.312500 -0.000000
v 0.384054 -0.312500 -0.000000
v -0.384054 -0.250000 0.000000
v -0.320045 -0.250000 0.000000
v -0.256036 -0.250000 0.000000
v -0.192027 -0.250000 0.000000
v -0.128018 -0.250000 0.000000
v -0.064009 -0.250000 0.000000
v -0.000000 -0.250000 -0.000000
v 0.064009 -0.250000 -0.000000
v 0.128018 -0.250000 -0.000000
v 0.192027 -0.250000 -0.000000
v 0.256036 -0.250000 -0.000000
v 0.320045 -0.250000 -0.000000
v 0.384054 -0.250000 -0.000000
v -0.384054 -0.187500 0.000000
v -0.320045 -0.187500 0.000000
v -0.256036 -0.187500 0.000000
v -0.192027 -0.187500 0.000000
v -0.128018 -0.187500 0.000000
v -0.064009 -0.187500 0.000000
v -0.000000 -0.187500 -0.000000
v 0.064009 -0.187500 -0.000000
v 0.128018 -0.187500 -0.000000
v 0.192027 -0.187500 -0.000000
v 0.256036 -0.187500 -0.000000
v 0.320045 -0.187500 -0.000000
v 0.384054 -0.187500 -0.000000
v -0.384054 -0.125000 0.000000
v -0.320045 -0.125000 0.000000
v -0.256036 -0.125000 0.000000
v -0.192027 -0.125000 0.000000
v -0.128018 -0.125000 0.000000
v -0.064009 -0.125000 0.000000
v -0.000000 -0.125000 -0.000000
v 0.064009 -0.125000 -0.000000
v 0.128018 -0.125000 -0.000000
v 0.192027 -0.125000 -0.000000
v 0.256036 -0.125000 -0.000000
v 0.320045 -0.125000 -0.000000
v 0.384054 -0.125000 -0.000000
v -0.384054 -0.062500 0.000000
v -0.320045 -0.062500 0.000000
v -0.256036 -0.062500 0.000000
v -0.192027 -0.062500 0.000000
v -0.128018 -0.062500 0.000000
v -0.064009 -0.062500 0.000000
v -0.000000 -0.062500 -0.000000
v 0.064009 -0.062500 -0.000000
v 0.128018 -0.062500 -0.000000
v 0.192027 -0.062500 -0.000000
v 0.256036 -0.062500 -0.000000
v 0.320045 -0.062500 -0.000000
v 0.384054 -0.062500 -0.000000
vn -0.0000 -0.0000 1.0000
vt 0.442308 0.552632
vt 0.442308 0.559211
vt 0.448718 0.559211
vt 0.448718 0.552632
vt 0.442308 0.480263
vt 0.442308 0.486842
vt 0.448718 0.486842
vt 0.448718 0.480263
vt 0.442308 0.493421
vt 0.448718 0.493421
vt 0.442308 0.500000
vt 0.448718 0.500000
vt 0.442308 0.506579
vt 0.448718 0.506579
vt 0.442308 0.513158
vt 0.448718 0.513158
vt 0.442308 0.519737
vt 0.448718 0.519737
vt 0.442308 0.526316
vt 0.448718 0.526316
vt 0.442308 0.532895
vt 0.448718 0.532895
vt 0.442308 0.539474
vt 0.448718 0.539474
vt 0.442308 0.546053
vt 0.448718 0.546053
vt 0.358974 0.546053
vt 0.358974 0.552632
vt 0.365385 0.552632
vt 0.365385 0.546053
vt 0.371795 0.552632
vt 0.371795 0.546053
vt 0.378205 0.552632
vt 0.378205 0.546053
vt 0.384615 0.552632
vt 0.384615 0.546053
vt 0.391026 0.552632
vt 0.391026 0.546053
vt 0.397436 0.552632
vt 0.397436 0.546053
vt 0.403846 0.552632
vt 0.403846 0.546053
vt 0.410256 0.552632
vt 0.410256 0.546053
vt 0.416667 0.552632
vt 0.416667 0.546053
vt 0.423077 0.552632
vt 0.423077 0.546053
vt 0.429487 0.552632
vt 0.429487 0.546053
vt 0.435897 0.552632
vt 0.435897 0.546053
vt 0.358974 0.539474
vt 0.365385 0.539474
vt 0.371795 0.539474
vt 0.378205 0.539474
vt 0.384615 0.539474
vt 0.391026 0.539474
vt 0.397436 0.539474
vt 0.403846 0.539474
vt 0.410256 0.539474
vt 0.416667 0.539474
vt 0.423077 0.539474
vt 0.429487 0.539474
vt 0.435897 0.539474
vt 0.358974 0.532895
vt 0.365385 0.532895
vt 0.371795 0.532895
vt 0.378205 0.532895
vt 0.384615 0.532895
vt 0.391026 0.532895
vt 0.397436 0.532895
vt 0.403846 0.532895
vt 0.410256 0.532895
vt 0.416667 0.532895
vt 0.423077 0.532895
vt 0.429487 0.532895
vt 0.435897 0.532895
vt 0.358974 0.526316
vt 0.365385 0.526316
vt 0.371795 0.526316
vt 0.378205 0.526316
vt 0.384615 0.526316
vt 0.391026 0.526316
vt 0.397436 0.526316
vt 0.403846 0.526316
vt 0.410256 0.526316
vt 0.416667 0.526316
vt 0.423077 0.526316
vt 0.429487 0.526316
vt 0.435897 0.526316
vt 0.358974 0.519737
vt 0.365385 0.519737
vt 0.371795 0.519737
vt 0.378205 0.519737
vt 0.384615 0.519737
vt 0.391026 0.519737
vt 0.397436 0.519737
vt 0.403846 0.519737
vt 0.410256 0.519737
vt 0.416667 0.519737
vt 0.423077 0.519737
vt 0.429487 0.519737
vt 0.435897 0.519737
vt 0.358974 0.513158
vt 0.365385 0.513158
vt 0.371795 0.513158
vt 0.378205 0.513158
vt 0.384615 0.513158
vt 0.391026 0.513158
vt 0.397436 0.513158
vt 0.403846 0.513158
vt 0.410256 0.513158
vt 0.416667 0.513158
vt 0.423077 0.513158
vt 0.429487 0.513158
vt 0.435897 0.513158
vt 0.358974 0.506579
vt 0.365385 0.506579
vt 0.371795 0.506579
vt 0.378205 0.506579
vt 0.384615 0.506579
vt 0.391026 0.506579
vt 0.397436 0.506579
vt 0.403846 0.506579
vt 0.410256 0.506579
vt 0.416667 0.506579
vt 0.423077 0.506579
vt 0.429487 0.506579
vt 0.435897 0.506579
vt 0.365385 0.500000
vt 0.371795 0.500000
vt 0.378205 0.500000
vt 0.384615 0.500000
vt 0.391026 0.500000
vt 0.397436 0.500000
vt 0.403846 0.500000
vt 0.410256 0.500000
vt 0.416667 0.500000
vt 0.423077 0.500000
vt 0.429487 0.500000
vt 0.435897 0.500000
vt 0.365385 0.493421
vt 0.371795 0.493421
vt 0.378205 0.493421
vt 0.384615 0.493421
vt 0.391026 0.493421
vt 0.397436 0.493421
vt 0.403846 0.493421
vt 0.410256 0.493421
vt 0.416667 0.493421
vt 0.423077 0.493421
vt 0.429487 0.493421
vt 0.435897 0.493421
vt 0.365385 0.486842
vt 0.371795 0.486842
vt 0.378205 0.486842
vt 0.384615 0.486842
vt 0.391026 0.486842
vt 0.397436 0.486842
vt 0.403846 0.486842
vt 0.410256 0.486842
vt 0.416667 0.486842
vt 0.423077 0.486842
vt 0.429487 0.486842
vt 0.435897 0.486842
vt 0.365385 0.480263
vt 0.371795 0.480263
vt 0.378205 0.480263
vt 0.384615 0.480263
vt 0.391026 0.480263
vt 0.397436 0.480263
vt 0.403846 0.480263
vt 0.410256 0.480263
vt 0.416667 0.480263
vt 0.423077 0.480263
vt 0.429487 0.480263
vt 0.435897 0.480263
vt 0.365385 0.473684
vt 0.371795 0.473684
vt 0.378205 0.473684
vt 0.384615 0.473684
vt 0.391026 0.473684
vt 0.397436 0.473684
vt 0.403846 0.473684
vt 0.410256 0.473684
vt 0.416667 0.473684
vt 0.423077 0.473684
vt 0.429487 0.473684
vt 0.435897 0.473684
vt 0.378205 0.467105
vt 0.384615 0.467105
vt 0.391026 0.467105
vt 0.397436 0.467105
vt 0.403846 0.467105
vt 0.410256 0.467105
vt 0.416667 0.467105
vt 0.423077 0.467105
vt 0.378205 0.460526
vt 0.384615 0.460526
vt 0.391026 0.460526
vt 0.397436 0.460526
vt 0.416667 0.460526
vt 0.423077 0.460526
vt 0.391026 0.453947
vt 0.397436 0.453947
vt 0.416667 0.453947
vt 0.423077 0.453947
vt 0.358974 0.559211
vt 0.365385 0.559211
vt 0.371795 0.559211
vt 0.378205 0.559211
vt 0.384615 0.559211
vt 0.391026 0.559211
vt 0.397436 0.559211
vt 0.403846 0.559211
vt 0.410256 0.559211
vt 0.416667 0.559211
vt 0.423077 0.559211
vt 0.429487 0.559211
vt 0.435897 0.559211
s 0
usemtl mFD_Dungeon
f 209/1/1 27/2/1 2/3/1 22/4/1
f 66/5/1 79/6/1 12/7/1 11/8/1
f 79/6/1 92/9/1 13/10/1 12/7/1
f 92/9/1 105/11/1 14/12/1 13/10/1
f 105/11/1 118/13/1 15/14/1 14/12/1
f 118/13/1 131/15/1 16/16/1 15/14/1
f 131/15/1 144/17/1 17/18/1 16/16/1
f 144/17/1 157/19/1 18/20/1 17/18/1
f 157/19/1 170/21/1 19/22/1 18/20/1
f 170/21/1 183/23/1 20/24/1 19/22/1
f 183/23/1 196/25/1 21/26/1 20/24/1
f 196/25/1 209/1/1 22/4/1 21/26/1
f 4/27/1 3/28/1 221/29/1 208/30/1
f 208/30/1 221/29/1 220/31/1 207/32/1
f 207/32/1 220/31/1 219/33/1 206/34/1
f 206/34/1 219/33/1 218/35/1 205/36/1
f 205/36/1 218/35/1 217/37/1 204/38/1
f 204/38/1 217/37/1 216/39/1 203/40/1
f 203/40/1 216/39/1 215/41/1 202/42/1
f 202/42/1 215/41/1 214/43/1 201/44/1
f 201/44/1 214/43/1 213/45/1 200/46/1
f 200/46/1 213/45/1 212/47/1 199/48/1
f 199/48/1 212/47/1 211/49/1 198/50/1
f 198/50/1 211/49/1 210/51/1 197/52/1
f 197/52/1 210/51/1 209/1/1 196/25/1
f 5/53/1 4/27/1 208/30/1 195/54/1
f 195/54/1 208/30/1 207/32/1 194/55/1
f 194/55/1 207/32/1 206/34/1 193/56/1
f 193/56/1 206/34/1 205/36/1 192/57/1
f 192/57/1 205/36/1 204/38/1 191/58/1
f 191/58/1 204/38/1 203/40/1 190/59/1
f 190/59/1 203/40/1 202/42/1 189/60/1
f 189/60/1 202/42/1 201/44/1 188/61/1
f 188/61/1 201/44/1 200/46/1 187/62/1
f 187/62/1 200/46/1 199/48/1 186/63/1
f 186/63/1 199/48/1 198/50/1 185/64/1
f 185/64/1 198/50/1 197/52/1 184/65/1
f 184/65/1 197/52/1 196/25/1 183/23/1
f 6/66/1 5/53/1 195/54/1 182/67/1
f 182/67/1 195/54/1 194/55/1 181/68/1
f 181/68/1 194/55/1 193/56/1 180/69/1
f 180/69/1 193/56/1 192/57/1 179/70/1
f 179/70/1 192/57/1 191/58/1 178/71/1
f 178/71/1 191/58/1 190/59/1 177/72/1
f 177/72/1 190/59/1 189/60/1 176/73/1
f 176/73/1 189/60/1 188/61/1 175/74/1
f 175/74/1 188/61/1 187/62/1 174/75/1
f 174/75/1 187/62/1 186/63/1 173/76/1
f 173/76/1 186/63/1 185/64/1 172/77/1
f 172/77/1 185/64/1 184/65/1 171/78/1
f 171/78/1 184/65/1 183/23/1 170/21/1
f 7/79/1 6/66/1 182/67/1 169/80/1
f 169/80/1 182/67/1 181/68/1 168/81/1
f 168/81/1 181/68/1 180/69/1 167/82/1
f 167/82/1 180/69/1 179/70/1 166/83/1
f 166/83/1 179/70/1 178/71/1 165/84/1
f 165/84/1 178/71/1 177/72/1 164/85/1
f 164/85/1 177/72/1 176/73/1 163/86/1
f 163/86/1 176/73/1 175/74/1 162/87/1
f 162/87/1 175/74/1 174/75/1 161/88/1
f 161/88/1 174/75/1 173/76/1 160/89/1
f 160/89/1 173/76/1 172/77/1 159/90/1
f 159/90/1 172/77/1 171/78/1 158/91/1
f 158/91/1 171/78/1 170/21/1 157/19/1
f 8/92/1 7/79/1 169/80/1 156/93/1
f 156/93/1 169/80/1 168/81/1 155/94/1
f 155/94/1 168/81/1 167/82/1 154/95/1
f 154/95/1 167/82/1 166/83/1 153/96/1
f 153/96/1 166/83/1 165/84/1 152/97/1
f 152/97/1 165/84/1 164/85/1 151/98/1
f 151/98/1 164/85/1 163/86/1 150/99/1
f 150/99/1 163/86/1 162/87/1 149/100/1
f 149/100/1 162/87/1 161/88/1 148/101/1
f 148/101/1 161/88/1 160/89/1 147/102/1
f 147/102/1 160/89/1 159/90/1 146/103/1
f 146/103/1 159/90/1 158/91/1 145/104/1
f 145/104/1 158/91/1 157/19/1 144/17/1
f 9/105/1 8/92/1 156/93/1 143/106/1
f 143/106/1 156/93/1 155/94/1 142/107/1
f 142/107/1 155/94/1 154/95/1 141/108/1
f 141/108/1 154/95/1 153/96/1 140/109/1
f 140/109/1 153/96/1 152/97/1 139/110/1
f 139/110/1 152/97/1 151/98/1 138/111/1
f 138/111/1 151/98/1 150/99/1 137/112/1
f 137/112/1 150/99/1 149/100/1 136/113/1
f 136/113/1 149/100/1 148/101/1 135/114/1
f 135/114/1 148/101/1 147/102/1 134/115/1
f 134/115/1 147/102/1 146/103/1 133/116/1
f 133/116/1 146/103/1 145/104/1 132/117/1
f 132/117/1 145/104/1 144/17/1 131/15/1
f 10/118/1 9/105/1 143/106/1 130/119/1
f 130/119/1 143/106/1 142/107/1 129/120/1
f 129/120/1 142/107/1 141/108/1 128/121/1
f 128/121/1 141/108/1 140/109/1 127/122/1
f 127/122/1 140/109/1 139/110/1 126/123/1
f 126/123/1 139/110/1 138/111/1 125/124/1
f 125/124/1 138/111/1 137/112/1 124/125/1
f 124/125/1 137/112/1 136/113/1 123/126/1
f 123/126/1 136/113/1 135/114/1 122/127/1
f 122/127/1 135/114/1 134/115/1 121/128/1
f 121/128/1 134/115/1 133/116/1 120/129/1
f 120/129/1 133/116/1 132/117/1 119/130/1
f 119/130/1 132/117/1 131/15/1 118/13/1
f 117/131/1 130/119/1 129/120/1 116/132/1
f 116/132/1 129/120/1 128/121/1 115/133/1
f 115/133/1 128/121/1 127/122/1 114/134/1
f 114/134/1 127/122/1 126/123/1 113/135/1
f 113/135/1 126/123/1 125/124/1 112/136/1
f 112/136/1 125/124/1 124/125/1 111/137/1
f 111/137/1 124/125/1 123/126/1 110/138/1
f 110/138/1 123/126/1 122/127/1 109/139/1
f 109/139/1 122/127/1 121/128/1 108/140/1
f 108/140/1 121/128/1 120/129/1 107/141/1
f 107/141/1 120/129/1 119/130/1 106/142/1
f 106/142/1 119/130/1 118/13/1 105/11/1
f 104/143/1 117/131/1 116/132/1 103/144/1
f 103/144/1 116/132/1 115/133/1 102/145/1
f 102/145/1 115/133/1 114/134/1 101/146/1
f 101/146/1 114/134/1 113/135/1 100/147/1
f 100/147/1 113/135/1 112/136/1 99/148/1
f 99/148/1 112/136/1 111/137/1 98/149/1
f 98/149/1 111/137/1 110/138/1 97/150/1
f 97/150/1 110/138/1 109/139/1 96/151/1
f 96/151/1 109/139/1 108/140/1 95/152/1
f 95/152/1 108/140/1 107/141/1 94/153/1
f 94/153/1 107/141/1 106/142/1 93/154/1
f 91/155/1 104/143/1 103/144/1 90/156/1
f 89/157/1 102/145/1 101/146/1 88/158/1
f 88/158/1 101/146/1 100/147/1 87/159/1
f 87/159/1 100/147/1 99/148/1 86/160/1
f 86/160/1 99/148/1 98/149/1 85/161/1
f 85/161/1 98/149/1 97/150/1 84/162/1
f 83/163/1 96/151/1 95/152/1 82/164/1
f 82/164/1 95/152/1 94/153/1 81/165/1
f 81/165/1 94/153/1 93/154/1 80/166/1
f 78/167/1 91/155/1 90/156/1 77/168/1
f 76/169/1 89/157/1 88/158/1 75/170/1
f 74/171/1 87/159/1 86/160/1 73/172/1
f 73/172/1 86/160/1 85/161/1 72/173/1
f 72/173/1 85/161/1 84/162/1 71/174/1
f 70/175/1 83/163/1 82/164/1 69/176/1
f 68/177/1 81/165/1 80/166/1 67/178/1
f 65/179/1 78/167/1 77/168/1 64/180/1
f 63/181/1 76/169/1 75/170/1 62/182/1
f 61/183/1 74/171/1 73/172/1 60/184/1
f 60/184/1 73/172/1 72/173/1 59/185/1
f 59/185/1 72/173/1 71/174/1 58/186/1
f 57/187/1 70/175/1 69/176/1 56/188/1
f 55/189/1 68/177/1 67/178/1 54/190/1
f 53/191/1 63/181/1 62/182/1 52/192/1
f 51/193/1 61/183/1 60/184/1 50/194/1
f 49/195/1 59/185/1 58/186/1 48/196/1
f 47/197/1 57/187/1 56/188/1 46/198/1
f 45/199/1 53/191/1 52/192/1 44/200/1
f 43/201/1 51/193/1 50/194/1 42/202/1
f 41/203/1 47/197/1 46/198/1 40/204/1
f 23/205/1 43/201/1 42/202/1 24/206/1
f 25/207/1 41/203/1 40/204/1 26/208/1
f 3/28/1 1/209/1 39/210/1 221/29/1
f 221/29/1 39/210/1 38/211/1 220/31/1
f 220/31/1 38/211/1 37/212/1 219/33/1
f 219/33/1 37/212/1 36/213/1 218/35/1
f 218/35/1 36/213/1 35/214/1 217/37/1
f 217/37/1 35/214/1 34/215/1 216/39/1
f 216/39/1 34/215/1 33/216/1 215/41/1
f 215/41/1 33/216/1 32/217/1 214/43/1
f 214/43/1 32/217/1 31/218/1 213/45/1
f 213/45/1 31/218/1 30/219/1 212/47/1
f 212/47/1 30/219/1 29/220/1 211/49/1
f 211/49/1 29/220/1 28/221/1 210/51/1
f 210/51/1 28/221/1 27/2/1 209/1/1
