# Blender 4.0.2
# www.blender.org
mtllib Floor_00.mtl
o Floor_00
v 0.500000 0.000000 -1.500000
v -0.500000 0.000000 0.500000
v 0.500000 0.000000 -0.500000
v -0.500000 0.000000 -0.500000
v -0.500000 0.000000 -1.500000
v 0.500000 0.000000 0.500000
v -0.500000 0.000000 -0.500000
v 0.500000 0.000000 -0.500000
v 0.500000 0.000000 0.500000
v 0.500000 0.000000 1.500000
v -0.500000 0.000000 0.500000
v -0.500000 0.000000 1.500000
v -0.500000 0.000000 -1.500000
v -1.500000 0.000000 0.500000
v -0.500000 0.000000 -0.500000
v -1.500000 0.000000 -0.500000
v -1.500000 0.000000 -1.500000
v -0.500000 0.000000 0.500000
v -1.500000 0.000000 -0.500000
v -0.500000 0.000000 -0.500000
v -0.500000 0.000000 0.500000
v -0.500000 0.000000 1.500000
v -1.500000 0.000000 0.500000
v -1.500000 0.000000 1.500000
v 1.500000 0.000000 -1.500000
v 0.500000 0.000000 0.500000
v 1.500000 0.000000 -0.500000
v 0.500000 0.000000 -0.500000
v 0.500000 0.000000 -1.500000
v 1.500000 0.000000 0.500000
v 0.500000 0.000000 -0.500000
v 1.500000 0.000000 -0.500000
v 1.500000 0.000000 0.500000
v 1.500000 0.000000 1.500000
v 0.500000 0.000000 0.500000
v 0.500000 0.000000 1.500000
vn -0.0000 1.0000 -0.0000
vt 0.108974 0.157895
vt 0.006410 0.157895
vt 0.006410 0.052632
vt 0.108974 0.052632
s 0
usemtl mFD_Dungeon
f 13/1/1 17/2/1 19/3/1 15/4/1
f 21/1/1 23/2/1 24/3/1 22/4/1
f 9/1/1 11/2/1 12/3/1 10/4/1
f 1/1/1 5/2/1 7/3/1 3/4/1
f 8/1/1 4/2/1 2/3/1 6/4/1
f 20/1/1 16/2/1 14/3/1 18/4/1
f 25/1/1 29/2/1 31/3/1 27/4/1
f 33/1/1 35/2/1 36/3/1 34/4/1
f 32/1/1 28/2/1 26/3/1 30/4/1
