# Blender 4.0.2
# www.blender.org
mtllib Floor_12.mtl
o Floor_12
v -0.500000 0.000000 0.500000
v -0.500000 0.125000 0.500000
v -0.500000 0.000000 -0.500000
v -0.500000 0.125000 -0.500000
v 0.500000 0.000000 0.500000
v 0.500000 0.125000 0.500000
v 0.500000 0.000000 -0.500000
v 0.500000 0.125000 -0.500000
v -0.500000 0.125000 0.500000
v -0.500000 0.125000 -0.500000
v 0.500000 0.125000 0.500000
v 0.500000 0.125000 -0.500000
v -0.500000 0.125000 0.437500
v -0.500000 0.125000 0.375000
v -0.500000 0.125000 0.312500
v -0.500000 0.125000 0.250000
v -0.500000 0.125000 0.187500
v -0.500000 0.125000 0.125000
v -0.500000 0.125000 0.062500
v -0.500000 0.125000 0.000000
v -0.500000 0.125000 -0.062500
v -0.500000 0.125000 -0.125000
v -0.500000 0.125000 -0.187500
v -0.500000 0.125000 -0.250000
v -0.500000 0.125000 -0.312500
v -0.500000 0.125000 -0.375000
v -0.500000 0.125000 -0.437500
v 0.500000 0.125000 -0.437500
v 0.500000 0.125000 -0.375000
v 0.500000 0.125000 -0.312500
v 0.500000 0.125000 -0.250000
v 0.500000 0.125000 -0.187500
v 0.500000 0.125000 -0.125000
v 0.500000 0.125000 -0.062500
v 0.500000 0.125000 0.000000
v 0.500000 0.125000 0.062500
v 0.500000 0.125000 0.125000
v 0.500000 0.125000 0.187500
v 0.500000 0.125000 0.250000
v 0.500000 0.125000 0.312500
v 0.500000 0.125000 0.375000
v 0.500000 0.125000 0.437500
v -0.437500 0.125000 -0.500000
v -0.375000 0.125000 -0.500000
v -0.312500 0.125000 -0.500000
v -0.250000 0.125000 -0.500000
v -0.187500 0.125000 -0.500000
v -0.125000 0.125000 -0.500000
v -0.062500 0.125000 -0.500000
v 0.000000 0.125000 -0.500000
v 0.062500 0.125000 -0.500000
v 0.125000 0.125000 -0.500000
v 0.187500 0.125000 -0.500000
v 0.250000 0.125000 -0.500000
v 0.312500 0.125000 -0.500000
v 0.375000 0.125000 -0.500000
v 0.437500 0.125000 -0.500000
v 0.437500 0.125000 0.500000
v 0.375000 0.125000 0.500000
v 0.312500 0.125000 0.500000
v 0.250000 0.125000 0.500000
v 0.187500 0.125000 0.500000
v 0.125000 0.125000 0.500000
v 0.062500 0.125000 0.500000
v 0.000000 0.125000 0.500000
v -0.062500 0.125000 0.500000
v -0.125000 0.125000 0.500000
v -0.187500 0.125000 0.500000
v -0.250000 0.125000 0.500000
v -0.312500 0.125000 0.500000
v -0.375000 0.125000 0.500000
v -0.437500 0.125000 0.500000
v -0.437500 0.125000 -0.312500
v -0.375000 0.125000 -0.312500
v -0.312500 0.125000 -0.312500
v -0.250000 0.125000 -0.312500
v -0.187500 0.125000 -0.312500
v 0.187500 0.125000 -0.312500
v 0.250000 0.125000 -0.312500
v 0.312500 0.125000 -0.312500
v 0.375000 0.125000 -0.312500
v 0.437500 0.125000 -0.312500
v 0.312500 0.062500 0.000000
v 0.125000 0.062500 -0.187500
v 0.312500 0.062500 -0.125000
v -0.250000 0.125000 -0.250000
v -0.187500 0.125000 -0.250000
v -0.125000 0.125000 -0.250000
v -0.062500 0.125000 -0.250000
v 0.000000 0.125000 -0.250000
v 0.062500 0.125000 -0.250000
v 0.125000 0.125000 -0.250000
v 0.187500 0.125000 -0.250000
v 0.250000 0.125000 -0.250000
v 0.312500 0.125000 0.000000
v 0.312500 0.125000 -0.125000
v -0.250000 0.125000 -0.187500
v -0.187500 0.125000 -0.187500
v -0.125000 0.125000 -0.187500
v -0.312500 0.062500 -0.125000
v -0.187500 0.062500 -0.062500
v 0.312500 0.062500 -0.125000
v 0.125000 0.125000 -0.187500
v 0.187500 0.125000 -0.187500
v 0.250000 0.125000 -0.187500
v 0.187500 0.062500 -0.187500
v -0.312500 0.125000 -0.125000
v -0.250000 0.125000 -0.125000
v -0.125000 0.062500 -0.187500
v 0.187500 0.062500 -0.187500
v 0.250000 0.062500 -0.125000
v 0.187500 0.062500 -0.062500
v 0.125000 0.062500 -0.062500
v -0.250000 0.062500 -0.125000
v 0.125000 0.062500 -0.187500
v 0.250000 0.125000 -0.125000
v 0.312500 0.125000 -0.125000
v -0.312500 0.125000 -0.062500
v 0.125000 0.062500 -0.250000
v -0.187500 0.125000 -0.062500
v -0.125000 0.125000 -0.062500
v -0.125000 0.062500 -0.062500
v -0.250000 0.062500 0.000000
v -0.312500 0.062500 0.000000
v 0.125000 0.125000 -0.062500
v 0.187500 0.125000 -0.062500
v -0.187500 0.062500 -0.187500
v 0.312500 0.125000 -0.062500
v -0.312500 0.125000 0.000000
v -0.250000 0.125000 0.000000
v -0.187500 0.125000 0.000000
v -0.125000 0.125000 0.000000
v -0.062500 0.125000 0.000000
v -0.187500 0.062500 0.000000
v 0.062500 0.125000 0.000000
v 0.125000 0.125000 0.000000
v 0.187500 0.125000 0.000000
v 0.250000 0.125000 0.000000
v 0.312500 0.125000 0.000000
v -0.250000 0.125000 0.062500
v -0.250000 0.062500 -0.312500
v -0.125000 0.125000 0.062500
v -0.062500 0.125000 0.062500
v 0.000000 0.125000 0.062500
v 0.062500 0.125000 0.062500
v 0.125000 0.125000 0.062500
v -0.187500 0.062500 -0.312500
v 0.250000 0.125000 0.062500
v -0.250000 0.125000 0.125000
v -0.187500 0.125000 0.125000
v 0.187500 0.062500 -0.312500
v -0.062500 0.125000 0.125000
v 0.000000 0.125000 0.125000
v 0.062500 0.125000 0.125000
v 0.250000 0.062500 -0.312500
v 0.187500 0.125000 0.125000
v 0.250000 0.125000 0.125000
v -0.187500 0.125000 0.187500
v -0.125000 0.125000 0.187500
v -0.125000 0.062500 -0.250000
v 0.000000 0.062500 -0.250000
v -0.062500 0.062500 -0.250000
v 0.125000 0.125000 0.187500
v 0.187500 0.125000 0.187500
v -0.125000 0.125000 0.250000
v -0.062500 0.125000 0.250000
v 0.062500 0.062500 -0.250000
v 0.062500 0.125000 0.250000
v 0.125000 0.125000 0.250000
v -0.062500 0.125000 0.312500
v 0.000000 0.125000 0.312500
v 0.062500 0.125000 0.312500
v 0.000000 0.125000 0.375000
v 0.000000 0.125000 0.437500
v -0.125000 0.062500 0.000000
v -0.062500 0.062500 0.000000
v 0.062500 0.062500 0.000000
v 0.125000 0.062500 0.000000
v 0.187500 0.062500 0.000000
v 0.250000 0.062500 0.000000
v 0.312500 0.062500 0.000000
v -0.125000 0.062500 0.062500
v -0.062500 0.062500 0.062500
v 0.000000 0.062500 0.062500
v 0.062500 0.062500 0.062500
v 0.125000 0.062500 0.062500
v -0.250000 0.062500 0.125000
v -0.187500 0.062500 0.125000
v -0.062500 0.062500 0.125000
v 0.000000 0.062500 0.125000
v 0.062500 0.062500 0.125000
v 0.187500 0.062500 0.125000
v 0.250000 0.062500 0.125000
v -0.187500 0.062500 0.187500
v -0.125000 0.062500 0.187500
v 0.125000 0.062500 0.187500
v 0.187500 0.062500 0.187500
v -0.125000 0.062500 0.250000
v -0.062500 0.062500 0.250000
v 0.062500 0.062500 0.250000
v 0.125000 0.062500 0.250000
v -0.062500 0.062500 0.312500
v 0.000000 0.062500 0.312500
v 0.062500 0.062500 0.312500
v 0.250000 0.062500 0.062500
v -0.250000 0.062500 0.062500
v 0.312500 0.062500 -0.062500
v -0.312500 0.062500 -0.062500
v 0.250000 0.062500 -0.187500
v -0.250000 0.062500 -0.187500
v 0.250000 0.062500 -0.250000
v 0.187500 0.062500 -0.250000
v -0.187500 0.062500 -0.250000
v -0.250000 0.062500 -0.250000
v 0.125000 0.125000 -0.187500
v 0.187500 0.125000 -0.187500
v 0.250000 0.062500 -0.125000
v 0.250000 0.062500 -0.312500
v 0.250000 0.125000 -0.125000
v 0.250000 0.125000 -0.312500
v 0.187500 0.062500 -0.187500
v 0.187500 0.062500 -0.312500
v 0.187500 0.125000 -0.187500
v 0.187500 0.125000 -0.312500
v 0.187500 0.062500 -0.312500
v 0.250000 0.062500 -0.312500
v 0.187500 0.125000 -0.312500
v 0.250000 0.125000 -0.312500
v -0.125000 0.125000 -0.250000
v 0.125000 0.062500 -0.250000
v 0.125000 0.062500 -0.187500
v 0.312500 0.125000 0.000000
v 0.125000 0.125000 -0.250000
v 0.125000 0.062500 -0.250000
v -0.125000 0.062500 -0.250000
v 0.250000 0.125000 0.000000
v 0.250000 0.062500 0.000000
v 0.312500 0.062500 0.000000
v 0.125000 0.125000 -0.187500
v 0.125000 0.125000 -0.250000
v 0.187500 0.125000 0.000000
v 0.125000 0.125000 0.000000
v 0.187500 0.062500 0.000000
v 0.125000 0.062500 0.000000
v -0.187500 0.062500 0.000000
v -0.125000 0.062500 0.000000
v -0.187500 0.125000 0.000000
v -0.125000 0.125000 0.000000
v 0.062500 0.062500 0.125000
v -0.062500 0.062500 0.125000
v 0.062500 0.125000 0.125000
v -0.062500 0.125000 0.125000
v 0.062500 0.062500 0.062500
v -0.062500 0.062500 0.062500
v 0.062500 0.125000 0.062500
v -0.062500 0.125000 0.062500
v 0.250000 0.062500 0.125000
v 0.250000 0.062500 0.000000
v 0.250000 0.125000 0.125000
v 0.250000 0.125000 0.000000
v -0.250000 0.062500 0.125000
v -0.250000 0.062500 0.000000
v -0.250000 0.125000 0.125000
v -0.250000 0.125000 0.000000
v 0.062500 0.062500 0.312500
v -0.062500 0.062500 0.312500
v 0.062500 0.125000 0.312500
v -0.062500 0.125000 0.312500
v 0.125000 0.062500 -0.062500
v 0.187500 0.062500 -0.062500
v 0.125000 0.125000 -0.062500
v 0.187500 0.125000 -0.062500
v 0.125000 0.062500 0.187500
v 0.187500 0.062500 0.187500
v 0.125000 0.125000 0.187500
v 0.187500 0.125000 0.187500
v 0.187500 0.062500 0.125000
v 0.187500 0.062500 0.187500
v 0.187500 0.125000 0.187500
v 0.187500 0.125000 0.125000
v 0.125000 0.062500 0.187500
v 0.125000 0.062500 0.250000
v 0.125000 0.125000 0.250000
v 0.125000 0.125000 0.187500
v 0.062500 0.062500 0.250000
v 0.062500 0.062500 0.312500
v 0.062500 0.125000 0.312500
v 0.062500 0.125000 0.250000
v 0.062500 0.062500 0.250000
v 0.125000 0.062500 0.250000
v 0.062500 0.125000 0.250000
v 0.125000 0.125000 0.250000
v 0.187500 0.062500 0.125000
v 0.250000 0.062500 0.125000
v 0.187500 0.125000 0.125000
v 0.250000 0.125000 0.125000
v 0.125000 0.062500 -0.062500
v 0.125000 0.062500 0.000000
v 0.125000 0.125000 0.000000
v 0.125000 0.125000 -0.062500
v 0.187500 0.062500 -0.062500
v 0.187500 0.062500 0.000000
v 0.187500 0.125000 0.000000
v 0.187500 0.125000 -0.062500
v 0.062500 0.062500 0.000000
v 0.062500 0.062500 0.062500
v 0.062500 0.125000 0.062500
v 0.062500 0.125000 0.000000
v 0.125000 0.062500 0.000000
v 0.125000 0.062500 0.062500
v 0.125000 0.125000 0.062500
v 0.125000 0.125000 0.000000
v 0.062500 0.062500 0.062500
v 0.125000 0.062500 0.062500
v 0.062500 0.125000 0.062500
v 0.125000 0.125000 0.062500
v 0.062500 0.062500 0.062500
v 0.062500 0.062500 0.125000
v 0.062500 0.125000 0.125000
v 0.062500 0.125000 0.062500
v -0.062500 0.062500 0.062500
v -0.062500 0.062500 0.125000
v -0.062500 0.125000 0.125000
v -0.062500 0.125000 0.062500
v -0.125000 0.062500 0.000000
v -0.125000 0.062500 0.062500
v -0.125000 0.125000 0.062500
v -0.125000 0.125000 0.000000
v -0.062500 0.062500 0.000000
v -0.062500 0.062500 0.062500
v -0.062500 0.125000 0.062500
v -0.062500 0.125000 0.000000
v -0.125000 0.062500 0.062500
v -0.062500 0.062500 0.062500
v -0.125000 0.125000 0.062500
v -0.062500 0.125000 0.062500
v -0.187500 0.062500 -0.062500
v -0.125000 0.062500 -0.062500
v -0.187500 0.125000 -0.062500
v -0.125000 0.125000 -0.062500
v -0.187500 0.062500 -0.062500
v -0.187500 0.062500 0.000000
v -0.187500 0.125000 0.000000
v -0.187500 0.125000 -0.062500
v -0.125000 0.062500 -0.062500
v -0.125000 0.062500 0.000000
v -0.125000 0.125000 0.000000
v -0.125000 0.125000 -0.062500
v -0.187500 0.062500 0.187500
v -0.125000 0.062500 0.187500
v -0.187500 0.125000 0.187500
v -0.125000 0.125000 0.187500
v -0.125000 0.062500 0.250000
v -0.062500 0.062500 0.250000
v -0.125000 0.125000 0.250000
v -0.062500 0.125000 0.250000
v -0.250000 0.062500 0.125000
v -0.187500 0.062500 0.125000
v -0.250000 0.125000 0.125000
v -0.187500 0.125000 0.125000
v -0.187500 0.062500 0.125000
v -0.187500 0.062500 0.187500
v -0.187500 0.125000 0.187500
v -0.187500 0.125000 0.125000
v -0.125000 0.062500 0.187500
v -0.125000 0.062500 0.250000
v -0.125000 0.125000 0.250000
v -0.125000 0.125000 0.187500
v -0.062500 0.062500 0.250000
v -0.062500 0.062500 0.312500
v -0.062500 0.125000 0.312500
v -0.062500 0.125000 0.250000
v -0.312500 0.062500 0.000000
v -0.312500 0.062500 -0.125000
v -0.312500 0.125000 0.000000
v -0.312500 0.125000 -0.125000
v -0.250000 0.062500 -0.125000
v -0.312500 0.062500 -0.125000
v -0.312500 0.125000 -0.125000
v -0.250000 0.125000 -0.125000
v -0.250000 0.125000 0.000000
v -0.312500 0.125000 0.000000
v -0.312500 0.062500 0.000000
v -0.250000 0.062500 0.000000
v -0.250000 0.062500 -0.125000
v -0.250000 0.062500 -0.312500
v -0.250000 0.125000 -0.125000
v -0.250000 0.125000 -0.312500
v -0.250000 0.062500 -0.312500
v -0.187500 0.062500 -0.312500
v -0.250000 0.125000 -0.312500
v -0.187500 0.125000 -0.312500
v -0.125000 0.062500 -0.250000
v -0.125000 0.062500 -0.187500
v -0.125000 0.125000 -0.187500
v -0.125000 0.125000 -0.250000
v -0.187500 0.062500 -0.187500
v -0.125000 0.062500 -0.187500
v -0.187500 0.125000 -0.187500
v -0.125000 0.125000 -0.187500
v -0.187500 0.062500 -0.187500
v -0.187500 0.062500 -0.312500
v -0.187500 0.125000 -0.187500
v -0.187500 0.125000 -0.312500
v -0.125000 0.062500 0.000000
v -0.062500 0.062500 0.000000
v -0.125000 0.125000 0.000000
v -0.062500 0.125000 0.000000
v 0.062500 0.062500 0.000000
v 0.125000 0.062500 0.000000
v 0.062500 0.125000 0.000000
v 0.125000 0.125000 0.000000
vn -1.0000 -0.0000 -0.0000
vn -0.0000 -0.0000 -1.0000
vn 1.0000 -0.0000 -0.0000
vn -0.0000 -0.0000 1.0000
vn -0.0000 1.0000 -0.0000
vt 0.108974 0.032895
vt 0.108974 0.046053
vt 0.006410 0.046053
vt 0.006410 0.032895
vt 0.807692 0.059211
vt 0.807692 0.065789
vt 0.801282 0.065789
vt 0.801282 0.059211
vt 0.807692 0.052632
vt 0.801282 0.052632
vt 0.493590 0.203947
vt 0.500000 0.203947
vt 0.500000 0.210526
vt 0.506410 0.210526
vt 0.506410 0.217105
vt 0.512820 0.217105
vt 0.512820 0.223684
vt 0.519231 0.223684
vt 0.519231 0.230263
vt 0.519231 0.236842
vt 0.512820 0.236842
vt 0.506410 0.236842
vt 0.506410 0.230263
vt 0.500000 0.230263
vt 0.500000 0.223684
vt 0.493590 0.223684
vt 0.487179 0.223684
vt 0.487179 0.230263
vt 0.480769 0.230263
vt 0.480769 0.236842
vt 0.474359 0.236842
vt 0.467949 0.236842
vt 0.467949 0.230263
vt 0.467949 0.223684
vt 0.474359 0.223684
vt 0.474359 0.217105
vt 0.480769 0.217105
vt 0.480769 0.210526
vt 0.487179 0.210526
vt 0.487179 0.203947
vt 0.500000 0.236842
vt 0.487179 0.236842
vt 0.525641 0.236842
vt 0.525641 0.243421
vt 0.525641 0.250000
vt 0.519231 0.250000
vt 0.519231 0.256579
vt 0.519231 0.263158
vt 0.519231 0.269737
vt 0.512820 0.269737
vt 0.512820 0.263158
vt 0.512820 0.256579
vt 0.506410 0.256579
vt 0.506410 0.263158
vt 0.500000 0.263158
vt 0.493590 0.263158
vt 0.487179 0.263158
vt 0.480769 0.263158
vt 0.480769 0.256579
vt 0.474359 0.256579
vt 0.474359 0.263158
vt 0.474359 0.269737
vt 0.467949 0.269737
vt 0.467949 0.263158
vt 0.467949 0.256579
vt 0.467949 0.250000
vt 0.461538 0.250000
vt 0.461538 0.243421
vt 0.461538 0.236842
vt 0.474359 0.243421
vt 0.480769 0.243421
vt 0.493590 0.230263
vt 0.506410 0.243421
vt 0.512820 0.243421
vt 0.826923 0.065789
vt 0.826923 0.059211
vt 0.807692 0.046053
vt 0.801282 0.046053
vt 0.442308 0.190789
vt 0.442308 0.184211
vt 0.448718 0.184211
vt 0.455128 0.184211
vt 0.461538 0.184211
vt 0.467949 0.184211
vt 0.474359 0.184211
vt 0.480769 0.184211
vt 0.487179 0.184211
vt 0.493590 0.184211
vt 0.493590 0.190789
vt 0.493590 0.197368
vt 0.461538 0.269737
vt 0.455128 0.269737
vt 0.448718 0.269737
vt 0.442308 0.269737
vt 0.442308 0.263158
vt 0.442308 0.256579
vt 0.442308 0.250000
vt 0.442308 0.243421
vt 0.442308 0.236842
vt 0.442308 0.230263
vt 0.442308 0.223684
vt 0.442308 0.217105
vt 0.442308 0.210526
vt 0.442308 0.203947
vt 0.442308 0.197368
vt 0.544872 0.190789
vt 0.544872 0.197368
vt 0.544872 0.203947
vt 0.544872 0.210526
vt 0.544872 0.217105
vt 0.544872 0.223684
vt 0.544872 0.230263
vt 0.544872 0.236842
vt 0.544872 0.243421
vt 0.544872 0.250000
vt 0.544872 0.256579
vt 0.544872 0.263158
vt 0.544872 0.269737
vt 0.538461 0.269737
vt 0.532051 0.269737
vt 0.525641 0.269737
vt 0.500000 0.184211
vt 0.506410 0.184211
vt 0.512820 0.184211
vt 0.519231 0.184211
vt 0.525641 0.184211
vt 0.532051 0.184211
vt 0.538462 0.184211
vt 0.544872 0.184211
vt 0.448718 0.289474
vt 0.442308 0.289474
vt 0.442308 0.282895
vt 0.442308 0.276316
vt 0.544872 0.276316
vt 0.544872 0.282895
vt 0.544872 0.289474
vt 0.538462 0.289474
vt 0.532051 0.289474
vt 0.525641 0.289474
vt 0.519231 0.289474
vt 0.512820 0.289474
vt 0.506410 0.289474
vt 0.500000 0.289474
vt 0.493590 0.289474
vt 0.487179 0.289474
vt 0.480769 0.289474
vt 0.474359 0.289474
vt 0.467949 0.289474
vt 0.461538 0.289474
vt 0.455128 0.289474
s 0
usemtl mFD_Dungeon
f 1/1/1 2/2/1 4/3/1 3/4/1
f 3/1/2 4/2/2 8/3/2 7/4/2
f 7/1/3 8/2/3 6/3/3 5/4/3
f 5/1/4 6/2/4 2/3/4 1/4/4
f 381/5/2 384/6/2 383/7/2 382/8/2
f 380/5/4 379/8/4 378/7/4 377/6/4
f 276/5/2 274/6/2 273/7/2 275/8/2
f 272/5/2 270/6/2 269/7/2 271/8/2
f 324/5/1 321/6/1 322/7/1 323/8/1
f 376/6/3 375/9/3 373/10/3 374/7/3
f 320/5/3 319/8/3 318/7/3 317/6/3
f 372/5/3 371/8/3 370/7/3 369/6/3
f 392/5/4 391/8/4 389/7/4 390/6/4
f 368/5/3 367/8/3 366/7/3 365/6/3
f 364/5/3 363/8/3 362/7/3 361/6/3
f 203/11/5 204/12/5 200/13/5 201/14/5 196/15/5 197/16/5 192/17/5 193/18/5 205/19/5 180/20/5 179/21/5 178/22/5 186/23/5 185/24/5 191/25/5 190/26/5 189/27/5 183/28/5 182/29/5 175/30/5 134/31/5 123/32/5 206/33/5 187/34/5 188/35/5 194/36/5 195/37/5 198/38/5 199/39/5 202/40/5
f 296/5/2 294/6/2 293/7/2 295/8/2
f 136/22/5 135/41/5 145/24/5 146/23/5
f 316/5/4 315/8/4 313/7/4 314/6/4
f 360/5/2 358/6/2 357/7/2 359/8/2
f 133/42/5 132/30/5 142/29/5 143/28/5
f 356/5/2 354/6/2 353/7/2 355/8/2
f 180/20/5 181/43/5 207/44/5 102/45/5 111/46/5 209/47/5 211/48/5 155/49/5 151/50/5 212/51/5 110/52/5 115/53/5 119/54/5 167/55/5 161/56/5 162/57/5 160/58/5 109/59/5 127/60/5 213/61/5 147/62/5 141/63/5 214/64/5 210/65/5 114/66/5 100/67/5 208/68/5 124/69/5 123/32/5 134/31/5 101/70/5 122/71/5 175/30/5 176/42/5 183/28/5 184/72/5 185/24/5 177/41/5 178/22/5 113/73/5 112/74/5 179/21/5
f 352/5/2 350/6/2 349/7/2 351/8/2
f 126/74/5 125/73/5 136/22/5 137/21/5
f 344/5/1 341/6/1 342/7/1 343/8/1
f 121/71/5 120/70/5 131/31/5 132/30/5
f 96/6/1 85/7/1 83/10/1 95/9/1
f 268/6/2 267/9/2 265/10/2 266/7/2
f 229/8/4 235/7/4 234/75/4 233/76/4
f 348/5/3 347/8/3 346/7/3 345/6/3
f 264/6/3 263/9/3 261/10/3 262/7/3
f 312/5/3 311/8/3 310/7/3 309/6/3
f 117/5/4 116/8/4 111/7/4 102/6/4
f 340/5/2 338/6/2 337/7/2 339/8/2
f 292/5/2 290/6/2 289/7/2 291/8/2
f 228/5/4 227/8/4 225/7/4 226/6/4
f 288/5/1 285/6/1 286/7/1 287/8/1
f 260/6/1 258/7/1 257/10/1 259/9/1
f 404/6/1 402/7/1 401/10/1 403/9/1
f 388/6/3 387/77/3 385/78/3 386/7/3
f 256/6/2 255/9/2 253/10/2 254/7/2
f 232/5/2 238/6/2 237/7/2 236/8/2
f 224/6/3 223/9/3 221/10/3 222/7/3
f 400/5/4 399/8/4 397/7/4 398/6/4
f 336/5/4 335/8/4 333/7/4 334/6/4
f 308/5/1 305/6/1 306/7/1 307/8/1
f 304/5/3 303/8/3 302/7/3 301/6/3
f 252/6/4 250/7/4 249/10/4 251/9/4
f 13/79/5 9/80/5 72/81/5 71/82/5 70/83/5 69/84/5 68/85/5 67/86/5 66/87/5 65/88/5 174/89/5 173/90/5 171/11/5 170/40/5 166/39/5 165/38/5 159/37/5 158/36/5 150/35/5 149/34/5 140/33/5 130/32/5 129/69/5 118/68/5 107/67/5 108/66/5 97/65/5 86/64/5 76/63/5 75/91/5 74/92/5 73/93/5 25/94/5 24/95/5 23/96/5 22/97/5 21/98/5 20/99/5 19/100/5 18/101/5 17/102/5 16/103/5 15/104/5 14/105/5
f 248/5/4 247/8/4 245/7/4 246/6/4
f 145/24/5 144/72/5 143/28/5 152/27/5 153/26/5 154/25/5
f 42/106/5 41/107/5 40/108/5 39/109/5 38/110/5 37/111/5 36/112/5 35/113/5 34/114/5 33/115/5 32/116/5 31/117/5 30/118/5 82/119/5 81/120/5 80/121/5 79/49/5 94/48/5 105/47/5 116/46/5 117/45/5 128/44/5 139/43/5 138/20/5 148/19/5 157/18/5 156/17/5 164/16/5 163/15/5 169/14/5 168/13/5 172/12/5 171/11/5 173/90/5 174/89/5 65/88/5 64/122/5 63/123/5 62/124/5 61/125/5 60/126/5 59/127/5 58/128/5 11/129/5
f 332/5/3 331/8/3 330/7/3 329/6/3
f 220/6/1 218/7/1 217/78/1 219/77/1
f 241/5/4 242/8/4 244/7/4 243/6/4
f 328/5/1 325/6/1 326/7/1 327/8/1
f 216/5/4 215/8/4 84/7/4 106/6/4
f 284/5/1 281/6/1 282/7/1 283/8/1
f 300/5/1 297/6/1 298/7/1 299/8/1
f 280/5/1 277/6/1 278/7/1 279/8/1
f 240/5/1 230/6/1 231/7/1 239/8/1
f 396/5/3 395/8/3 394/7/3 393/6/3
f 43/130/5 10/131/5 27/132/5 26/133/5 25/94/5 73/93/5 74/92/5 75/91/5 76/63/5 77/62/5 87/61/5 98/60/5 99/59/5 88/58/5 89/57/5 90/56/5 91/55/5 92/54/5 103/53/5 104/52/5 93/51/5 78/50/5 79/49/5 80/121/5 81/120/5 82/119/5 30/118/5 29/134/5 28/135/5 12/136/5 57/137/5 56/138/5 55/139/5 54/140/5 53/141/5 52/142/5 51/143/5 50/144/5 49/145/5 48/146/5 47/147/5 46/148/5 45/149/5 44/150/5
f 408/5/2 406/6/2 405/7/2 407/8/2
f 412/5/2 410/6/2 409/7/2 411/8/2
