# Blender 4.0.2
# www.blender.org
mtllib Floor_10.mtl
o Floor_10
v -0.500000 0.000000 0.500000
v -0.500000 0.125000 0.500000
v -0.500000 0.000000 -0.500000
v -0.500000 0.125000 -0.500000
v 0.500000 0.000000 0.500000
v 0.500000 0.125000 0.500000
v 0.500000 0.000000 -0.500000
v 0.500000 0.125000 -0.500000
v -0.500000 0.125000 0.500000
v -0.500000 0.125000 -0.500000
v 0.500000 0.125000 0.500000
v 0.500000 0.125000 -0.500000
v -0.500000 0.125000 0.437500
v -0.500000 0.125000 0.375000
v -0.500000 0.125000 0.312500
v -0.500000 0.125000 0.250000
v -0.500000 0.125000 0.187500
v -0.500000 0.125000 0.125000
v -0.500000 0.125000 0.062500
v -0.500000 0.125000 0.000000
v -0.500000 0.125000 -0.062500
v -0.500000 0.125000 -0.125000
v -0.500000 0.125000 -0.187500
v -0.500000 0.125000 -0.250000
v -0.500000 0.125000 -0.312500
v -0.500000 0.125000 -0.375000
v -0.500000 0.125000 -0.437500
v 0.500000 0.125000 -0.437500
v 0.500000 0.125000 -0.375000
v 0.500000 0.125000 -0.312500
v 0.500000 0.125000 -0.250000
v 0.500000 0.125000 -0.187500
v 0.500000 0.125000 -0.125000
v 0.500000 0.125000 -0.062500
v 0.500000 0.125000 0.000000
v 0.500000 0.125000 0.062500
v 0.500000 0.125000 0.125000
v 0.500000 0.125000 0.187500
v 0.500000 0.125000 0.250000
v 0.500000 0.125000 0.312500
v 0.500000 0.125000 0.375000
v 0.500000 0.125000 0.437500
v -0.437500 0.125000 -0.500000
v -0.375000 0.125000 -0.500000
v -0.312500 0.125000 -0.500000
v -0.250000 0.125000 -0.500000
v -0.187500 0.125000 -0.500000
v -0.125000 0.125000 -0.500000
v -0.062500 0.125000 -0.500000
v 0.000000 0.125000 -0.500000
v 0.062500 0.125000 -0.500000
v 0.125000 0.125000 -0.500000
v 0.187500 0.125000 -0.500000
v 0.250000 0.125000 -0.500000
v 0.312500 0.125000 -0.500000
v 0.375000 0.125000 -0.500000
v 0.437500 0.125000 -0.500000
v 0.437500 0.125000 0.500000
v 0.375000 0.125000 0.500000
v 0.312500 0.125000 0.500000
v 0.250000 0.125000 0.500000
v 0.187500 0.125000 0.500000
v 0.125000 0.125000 0.500000
v 0.062500 0.125000 0.500000
v 0.000000 0.125000 0.500000
v -0.062500 0.125000 0.500000
v -0.125000 0.125000 0.500000
v -0.187500 0.125000 0.500000
v -0.250000 0.125000 0.500000
v -0.312500 0.125000 0.500000
v -0.375000 0.125000 0.500000
v -0.437500 0.125000 0.500000
v -0.437500 0.125000 -0.250000
v -0.375000 0.125000 -0.250000
v -0.312500 0.125000 -0.250000
v -0.250000 0.125000 -0.250000
v -0.187500 0.125000 -0.250000
v -0.125000 0.125000 -0.250000
v -0.062500 0.125000 -0.250000
v 0.000000 0.125000 -0.250000
v 0.062500 0.125000 -0.250000
v -0.312500 0.125000 -0.187500
v -0.250000 0.125000 -0.187500
v -0.187500 0.125000 -0.187500
v -0.125000 0.125000 -0.187500
v -0.062500 0.125000 -0.187500
v -0.187500 0.062500 -0.187500
v 0.062500 0.125000 -0.187500
v 0.125000 0.125000 -0.187500
v 0.187500 0.125000 -0.187500
v 0.250000 0.125000 -0.187500
v 0.312500 0.125000 -0.187500
v -0.312500 0.125000 -0.125000
v -0.062500 0.062500 -0.250000
v -0.187500 0.125000 -0.125000
v -0.125000 0.125000 -0.125000
v 0.062500 0.062500 -0.250000
v -0.125000 0.062500 -0.187500
v 0.125000 0.125000 -0.125000
v 0.187500 0.125000 -0.125000
v 0.000000 0.062500 -0.250000
v 0.312500 0.125000 -0.125000
v -0.312500 0.125000 -0.062500
v -0.250000 0.125000 -0.062500
v -0.187500 0.125000 -0.062500
v -0.125000 0.125000 -0.062500
v -0.062500 0.125000 -0.062500
v 0.000000 0.125000 -0.062500
v 0.062500 0.125000 -0.062500
v 0.125000 0.125000 -0.062500
v 0.187500 0.125000 -0.062500
v 0.250000 0.125000 -0.062500
v 0.312500 0.125000 -0.062500
v -0.437500 0.125000 0.000000
v -0.375000 0.125000 0.000000
v -0.312500 0.125000 0.000000
v -0.250000 0.125000 0.000000
v -0.125000 0.125000 0.000000
v -0.062500 0.125000 0.000000
v 0.062500 0.125000 0.000000
v 0.125000 0.125000 0.000000
v 0.250000 0.125000 0.000000
v 0.312500 0.125000 0.000000
v -0.250000 0.125000 0.062500
v -0.187500 0.125000 0.062500
v -0.125000 0.125000 0.062500
v -0.062500 0.125000 0.062500
v 0.000000 0.125000 0.062500
v 0.062500 0.125000 0.062500
v 0.125000 0.125000 0.062500
v 0.187500 0.125000 0.062500
v -0.250000 0.125000 0.125000
v -0.187500 0.125000 0.125000
v -0.062500 0.062500 -0.187500
v 0.062500 0.062500 -0.187500
v 0.125000 0.062500 -0.187500
v 0.187500 0.062500 -0.187500
v 0.250000 0.062500 -0.187500
v 0.187500 0.125000 0.125000
v 0.250000 0.125000 0.125000
v -0.250000 0.125000 0.187500
v -0.312500 0.062500 -0.187500
v -0.125000 0.125000 0.187500
v -0.062500 0.125000 0.187500
v 0.000000 0.125000 0.187500
v 0.062500 0.125000 0.187500
v 0.125000 0.125000 0.187500
v -0.250000 0.062500 -0.187500
v 0.250000 0.125000 0.187500
v -0.250000 0.125000 0.250000
v -0.187500 0.125000 0.250000
v -0.125000 0.125000 0.250000
v 0.125000 0.125000 0.250000
v 0.187500 0.125000 0.250000
v 0.250000 0.125000 0.250000
v 0.312500 0.062500 -0.187500
v -0.250000 0.062500 -0.062500
v -0.187500 0.062500 -0.062500
v -0.062500 0.062500 -0.062500
v 0.000000 0.062500 -0.062500
v 0.062500 0.062500 -0.062500
v 0.187500 0.062500 -0.062500
v 0.250000 0.062500 -0.062500
v -0.312500 0.062500 0.000000
v -0.250000 0.062500 0.000000
v 0.250000 0.062500 0.000000
v 0.312500 0.062500 0.000000
v -0.187500 0.062500 0.062500
v -0.125000 0.062500 0.062500
v -0.062500 0.062500 0.062500
v 0.000000 0.062500 0.062500
v 0.062500 0.062500 0.062500
v 0.125000 0.062500 0.062500
v 0.187500 0.062500 0.062500
v -0.250000 0.062500 0.125000
v -0.187500 0.062500 0.125000
v 0.187500 0.062500 0.125000
v 0.250000 0.062500 0.125000
v -0.125000 0.062500 0.187500
v -0.062500 0.062500 0.187500
v 0.000000 0.062500 0.187500
v 0.062500 0.062500 0.187500
v 0.125000 0.062500 0.187500
v -0.250000 0.062500 0.250000
v -0.187500 0.062500 0.250000
v -0.125000 0.062500 0.250000
v 0.125000 0.062500 0.250000
v 0.187500 0.062500 0.250000
v 0.250000 0.062500 0.250000
v 0.250000 0.062500 0.187500
v -0.250000 0.062500 0.187500
v 0.125000 0.062500 0.000000
v 0.062500 0.062500 0.000000
v -0.062500 0.062500 0.000000
v -0.125000 0.062500 0.000000
v 0.312500 0.062500 -0.062500
v 0.125000 0.062500 -0.062500
v -0.125000 0.062500 -0.062500
v -0.312500 0.062500 -0.062500
v 0.312500 0.062500 -0.125000
v 0.187500 0.062500 -0.125000
v 0.125000 0.062500 -0.125000
v 0.062500 0.062500 -0.125000
v -0.125000 0.062500 -0.125000
v -0.187500 0.062500 -0.125000
v -0.312500 0.062500 -0.125000
v -0.125000 0.125000 -0.187500
v -0.250000 0.125000 0.250000
v -0.125000 0.062500 -0.187500
v 0.250000 0.125000 0.125000
v 0.125000 0.062500 0.062500
v -0.125000 0.125000 0.062500
v -0.125000 0.062500 0.062500
v 0.125000 0.125000 0.062500
v 0.125000 0.062500 -0.187500
v 0.125000 0.125000 -0.187500
v 0.250000 0.125000 0.250000
v 0.250000 0.062500 0.125000
v 0.250000 0.062500 0.250000
v -0.250000 0.125000 0.125000
v -0.250000 0.062500 0.125000
v -0.250000 0.062500 0.250000
v 0.125000 0.125000 0.250000
v 0.250000 0.125000 0.250000
v 0.125000 0.062500 0.250000
v 0.250000 0.062500 0.250000
v -0.250000 0.125000 0.250000
v -0.125000 0.125000 0.250000
v -0.250000 0.062500 0.250000
v -0.125000 0.062500 0.250000
v 0.125000 0.062500 0.187500
v 0.125000 0.125000 0.187500
v -0.125000 0.062500 0.187500
v -0.125000 0.125000 0.187500
v 0.187500 0.125000 0.062500
v 0.187500 0.125000 0.125000
v 0.250000 0.125000 0.125000
v 0.187500 0.062500 0.062500
v 0.187500 0.062500 0.125000
v 0.250000 0.062500 0.125000
v 0.125000 0.125000 0.062500
v 0.187500 0.125000 0.062500
v 0.125000 0.062500 0.062500
v 0.187500 0.062500 0.062500
v -0.250000 0.125000 0.125000
v -0.187500 0.125000 0.125000
v -0.250000 0.062500 0.125000
v -0.187500 0.062500 0.125000
v -0.187500 0.125000 0.062500
v -0.125000 0.125000 0.062500
v -0.187500 0.062500 0.062500
v -0.125000 0.062500 0.062500
v -0.187500 0.125000 0.062500
v -0.187500 0.125000 0.125000
v -0.187500 0.062500 0.062500
v -0.187500 0.062500 0.125000
v -0.062500 0.125000 0.062500
v 0.000000 0.125000 0.062500
v 0.062500 0.125000 0.062500
v -0.062500 0.062500 0.062500
v 0.062500 0.062500 0.062500
v 0.000000 0.062500 0.062500
v -0.062500 0.125000 -0.062500
v 0.000000 0.125000 -0.062500
v 0.062500 0.125000 -0.062500
v -0.062500 0.062500 -0.062500
v 0.062500 0.062500 -0.062500
v 0.000000 0.062500 -0.062500
v 0.062500 0.125000 0.062500
v 0.062500 0.125000 0.000000
v 0.062500 0.125000 -0.062500
v 0.062500 0.062500 0.062500
v 0.062500 0.062500 -0.062500
v 0.062500 0.062500 0.000000
v -0.062500 0.125000 0.062500
v -0.062500 0.125000 0.000000
v -0.062500 0.125000 -0.062500
v -0.062500 0.062500 0.062500
v -0.062500 0.062500 -0.062500
v -0.062500 0.062500 0.000000
vn -1.0000 -0.0000 -0.0000
vn -0.0000 -0.0000 -1.0000
vn 1.0000 -0.0000 -0.0000
vn -0.0000 -0.0000 1.0000
vn -0.0000 1.0000 -0.0000
vt 0.108974 0.032895
vt 0.108974 0.046053
vt 0.006410 0.046053
vt 0.006410 0.032895
vt 0.801282 0.039474
vt 0.807692 0.039474
vt 0.807692 0.065789
vt 0.801282 0.065789
vt 0.294872 0.230263
vt 0.294872 0.223684
vt 0.301282 0.223684
vt 0.301282 0.217105
vt 0.301282 0.210526
vt 0.294872 0.210526
vt 0.288462 0.210526
vt 0.288462 0.217105
vt 0.282051 0.217105
vt 0.275641 0.217105
vt 0.269231 0.217105
vt 0.262821 0.217105
vt 0.262821 0.210526
vt 0.256410 0.210526
vt 0.250000 0.210526
vt 0.250000 0.217105
vt 0.250000 0.223684
vt 0.250000 0.230263
vt 0.250000 0.236842
vt 0.243590 0.236842
vt 0.237179 0.236842
vt 0.230769 0.236842
vt 0.224359 0.236842
vt 0.224359 0.230263
vt 0.224359 0.223684
vt 0.224359 0.217105
vt 0.224359 0.210526
vt 0.224359 0.203947
vt 0.224359 0.197368
vt 0.224359 0.190789
vt 0.224359 0.184211
vt 0.230769 0.184211
vt 0.237179 0.184211
vt 0.243590 0.184211
vt 0.250000 0.184211
vt 0.256410 0.184211
vt 0.262821 0.184211
vt 0.269231 0.184211
vt 0.275641 0.184211
vt 0.282051 0.184211
vt 0.288462 0.184211
vt 0.294872 0.184211
vt 0.301282 0.184211
vt 0.307692 0.184211
vt 0.314103 0.184211
vt 0.320513 0.184211
vt 0.326923 0.184211
vt 0.326923 0.190789
vt 0.326923 0.197368
vt 0.326923 0.203947
vt 0.326923 0.210526
vt 0.326923 0.217105
vt 0.326923 0.223684
vt 0.326923 0.230263
vt 0.326923 0.236842
vt 0.326923 0.243421
vt 0.326923 0.250000
vt 0.326923 0.256579
vt 0.326923 0.263158
vt 0.326923 0.269737
vt 0.326923 0.276316
vt 0.326923 0.282895
vt 0.326923 0.289474
vt 0.320513 0.289474
vt 0.314103 0.289474
vt 0.307692 0.289474
vt 0.301282 0.289474
vt 0.294872 0.289474
vt 0.288462 0.289474
vt 0.282051 0.289474
vt 0.275641 0.289474
vt 0.269231 0.289474
vt 0.262821 0.289474
vt 0.256410 0.289474
vt 0.250000 0.289474
vt 0.243590 0.289474
vt 0.237179 0.289474
vt 0.230769 0.289474
vt 0.224359 0.289474
vt 0.224359 0.282895
vt 0.224359 0.276316
vt 0.224359 0.269737
vt 0.224359 0.263158
vt 0.230769 0.263158
vt 0.237179 0.263158
vt 0.243590 0.263158
vt 0.250000 0.263158
vt 0.256410 0.263158
vt 0.262821 0.263158
vt 0.269231 0.263158
vt 0.275641 0.263158
vt 0.282051 0.263158
vt 0.282051 0.256579
vt 0.288462 0.256579
vt 0.294872 0.256579
vt 0.301282 0.256579
vt 0.307692 0.256579
vt 0.307692 0.250000
vt 0.307692 0.243421
vt 0.307692 0.236842
vt 0.301282 0.236842
vt 0.301282 0.243421
vt 0.294872 0.243421
vt 0.288462 0.243421
vt 0.288462 0.236842
vt 0.288462 0.230263
vt 0.807692 0.052632
vt 0.814103 0.052632
vt 0.814103 0.046053
vt 0.807692 0.046053
vt 0.807692 0.059211
vt 0.801282 0.052632
vt 0.801282 0.059211
vt 0.814103 0.059211
vt 0.820513 0.059211
vt 0.820513 0.065789
vt 0.814103 0.065789
vt 0.288462 0.250000
vt 0.294872 0.250000
vt 0.826923 0.052632
vt 0.820513 0.052632
vt 0.826923 0.059211
vt 0.275641 0.230263
vt 0.282051 0.230263
vt 0.282051 0.236842
vt 0.282051 0.243421
vt 0.275641 0.243421
vt 0.269231 0.243421
vt 0.269231 0.236842
vt 0.269231 0.230263
vt 0.282051 0.250000
vt 0.269231 0.256579
vt 0.262821 0.256579
vt 0.262821 0.250000
vt 0.262821 0.243421
vt 0.262821 0.236842
vt 0.262821 0.230263
vt 0.256410 0.230263
vt 0.256410 0.223684
vt 0.243590 0.243421
vt 0.250000 0.243421
vt 0.256410 0.243421
vt 0.256410 0.250000
vt 0.256410 0.256579
vt 0.250000 0.256579
vt 0.243590 0.256579
vt 0.243590 0.250000
vt 0.224359 0.256579
vt 0.224359 0.250000
vt 0.224359 0.243421
vt 0.801282 0.046053
s 0
usemtl mFD_Dungeon
f 1/1/1 2/2/1 4/3/1 3/4/1
f 3/1/2 4/2/2 8/3/2 7/4/2
f 7/1/3 8/2/3 6/3/3 5/4/3
f 5/1/4 6/2/4 2/3/4 1/4/4
f 232/5/2 231/6/2 233/7/2 234/8/2
f 214/5/1 216/8/1 215/7/1 211/6/1
f 131/9/5 139/10/5 140/11/5 149/12/5 155/13/5 154/14/5 153/15/5 147/16/5 146/17/5 145/18/5 144/19/5 143/20/5 152/21/5 151/22/5 150/23/5 141/24/5 132/25/5 124/26/5 117/27/5 116/28/5 115/29/5 114/30/5 20/31/5 19/32/5 18/33/5 17/34/5 16/35/5 15/36/5 14/37/5 13/38/5 9/39/5 72/40/5 71/41/5 70/42/5 69/43/5 68/44/5 67/45/5 66/46/5 65/47/5 64/48/5 63/49/5 62/50/5 61/51/5 60/52/5 59/53/5 58/54/5 11/55/5 42/56/5 41/57/5 40/58/5 39/59/5 38/60/5 37/61/5 36/62/5 35/63/5 34/64/5 33/65/5 32/66/5 31/67/5 30/68/5 29/69/5 28/70/5 12/71/5 57/72/5 56/73/5 55/74/5 54/75/5 53/76/5 52/77/5 51/78/5 50/79/5 49/80/5 48/81/5 47/82/5 46/83/5 45/84/5 44/85/5 43/86/5 10/87/5 27/88/5 26/89/5 25/90/5 24/91/5 73/92/5 74/93/5 75/94/5 76/95/5 77/96/5 78/97/5 79/98/5 80/99/5 81/100/5 88/101/5 89/102/5 90/103/5 91/104/5 92/105/5 102/106/5 113/107/5 123/108/5 122/109/5 112/110/5 111/111/5 110/112/5 121/113/5 130/114/5
f 147/16/3 153/15/3 187/15/3 183/16/3
f 122/115/2 123/116/2 167/117/2 166/118/2
f 212/5/3 213/6/3 209/7/3 207/8/3
f 100/119/3 111/115/3 162/120/3 201/121/3 137/8/3 90/7/3
f 254/122/3 256/123/3 255/124/3 253/125/3
f 228/115/2 230/120/2 229/8/2 227/7/2
f 112/116/3 122/117/3 166/118/3 163/115/3
f 99/126/5 110/112/5 111/111/5 100/127/5 90/103/5 89/102/5
f 89/128/4 88/129/4 135/123/4 136/130/4
f 79/125/3 86/122/3 134/119/3 94/7/3
f 152/21/1 143/20/1 179/20/1 186/21/1
f 250/128/4 249/129/4 251/123/4 252/130/4
f 128/131/5 129/132/5 120/133/5 109/134/5 108/135/5 107/136/5 119/137/5 127/138/5
f 163/110/5 166/109/5 167/108/5 196/107/5 200/106/5 156/105/5 138/104/5 137/103/5 201/127/5 162/111/5
f 86/115/4 85/120/4 98/121/4 134/119/4
f 88/122/1 81/125/1 97/124/1 135/123/1
f 104/119/2 105/122/2 158/116/2 157/115/2
f 193/133/5 172/132/5 173/114/5 192/113/5 197/112/5 202/126/5 136/102/5 135/101/5 203/139/5 161/134/5
f 123/118/1 113/115/1 102/119/1 92/7/1 156/125/1 200/122/1 196/116/1 167/117/1
f 246/128/4 245/129/4 247/123/4 248/130/4
f 92/122/4 91/119/4 90/121/4 137/8/4 138/7/4 156/125/4
f 242/128/4 241/129/4 243/123/4 244/130/4
f 105/115/1 95/119/1 84/7/1 87/125/1 205/122/1 158/116/1
f 160/135/5 161/134/5 203/139/5 135/101/5 97/100/5 101/99/5 94/98/5 134/140/5 98/141/5 204/142/5 198/143/5 195/144/5 169/145/5 168/146/5 176/147/5 175/25/5 191/24/5 184/23/5 185/22/5 186/21/5 179/20/5 180/19/5 181/18/5 182/17/5 183/16/5 187/15/5 188/14/5 189/13/5 190/12/5 178/11/5 177/10/5 174/9/5 173/114/5 172/132/5 171/131/5 170/138/5 194/137/5 159/136/5
f 199/148/5 164/28/5 165/27/5 157/149/5 158/150/5 205/151/5 87/152/5 148/153/5 142/154/5 206/155/5
f 264/122/2 265/123/2 267/124/2 268/125/2 266/7/2 263/119/2
f 125/146/5 126/145/5 118/144/5 106/143/5 96/142/5 85/141/5 86/140/5 79/98/5 78/97/5 77/96/5 76/95/5 75/94/5 74/93/5 73/92/5 24/91/5 23/156/5 22/157/5 21/158/5 20/31/5 114/30/5 115/29/5 116/28/5 103/148/5 93/155/5 82/154/5 83/153/5 84/152/5 95/151/5 105/150/5 104/149/5 117/27/5 124/26/5 132/25/5 133/147/5
f 93/121/3 103/120/3 116/159/3 164/118/3 199/115/3 206/119/3 142/7/3 82/8/3
f 84/122/4 83/119/4 82/121/4 142/8/4 148/7/4 87/125/4
f 236/122/1 235/125/1 238/124/1 239/123/1
f 258/122/4 257/119/4 260/7/4 262/125/4 261/124/4 259/123/4
f 111/121/2 112/119/2 163/115/2 162/120/2
f 80/122/4 79/119/4 94/7/4 101/125/4 97/124/4 81/123/4
f 237/128/4 236/129/4 239/123/4 240/130/4
f 217/115/1 210/7/1 218/8/1 219/120/1
f 117/159/1 104/120/1 157/115/1 165/118/1
f 224/115/2 226/120/2 225/8/2 223/7/2
f 116/120/2 117/115/2 165/118/2 164/159/2
f 208/115/3 222/120/3 221/8/3 220/7/3
f 276/122/1 277/123/1 279/124/1 280/125/1 278/7/1 275/119/1
f 270/122/3 269/119/3 272/7/3 274/125/3 273/124/3 271/123/3
