# Blender 4.0.2
# www.blender.org
mtllib Floor_03.mtl
o Floor_03
v -0.500000 0.000000 0.500000
v -0.500000 0.125000 0.500000
v -0.500000 0.000000 -0.500000
v -0.500000 0.125000 -0.500000
v 0.500000 0.000000 0.500000
v 0.500000 0.125000 0.500000
v 0.500000 0.000000 -0.500000
v 0.500000 0.125000 -0.500000
v 0.500000 0.000000 0.500000
v 0.500000 0.125000 0.500000
v 0.500000 0.000000 -0.500000
v 0.500000 0.125000 -0.500000
v 0.500000 0.000000 -0.250000
v 0.500000 0.000000 0.000000
v 0.500000 0.000000 0.250000
v 0.500000 0.125000 -0.250000
v 0.500000 0.125000 0.000000
v 0.500000 0.125000 0.250000
vn -1.0000 -0.0000 -0.0000
vn -0.0000 -0.0000 -1.0000
vn 1.0000 -0.0000 -0.0000
vn -0.0000 -0.0000 1.0000
vn -0.0000 1.0000 -0.0000
vt 0.108974 0.032895
vt 0.108974 0.046053
vt 0.006410 0.046053
vt 0.006410 0.032895
vt 0.435897 0.296053
vt 0.435897 0.309211
vt 0.410256 0.309211
vt 0.410256 0.296053
vt 0.333333 0.309211
vt 0.333333 0.296053
vt 0.435897 0.421053
vt 0.333333 0.421053
vt 0.333333 0.315789
vt 0.435897 0.315789
vt 0.358974 0.296053
vt 0.358974 0.309211
vt 0.403846 0.296053
vt 0.403846 0.309211
vt 0.378205 0.309211
vt 0.378205 0.296053
vt 0.352564 0.309211
vt 0.352564 0.296053
s 0
usemtl mFD_Dungeon
f 1/1/1 2/2/1 4/3/1 3/4/1
f 3/1/2 4/2/2 8/3/2 7/4/2
f 11/5/3 12/6/3 16/7/3 13/8/3
f 5/5/4 6/6/4 2/9/4 1/10/4
f 8/11/5 4/12/5 2/13/5 6/14/5
f 15/15/3 18/16/3 10/9/3 9/10/3
f 13/17/3 16/18/3 17/19/3 14/20/3
f 14/20/3 17/19/3 18/21/3 15/22/3
