# Blender 4.0.2
# www.blender.org
mtllib Pillar_04.mtl
o Pillar_04
v 0.500000 0.312500 -0.500000
v 0.500000 0.312500 0.500000
v -0.500000 0.312500 -0.500000
v -0.500000 0.000000 -0.500000
v -0.500000 0.000000 0.500000
v -0.500000 1.687500 0.500000
v -0.500000 2.000000 -0.500000
v 0.500000 2.000000 0.500000
v 0.500000 1.687500 -0.500000
v 0.500000 2.000000 -0.500000
v -0.250000 0.000000 0.250000
v -0.250000 2.000000 0.250000
v -0.250000 0.000000 -0.250000
v -0.250000 2.000000 -0.250000
v 0.250000 0.000000 0.250000
v 0.250000 2.000000 0.250000
v 0.250000 0.000000 -0.250000
v 0.250000 2.000000 -0.250000
v 0.250000 1.687500 -0.500000
v -0.250000 1.687500 -0.500000
v -0.250000 2.000000 -0.500000
v 0.000000 2.000000 -0.500000
v -0.250000 1.687500 0.500000
v 0.000000 1.687500 0.500000
v 0.250000 1.687500 0.500000
v 0.250000 2.000000 0.500000
v -0.250000 2.000000 0.500000
v -0.500000 1.687500 -0.250000
v -0.500000 1.687500 0.000000
v -0.500000 1.687500 0.250000
v -0.500000 2.000000 0.250000
v -0.500000 2.000000 0.000000
v 0.500000 1.687500 0.250000
v 0.500000 1.687500 0.000000
v 0.500000 1.687500 -0.250000
v 0.500000 2.000000 -0.250000
v 0.500000 2.000000 0.250000
v 0.250000 2.000000 -0.250000
v 0.250000 2.000000 0.000000
v 0.250000 2.000000 0.250000
v 0.000000 2.000000 -0.250000
v 0.000000 2.000000 0.000000
v 0.000000 2.000000 0.250000
v -0.250000 2.000000 -0.250000
v -0.250000 2.000000 0.000000
v -0.250000 2.000000 0.250000
v -0.250000 1.687500 -0.250000
v -0.250000 1.687500 0.000000
v -0.250000 1.687500 0.250000
v 0.000000 1.687500 -0.250000
v 0.000000 1.687500 0.000000
v 0.000000 1.687500 0.250000
v 0.250000 1.687500 -0.250000
v 0.250000 1.687500 0.000000
v 0.250000 1.687500 0.250000
v 0.250000 0.312500 0.500000
v -0.250000 0.312500 0.500000
v -0.250000 0.000000 0.500000
v 0.000000 0.000000 0.500000
v 0.250000 0.000000 0.500000
v 0.000000 0.312500 -0.500000
v 0.250000 0.312500 -0.500000
v 0.250000 0.000000 -0.500000
v 0.000000 0.000000 -0.500000
v -0.250000 0.000000 -0.500000
v 0.500000 0.312500 0.000000
v 0.500000 0.000000 0.250000
v 0.500000 0.000000 0.000000
v 0.500000 0.000000 -0.250000
v -0.500000 0.312500 0.250000
v -0.500000 0.312500 -0.250000
v -0.500000 0.000000 0.000000
v -0.250000 0.000000 -0.250000
v -0.250000 0.000000 0.000000
v -0.250000 0.000000 0.250000
v 0.000000 0.000000 -0.250000
v 0.000000 0.000000 0.000000
v 0.000000 0.000000 0.250000
v 0.250000 0.000000 -0.250000
v 0.250000 0.000000 0.000000
v 0.250000 0.000000 0.250000
v 0.250000 0.312500 -0.250000
v 0.250000 0.312500 0.000000
v 0.250000 0.312500 0.250000
v 0.000000 0.312500 -0.250000
v 0.000000 0.312500 0.000000
v 0.000000 0.312500 0.250000
v -0.250000 0.312500 -0.250000
v -0.250000 0.312500 0.000000
v -0.250000 0.312500 0.250000
v -0.250000 0.500000 0.250000
v -0.250000 1.500000 0.250000
v -0.250000 1.000000 -0.250000
v 0.250000 1.500000 -0.250000
v 0.250000 0.500000 -0.250000
v 0.250000 1.000000 0.250000
v 0.409060 0.000000 -0.500000
v 0.500000 0.090940 -0.500000
v 0.500000 0.000000 -0.409060
v 0.500000 0.000000 0.409060
v 0.500000 0.090940 0.500000
v 0.409060 0.000000 0.500000
v -0.500000 0.312500 0.409060
v -0.500000 0.221560 0.500000
v -0.409060 0.312500 0.500000
v -0.500000 1.909060 0.500000
v -0.409060 2.000000 0.500000
v -0.500000 2.000000 0.409060
v -0.500000 1.778440 -0.500000
v -0.409060 1.687500 -0.500000
v -0.500000 1.687500 -0.409060
v 0.500000 1.778440 0.500000
v 0.409060 1.687500 0.500000
v 0.500000 1.687500 0.409060
v 0.000000 1.687500 -0.409060
v -0.090940 1.687500 -0.500000
v 0.000000 1.778440 -0.500000
v 0.090940 1.687500 -0.500000
v 0.340940 2.000000 -0.500000
v 0.250000 1.909060 -0.500000
v 0.159060 2.000000 -0.500000
v 0.250000 2.000000 -0.409060
v -0.500000 1.909060 -0.250000
v -0.500000 2.000000 -0.159060
v -0.409060 2.000000 -0.250000
v -0.500000 2.000000 -0.340940
v 0.500000 2.000000 -0.090940
v 0.409060 2.000000 0.000000
v 0.500000 2.000000 0.090940
v 0.500000 1.909060 0.000000
v 0.000000 0.312500 0.409060
v -0.090940 0.312500 0.500000
v 0.000000 0.221560 0.500000
v 0.090940 0.312500 0.500000
v -0.250000 0.312500 -0.409060
v -0.159060 0.312500 -0.500000
v -0.250000 0.221560 -0.500000
v -0.340940 0.312500 -0.500000
v 0.500000 0.312500 -0.340940
v 0.409060 0.312500 -0.250000
v 0.500000 0.312500 -0.159060
v 0.500000 0.221560 -0.250000
v -0.409060 0.312500 0.000000
v -0.500000 0.312500 -0.090940
v -0.500000 0.221560 0.000000
v -0.500000 0.312500 0.090940
v -0.500000 0.000000 -0.340940
v -0.409060 0.000000 -0.250000
v -0.500000 0.000000 -0.159060
v -0.500000 0.090940 -0.250000
v -0.500000 0.090940 0.250000
v -0.500000 0.000000 0.159060
v -0.409060 0.000000 0.250000
v -0.500000 0.000000 0.340940
v -0.250000 0.909060 0.250000
v -0.159060 1.000000 0.250000
v -0.250000 1.090940 0.250000
v -0.250000 1.000000 0.159060
v -0.250000 1.590940 -0.250000
v -0.159060 1.500000 -0.250000
v -0.250000 1.409060 -0.250000
v -0.250000 1.500000 -0.159060
v -0.250000 0.500000 -0.159060
v -0.250000 0.590940 -0.250000
v -0.159060 0.500000 -0.250000
v -0.250000 0.409060 -0.250000
v 0.250000 1.090940 -0.250000
v 0.250000 1.000000 -0.159060
v 0.250000 0.909060 -0.250000
v 0.159060 1.000000 -0.250000
v 0.250000 1.590940 0.250000
v 0.159060 1.500000 0.250000
v 0.250000 1.409060 0.250000
v 0.250000 1.500000 0.159060
v 0.123545 2.000000 0.500000
v 0.000000 2.000000 0.376455
v -0.123545 2.000000 0.500000
v 0.000000 1.876455 0.500000
v 0.500000 0.188955 0.250000
v 0.500000 0.312500 0.126455
v 0.376455 0.312500 0.250000
v 0.500000 0.312500 0.373545
v 0.250000 0.500000 0.126455
v 0.250000 0.623545 0.250000
v 0.126455 0.500000 0.250000
v 0.250000 0.376455 0.250000
vn -0.0000 -1.0000 -0.0000
vn -1.0000 -0.0000 -0.0000
vn -0.0000 -0.0000 1.0000
vn -0.0000 1.0000 -0.0000
vn 1.0000 -0.0000 -0.0000
vn -0.0000 -0.0000 -1.0000
vn 0.5774 -0.5774 -0.5774
vn 0.5774 -0.5774 0.5774
vn -0.5774 0.5774 0.5774
vn -0.5773 0.5774 0.5774
vn -0.5774 -0.5773 -0.5773
vn 0.5774 -0.5773 0.5773
vn 0.5774 -0.5773 -0.5773
vn -0.5773 0.5774 -0.5774
vn -0.5774 0.5774 -0.5774
vn 0.5773 0.5774 0.5774
vn 0.5774 0.5774 0.5774
vn -0.5774 -0.5774 0.5774
vn -0.5774 0.5773 0.5773
vn -0.5774 -0.5774 -0.5774
vn 0.5774 -0.5773 -0.5774
vn 0.5773 -0.5774 0.5774
vn 0.5774 0.5774 -0.5774
vn -0.5774 -0.5773 0.5774
vn 0.5774 0.5773 -0.5774
vn 0.5774 0.5773 0.5773
vn -0.5774 0.5773 -0.5773
vn 0.5773 0.5774 -0.5774
vt 0.935897 0.427632
vt 0.961538 0.427632
vt 0.961538 0.444375
vt 0.952211 0.453947
vt 0.935897 0.453947
vt 0.961538 0.315789
vt 0.961538 0.334447
vt 0.952211 0.342105
vt 0.935897 0.342105
vt 0.935897 0.315789
vt 0.884615 0.315789
vt 0.884615 0.342105
vt 0.868302 0.342105
vt 0.858974 0.334447
vt 0.858974 0.315789
vt 0.935897 0.348684
vt 0.952211 0.348684
vt 0.961538 0.358257
vt 0.961538 0.375000
vt 0.935897 0.375000
vt 0.935897 0.323448
vt 0.945225 0.315789
vt 0.858974 0.437204
vt 0.868302 0.427632
vt 0.884615 0.427632
vt 0.884615 0.453947
vt 0.858974 0.453947
vt 0.952211 0.315789
vt 0.961538 0.323448
vt 0.961538 0.342105
vt 0.935897 0.315789
vt 0.775641 0.358257
vt 0.784968 0.348684
vt 0.801282 0.348684
vt 0.801282 0.375000
vt 0.775641 0.375000
vt 0.910256 0.358257
vt 0.919584 0.348684
vt 0.910256 0.375000
vt 0.826923 0.427632
vt 0.852564 0.427632
vt 0.852564 0.444375
vt 0.843237 0.453947
vt 0.826923 0.453947
vt 0.884615 0.282895
vt 0.884615 0.309211
vt 0.858974 0.309211
vt 0.858974 0.290553
vt 0.868302 0.282895
vt 0.952211 0.250000
vt 0.961538 0.257658
vt 0.961538 0.276316
vt 0.935897 0.276316
vt 0.935897 0.250000
vt 0.794872 0.131579
vt 0.794872 0.184211
vt 0.752917 0.184211
vt 0.743590 0.174638
vt 0.743590 0.131579
vt 0.743590 0.236842
vt 0.743590 0.193783
vt 0.752917 0.184211
vt 0.794872 0.227270
vt 0.785545 0.236842
vt 0.794872 0.289474
vt 0.794872 0.342105
vt 0.743590 0.342105
vt 0.743590 0.299046
vt 0.752917 0.289474
vt 0.750000 0.427632
vt 0.775641 0.427632
vt 0.775641 0.453947
vt 0.750000 0.453947
vt 0.910256 0.315789
vt 0.910256 0.331701
vt 0.897585 0.342105
vt 0.750000 0.440636
vt 0.762671 0.427632
vt 0.858974 0.427632
vt 0.910256 0.427632
vt 0.910256 0.453947
vt 0.801282 0.427632
vt 0.801282 0.440943
vt 0.788611 0.453947
vt 0.813953 0.453947
vt 0.858974 0.358257
vt 0.868302 0.348684
vt 0.884615 0.348684
vt 0.884615 0.375000
vt 0.858974 0.375000
vt 0.900929 0.250000
vt 0.910256 0.257658
vt 0.910256 0.276316
vt 0.893942 0.276316
vt 0.884615 0.268658
vt 0.884615 0.250000
vt 0.900929 0.348684
vt 0.919583 0.250000
vt 0.935897 0.401316
vt 0.910256 0.401316
vt 0.750000 0.348684
vt 0.766314 0.348684
vt 0.750000 0.375000
vt 0.884615 0.401316
vt 0.884615 0.315789
vt 0.884615 0.334447
vt 0.875288 0.342105
vt 0.858974 0.342105
vt 0.858974 0.323448
vt 0.868302 0.315789
vt 0.858974 0.401316
vt 0.826923 0.348684
vt 0.826923 0.375000
vt 0.826923 0.401316
vt 0.801282 0.401316
vt 0.852564 0.348684
vt 0.852564 0.365427
vt 0.843237 0.375000
vt 0.775641 0.401316
vt 0.875288 0.276316
vt 0.858974 0.276316
vt 0.858974 0.250000
vt 0.910256 0.282895
vt 0.910256 0.301552
vt 0.900929 0.309211
vt 0.801282 0.444375
vt 0.791955 0.453947
vt 0.910256 0.315789
vt 0.910256 0.342105
vt 0.893942 0.342105
vt 0.935897 0.282895
vt 0.935897 0.309211
vt 0.919584 0.309211
vt 0.852564 0.401316
vt 0.961538 0.348684
vt 0.961538 0.401316
vt 0.961538 0.282895
vt 0.961538 0.309211
vt 0.759327 0.401316
vt 0.750000 0.391743
vt 0.750000 0.410888
vt 0.858974 0.334447
vt 0.852564 0.384573
vt 0.750000 0.401316
vt 0.750000 0.414627
vt 0.810609 0.453947
vt 0.919584 0.342105
vt 0.910256 0.334447
vt 0.817596 0.348684
vt 0.826923 0.358257
vt 0.961538 0.250000
vt 0.945225 0.276316
vt 0.935897 0.268658
vt 0.910256 0.250000
vt 0.884615 0.276316
vt 0.858974 0.418059
vt 0.910256 0.309211
vt 0.897287 0.309211
vt 0.884615 0.298807
vt 0.910256 0.334447
vt 0.900929 0.342105
vt 0.836250 0.348684
vt 0.852564 0.375000
vt 0.775641 0.348684
vt 0.759327 0.375000
vt 0.750000 0.365427
vt 0.935897 0.301552
vt 0.926570 0.309211
vt 0.843237 0.401316
vt 0.852564 0.410888
vt 0.794872 0.184211
vt 0.756261 0.184211
vt 0.743590 0.171206
vt 0.910256 0.348684
vt 0.858974 0.384573
vt 0.868302 0.375000
vt 0.875288 0.315789
vt 0.884615 0.323448
vt 0.884615 0.342105
vt 0.858974 0.315789
vt 0.743590 0.236842
vt 0.743590 0.193783
vt 0.752917 0.184211
vt 0.852564 0.391743
vt 0.926570 0.315789
vt 0.935897 0.323448
vt 0.961539 0.323448
vt 0.935897 0.268658
vt 0.926570 0.276316
vt 0.858974 0.348684
vt 0.858974 0.365427
vt 0.900929 0.342105
vt 0.884615 0.323448
vt 0.893942 0.315789
vt 0.858974 0.257658
vt 0.868302 0.250000
vt 0.750000 0.384573
vt 0.871944 0.309211
vt 0.794872 0.227270
vt 0.785545 0.236842
vt 0.743590 0.197215
vt 0.794872 0.246415
vt 0.743590 0.279901
vt 0.756261 0.289474
vt 0.743590 0.276469
vt 0.785545 0.236842
vt 0.794872 0.246415
vt 0.743590 0.302478
vt 0.844689 0.042600
vt 0.829445 0.027717
vt 0.844689 0.031843
vt 0.846215 0.058245
vt 0.829445 0.033095
vt 0.844689 0.037221
vt 0.828397 0.058245
vt 0.846215 0.040272
vt 0.830970 0.041524
vt 0.829445 0.038473
vt 0.844689 0.026465
vt 0.829445 0.044165
vt 0.837830 0.044165
vt 0.836305 0.042600
vt 0.837830 0.027717
vt 0.814295 0.042600
vt 0.833637 0.029515
vt 0.815820 0.044165
vt 0.833637 0.040272
vt 0.835162 0.041524
vt 0.826872 0.046902
vt 0.839355 0.036146
vt 0.813153 0.051205
vt 0.837830 0.034894
vt 0.820012 0.058245
vt 0.821537 0.059810
vt 0.837830 0.040272
vt 0.824205 0.044165
vt 0.822680 0.042600
vt 0.842022 0.029515
vt 0.843547 0.036146
vt 0.813153 0.046902
vt 0.842022 0.034894
vt 0.826872 0.051205
vt 0.828397 0.049640
vt 0.832112 0.037221
vt 0.830970 0.046902
vt 0.833637 0.038473
vt 0.842022 0.038473
vt 0.840497 0.037221
vt 0.830970 0.055508
vt 0.818964 0.022748
vt 0.817439 0.024313
vt 0.810580 0.034484
vt 0.812105 0.015708
vt 0.812105 0.032919
vt 0.810580 0.017273
vt 0.952211 0.282895
vt 0.961538 0.290553
vt 0.945225 0.309211
vt 0.935897 0.301552
vt 0.839902 0.041524
vt 0.820012 0.057684
vt 0.837830 0.039823
vt 0.833637 0.034445
vt 0.835709 0.036146
vt 0.813699 0.055508
vt 0.812651 0.015708
vt 0.810580 0.017834
vt 0.812651 0.032919
vt 0.922928 0.342105
vt 0.811628 0.057634
vt 0.810580 0.035045
vt 0.811628 0.048467
vt 0.839355 0.041524
vt 0.829445 0.057073
vt 0.829445 0.048467
vt 0.843547 0.030767
vt 0.836305 0.026465
vt 0.835162 0.030767
vt 0.811628 0.052770
vt 0.822084 0.059810
vt 0.828397 0.045337
s 0
usemtl mFD_Dungeon
f 81/1/1 67/2/1 100/3/1 102/4/1 60/5/1
f 6/6/2 106/7/2 108/8/2 31/9/2 30/10/2
f 58/11/3 57/12/3 105/13/3 104/14/3 5/15/3
f 63/16/1 97/17/1 99/18/1 69/19/1 79/20/1
f 5/6/2 104/7/2 103/8/2 70/9/2 151/21/2 154/22/2
f 154/23/1 153/24/1 75/25/1 58/26/1 5/27/1
f 113/28/3 112/29/3 8/30/3 26/9/3 25/31/3
f 122/32/4 121/33/4 22/34/4 41/35/4 38/36/4
f 115/37/1 118/38/1 19/16/1 53/20/1 50/39/1
f 46/40/4 31/41/4 108/42/4 107/43/4 27/44/4
f 33/45/5 37/46/5 8/47/5 112/48/5 114/49/5
f 110/50/6 109/51/6 7/52/6 21/53/6 20/54/6
f 11/55/2 91/56/2 163/57/2 166/58/2 13/59/2
f 93/60/6 161/61/6 160/62/6 94/56/6 167/63/6 170/64/6
f 94/65/5 18/66/5 16/67/5 171/68/5 174/69/5
f 37/70/4 40/71/4 26/72/4 8/73/4
f 24/74/3 178/75/3 177/76/3 27/12/3 23/11/3
f 182/77/4 181/78/4 84/71/4 56/72/4 2/73/4
f 30/79/1 49/25/1 23/26/1 6/27/1
f 49/25/1 52/80/1 24/81/1 23/26/1
f 52/80/1 55/1/1 25/5/1 24/81/1
f 55/1/1 33/2/1 114/3/1 113/4/1 25/5/1
f 40/71/4 43/82/4 176/83/4 175/84/4 26/72/4
f 43/82/4 46/40/4 27/44/4 177/85/4 176/83/4
f 111/86/1 110/87/1 20/88/1 47/89/1 28/90/1
f 118/91/6 117/92/6 22/93/6 121/94/6 120/95/6 19/96/6
f 20/88/1 116/97/1 115/37/1 50/39/1 47/89/1
f 20/54/6 21/53/6 22/93/6 117/92/6 116/98/6
f 50/39/1 53/20/1 54/99/1 51/100/1
f 51/100/1 54/99/1 55/1/1 52/80/1
f 10/101/4 119/102/4 122/32/4 38/36/4 36/103/4
f 47/89/1 50/39/1 51/100/1 48/104/1
f 48/104/1 51/100/1 52/80/1 49/25/1
f 28/105/2 123/106/2 126/107/2 7/108/2 109/109/2 111/110/2
f 28/90/1 47/89/1 48/104/1 29/111/1
f 29/111/1 48/104/1 49/25/1 30/79/1
f 22/34/4 21/112/4 44/113/4 41/35/4
f 41/35/4 44/113/4 45/114/4 42/115/4
f 42/115/4 45/114/4 46/40/4 43/82/4
f 21/112/4 7/116/4 126/117/4 125/118/4 44/113/4
f 38/36/4 41/35/4 42/115/4 39/119/4
f 39/119/4 42/115/4 43/82/4 40/71/4
f 19/96/6 120/95/6 119/120/6 10/121/6 9/122/6
f 34/123/5 130/124/5 129/125/5 37/46/5 33/45/5
f 84/71/4 87/82/4 131/126/4 134/127/4 56/72/4
f 29/128/2 32/129/2 124/130/2 123/106/2 28/105/2
f 35/131/5 36/132/5 127/133/5 130/124/5 34/123/5
f 45/114/4 32/134/4 31/41/4 46/40/4
f 19/16/1 9/135/1 35/19/1 53/20/1
f 53/20/1 35/19/1 34/136/1 54/99/1
f 54/99/1 34/136/1 33/2/1 55/1/1
f 9/137/5 10/138/5 36/132/5 35/131/5
f 36/103/4 38/36/4 39/119/4 128/139/4 127/140/4
f 129/141/4 128/139/4 39/119/4 40/71/4 37/70/4
f 23/11/3 27/12/3 107/13/3 106/142/3 6/15/3
f 30/10/2 31/9/2 32/129/2 29/128/2
f 44/113/4 125/118/4 124/143/4 32/134/4 45/114/4
f 66/144/4 83/119/4 84/71/4 181/78/4 180/145/4
f 87/82/4 90/40/4 57/44/4 132/146/4 131/126/4
f 60/31/3 56/9/3 134/147/3 133/148/3 59/74/3
f 61/34/4 136/149/4 135/150/4 88/113/4 85/35/4
f 4/151/6 3/52/6 138/152/6 137/153/6 65/54/6
f 64/154/6 61/93/6 62/155/6 63/96/6
f 72/111/1 74/104/1 75/25/1 153/24/1 152/156/1
f 75/25/1 78/80/1 59/81/1 58/26/1
f 78/80/1 81/1/1 60/5/1 59/81/1
f 68/123/5 66/157/5 180/158/5 179/159/5 67/45/5
f 59/74/3 133/160/3 132/161/3 57/12/3 58/11/3
f 135/150/4 138/162/4 3/116/4 71/163/4 88/113/4
f 1/101/4 62/164/4 82/36/4 140/165/4 139/166/4
f 85/35/4 88/113/4 89/114/4 86/115/4
f 86/115/4 89/114/4 90/40/4 87/82/4
f 62/164/4 61/34/4 85/35/4 82/36/4
f 82/36/4 85/35/4 86/115/4 83/119/4
f 83/119/4 86/115/4 87/82/4 84/71/4
f 69/131/5 142/167/5 141/168/5 66/157/5 68/123/5
f 89/114/4 143/169/4 146/170/4 70/41/4 90/40/4
f 17/55/5 95/171/5 183/172/5 186/173/5 15/59/5
f 64/174/1 63/16/1 79/20/1 76/39/1
f 76/39/1 79/20/1 80/99/1 77/100/1
f 77/100/1 80/99/1 81/1/1 78/80/1
f 65/88/1 64/174/1 76/39/1 73/89/1
f 73/89/1 76/39/1 77/100/1 74/104/1
f 74/104/1 77/100/1 78/80/1 75/25/1
f 149/175/1 148/176/1 73/89/1 74/104/1 72/111/1
f 147/177/2 150/178/2 71/179/2 3/108/2 4/180/2
f 91/56/2 155/63/2 158/64/2 93/181/2 164/182/2 163/183/2
f 90/40/4 70/41/4 103/42/4 105/43/4 57/44/4
f 88/113/4 71/163/4 144/184/4 143/169/4 89/114/4
f 152/185/2 151/186/2 70/9/2 146/147/2 145/148/2 72/128/2
f 102/28/3 101/187/3 2/30/3 56/9/3 60/31/3
f 79/20/1 69/19/1 68/136/1 80/99/1
f 80/99/1 68/136/1 67/2/1 81/1/1
f 65/54/6 137/188/6 136/189/6 61/93/6 64/154/6
f 4/190/1 65/88/1 73/89/1 148/176/1 147/191/1
f 72/128/2 145/160/2 144/192/2 71/179/2 150/193/2 149/194/2
f 63/96/6 62/155/6 1/121/6 98/195/6 97/196/6
f 141/197/4 140/165/4 82/36/4 83/119/4 66/144/4
f 67/45/5 179/159/5 182/198/5 2/47/5 101/48/5 100/49/5
f 95/171/5 169/199/5 168/200/5 96/181/5 184/201/5 183/172/5
f 158/200/2 157/202/2 92/65/2 162/69/2 161/203/2 93/181/2
f 160/183/6 159/58/6 14/59/6 18/55/6 94/56/6
f 185/204/3 184/205/3 96/60/3 156/206/3 155/207/3 91/65/3
f 172/183/3 171/58/3 16/59/3 12/55/3 92/171/3
f 168/206/5 167/207/5 94/65/5 174/69/5 173/203/5 96/181/5
f 13/67/6 166/68/6 165/69/6 95/65/6 17/66/6
f 92/65/2 12/66/2 14/67/2 159/68/2 162/69/2
f 165/69/6 164/203/6 93/60/6 170/64/6 169/202/6 95/65/6
f 15/67/3 186/208/3 185/204/3 91/65/3 11/66/3
f 96/60/3 173/61/3 172/183/3 92/171/3 157/199/3 156/200/3
f 97/209/7 98/210/7 99/211/7
f 100/212/8 101/213/8 102/214/8
f 103/215/9 104/216/9 105/217/9
f 106/216/10 107/217/10 108/215/10
f 109/218/11 110/219/11 111/220/11
f 112/213/12 113/214/12 114/212/12
f 115/221/13 116/222/13 117/223/13
f 119/224/14 120/225/14 122/226/14
f 123/227/15 124/228/15 125/229/15
f 127/230/16 128/231/16 130/232/16
f 131/233/17 132/234/17 133/235/17
f 135/236/15 136/237/15 137/238/15
f 139/239/17 140/240/17 142/241/17
f 143/242/9 144/243/9 145/235/9
f 147/244/18 148/245/18 150/246/18
f 151/247/18 152/248/18 153/249/18
f 155/250/19 156/251/19 158/251/19
f 159/252/20 160/253/20 162/254/20
f 163/253/20 164/255/20 165/254/20
f 167/250/21 168/251/21 170/251/21
f 171/252/22 172/253/22 174/254/22
f 99/256/5 98/257/5 1/138/5 139/258/5 142/259/5 69/131/5
f 175/260/9 176/261/9 178/262/9
f 179/263/17 180/264/17 181/265/17
f 183/266/8 184/267/8 185/268/8
f 25/31/3 26/9/3 175/269/3 178/75/3 24/74/3
f 181/265/23 182/270/23 179/263/23
f 185/268/17 186/271/17 183/266/17
f 142/241/23 140/240/23 141/272/23
f 133/235/9 134/273/9 131/233/9
f 145/235/15 146/273/15 143/242/15
f 153/249/20 154/274/20 151/247/20
f 150/246/20 148/245/20 149/275/20
f 137/238/23 138/276/23 135/236/23
f 165/254/15 166/252/15 163/253/15
f 158/251/24 156/251/24 157/250/24
f 170/251/25 168/251/25 169/250/25
f 174/254/26 172/253/26 173/255/26
f 162/254/27 160/253/27 161/255/27
f 117/223/11 118/277/11 115/221/11
f 122/226/28 120/225/28 121/278/28
f 130/232/28 128/231/28 129/279/28
f 178/262/17 176/261/17 177/280/17
f 125/229/9 126/281/9 123/227/9
