# Blender 4.0.2
# www.blender.org
mtllib Pillar_10.mtl
o Pillar_10
v 0.500000 0.312500 -0.500000
v 0.500000 0.000000 -0.500000
v 0.500000 0.312500 0.500000
v 0.500000 0.000000 0.500000
v -0.500000 0.312500 -0.500000
v -0.500000 0.000000 0.500000
v -0.250000 0.812500 0.250000
v -0.250000 1.000000 -0.250000
v 0.250000 0.812500 0.250000
v -0.250000 0.000000 0.250000
v -0.250000 0.000000 -0.250000
v 0.250000 0.000000 0.250000
v 0.250000 0.000000 -0.250000
v -0.250000 0.750000 0.250000
v -0.250000 0.500000 0.250000
v -0.250000 0.250000 0.250000
v 0.250000 0.750000 -0.250000
v 0.250000 0.500000 -0.250000
v 0.250000 0.250000 -0.250000
v 0.250000 0.750000 0.250000
v 0.250000 0.250000 0.250000
v -0.250000 0.500000 -0.250000
v -0.250000 0.250000 -0.250000
v 0.114021 1.000000 -0.250000
v 0.250000 0.952254 -0.122678
v 0.250000 0.864021 -0.250000
v 0.161039 0.500000 0.250000
v 0.250000 0.411039 0.250000
v 0.250000 0.500000 0.161039
v 0.250000 0.588961 0.250000
v -0.151502 0.750000 -0.250000
v -0.250000 0.651502 -0.250000
v -0.250000 0.750000 -0.151502
v -0.250000 0.848498 -0.250000
v 0.500000 0.312500 -0.250000
v 0.500000 0.312500 0.000000
v 0.500000 0.312500 0.250000
v 0.500000 0.000000 0.250000
v 0.500000 0.000000 -0.250000
v -0.500000 0.312500 0.250000
v -0.500000 0.312500 0.000000
v -0.500000 0.312500 -0.250000
v -0.500000 0.000000 -0.250000
v -0.500000 0.000000 0.000000
v -0.500000 0.000000 0.250000
v 0.000000 0.312500 0.500000
v -0.250000 0.312500 0.500000
v -0.250000 0.000000 0.500000
v 0.000000 0.000000 0.500000
v 0.250000 0.000000 0.500000
v -0.250000 0.312500 -0.500000
v 0.000000 0.312500 -0.500000
v 0.250000 0.000000 -0.500000
v 0.000000 0.000000 -0.500000
v -0.250000 0.000000 -0.500000
v 0.250000 0.000000 -0.250000
v 0.000000 0.000000 -0.250000
v -0.250000 0.000000 -0.250000
v 0.250000 0.000000 0.000000
v 0.000000 0.000000 0.000000
v -0.250000 0.000000 0.000000
v 0.250000 0.000000 0.250000
v 0.000000 0.000000 0.250000
v -0.250000 0.000000 0.250000
v -0.250000 0.312500 -0.250000
v 0.000000 0.312500 -0.250000
v 0.250000 0.312500 -0.250000
v -0.250000 0.312500 0.000000
v 0.000000 0.312500 0.000000
v 0.250000 0.312500 0.000000
v -0.250000 0.312500 0.250000
v 0.000000 0.312500 0.250000
v 0.250000 0.312500 0.250000
v -0.500000 0.312500 0.332915
v -0.500000 0.145415 0.500000
v -0.332915 0.312500 0.500000
v 0.250000 0.312500 0.425390
v 0.175390 0.312500 0.500000
v 0.250000 0.237890 0.500000
v 0.324610 0.312500 0.500000
v 0.367410 0.000000 0.000000
v 0.500000 0.000000 -0.132590
v 0.500000 0.132590 0.000000
v 0.500000 0.000000 0.132590
v 0.250000 0.218085 -0.500000
v 0.155585 0.312500 -0.500000
v 0.250000 0.312500 -0.405585
v 0.344415 0.312500 -0.500000
v -0.500000 0.000000 -0.334185
v -0.500000 0.165815 -0.500000
v -0.334185 0.000000 -0.500000
vn 1.0000 -0.0000 -0.0000
vn -0.0000 -1.0000 -0.0000
vn -0.0000 1.0000 -0.0000
vn -1.0000 -0.0000 -0.0000
vn -0.0000 -0.0000 1.0000
vn -0.0000 0.9363 0.3511
vn -0.0000 -0.0000 -1.0000
vn 0.6350 0.6350 -0.4400
vn 0.5774 0.5774 0.5774
vn -0.5774 0.5774 -0.5774
vn -0.5774 0.5774 0.5774
vn 0.5774 -0.5774 0.5774
vn 0.5774 0.5774 -0.5774
vn -0.5774 -0.5774 -0.5774
vn -0.5773 -0.5774 -0.5774
vn 0.5774 -0.5774 -0.5774
vt 0.884615 0.282895
vt 0.884615 0.309211
vt 0.858974 0.309211
vt 0.858974 0.282895
vt 0.935897 0.427632
vt 0.961538 0.427632
vt 0.961538 0.453947
vt 0.935897 0.453947
vt 0.775641 0.358623
vt 0.785325 0.348684
vt 0.801282 0.348684
vt 0.801282 0.375000
vt 0.775641 0.375000
vt 0.961538 0.315789
vt 0.961538 0.328035
vt 0.944402 0.342105
vt 0.935897 0.342105
vt 0.935897 0.315789
vt 0.858974 0.366138
vt 0.875981 0.348684
vt 0.884615 0.348684
vt 0.884615 0.375000
vt 0.858974 0.375000
vt 0.852564 0.210526
vt 0.852564 0.222528
vt 0.839505 0.231816
vt 0.801282 0.217105
vt 0.801282 0.210526
vt 0.743590 0.263158
vt 0.743590 0.236842
vt 0.794872 0.236842
vt 0.794872 0.263158
vt 0.743590 0.026560
vt 0.757536 0.013158
vt 0.794872 0.013158
vt 0.794872 0.065789
vt 0.743590 0.065789
vt 0.743590 0.289474
vt 0.743590 0.273526
vt 0.753692 0.263158
vt 0.794872 0.289474
vt 0.794872 0.131579
vt 0.794872 0.157895
vt 0.743590 0.157895
vt 0.743590 0.131579
vt 0.794872 0.184211
vt 0.743590 0.184211
vt 0.852564 0.217105
vt 0.801282 0.236842
vt 0.801282 0.220894
vt 0.811384 0.210526
vt 0.743590 0.342105
vt 0.743590 0.315789
vt 0.794872 0.315789
vt 0.794872 0.342105
vt 0.794872 0.157895
vt 0.794872 0.184211
vt 0.794872 0.210526
vt 0.743590 0.210526
vt 0.743590 0.193575
vt 0.752714 0.184211
vt 0.743590 0.298838
vt 0.752714 0.289474
vt 0.794872 0.315789
vt 0.743590 0.174846
vt 0.821570 0.040198
vt 0.818012 0.020158
vt 0.828397 0.038834
vt 0.753692 0.210526
vt 0.743590 0.200158
vt 0.818881 0.045214
vt 0.818012 0.046106
vt 0.818881 0.035182
vt 0.743590 0.280109
vt 0.818974 0.042706
vt 0.818012 0.043694
vt 0.818974 0.037690
vt 0.743590 0.252790
vt 0.780925 0.236842
vt 0.794872 0.251156
vt 0.826923 0.427632
vt 0.852564 0.427632
vt 0.852564 0.436360
vt 0.835427 0.453947
vt 0.826923 0.453947
vt 0.910256 0.342105
vt 0.910256 0.315789
vt 0.884615 0.342105
vt 0.884615 0.315789
vt 0.935897 0.348684
vt 0.961538 0.348684
vt 0.961538 0.375000
vt 0.935897 0.375000
vt 0.935897 0.401316
vt 0.947940 0.401316
vt 0.961538 0.415273
vt 0.935897 0.282895
vt 0.935897 0.309211
vt 0.910256 0.309211
vt 0.910256 0.294060
vt 0.923855 0.282895
vt 0.826923 0.348684
vt 0.852564 0.348684
vt 0.852564 0.375000
vt 0.826923 0.375000
vt 0.852564 0.401316
vt 0.826923 0.401316
vt 0.961538 0.282895
vt 0.961538 0.309211
vt 0.961538 0.387359
vt 0.750000 0.401316
vt 0.775641 0.401316
vt 0.775641 0.427632
vt 0.750000 0.427632
vt 0.801282 0.401316
vt 0.801282 0.427632
vt 0.750000 0.375000
vt 0.910256 0.250000
vt 0.910256 0.276316
vt 0.894299 0.276316
vt 0.884615 0.268365
vt 0.884615 0.250000
vt 0.858974 0.401316
vt 0.884615 0.401316
vt 0.884615 0.427632
vt 0.858974 0.427632
vt 0.910256 0.401316
vt 0.910256 0.427632
vt 0.910256 0.375000
vt 0.910256 0.348684
vt 0.801282 0.453947
vt 0.783293 0.453947
vt 0.775641 0.446094
vt 0.961538 0.315789
vt 0.961538 0.342105
vt 0.943550 0.342105
vt 0.935897 0.335822
vt 0.935897 0.315789
vt 0.910256 0.315789
vt 0.884615 0.342105
vt 0.884615 0.315789
vt 0.858974 0.342105
vt 0.858974 0.329753
vt 0.875981 0.315789
vt 0.935897 0.250000
vt 0.935897 0.276316
vt 0.874932 0.276316
vt 0.858974 0.276316
vt 0.858974 0.250000
vt 0.884615 0.453947
vt 0.858974 0.453947
vt 0.910256 0.453947
vt 0.928245 0.342105
vt 0.828397 0.059212
vt 0.838782 0.048889
vt 0.830641 0.050230
vt 0.876111 0.342105
vt 0.858974 0.328035
vt 0.858974 0.315789
vt 0.821066 0.060140
vt 0.821796 0.060888
vt 0.836339 0.049631
vt 0.767989 0.453947
vt 0.750000 0.453947
vt 0.837486 0.055872
vt 0.838782 0.054542
vt 0.833895 0.045651
vt 0.896657 0.282895
vt 0.910256 0.294060
vt 0.831451 0.043202
vt 0.832374 0.043960
vt 0.821066 0.051804
vt 0.750000 0.348684
vt 0.765957 0.348684
vt 0.829008 0.052520
vt 0.829008 0.049052
vt 0.837161 0.041452
vt 0.944532 0.250000
vt 0.961538 0.263963
vt 0.961538 0.276316
vt 0.820143 0.050857
vt 0.823510 0.038678
vt 0.832599 0.044587
vt 0.818012 0.036075
vt 0.837068 0.050230
s 0
usemtl mFD_Dungeon
f 38/1/1 37/2/1 3/3/1 4/4/1
f 62/5/2 38/6/2 4/7/2 50/8/2
f 87/9/3 86/10/3 52/11/3 66/12/3 67/13/3
f 6/14/4 75/15/4 74/16/4 40/17/4 45/18/4
f 89/19/2 91/20/2 55/21/2 58/22/2 43/23/2
f 17/24/1 26/25/1 25/26/1 9/27/1 20/28/1
f 20/29/5 9/30/5 7/31/5 14/32/5
f 25/33/6 24/34/6 8/35/6 7/36/6 9/37/6
f 22/38/7 32/39/7 31/40/7 17/32/7 18/41/7
f 10/42/4 16/43/4 23/44/4 11/45/4
f 16/43/4 15/46/4 22/47/4 23/44/4
f 14/24/4 7/48/4 8/49/4 34/50/4 33/51/4
f 11/52/7 23/53/7 19/54/7 13/55/7
f 23/53/7 22/38/7 18/41/7 19/54/7
f 13/42/1 19/56/1 21/44/1 12/45/1
f 18/57/1 17/58/1 20/59/1 30/60/1 29/61/1
f 21/53/5 28/62/5 27/63/5 15/41/5 16/64/5
f 12/52/5 21/53/5 16/64/5 10/55/5
f 19/56/1 18/57/1 29/61/1 28/65/1 21/44/1
f 24/66/8 25/67/8 26/68/8
f 15/46/4 14/58/4 33/69/4 32/70/4 22/47/4
f 27/71/9 28/72/9 29/73/9
f 27/63/5 30/74/5 20/29/5 14/32/5 15/41/5
f 31/75/10 32/76/10 33/77/10
f 31/40/7 34/78/7 8/30/7 24/79/7 26/80/7 17/32/7
f 71/81/3 40/82/3 74/83/3 76/84/3 47/85/3
f 45/18/4 40/17/4 41/86/4 44/87/4
f 44/87/4 41/86/4 42/88/4 43/89/4
f 53/90/2 2/91/2 39/92/2 56/93/2
f 59/94/2 81/95/2 84/96/2 38/6/2 62/5/2
f 39/97/1 35/98/1 36/99/1 83/100/1 82/101/1
f 51/102/3 5/103/3 42/104/3 65/105/3
f 65/105/3 42/104/3 41/106/3 68/107/3
f 68/107/3 41/106/3 40/82/3 71/81/3
f 2/108/1 1/109/1 35/98/1 39/97/1
f 56/93/2 39/92/2 82/110/2 81/95/2 59/94/2
f 36/111/3 70/112/3 73/113/3 37/114/3
f 70/112/3 69/115/3 72/116/3 73/113/3
f 69/115/3 68/107/3 71/81/3 72/116/3
f 35/117/3 67/13/3 70/112/3 36/111/3
f 67/13/3 66/12/3 69/115/3 70/112/3
f 66/12/3 65/105/3 68/107/3 69/115/3
f 54/118/7 52/119/7 86/120/7 85/121/7 53/122/7
f 52/11/3 51/102/3 65/105/3 66/12/3
f 44/123/2 61/124/2 64/125/2 45/126/2
f 61/124/2 60/127/2 63/128/2 64/125/2
f 60/127/2 59/94/2 62/5/2 63/128/2
f 43/23/2 58/22/2 61/124/2 44/123/2
f 58/22/2 57/129/2 60/127/2 61/124/2
f 57/129/2 56/93/2 59/94/2 60/127/2
f 55/21/2 54/130/2 57/129/2 58/22/2
f 54/130/2 53/90/2 56/93/2 57/129/2
f 73/113/3 72/116/3 46/131/3 78/132/3 77/133/3
f 4/134/5 3/135/5 80/136/5 79/137/5 50/138/5
f 49/139/5 46/86/5 47/140/5 48/141/5
f 43/89/4 42/88/4 5/142/4 90/143/4 89/144/4
f 55/145/7 51/146/7 52/119/7 54/118/7
f 53/122/7 85/121/7 88/147/7 1/148/7 2/149/7
f 45/126/2 64/125/2 48/150/2 6/151/2
f 64/125/2 63/128/2 49/152/2 48/150/2
f 63/128/2 62/5/2 50/8/2 49/152/2
f 50/138/5 79/137/5 78/153/5 46/86/5 49/139/5
f 72/116/3 71/81/3 47/85/3 46/131/3
f 74/154/11 75/155/11 76/156/11
f 48/141/5 47/140/5 76/157/5 75/158/5 6/159/5
f 77/160/9 78/161/9 79/162/9
f 37/114/3 73/113/3 77/133/3 80/163/3 3/164/3
f 81/165/12 82/166/12 83/167/12
f 84/168/1 83/169/1 36/99/1 37/2/1 38/1/1
f 85/170/13 86/171/13 87/172/13
f 1/173/3 88/174/3 87/9/3 67/13/3 35/117/3
f 89/175/14 90/176/14 91/177/14
f 91/178/7 90/179/7 5/180/7 51/146/7 55/145/7
f 87/172/10 88/181/10 85/170/10
f 33/77/15 34/182/15 31/75/15
f 83/167/16 84/183/16 81/165/16
f 29/73/12 30/184/12 27/71/12
f 79/162/11 80/185/11 77/160/11
