# Blender 4.0.2
# www.blender.org
mtllib Pillar_06.mtl
o Pillar_06
v 0.500000 0.312500 -0.500000
v 0.500000 0.000000 -0.500000
v 0.500000 0.312500 0.500000
v 0.500000 0.000000 0.500000
v -0.500000 0.312500 -0.500000
v -0.500000 0.000000 0.500000
v -0.500000 2.000000 0.500000
v -0.500000 1.687500 -0.500000
v -0.500000 2.000000 -0.500000
v 0.500000 1.687500 0.500000
v 0.500000 1.687500 -0.500000
v 0.500000 2.000000 -0.500000
v -0.250000 0.000000 0.250000
v -0.250000 2.000000 0.250000
v -0.250000 0.000000 -0.250000
v -0.250000 2.000000 -0.250000
v 0.250000 0.000000 0.250000
v 0.250000 2.000000 0.250000
v 0.250000 0.000000 -0.250000
v 0.250000 2.000000 -0.250000
v 0.000000 1.687500 -0.500000
v -0.250000 2.000000 -0.500000
v 0.250000 2.000000 -0.500000
v -0.250000 1.687500 0.500000
v 0.000000 1.687500 0.500000
v 0.250000 2.000000 0.500000
v -0.250000 2.000000 0.500000
v -0.500000 1.687500 0.000000
v -0.500000 1.687500 0.250000
v -0.500000 2.000000 0.000000
v -0.500000 2.000000 -0.250000
v 0.500000 1.687500 0.250000
v 0.500000 1.687500 -0.250000
v 0.500000 2.000000 0.000000
v 0.500000 2.000000 0.250000
v 0.250000 2.000000 -0.250000
v 0.250000 2.000000 0.000000
v 0.250000 2.000000 0.250000
v 0.000000 2.000000 -0.250000
v 0.000000 2.000000 0.000000
v 0.000000 2.000000 0.250000
v -0.250000 2.000000 -0.250000
v -0.250000 2.000000 0.000000
v -0.250000 2.000000 0.250000
v -0.250000 1.687500 -0.250000
v -0.250000 1.687500 0.000000
v -0.250000 1.687500 0.250000
v 0.000000 1.687500 -0.250000
v 0.000000 1.687500 0.000000
v 0.000000 1.687500 0.250000
v 0.250000 1.687500 -0.250000
v 0.250000 1.687500 0.000000
v 0.250000 1.687500 0.250000
v -0.250000 0.500000 0.250000
v -0.250000 1.500000 0.250000
v -0.250000 1.500000 -0.250000
v -0.250000 1.000000 -0.250000
v 0.250000 1.500000 -0.250000
v 0.250000 0.500000 -0.250000
v 0.250000 1.000000 0.250000
v 0.250000 0.312500 0.500000
v -0.250000 0.312500 0.500000
v -0.250000 0.000000 0.500000
v 0.000000 0.000000 0.500000
v 0.000000 0.312500 -0.500000
v 0.250000 0.312500 -0.500000
v 0.000000 0.000000 -0.500000
v -0.250000 0.000000 -0.500000
v 0.500000 0.312500 -0.250000
v 0.500000 0.312500 0.250000
v 0.500000 0.000000 0.250000
v 0.500000 0.000000 0.000000
v -0.500000 0.312500 0.250000
v -0.500000 0.312500 -0.250000
v -0.500000 0.000000 -0.250000
v -0.500000 0.000000 0.000000
v -0.500000 0.000000 0.250000
v -0.250000 0.000000 -0.250000
v -0.250000 0.000000 0.000000
v -0.250000 0.000000 0.250000
v 0.000000 0.000000 -0.250000
v 0.000000 0.000000 0.000000
v 0.000000 0.000000 0.250000
v 0.250000 0.000000 -0.250000
v 0.250000 0.000000 0.000000
v 0.250000 0.000000 0.250000
v 0.250000 0.312500 -0.250000
v 0.250000 0.312500 0.000000
v 0.250000 0.312500 0.250000
v 0.000000 0.312500 -0.250000
v 0.000000 0.312500 0.000000
v 0.000000 0.312500 0.250000
v -0.250000 0.312500 -0.250000
v -0.250000 0.312500 0.000000
v -0.250000 0.312500 0.250000
v -0.500000 0.312500 0.409305
v -0.500000 0.221805 0.500000
v -0.409305 0.312500 0.500000
v -0.409305 1.687500 0.500000
v -0.500000 1.778195 0.500000
v -0.500000 1.687500 0.409305
v 0.409305 2.000000 0.500000
v 0.500000 1.909305 0.500000
v 0.500000 2.000000 0.409305
v 0.000000 2.000000 -0.409305
v 0.090695 2.000000 -0.500000
v 0.000000 1.909305 -0.500000
v -0.090695 2.000000 -0.500000
v 0.090695 2.000000 0.500000
v 0.000000 2.000000 0.409305
v -0.090695 2.000000 0.500000
v 0.000000 1.909305 0.500000
v -0.500000 1.687500 -0.340695
v -0.409305 1.687500 -0.250000
v -0.500000 1.687500 -0.159305
v -0.500000 1.778195 -0.250000
v -0.500000 2.000000 0.340695
v -0.409305 2.000000 0.250000
v -0.500000 2.000000 0.159305
v -0.500000 1.909305 0.250000
v 0.500000 1.687500 0.090695
v 0.409305 1.687500 0.000000
v 0.500000 1.687500 -0.090695
v 0.500000 1.778195 0.000000
v 0.250000 1.090695 -0.250000
v 0.250000 1.000000 -0.159305
v 0.250000 0.909305 -0.250000
v 0.159305 1.000000 -0.250000
v 0.340695 0.000000 0.500000
v 0.250000 0.090695 0.500000
v 0.159305 0.000000 0.500000
v 0.250000 0.000000 0.409305
v -0.250000 0.312500 -0.409305
v -0.159305 0.312500 -0.500000
v -0.250000 0.221805 -0.500000
v -0.340695 0.312500 -0.500000
v 0.250000 0.000000 -0.409305
v 0.159305 0.000000 -0.500000
v 0.250000 0.090695 -0.500000
v 0.340695 0.000000 -0.500000
v 0.500000 0.312500 -0.090695
v 0.409305 0.312500 0.000000
v 0.500000 0.312500 0.090695
v 0.500000 0.221805 0.000000
v -0.500000 0.000000 -0.451412
v -0.500000 0.048588 -0.500000
v -0.451412 0.000000 -0.500000
v 0.250000 1.687500 -0.451412
v 0.201412 1.687500 -0.500000
v 0.250000 1.736088 -0.500000
v 0.298588 1.687500 -0.500000
v -0.298588 1.687500 -0.500000
v -0.250000 1.736088 -0.500000
v -0.201412 1.687500 -0.500000
v -0.250000 1.687500 -0.451412
v 0.250000 1.736088 0.500000
v 0.201412 1.687500 0.500000
v 0.250000 1.687500 0.451412
v 0.298588 1.687500 0.500000
v 0.500000 2.000000 -0.298588
v 0.451412 2.000000 -0.250000
v 0.500000 2.000000 -0.201412
v 0.500000 1.951412 -0.250000
v -0.250000 0.951412 0.250000
v -0.201412 1.000000 0.250000
v -0.250000 1.048588 0.250000
v -0.250000 1.000000 0.201412
v -0.250000 0.500000 -0.201412
v -0.250000 0.548588 -0.250000
v -0.201412 0.500000 -0.250000
v -0.250000 0.451412 -0.250000
v 0.250000 1.548588 0.250000
v 0.201412 1.500000 0.250000
v 0.250000 1.451412 0.250000
v 0.250000 1.500000 0.201412
v 0.250000 0.500000 0.201412
v 0.250000 0.548588 0.250000
v 0.201412 0.500000 0.250000
v 0.250000 0.451412 0.250000
v 0.000000 0.312500 0.451412
v -0.048588 0.312500 0.500000
v 0.000000 0.263912 0.500000
v 0.048588 0.312500 0.500000
v 0.500000 0.048588 -0.250000
v 0.500000 0.000000 -0.201412
v 0.451412 0.000000 -0.250000
v 0.500000 0.000000 -0.298588
v -0.451412 0.312500 0.000000
v -0.500000 0.312500 -0.048588
v -0.500000 0.263912 0.000000
v -0.500000 0.312500 0.048588
vn 1.0000 -0.0000 -0.0000
vn -1.0000 -0.0000 -0.0000
vn -0.0000 1.0000 -0.0000
vn -0.0000 -1.0000 -0.0000
vn -0.0000 -0.0000 1.0000
vn -0.0000 -0.0000 -1.0000
vn -0.5774 0.5774 0.5774
vn -0.5773 -0.5774 0.5774
vn 0.5774 0.5774 0.5774
vn -0.5774 0.5774 -0.5774
vn 0.5774 -0.5774 -0.5774
vn 0.5773 -0.5774 -0.5774
vn -0.5774 -0.5774 0.5774
vn -0.5774 -0.5774 -0.5774
vn 0.5774 -0.5773 -0.5774
vn 0.5774 -0.5773 0.5774
vn 0.5774 0.5773 0.5774
vn -0.5773 0.5774 0.5774
vn -0.5773 -0.5774 -0.5774
vn 0.5773 -0.5774 0.5774
vn 0.5774 0.5774 -0.5774
vn -0.5774 -0.5773 -0.5774
vn 0.5774 0.5773 -0.5774
vn 0.5774 -0.5774 0.5774
vn -0.5774 -0.5773 0.5773
vn -0.5774 -0.5773 0.5774
vt 0.884615 0.282895
vt 0.884615 0.309211
vt 0.858974 0.309211
vt 0.858974 0.282895
vt 0.952236 0.315789
vt 0.961538 0.323427
vt 0.961538 0.342105
vt 0.945199 0.342105
vt 0.935897 0.334468
vt 0.935897 0.315789
vt 0.826923 0.358231
vt 0.836225 0.348684
vt 0.852564 0.348684
vt 0.852564 0.375000
vt 0.826923 0.375000
vt 0.910256 0.348684
vt 0.926595 0.348684
vt 0.935897 0.358231
vt 0.935897 0.375000
vt 0.910256 0.375000
vt 0.961538 0.315789
vt 0.961538 0.334468
vt 0.952236 0.342105
vt 0.935897 0.342105
vt 0.935897 0.353799
vt 0.940881 0.348684
vt 0.961538 0.348684
vt 0.961538 0.375000
vt 0.826923 0.427632
vt 0.843262 0.427632
vt 0.852564 0.437178
vt 0.852564 0.453947
vt 0.826923 0.453947
vt 0.930914 0.348684
vt 0.910256 0.427632
vt 0.935897 0.427632
vt 0.935897 0.448833
vt 0.930914 0.453947
vt 0.910256 0.453947
vt 0.858974 0.427632
vt 0.884615 0.427632
vt 0.884615 0.453947
vt 0.868276 0.453947
vt 0.858974 0.444400
vt 0.930914 0.315789
vt 0.935897 0.319881
vt 0.919558 0.342105
vt 0.910256 0.334468
vt 0.910256 0.315789
vt 0.926595 0.342105
vt 0.910256 0.342105
vt 0.910256 0.315789
vt 0.794872 0.289474
vt 0.794872 0.342105
vt 0.743590 0.342105
vt 0.743590 0.289474
vt 0.743590 0.184211
vt 0.743590 0.131579
vt 0.794872 0.131579
vt 0.794872 0.184211
vt 0.794872 0.184211
vt 0.748573 0.184211
vt 0.743590 0.179096
vt 0.785570 0.236842
vt 0.794872 0.246389
vt 0.748573 0.289474
vt 0.743590 0.284359
vt 0.743590 0.236842
vt 0.868276 0.309211
vt 0.858974 0.301573
vt 0.900954 0.342105
vt 0.884615 0.342105
vt 0.884615 0.315789
vt 0.961538 0.427632
vt 0.961538 0.453947
vt 0.940881 0.453947
vt 0.750000 0.427632
vt 0.775641 0.427632
vt 0.775641 0.453947
vt 0.759302 0.453947
vt 0.750000 0.444400
vt 0.961538 0.282895
vt 0.961538 0.309211
vt 0.940881 0.309211
vt 0.935897 0.305119
vt 0.935897 0.282895
vt 0.801282 0.358231
vt 0.810584 0.348684
vt 0.826923 0.348684
vt 0.801282 0.375000
vt 0.801282 0.427632
vt 0.801282 0.444400
vt 0.791980 0.453947
vt 0.810584 0.453947
vt 0.884615 0.353799
vt 0.889599 0.348684
vt 0.884615 0.375000
vt 0.775641 0.348684
vt 0.791980 0.348684
vt 0.775641 0.375000
vt 0.858974 0.348684
vt 0.879632 0.348684
vt 0.868276 0.375000
vt 0.858974 0.365453
vt 0.961538 0.250000
vt 0.961538 0.276316
vt 0.935897 0.276316
vt 0.935897 0.254092
vt 0.940881 0.250000
vt 0.935897 0.401316
vt 0.910256 0.401316
vt 0.930914 0.250000
vt 0.935897 0.254092
vt 0.919558 0.276316
vt 0.910256 0.268678
vt 0.910256 0.250000
vt 0.884615 0.401316
vt 0.884615 0.342105
vt 0.884615 0.323427
vt 0.893917 0.315789
vt 0.875313 0.315789
vt 0.858974 0.342105
vt 0.858974 0.315789
vt 0.858974 0.401316
vt 0.879632 0.250000
vt 0.884615 0.254092
vt 0.884615 0.276316
vt 0.858974 0.276316
vt 0.858974 0.250000
vt 0.826923 0.401316
vt 0.801282 0.401316
vt 0.961538 0.315789
vt 0.961538 0.334468
vt 0.952236 0.342105
vt 0.935897 0.319881
vt 0.940881 0.315789
vt 0.775641 0.401316
vt 0.935897 0.305119
vt 0.930914 0.309211
vt 0.910256 0.309211
vt 0.910256 0.290532
vt 0.919558 0.282895
vt 0.794872 0.231728
vt 0.789889 0.236842
vt 0.743590 0.189325
vt 0.750000 0.401316
vt 0.852564 0.401316
vt 0.900954 0.282895
vt 0.900954 0.276316
vt 0.884615 0.254092
vt 0.889599 0.250000
vt 0.743590 0.236842
vt 0.794872 0.227295
vt 0.750000 0.380114
vt 0.754983 0.375000
vt 0.750000 0.348684
vt 0.750000 0.369886
vt 0.961538 0.391769
vt 0.952236 0.401316
vt 0.961538 0.410863
vt 0.858974 0.342105
vt 0.858974 0.323427
vt 0.868276 0.315789
vt 0.852564 0.418085
vt 0.858974 0.384547
vt 0.794872 0.227295
vt 0.794872 0.241957
vt 0.743590 0.294588
vt 0.961538 0.342105
vt 0.935897 0.323427
vt 0.945199 0.315789
vt 0.748573 0.184211
vt 0.743590 0.179096
vt 0.801282 0.448833
vt 0.796299 0.453947
vt 0.789889 0.236842
vt 0.794872 0.241957
vt 0.743590 0.189325
vt 0.794872 0.231728
vt 0.935897 0.444400
vt 0.926595 0.453947
vt 0.945199 0.453947
vt 0.926595 0.315789
vt 0.935897 0.323427
vt 0.915240 0.342105
vt 0.910256 0.338014
vt 0.801282 0.348684
vt 0.817621 0.348684
vt 0.884615 0.315789
vt 0.858974 0.319881
vt 0.863958 0.315789
vt 0.875313 0.250000
vt 0.884615 0.257637
vt 0.858974 0.453947
vt 0.806265 0.453947
vt 0.750000 0.453947
vt 0.905273 0.342105
vt 0.935897 0.309211
vt 0.935897 0.286986
vt 0.940881 0.282895
vt 0.930914 0.282895
vt 0.935897 0.286986
vt 0.919558 0.309211
vt 0.910256 0.301573
vt 0.910256 0.282895
vt 0.750000 0.375000
vt 0.900954 0.309211
vt 0.847581 0.401316
vt 0.852564 0.406430
vt 0.852564 0.427632
vt 0.884615 0.348684
vt 0.956555 0.250000
vt 0.961538 0.254092
vt 0.945199 0.276316
vt 0.935897 0.268678
vt 0.935897 0.250000
vt 0.858974 0.375000
vt 0.852564 0.444401
vt 0.843262 0.453947
vt 0.852564 0.396201
vt 0.910256 0.276316
vt 0.884615 0.257637
vt 0.893917 0.250000
vt 0.945199 0.348684
vt 0.961538 0.369886
vt 0.956555 0.375000
vt 0.961538 0.401316
vt 0.926595 0.276316
vt 0.905273 0.342105
vt 0.961538 0.380114
vt 0.759302 0.401316
vt 0.750000 0.391769
vt 0.750000 0.410863
vt 0.825853 0.056406
vt 0.842635 0.039476
vt 0.828273 0.040652
vt 0.811491 0.057876
vt 0.828273 0.035587
vt 0.817956 0.043136
vt 0.816523 0.041666
vt 0.834738 0.029345
vt 0.836170 0.040652
vt 0.817956 0.056406
vt 0.834738 0.039476
vt 0.829356 0.036600
vt 0.828273 0.045718
vt 0.830789 0.037776
vt 0.840119 0.040652
vt 0.824421 0.053823
vt 0.838686 0.039476
vt 0.833305 0.031534
vt 0.841203 0.049771
vt 0.834738 0.032710
vt 0.816969 0.022972
vt 0.815536 0.024442
vt 0.840119 0.057876
vt 0.838686 0.037776
vt 0.838686 0.056406
vt 0.821904 0.043136
vt 0.820472 0.041666
vt 0.838686 0.029345
vt 0.838686 0.043136
vt 0.837254 0.041666
vt 0.830789 0.027644
vt 0.836170 0.035587
vt 0.811491 0.049771
vt 0.834738 0.034411
vt 0.868276 0.342105
vt 0.858974 0.334468
vt 0.858974 0.315789
vt 0.826840 0.042453
vt 0.826840 0.037230
vt 0.841868 0.026468
vt 0.838686 0.042453
vt 0.837919 0.041666
vt 0.830789 0.027098
vt 0.830022 0.041666
vt 0.838686 0.027098
vt 0.830789 0.042453
vt 0.838686 0.037230
vt 0.837919 0.036600
vt 0.838686 0.057088
vt 0.839454 0.035587
vt 0.810826 0.045718
vt 0.838686 0.034957
vt 0.816969 0.023654
vt 0.816201 0.024442
vt 0.816201 0.024442
vt 0.809839 0.016337
vt 0.809071 0.017124
vt 0.809839 0.032547
vt 0.809071 0.033335
vt 0.809839 0.016337
vt 0.817956 0.057088
vt 0.818723 0.057876
vt 0.834738 0.040022
vt 0.838686 0.032164
vt 0.837919 0.031534
vt 0.841868 0.045718
vt 0.825086 0.049771
vt 0.825853 0.048983
vt 0.858974 0.353799
vt 0.863958 0.348684
vt 0.819388 0.057876
vt 0.825853 0.052353
vt 0.826840 0.047188
vt 0.836170 0.030521
vt 0.830022 0.026468
vt 0.837919 0.026468
vt 0.810058 0.046506
vt 0.842635 0.048301
vt 0.809071 0.017124
vt 0.816969 0.022972
vt 0.816969 0.023654
vt 0.835505 0.040652
vt 0.840119 0.030521
vt 0.829356 0.026468
vt 0.810058 0.051241
vt 0.842635 0.044931
vt 0.837254 0.036600
vt 0.839454 0.057876
s 0
usemtl mFD_Dungeon
f 71/1/1 70/2/1 3/3/1 4/4/1
f 101/5/2 100/6/2 7/7/2 117/8/2 120/9/2 29/10/2
f 133/11/3 136/12/3 5/13/3 74/14/3 93/15/3
f 67/16/4 138/17/4 137/18/4 84/19/4 81/20/4
f 6/21/2 97/22/2 96/23/2 73/24/2 77/10/2
f 148/25/4 151/26/4 11/27/4 33/28/4 51/19/4
f 44/29/3 118/30/3 117/31/3 7/32/3 27/33/3
f 21/16/4 149/34/4 148/25/4 51/19/4 48/20/4
f 50/35/4 53/36/4 158/37/4 157/38/4 25/39/4
f 29/40/4 47/41/4 24/42/4 99/43/4 101/44/4
f 157/45/5 156/46/5 26/24/5 109/47/5 112/48/5 25/49/5
f 29/10/2 120/9/2 119/50/2 30/51/2 28/52/2
f 55/53/2 14/54/2 16/55/2 56/56/2
f 56/57/6 16/58/6 20/59/6 58/60/6
f 19/59/1 59/61/1 176/62/1 179/63/1 17/58/1
f 126/64/1 125/65/1 58/53/1 175/66/1 174/67/1 60/68/1
f 32/1/1 35/2/1 104/69/1 103/70/1 10/4/1
f 25/49/5 112/48/5 111/71/5 27/72/5 24/73/5
f 53/36/4 32/74/4 10/75/4 159/76/4 158/37/4
f 35/77/3 38/78/3 26/79/3 102/80/3 104/81/3
f 47/41/4 50/35/4 25/39/4 24/42/4
f 11/82/1 12/83/1 160/84/1 163/85/1 33/86/1
f 105/87/3 108/88/3 22/89/3 42/15/3 39/90/3
f 38/78/3 41/91/3 110/92/3 109/93/3 26/79/3
f 41/91/3 44/29/3 27/33/3 111/94/3 110/92/3
f 155/95/4 154/96/4 21/16/4 48/20/4 45/97/4
f 23/98/3 106/99/3 105/87/3 39/90/3 36/100/3
f 8/101/4 152/102/4 155/95/4 45/97/4 114/103/4 113/104/4
f 8/105/6 9/106/6 22/107/6 153/108/6 152/109/6
f 48/20/4 51/19/4 52/110/4 49/111/4
f 49/111/4 52/110/4 53/36/4 50/35/4
f 154/112/6 153/113/6 22/107/6 108/114/6 107/115/6 21/116/6
f 45/97/4 48/20/4 49/111/4 46/117/4
f 46/117/4 49/111/4 50/35/4 47/41/4
f 28/52/2 30/51/2 31/118/2 116/119/2 115/120/2
f 113/121/2 116/119/2 31/118/2 9/122/2 8/123/2
f 28/124/4 46/117/4 47/41/4 29/40/4
f 151/125/6 150/126/6 23/127/6 12/128/6 11/129/6
f 39/90/3 42/15/3 43/130/3 40/131/3
f 40/131/3 43/130/3 44/29/3 41/91/3
f 10/132/5 103/133/5 102/134/5 26/24/5 156/135/5 159/136/5
f 36/100/3 39/90/3 40/131/3 37/137/3
f 37/137/3 40/131/3 41/91/3 38/78/3
f 33/86/1 163/138/1 162/139/1 34/140/1 124/141/1 123/142/1
f 54/60/2 164/143/2 167/144/2 57/68/2 169/145/2 168/62/2
f 34/146/3 37/137/3 38/78/3 35/77/3
f 22/89/3 9/13/3 31/14/3 42/15/3
f 42/15/3 31/14/3 30/147/3 43/130/3
f 121/148/1 124/141/1 34/140/1 35/2/1 32/1/1
f 21/116/6 107/115/6 106/149/6 23/127/6 150/150/6 149/151/6
f 57/152/6 56/57/6 58/60/6 125/153/6 128/64/6
f 162/154/3 161/155/3 36/100/3 37/137/3 34/146/3
f 12/156/3 23/98/3 36/100/3 161/155/3 160/157/3
f 51/19/4 33/28/4 123/158/4 122/159/4 52/110/4
f 52/110/4 122/159/4 121/160/4 32/74/4 53/36/4
f 24/73/5 27/72/5 7/161/5 100/162/5 99/163/5
f 43/130/3 30/147/3 119/164/3 118/30/3 44/29/3
f 115/165/4 114/103/4 45/97/4 46/117/4 28/124/4
f 59/61/1 127/166/1 126/64/1 60/68/1 177/145/1 176/62/1
f 167/144/2 166/167/2 55/53/2 56/56/2 57/68/2
f 13/59/2 54/60/2 168/62/2 171/63/2 15/58/2
f 17/55/5 179/168/5 178/66/5 54/53/5 13/54/5
f 4/132/5 3/169/5 61/24/5 130/170/5 129/171/5
f 15/55/6 171/168/6 170/66/6 59/53/6 19/54/6
f 173/172/5 172/173/5 18/58/5 14/59/5 55/61/5
f 89/78/3 92/91/3 180/174/3 183/175/3 61/79/3
f 58/53/1 20/54/1 18/55/1 172/168/1 175/66/1
f 170/66/6 169/67/6 57/152/6 128/64/6 127/65/6 59/53/6
f 178/66/5 177/67/5 60/152/5 165/176/5 164/177/5 54/53/5
f 60/152/5 174/178/5 173/172/5 55/61/5 166/179/5 165/176/5
f 83/35/4 86/36/4 132/180/4 131/181/4 64/39/4
f 86/36/4 71/74/4 4/75/4 129/182/4 132/180/4
f 131/183/5 130/184/5 61/24/5 183/185/5 182/186/5 64/49/5
f 65/187/3 134/188/3 133/11/3 93/15/3 90/90/3
f 75/189/2 74/118/2 5/122/2 146/190/2 145/191/2
f 140/192/6 139/193/6 66/127/6 1/128/6 2/129/6
f 77/40/4 80/41/4 63/42/4 6/194/4
f 80/41/4 83/35/4 64/39/4 63/42/4
f 92/91/3 95/29/3 62/33/3 181/195/3 180/174/3
f 70/77/3 89/78/3 61/79/3 3/196/3
f 64/49/5 182/186/5 181/197/5 62/72/5 63/73/5
f 2/82/1 1/83/1 69/198/1 184/199/1 187/200/1
f 185/201/1 184/202/1 69/198/1 141/203/1 144/204/1 72/205/1
f 90/90/3 93/15/3 94/130/3 91/131/3
f 91/131/3 94/130/3 95/29/3 92/91/3
f 66/98/3 65/187/3 90/90/3 87/100/3
f 87/100/3 90/90/3 91/131/3 88/137/3
f 88/137/3 91/131/3 92/91/3 89/78/3
f 1/156/3 66/98/3 87/100/3 69/206/3
f 72/205/1 144/204/1 143/207/1 70/2/1 71/1/1
f 94/130/3 188/208/3 191/209/3 73/210/3 95/29/3
f 81/20/4 84/19/4 85/110/4 82/111/4
f 82/111/4 85/110/4 86/36/4 83/35/4
f 68/211/4 67/16/4 81/20/4 78/97/4
f 78/97/4 81/20/4 82/111/4 79/117/4
f 79/117/4 82/111/4 83/35/4 80/41/4
f 147/212/6 146/213/6 5/106/6 136/214/6 135/215/6 68/216/6
f 75/217/4 78/97/4 79/117/4 76/124/4
f 76/124/4 79/117/4 80/41/4 77/40/4
f 95/29/3 73/210/3 96/218/3 98/219/3 62/33/3
f 93/15/3 74/14/3 189/220/3 188/208/3 94/130/3
f 77/10/2 73/24/2 191/185/2 190/186/2 76/52/2
f 67/116/6 65/221/6 66/127/6 139/222/6 138/223/6
f 137/18/4 140/224/4 2/27/4 187/225/4 186/226/4 84/19/4
f 85/110/4 72/227/4 71/74/4 86/36/4
f 68/216/6 135/215/6 134/228/6 65/221/6 67/116/6
f 76/52/2 190/186/2 189/229/2 74/118/2 75/189/2
f 84/19/4 186/226/4 185/230/4 72/227/4 85/110/4
f 69/206/3 87/100/3 88/137/3 142/231/3 141/232/3
f 143/233/3 142/231/3 88/137/3 89/78/3 70/77/3
f 96/234/7 97/235/7 98/236/7
f 99/43/8 100/162/8 101/5/8
f 102/237/9 103/235/9 104/238/9
f 105/239/10 106/240/10 107/241/10
f 109/242/7 110/243/7 112/244/7
f 113/245/8 114/246/8 116/247/8
f 117/248/10 118/249/10 120/250/10
f 121/251/11 122/252/11 124/253/11
f 125/254/12 126/255/12 128/255/12
f 129/256/13 130/257/13 132/258/13
f 133/259/10 134/260/10 135/261/10
f 137/262/11 138/263/11 139/264/11
f 141/265/9 142/266/9 144/267/9
f 63/73/5 62/72/5 98/268/5 97/269/5 6/270/5
f 145/271/14 146/272/14 147/273/14
f 148/274/15 149/275/15 150/276/15
f 152/277/15 153/278/15 155/279/15
f 156/280/16 157/281/16 158/282/16
f 160/283/17 161/284/17 163/285/17
f 164/286/18 165/287/18 167/288/18
f 168/289/19 169/290/19 170/291/19
f 172/292/16 173/293/16 175/291/16
f 176/289/20 177/290/20 178/291/20
f 180/294/9 181/295/9 182/296/9
f 184/297/11 185/298/11 186/299/11
f 188/300/7 189/301/7 190/296/7
f 145/302/4 147/303/4 68/211/4 78/97/4 75/217/4
f 112/244/9 110/243/9 111/304/9
f 120/250/7 118/249/7 119/305/7
f 116/247/19 114/246/19 115/306/19
f 107/241/21 108/307/21 105/239/21
f 150/276/22 151/308/22 148/274/22
f 155/279/22 153/278/22 154/309/22
f 163/285/23 161/284/23 162/310/23
f 124/253/24 122/252/24 123/311/24
f 175/291/17 173/293/17 174/312/17
f 128/255/21 126/255/21 127/313/21
f 167/288/25 165/287/25 166/314/25
f 170/291/10 171/292/10 168/289/10
f 190/296/10 191/315/10 188/300/10
f 135/261/21 136/316/21 133/259/21
f 139/264/14 140/317/14 137/262/14
f 144/267/21 142/266/21 143/318/21
f 186/299/24 187/319/24 184/297/24
f 132/258/24 130/257/24 131/320/24
f 182/296/7 183/315/7 180/294/7
f 178/291/9 179/292/9 176/289/9
f 158/282/26 159/321/26 156/280/26
