# Blender 4.0.2
# www.blender.org
mtllib Pillar_07.mtl
o Pillar_07
v 0.500000 0.312500 -0.500000
v 0.500000 0.000000 -0.500000
v 0.500000 0.312500 0.500000
v -0.500000 0.312500 -0.500000
v -0.500000 0.000000 -0.500000
v -0.500000 0.312500 0.500000
v -0.500000 0.000000 0.500000
v 0.250000 1.000000 -0.250000
v -0.250000 0.500000 -0.250000
v -0.250000 1.000000 -0.250000
v -0.250000 1.000000 0.250000
v -0.250000 0.500000 0.250000
v -0.250000 0.000000 0.250000
v -0.250000 0.000000 -0.250000
v 0.250000 0.000000 0.250000
v 0.250000 0.000000 -0.250000
v 0.250000 0.500000 -0.250000
v 0.250000 1.000000 0.250000
v -0.250000 1.500000 0.250000
v -0.250000 1.000000 -0.250000
v -0.250000 1.500000 -0.250000
v 0.250000 1.000000 0.250000
v 0.250000 1.000000 -0.250000
v 0.250000 1.500000 -0.250000
v 0.125000 1.000000 -0.250000
v 0.000000 1.000000 -0.250000
v -0.125000 1.000000 -0.250000
v -0.125000 1.500000 -0.250000
v 0.000000 1.500000 -0.250000
v 0.125000 1.500000 -0.250000
v -0.125000 1.000000 0.250000
v 0.000000 1.000000 0.250000
v 0.125000 1.000000 0.250000
v 0.125000 1.500000 0.250000
v 0.000000 1.500000 0.250000
v -0.125000 0.000000 0.250000
v -0.250000 1.000000 -0.125000
v -0.250000 1.000000 0.000000
v -0.250000 1.000000 0.125000
v -0.250000 1.500000 0.125000
v -0.250000 1.500000 -0.125000
v 0.250000 1.000000 0.125000
v 0.250000 1.000000 0.000000
v 0.250000 1.000000 -0.125000
v 0.250000 1.500000 0.000000
v 0.250000 1.500000 0.125000
v 0.125000 1.500000 -0.125000
v 0.125000 1.500000 0.000000
v 0.125000 1.500000 0.125000
v 0.000000 1.500000 -0.125000
v 0.000000 1.500000 0.000000
v 0.000000 1.500000 0.125000
v -0.125000 1.500000 -0.125000
v -0.125000 1.500000 0.000000
v -0.125000 1.500000 0.125000
v -0.125000 1.000000 -0.125000
v -0.125000 1.000000 0.000000
v -0.125000 1.000000 0.125000
v 0.000000 1.000000 -0.125000
v 0.000000 1.000000 0.000000
v 0.000000 1.000000 0.125000
v 0.125000 1.000000 -0.125000
v 0.125000 1.000000 0.000000
v 0.125000 1.000000 0.125000
v 0.135850 1.500000 0.250000
v 0.250000 1.385850 0.250000
v 0.250000 1.500000 0.135850
v 0.250000 1.500000 -0.199200
v 0.175800 1.500000 -0.125000
v 0.250000 1.500000 -0.050800
v 0.250000 1.425800 -0.125000
v -0.250000 1.500000 0.069905
v -0.180095 1.500000 0.000000
v -0.250000 1.500000 -0.069905
v -0.250000 1.430095 0.000000
v -0.125000 1.460259 0.250000
v -0.085259 1.500000 0.250000
v -0.125000 1.500000 0.210259
v -0.164741 1.500000 0.250000
v 0.000000 0.000000 0.250000
v 0.125000 0.000000 0.250000
v 0.125000 0.500000 0.250000
v 0.000000 0.500000 0.250000
v -0.125000 0.500000 0.250000
v 0.125000 1.000000 0.250000
v 0.000000 1.000000 0.250000
v -0.125000 1.000000 0.250000
v -0.250000 0.000000 -0.125000
v -0.250000 0.000000 0.000000
v -0.250000 0.000000 0.125000
v -0.250000 0.500000 0.125000
v -0.250000 0.500000 0.000000
v -0.250000 0.500000 -0.125000
v -0.250000 1.000000 0.125000
v -0.250000 1.000000 0.000000
v -0.250000 1.000000 -0.125000
v -0.181685 1.000000 0.250000
v -0.250000 1.068315 0.250000
v -0.250000 1.000000 0.181685
v 0.152854 0.500000 0.250000
v 0.250000 0.402854 0.250000
v 0.250000 0.500000 0.152854
v 0.250000 0.597146 0.250000
v 0.250000 0.312500 0.500000
v 0.000000 0.312500 0.500000
v -0.250000 0.000000 0.500000
v 0.000000 0.000000 0.500000
v 0.250000 0.000000 0.500000
v -0.250000 0.312500 -0.500000
v 0.250000 0.312500 -0.500000
v 0.250000 0.000000 -0.500000
v 0.000000 0.000000 -0.500000
v -0.250000 0.000000 -0.500000
v 0.500000 0.312500 -0.250000
v 0.500000 0.312500 0.250000
v 0.500000 0.000000 0.250000
v 0.500000 0.000000 0.000000
v 0.500000 0.000000 -0.250000
v -0.500000 0.312500 0.250000
v -0.500000 0.312500 0.000000
v -0.500000 0.312500 -0.250000
v -0.500000 0.000000 0.000000
v -0.500000 0.000000 0.250000
v -0.250000 0.000000 -0.250000
v -0.250000 0.000000 0.000000
v -0.250000 0.000000 0.250000
v 0.000000 0.000000 -0.250000
v 0.000000 0.000000 0.000000
v 0.000000 0.000000 0.250000
v 0.250000 0.000000 -0.250000
v 0.250000 0.000000 0.000000
v 0.250000 0.000000 0.250000
v 0.250000 0.312500 -0.250000
v 0.250000 0.312500 0.000000
v 0.250000 0.312500 0.250000
v 0.000000 0.312500 -0.250000
v 0.000000 0.312500 0.000000
v 0.000000 0.312500 0.250000
v -0.250000 0.312500 -0.250000
v -0.250000 0.312500 0.000000
v -0.250000 0.312500 0.250000
v -0.344996 0.312500 0.500000
v -0.250000 0.217504 0.500000
v -0.155004 0.312500 0.500000
v -0.250000 0.312500 0.405004
v 0.500000 0.312500 -0.096200
v 0.403800 0.312500 0.000000
v 0.500000 0.312500 0.096200
v 0.500000 0.216300 0.000000
v 0.500000 0.000000 0.402993
v 0.500000 0.097007 0.500000
v 0.402993 0.000000 0.500000
v -0.500000 0.000000 -0.337891
v -0.412109 0.000000 -0.250000
v -0.500000 0.000000 -0.162109
v -0.500000 0.087891 -0.250000
v 0.000000 0.312500 -0.429944
v 0.070056 0.312500 -0.500000
v 0.000000 0.242444 -0.500000
v -0.070056 0.312500 -0.500000
v -0.250000 0.666667 -0.250000
v 0.250000 0.833333 -0.250000
v 0.250000 0.666667 -0.250000
v -0.250000 0.833333 0.250000
v 0.125000 0.833333 0.250000
v 0.125000 0.666667 0.250000
v 0.000000 0.833333 0.250000
v 0.000000 0.666667 0.250000
v -0.125000 0.833333 0.250000
v -0.125000 0.666667 0.250000
v -0.250000 0.833333 0.125000
v -0.250000 0.666667 0.125000
v -0.250000 0.833333 0.000000
v -0.250000 0.666667 0.000000
v -0.250000 0.833333 -0.125000
v -0.250000 0.666667 -0.125000
v -0.181029 0.833333 -0.250000
v -0.250000 0.764363 -0.250000
v -0.250000 0.833333 -0.181029
v -0.250000 0.902304 -0.250000
v -0.196353 0.666667 0.250000
v -0.250000 0.720313 0.250000
v -0.250000 0.666667 0.196353
v -0.250000 0.613020 0.250000
vn -0.0000 -1.0000 -0.0000
vn -0.0000 -0.0000 -1.0000
vn -0.0000 1.0000 -0.0000
vn -0.0000 -0.0000 1.0000
vn 1.0000 -0.0000 -0.0000
vn -1.0000 -0.0000 -0.0000
vn 0.5774 0.5774 0.5774
vn 0.5774 0.5774 0.5773
vn -0.5774 0.5773 -0.5773
vn -0.5774 0.5773 0.5773
vn -0.5773 -0.5774 0.5774
vn 0.5774 -0.5774 0.5774
vn -0.5774 -0.5774 0.5774
vn -0.5774 0.5774 -0.5774
vn 0.5774 0.5774 -0.5774
vn -0.5774 -0.5774 -0.5774
vn -0.5774 0.5774 0.5774
vn 0.5774 0.5773 0.5773
vn 0.5774 0.5774 -0.5773
vn -0.5774 -0.5773 0.5774
vn -0.5773 -0.5774 -0.5774
vn -0.5773 0.5774 0.5774
vt 0.935897 0.427632
vt 0.961538 0.427632
vt 0.961538 0.443736
vt 0.951589 0.453947
vt 0.935897 0.453947
vt 0.884615 0.250000
vt 0.884615 0.276316
vt 0.858974 0.276316
vt 0.858974 0.250000
vt 0.801282 0.427632
vt 0.826923 0.427632
vt 0.826923 0.443948
vt 0.817180 0.453947
vt 0.801282 0.453947
vt 0.801282 0.342105
vt 0.801282 0.299700
vt 0.811246 0.289474
vt 0.814103 0.289474
vt 0.814102 0.342105
vt 0.852564 0.184211
vt 0.852564 0.201754
vt 0.852564 0.219298
vt 0.852564 0.236842
vt 0.801282 0.236842
vt 0.801282 0.194436
vt 0.811246 0.184211
vt 0.839743 0.254386
vt 0.839743 0.236842
vt 0.852564 0.254386
vt 0.839743 0.342105
vt 0.839743 0.289474
vt 0.852564 0.289474
vt 0.852564 0.342105
vt 0.801282 0.342105
vt 0.801282 0.289474
vt 0.852564 0.289474
vt 0.852564 0.342105
vt 0.814102 0.201754
vt 0.814102 0.219298
vt 0.808356 0.219298
vt 0.801282 0.212038
vt 0.801282 0.201754
vt 0.814103 0.131579
vt 0.814103 0.184211
vt 0.801282 0.184211
vt 0.801282 0.131579
vt 0.801282 0.271930
vt 0.801282 0.261646
vt 0.808356 0.254386
vt 0.852564 0.271930
vt 0.839744 0.184210
vt 0.839744 0.131579
vt 0.852564 0.131579
vt 0.852564 0.184210
vt 0.839744 0.236842
vt 0.839744 0.184211
vt 0.852564 0.184211
vt 0.852564 0.236842
vt 0.801282 0.342105
vt 0.801282 0.301489
vt 0.812990 0.289474
vt 0.814103 0.289474
vt 0.814103 0.342105
vt 0.769231 0.052632
vt 0.782051 0.052632
vt 0.782051 0.061606
vt 0.777975 0.065789
vt 0.769231 0.065789
vt 0.788461 0.276316
vt 0.801282 0.276316
vt 0.788462 0.289474
vt 0.826923 0.342105
vt 0.826923 0.289474
vt 0.835668 0.289474
vt 0.839744 0.293657
vt 0.839744 0.342105
vt 0.839744 0.289474
vt 0.840856 0.236842
vt 0.852564 0.248858
vt 0.852564 0.289474
vt 0.756410 0.052632
vt 0.756410 0.065789
vt 0.762820 0.276316
vt 0.775641 0.276316
vt 0.775641 0.289474
vt 0.762820 0.289474
vt 0.750000 0.276316
vt 0.757007 0.289474
vt 0.750000 0.282283
vt 0.801282 0.236842
vt 0.801282 0.184211
vt 0.814103 0.184211
vt 0.814103 0.236842
vt 0.826923 0.184211
vt 0.826923 0.236842
vt 0.775641 0.236842
vt 0.788462 0.236842
vt 0.788462 0.250000
vt 0.775641 0.250000
vt 0.788461 0.263158
vt 0.775641 0.263158
vt 0.762820 0.236842
vt 0.762820 0.250000
vt 0.762820 0.263158
vt 0.750000 0.236842
vt 0.750000 0.250000
vt 0.750000 0.263158
vt 0.769231 0.013158
vt 0.782051 0.013158
vt 0.782051 0.026316
vt 0.769231 0.026316
vt 0.782051 0.039474
vt 0.769231 0.039474
vt 0.756410 0.013158
vt 0.756410 0.026316
vt 0.756410 0.039474
vt 0.814103 0.244653
vt 0.821713 0.236842
vt 0.826923 0.236842
vt 0.743590 0.039474
vt 0.743590 0.052632
vt 0.794872 0.013158
vt 0.794872 0.026316
vt 0.826923 0.184210
vt 0.826923 0.138937
vt 0.834093 0.131579
vt 0.801282 0.236842
vt 0.801282 0.250000
vt 0.801282 0.263158
vt 0.743590 0.013158
vt 0.751200 0.026316
vt 0.743590 0.018505
vt 0.743590 0.034126
vt 0.843820 0.289474
vt 0.852564 0.334914
vt 0.845557 0.342105
vt 0.787702 0.039474
vt 0.794872 0.046832
vt 0.794872 0.052632
vt 0.794872 0.032115
vt 0.819769 0.027067
vt 0.823909 0.048287
vt 0.827472 0.042467
vt 0.755297 0.065789
vt 0.743590 0.053774
vt 0.824378 0.042467
vt 0.819400 0.023513
vt 0.825063 0.043170
vt 0.801282 0.289474
vt 0.806492 0.236842
vt 0.825572 0.032990
vt 0.822686 0.024698
vt 0.826217 0.033653
vt 0.814103 0.184210
vt 0.814103 0.131579
vt 0.819753 0.131579
vt 0.827371 0.047582
vt 0.827004 0.047205
vt 0.822177 0.026691
vt 0.794872 0.065789
vt 0.786127 0.065789
vt 0.826923 0.289474
vt 0.826923 0.342105
vt 0.852564 0.131579
vt 0.801282 0.173985
vt 0.814103 0.254386
vt 0.814103 0.236842
vt 0.826923 0.236842
vt 0.826923 0.254386
vt 0.852564 0.219298
vt 0.852564 0.236842
vt 0.839743 0.236842
vt 0.839743 0.219298
vt 0.826923 0.236842
vt 0.826923 0.219298
vt 0.814102 0.236842
vt 0.852564 0.184211
vt 0.839744 0.184211
vt 0.839744 0.131579
vt 0.826923 0.184211
vt 0.826923 0.131579
vt 0.819923 0.047205
vt 0.828526 0.051296
vt 0.824540 0.037729
vt 0.808289 0.184210
vt 0.801282 0.177019
vt 0.801282 0.131579
vt 0.824806 0.047205
vt 0.823909 0.048126
vt 0.824806 0.037729
vt 0.801282 0.279248
vt 0.801282 0.236842
vt 0.814103 0.271930
vt 0.884615 0.282895
vt 0.884615 0.309211
vt 0.858974 0.309211
vt 0.858974 0.291064
vt 0.868924 0.282895
vt 0.935897 0.315789
vt 0.935897 0.342105
vt 0.910256 0.342105
vt 0.910256 0.315789
vt 0.852564 0.427632
vt 0.852564 0.453947
vt 0.836666 0.453947
vt 0.961538 0.250000
vt 0.961538 0.276316
vt 0.935897 0.276316
vt 0.935897 0.250000
vt 0.775641 0.348684
vt 0.794097 0.348684
vt 0.801282 0.356059
vt 0.801282 0.375000
vt 0.775641 0.375000
vt 0.917442 0.276316
vt 0.910256 0.270416
vt 0.910256 0.250000
vt 0.858974 0.427632
vt 0.884615 0.427632
vt 0.884615 0.453947
vt 0.858974 0.453947
vt 0.910256 0.427632
vt 0.910256 0.453947
vt 0.750000 0.427632
vt 0.775641 0.427632
vt 0.775641 0.453947
vt 0.750000 0.453947
vt 0.894359 0.342105
vt 0.884615 0.334106
vt 0.884615 0.315789
vt 0.903071 0.276316
vt 0.826923 0.375000
vt 0.826923 0.401316
vt 0.801282 0.401316
vt 0.826923 0.201754
vt 0.775641 0.401316
vt 0.750000 0.348684
vt 0.750000 0.375000
vt 0.910256 0.282895
vt 0.910256 0.301109
vt 0.900390 0.309211
vt 0.910256 0.348684
vt 0.935897 0.348684
vt 0.935897 0.375000
vt 0.910256 0.375000
vt 0.935897 0.401316
vt 0.910256 0.401316
vt 0.884615 0.348684
vt 0.884615 0.375000
vt 0.884615 0.401316
vt 0.910256 0.315789
vt 0.884615 0.342105
vt 0.884615 0.323191
vt 0.893630 0.315789
vt 0.875601 0.315789
vt 0.884615 0.323191
vt 0.858974 0.342105
vt 0.858974 0.315789
vt 0.858974 0.401316
vt 0.961538 0.315789
vt 0.961538 0.342105
vt 0.935897 0.315789
vt 0.858974 0.384252
vt 0.867989 0.375000
vt 0.961538 0.348684
vt 0.961538 0.375000
vt 0.961538 0.401316
vt 0.826923 0.348684
vt 0.852564 0.348684
vt 0.852564 0.375000
vt 0.852564 0.401316
vt 0.961538 0.282895
vt 0.961538 0.309211
vt 0.935897 0.309211
vt 0.935897 0.282895
vt 0.759867 0.401316
vt 0.750000 0.391190
vt 0.750000 0.411442
vt 0.827094 0.062013
vt 0.831411 0.051224
vt 0.826217 0.061113
vt 0.874872 0.342105
vt 0.858974 0.342105
vt 0.858974 0.315789
vt 0.834608 0.048982
vt 0.820180 0.057274
vt 0.833720 0.048253
vt 0.920123 0.309211
vt 0.838337 0.061094
vt 0.829103 0.047349
vt 0.837441 0.049575
vt 0.951589 0.315789
vt 0.961539 0.323958
vt 0.961538 0.342105
vt 0.830600 0.049575
vt 0.829914 0.054905
vt 0.831411 0.050241
vt 0.858974 0.348684
vt 0.858974 0.365748
vt 0.823909 0.053200
vt 0.823262 0.052536
vt 0.833720 0.045490
vt 0.808467 0.348684
vt 0.834367 0.046021
vt 0.829103 0.055738
vt 0.832288 0.051944
vt 0.819292 0.058186
vt 0.823909 0.038649
vt 0.823332 0.024036
vt 0.822544 0.027067
vt 0.818715 0.024217
vt 0.839744 0.201754
vt 0.839743 0.271930
vt 0.852564 0.266283
vt 0.847062 0.271930
vt 0.852564 0.196107
vt 0.847062 0.201754
vt 0.826923 0.271930
vt 0.801282 0.247126
vt 0.852564 0.207401
vt 0.824546 0.044046
vt 0.823909 0.044700
vt 0.824546 0.040888
vt 0.801282 0.226558
vt 0.828030 0.045626
vt 0.828526 0.045118
vt 0.828030 0.039308
vt 0.852564 0.277577
vt 0.823909 0.041541
vt 0.828526 0.038800
s 0
usemtl mFD_Dungeon
f 132/1/1 116/2/1 150/3/1 152/4/1 108/5/1
f 111/6/2 110/7/2 1/8/2 2/9/2
f 138/10/3 141/11/3 145/12/3 144/13/3 105/14/3
f 15/15/4 101/16/4 100/17/4 82/18/4 81/19/4
f 17/20/5 163/21/5 162/22/5 8/23/5 18/24/5 103/25/5 102/26/5
f 169/27/4 87/28/4 11/23/4 164/29/4
f 36/30/4 84/31/4 12/32/4 13/33/4
f 14/34/2 9/35/2 17/36/2 16/37/2
f 176/38/6 175/39/6 179/40/6 178/41/6 161/42/6
f 88/43/6 93/44/6 9/45/6 14/46/6
f 161/47/2 178/48/2 177/49/2 162/29/2 163/50/2
f 37/51/6 41/52/6 21/53/6 20/54/6
f 25/55/2 30/56/2 24/57/2 23/58/2
f 22/59/4 66/60/4 65/61/4 34/62/4 33/63/4
f 52/64/3 55/65/3 78/66/3 77/67/3 35/68/3
f 64/69/1 42/70/1 22/35/1 33/71/1
f 32/72/4 35/73/4 77/74/4 76/75/4 31/76/4
f 42/77/5 46/28/5 67/78/5 66/79/5 22/80/5
f 49/81/3 52/64/3 35/68/3 34/82/3
f 58/83/1 61/84/1 32/85/1 31/86/1
f 61/84/1 64/69/1 33/71/1 32/85/1
f 33/63/4 34/62/4 35/73/4 32/72/4
f 39/87/1 58/83/1 31/86/1 97/88/1 99/89/1
f 20/90/2 21/91/2 28/92/2 27/93/2
f 27/93/2 28/92/2 29/94/2 26/95/2
f 26/95/2 29/94/2 30/56/2 25/55/2
f 26/96/1 25/97/1 62/98/1 59/99/1
f 59/99/1 62/98/1 63/100/1 60/101/1
f 60/101/1 63/100/1 64/69/1 61/84/1
f 27/102/1 26/96/1 59/99/1 56/103/1
f 56/103/1 59/99/1 60/101/1 57/104/1
f 57/104/1 60/101/1 61/84/1 58/83/1
f 20/105/1 27/102/1 56/103/1 37/106/1
f 37/106/1 56/103/1 57/104/1 38/107/1
f 38/107/1 57/104/1 58/83/1 39/87/1
f 29/108/3 28/109/3 53/110/3 50/111/3
f 50/111/3 53/110/3 54/112/3 51/113/3
f 51/113/3 54/112/3 55/65/3 52/64/3
f 30/114/3 29/108/3 50/111/3 47/115/3
f 47/115/3 50/111/3 51/113/3 48/116/3
f 48/116/3 51/113/3 52/64/3 49/81/3
f 44/62/5 71/117/5 70/118/5 45/119/5 43/73/5
f 45/120/3 48/116/3 49/81/3 46/121/3
f 28/109/3 21/122/3 41/123/3 53/110/3
f 38/124/6 75/125/6 74/126/6 41/52/6 37/51/6
f 25/97/1 23/127/1 44/128/1 62/98/1
f 62/98/1 44/128/1 43/129/1 63/100/1
f 63/100/1 43/129/1 42/70/1 64/69/1
f 24/130/3 30/114/3 47/115/3 69/131/3 68/132/3
f 70/133/3 69/131/3 47/115/3 48/116/3 45/120/3
f 43/73/5 45/119/5 46/28/5 42/77/5
f 31/76/4 76/75/4 79/134/4 19/80/4 98/135/4 97/136/4
f 54/112/3 73/137/3 72/138/3 40/139/3 55/65/3
f 53/110/3 41/123/3 74/140/3 73/137/3 54/112/3
f 65/141/7 66/142/7 67/143/7
f 46/121/3 49/81/3 34/82/3 65/144/3 67/145/3
f 68/146/8 69/147/8 71/148/8
f 23/149/5 24/24/5 68/150/5 71/117/5 44/62/5
f 72/151/9 73/152/9 75/153/9
f 39/154/6 40/155/6 72/156/6 75/125/6 38/124/6
f 76/157/10 77/158/10 78/159/10
f 55/65/3 40/139/3 19/160/3 79/161/3 78/66/3
f 81/19/4 82/18/4 83/162/4 80/163/4
f 80/163/4 83/162/4 84/31/4 36/30/4
f 16/164/5 17/20/5 102/26/5 101/165/5 15/46/5
f 165/166/4 85/167/4 86/168/4 167/169/4
f 167/169/4 86/168/4 87/28/4 169/27/4
f 164/170/6 11/171/6 94/172/6 171/173/6
f 171/173/6 94/172/6 95/174/6 173/175/6
f 173/175/6 95/174/6 96/176/6 175/39/6
f 13/164/6 12/177/6 91/178/6 90/179/6
f 90/179/6 91/178/6 92/180/6 89/181/6
f 89/181/6 92/180/6 93/44/6 88/43/6
f 97/182/11 98/183/11 99/184/11
f 99/185/6 98/186/6 19/187/6 40/155/6 39/154/6
f 100/188/7 101/189/7 102/190/7
f 100/17/4 103/191/4 18/192/4 85/167/4 165/166/4 166/193/4 82/18/4
f 116/194/5 115/195/5 3/196/5 151/197/5 150/198/5
f 108/199/4 104/200/4 105/201/4 107/202/4
f 141/11/3 119/203/3 6/204/3 142/205/3 145/12/3
f 5/206/2 4/207/2 109/208/2 113/209/2
f 110/210/3 158/211/3 157/212/3 136/213/3 133/214/3
f 113/209/2 109/208/2 160/215/2 159/216/2 112/217/2
f 123/218/1 126/219/1 106/220/1 7/221/1
f 126/219/1 129/222/1 107/223/1 106/220/1
f 129/222/1 132/1/1 108/5/1 107/223/1
f 115/224/3 135/225/3 104/226/3 3/227/3
f 135/225/3 138/10/3 105/14/3 104/226/3
f 107/202/4 105/201/4 144/228/4 143/229/4 106/230/4
f 112/217/2 159/216/2 158/231/2 110/7/2 111/6/2
f 136/213/3 139/232/3 140/233/3 137/234/3
f 137/234/3 140/233/3 141/11/3 138/10/3
f 92/180/6 174/235/6 176/38/6 93/44/6
f 133/214/3 136/213/3 137/234/3 134/236/3
f 134/236/3 137/234/3 138/10/3 135/225/3
f 1/237/3 110/210/3 133/214/3 114/238/3
f 117/239/5 149/240/5 148/241/5 115/195/5 116/194/5
f 112/242/1 111/243/1 130/244/1 127/245/1
f 127/245/1 130/244/1 131/246/1 128/247/1
f 128/247/1 131/246/1 132/1/1 129/222/1
f 113/248/1 112/242/1 127/245/1 124/249/1
f 124/249/1 127/245/1 128/247/1 125/250/1
f 125/250/1 128/247/1 129/222/1 126/219/1
f 122/251/6 120/201/6 121/252/6 156/253/6 155/254/6
f 153/255/6 156/256/6 121/252/6 4/257/6 5/258/6
f 122/259/1 125/250/1 126/219/1 123/218/1
f 7/260/6 6/261/6 119/200/6 123/262/6
f 123/262/6 119/200/6 120/201/6 122/251/6
f 155/263/1 154/264/1 124/249/1 125/250/1 122/259/1
f 111/243/1 2/265/1 118/266/1 130/244/1
f 130/244/1 118/266/1 117/267/1 131/246/1
f 131/246/1 117/267/1 116/2/1 132/1/1
f 109/268/3 4/269/3 121/270/3 139/232/3
f 139/232/3 121/270/3 120/271/3 140/233/3
f 140/233/3 120/271/3 119/203/3 141/11/3
f 2/272/5 1/273/5 114/274/5 118/275/5
f 114/238/3 133/214/3 134/236/3 147/276/3 146/277/3
f 148/278/3 147/276/3 134/236/3 135/225/3 115/224/3
f 142/279/7 143/280/7 145/281/7
f 106/230/4 143/229/4 142/282/4 6/283/4 7/284/4
f 146/285/7 147/286/7 149/287/7
f 118/275/5 114/274/5 146/288/5 149/240/5 117/239/5
f 150/289/12 151/290/12 152/291/12
f 152/292/4 151/293/4 3/294/4 104/200/4 108/199/4
f 153/295/13 154/296/13 156/297/13
f 5/298/1 113/248/1 124/249/1 154/264/1 153/299/1
f 157/300/14 158/301/14 159/302/14
f 157/212/3 160/303/3 109/268/3 139/232/3 136/213/3
f 159/302/15 160/304/15 157/300/15
f 156/297/16 154/296/16 155/305/16
f 145/281/17 143/280/17 144/306/17
f 149/287/15 147/286/15 148/307/15
f 102/190/12 103/308/12 100/188/12
f 75/153/10 73/152/10 74/309/10
f 78/159/18 79/310/18 76/157/18
f 71/148/19 69/147/19 70/311/19
f 174/235/6 173/175/6 175/39/6 176/38/6
f 91/178/6 172/312/6 174/235/6 92/180/6
f 172/312/6 171/173/6 173/175/6 174/235/6
f 170/313/4 169/27/4 164/29/4 182/314/4 181/315/4
f 12/177/6 184/316/6 183/317/6 172/312/6 91/178/6
f 83/162/4 168/318/4 170/313/4 84/31/4
f 168/318/4 167/169/4 169/27/4 170/313/4
f 82/18/4 166/193/4 168/318/4 83/162/4
f 166/193/4 165/166/4 167/169/4 168/318/4
f 93/44/6 176/38/6 161/42/6 9/45/6
f 9/35/2 161/47/2 163/50/2 17/36/2
f 177/49/2 180/319/2 10/192/2 8/171/2 162/29/2
f 183/317/6 182/320/6 164/170/6 171/173/6 172/312/6
f 177/321/14 178/322/14 179/323/14
f 175/39/6 96/176/6 10/24/6 180/324/6 179/40/6
f 181/325/20 182/326/20 183/327/20
f 84/31/4 170/313/4 181/315/4 184/328/4 12/32/4
f 179/323/21 180/329/21 177/321/21
f 183/327/22 184/330/22 181/325/22
