# Blender 4.0.2
# www.blender.org
mtllib Pillar_01.mtl
o Pillar_01
v 0.500000 0.312500 -0.500000
v 0.500000 0.000000 -0.500000
v 0.500000 0.312500 0.500000
v 0.500000 0.000000 0.500000
v -0.500000 0.312500 -0.500000
v -0.500000 0.000000 -0.500000
v -0.500000 0.312500 0.500000
v -0.500000 0.000000 0.500000
v -0.500000 1.687500 0.500000
v -0.500000 2.000000 0.500000
v -0.500000 1.687500 -0.500000
v -0.500000 2.000000 -0.500000
v 0.500000 1.687500 0.500000
v 0.500000 2.000000 0.500000
v 0.500000 1.687500 -0.500000
v 0.500000 2.000000 -0.500000
v -0.250000 0.000000 0.250000
v -0.250000 2.000000 0.250000
v -0.250000 0.000000 -0.250000
v -0.250000 2.000000 -0.250000
v 0.250000 0.000000 0.250000
v 0.250000 2.000000 0.250000
v 0.250000 0.000000 -0.250000
v 0.250000 2.000000 -0.250000
vn 1.0000 -0.0000 -0.0000
vn -0.0000 1.0000 -0.0000
vn -0.0000 -1.0000 -0.0000
vn -0.0000 -0.0000 -1.0000
vn -0.0000 -0.0000 1.0000
vn -1.0000 -0.0000 -0.0000
vt 0.961538 0.282895
vt 0.961538 0.309211
vt 0.858974 0.309211
vt 0.858974 0.282895
vt 0.750000 0.348684
vt 0.852564 0.348684
vt 0.852564 0.453947
vt 0.750000 0.453947
vt 0.858974 0.348684
vt 0.961538 0.348684
vt 0.961538 0.453947
vt 0.858974 0.453947
vt 0.961538 0.250000
vt 0.961538 0.276316
vt 0.858974 0.276316
vt 0.858974 0.250000
vt 0.961538 0.315789
vt 0.961538 0.342105
vt 0.858974 0.342105
vt 0.858974 0.315789
vt 0.961538 0.315789
vt 0.961538 0.342105
vt 0.858974 0.342105
vt 0.858974 0.315789
vt 0.852564 0.131579
vt 0.852564 0.342105
vt 0.801282 0.342105
vt 0.801282 0.131579
vt 0.801282 0.342105
vt 0.801282 0.131579
vt 0.852564 0.131579
vt 0.852564 0.342105
s 0
usemtl mFD_Dungeon
f 2/1/1 1/2/1 3/3/1 4/4/1
f 1/5/2 5/6/2 7/7/2 3/8/2
f 6/9/3 2/10/3 4/11/3 8/12/3
f 6/13/4 5/14/4 1/15/4 2/16/4
f 4/17/5 3/18/5 7/19/5 8/20/5
f 8/21/6 7/22/6 5/23/6 6/24/6
f 9/21/6 10/22/6 12/23/6 11/24/6
f 11/13/4 12/14/4 16/15/4 15/16/4
f 15/1/1 16/2/1 14/3/1 13/4/1
f 13/17/5 14/18/5 10/19/5 9/20/5
f 11/9/3 15/10/3 13/11/3 9/12/3
f 16/5/2 12/6/2 10/7/2 14/8/2
f 17/25/6 18/26/6 20/27/6 19/28/6
f 19/27/4 20/28/4 24/25/4 23/26/4
f 23/25/1 24/26/1 22/27/1 21/28/1
f 21/29/5 22/30/5 18/31/5 17/32/5
