# Blender 4.0.2
# www.blender.org
mtllib Pillar_09.mtl
o Pillar_09
v 0.500000 0.312500 -0.500000
v 0.500000 0.000000 -0.500000
v 0.500000 0.000000 0.500000
v -0.500000 0.312500 -0.500000
v -0.500000 0.000000 -0.500000
v -0.500000 0.312500 0.500000
v -0.500000 0.000000 0.500000
v -0.250000 0.000000 0.250000
v -0.250000 0.000000 -0.250000
v 0.250000 0.000000 0.250000
v 0.250000 0.000000 -0.250000
v -0.250000 1.000000 -0.250000
v 0.250000 0.875000 0.250000
v -0.250000 0.500000 -0.250000
v -0.250000 0.250000 -0.250000
v 0.250000 0.656250 -0.250000
v 0.250000 0.437500 -0.250000
v 0.250000 0.218750 -0.250000
v 0.250000 0.656250 0.250000
v 0.250000 0.218750 0.250000
v -0.250000 0.250000 0.250000
v -0.250000 0.500000 0.250000
v -0.250000 0.750000 0.250000
v 0.250000 0.771564 -0.250000
v 0.149652 0.900087 -0.250000
v 0.250000 0.875000 -0.146564
v -0.250000 0.906975 0.250000
v -0.159752 0.977438 0.250000
v -0.250000 1.000000 0.156975
v -0.179307 0.736745 -0.250000
v -0.250000 0.678075 -0.250000
v -0.250000 0.750000 -0.178075
v -0.250000 0.821925 -0.250000
v 0.170470 0.447441 0.250000
v 0.250000 0.357351 0.250000
v 0.250000 0.437500 0.169851
v 0.250000 0.517649 0.250000
v 0.250000 0.312500 0.500000
v 0.000000 0.312500 0.500000
v -0.250000 0.000000 0.500000
v 0.000000 0.000000 0.500000
v 0.000000 0.312500 -0.500000
v 0.250000 0.312500 -0.500000
v 0.000000 0.000000 -0.500000
v -0.250000 0.000000 -0.500000
v 0.500000 0.312500 0.000000
v 0.500000 0.312500 0.250000
v 0.500000 0.000000 0.250000
v 0.500000 0.000000 0.000000
v 0.500000 0.000000 -0.250000
v -0.500000 0.312500 0.250000
v -0.500000 0.312500 -0.250000
v -0.500000 0.000000 -0.250000
v -0.500000 0.000000 0.000000
v -0.500000 0.000000 0.250000
v -0.250000 0.000000 -0.250000
v -0.250000 0.000000 0.000000
v -0.250000 0.000000 0.250000
v 0.000000 0.000000 -0.250000
v 0.000000 0.000000 0.000000
v 0.000000 0.000000 0.250000
v 0.250000 0.000000 -0.250000
v 0.250000 0.000000 0.000000
v 0.250000 0.000000 0.250000
v 0.250000 0.312500 -0.250000
v 0.250000 0.312500 0.000000
v 0.250000 0.312500 0.250000
v 0.000000 0.312500 -0.250000
v 0.000000 0.312500 0.000000
v 0.000000 0.312500 0.250000
v -0.250000 0.312500 -0.250000
v -0.250000 0.312500 0.000000
v -0.250000 0.312500 0.250000
v -0.331217 0.312500 0.500000
v -0.250000 0.231283 0.500000
v -0.168783 0.312500 0.500000
v -0.250000 0.312500 0.418783
v 0.500000 0.239163 0.500000
v 0.500000 0.312500 0.426663
v 0.426663 0.312500 0.500000
v 0.335823 0.000000 0.500000
v 0.250000 0.085823 0.500000
v 0.164177 0.000000 0.500000
v 0.250000 0.000000 0.414177
v -0.415949 0.312500 0.000000
v -0.500000 0.312500 -0.084051
v -0.500000 0.228449 0.000000
v -0.500000 0.312500 0.084051
v -0.250000 0.312500 -0.420720
v -0.170720 0.312500 -0.500000
v -0.250000 0.233220 -0.500000
v -0.329280 0.312500 -0.500000
v 0.250000 0.000000 -0.418024
v 0.168024 0.000000 -0.500000
v 0.250000 0.081976 -0.500000
v 0.331976 0.000000 -0.500000
v 0.500000 0.312500 -0.314444
v 0.435556 0.312500 -0.250000
v 0.500000 0.312500 -0.185556
v 0.500000 0.248056 -0.250000
vn -0.0000 1.0000 -0.0000
vn -0.0000 -1.0000 -0.0000
vn -1.0000 -0.0000 -0.0000
vn 0.2425 0.9701 -0.0000
vn 1.0000 -0.0000 -0.0000
vn -0.0000 -0.0000 1.0000
vn -0.0000 -0.0000 -1.0000
vn 0.6713 0.5241 -0.5241
vn -0.4833 0.6190 0.6190
vn -0.5061 0.6098 -0.6098
vn 0.6252 0.5519 0.5519
vn 0.5774 0.5774 0.5774
vn -0.5774 -0.5774 0.5774
vn -0.5774 0.5774 0.5774
vn -0.5774 0.5774 -0.5774
vn 0.5774 -0.5774 -0.5774
vn 0.5774 0.5774 -0.5774
vn -0.5774 -0.5774 -0.5774
vn 0.5774 -0.5774 0.5774
vn 0.5295 -0.5998 0.5998
vn -0.6485 -0.5382 -0.5382
vt 0.750000 0.427632
vt 0.775641 0.427632
vt 0.775641 0.453947
vt 0.757522 0.453947
vt 0.750000 0.446228
vt 0.910256 0.348684
vt 0.927490 0.348684
vt 0.935897 0.357313
vt 0.935897 0.375000
vt 0.910256 0.375000
vt 0.801282 0.427632
vt 0.826923 0.427632
vt 0.826923 0.445398
vt 0.818593 0.453947
vt 0.801282 0.453947
vt 0.884615 0.315789
vt 0.884615 0.342105
vt 0.858974 0.342105
vt 0.858974 0.315789
vt 0.743590 0.024046
vt 0.753882 0.013158
vt 0.794872 0.013158
vt 0.794872 0.055997
vt 0.785616 0.065789
vt 0.743590 0.065789
vt 0.852564 0.200658
vt 0.852564 0.212796
vt 0.841955 0.223684
vt 0.801282 0.223684
vt 0.801282 0.200658
vt 0.852564 0.305921
vt 0.852564 0.328947
vt 0.810538 0.339730
vt 0.801282 0.332313
vt 0.801282 0.315789
vt 0.852564 0.184211
vt 0.852564 0.210526
vt 0.808659 0.210526
vt 0.801282 0.202955
vt 0.801282 0.184211
vt 0.852564 0.131579
vt 0.852564 0.157895
vt 0.801282 0.157895
vt 0.801282 0.131579
vt 0.852564 0.236842
vt 0.852564 0.263158
vt 0.801282 0.259868
vt 0.801282 0.236842
vt 0.852564 0.289474
vt 0.801282 0.282895
vt 0.845313 0.314394
vt 0.852564 0.323361
vt 0.852564 0.342105
vt 0.811574 0.331588
vt 0.801282 0.318059
vt 0.801282 0.305921
vt 0.852564 0.154605
vt 0.801282 0.154605
vt 0.852564 0.177632
vt 0.801282 0.186068
vt 0.809502 0.177632
vt 0.852564 0.259868
vt 0.852564 0.274458
vt 0.844407 0.283941
vt 0.801282 0.289474
vt 0.801282 0.263158
vt 0.852564 0.236842
vt 0.801282 0.236842
vt 0.801282 0.169195
vt 0.830941 0.035689
vt 0.827388 0.045987
vt 0.821494 0.019327
vt 0.830941 0.036925
vt 0.827298 0.046693
vt 0.825940 0.022097
vt 0.852564 0.308218
vt 0.830312 0.044497
vt 0.830941 0.043961
vt 0.827135 0.035493
vt 0.852564 0.227050
vt 0.843023 0.236842
vt 0.801282 0.236842
vt 0.801282 0.218097
vt 0.830234 0.041857
vt 0.830941 0.041035
vt 0.827208 0.032641
vt 0.844407 0.283941
vt 0.852564 0.291331
vt 0.884615 0.282895
vt 0.884615 0.309211
vt 0.866496 0.309211
vt 0.858974 0.303035
vt 0.858974 0.282895
vt 0.935897 0.427632
vt 0.961538 0.427632
vt 0.961538 0.453947
vt 0.944700 0.453947
vt 0.935897 0.444913
vt 0.852564 0.427632
vt 0.852564 0.453947
vt 0.835253 0.453947
vt 0.801282 0.348684
vt 0.818792 0.348684
vt 0.826923 0.357029
vt 0.826923 0.375000
vt 0.801282 0.375000
vt 0.961538 0.250000
vt 0.961538 0.276316
vt 0.944029 0.276316
vt 0.935897 0.269640
vt 0.935897 0.250000
vt 0.876207 0.250000
vt 0.884615 0.256903
vt 0.884615 0.276316
vt 0.858974 0.276316
vt 0.858974 0.250000
vt 0.858974 0.427632
vt 0.884615 0.427632
vt 0.884615 0.453947
vt 0.858974 0.453947
vt 0.910256 0.427632
vt 0.910256 0.453947
vt 0.927095 0.315789
vt 0.935897 0.323017
vt 0.935897 0.342105
vt 0.910256 0.342105
vt 0.910256 0.315789
vt 0.892945 0.342105
vt 0.884615 0.335266
vt 0.884615 0.315789
vt 0.826923 0.401316
vt 0.801282 0.401316
vt 0.775641 0.348684
vt 0.775641 0.375000
vt 0.775641 0.401316
vt 0.935897 0.282895
vt 0.935897 0.303784
vt 0.929288 0.309211
vt 0.910256 0.309211
vt 0.910256 0.282895
vt 0.750000 0.401316
vt 0.935897 0.401316
vt 0.910256 0.401316
vt 0.884615 0.348684
vt 0.884615 0.375000
vt 0.884615 0.401316
vt 0.858974 0.348684
vt 0.858974 0.375000
vt 0.858974 0.401316
vt 0.961538 0.315789
vt 0.961538 0.342105
vt 0.935897 0.315789
vt 0.852564 0.375000
vt 0.852564 0.392468
vt 0.843943 0.401316
vt 0.918877 0.342105
vt 0.910256 0.335027
vt 0.910256 0.315789
vt 0.910256 0.250000
vt 0.910256 0.276316
vt 0.884615 0.256903
vt 0.893023 0.250000
vt 0.961538 0.375000
vt 0.961538 0.401316
vt 0.927766 0.276316
vt 0.901636 0.342105
vt 0.750000 0.348684
vt 0.756610 0.375000
vt 0.750000 0.368216
vt 0.750000 0.381784
vt 0.829440 0.056594
vt 0.833719 0.046306
vt 0.828718 0.055853
vt 0.876285 0.342105
vt 0.858974 0.342105
vt 0.858974 0.315789
vt 0.840388 0.046364
vt 0.832149 0.044047
vt 0.822702 0.056594
vt 0.927095 0.453947
vt 0.838928 0.056594
vt 0.838165 0.045244
vt 0.838165 0.055811
vt 0.961538 0.315789
vt 0.961538 0.335930
vt 0.954017 0.342105
vt 0.944700 0.315789
vt 0.830194 0.052032
vt 0.830941 0.051265
vt 0.835942 0.046285
vt 0.852564 0.410163
vt 0.828718 0.048193
vt 0.828013 0.047469
vt 0.838165 0.040617
vt 0.835054 0.348684
vt 0.852564 0.348684
vt 0.838165 0.048217
vt 0.837436 0.047469
vt 0.833719 0.039513
vt 0.944305 0.348684
vt 0.961538 0.348684
vt 0.838738 0.044047
vt 0.822623 0.049750
vt 0.838165 0.043577
vt 0.961538 0.282895
vt 0.961538 0.309211
vt 0.942507 0.309211
vt 0.822050 0.050339
vt 0.838870 0.041196
vt 0.832991 0.038915
vt 0.836689 0.046899
vt 0.834441 0.046899
vt 0.837402 0.044618
vt 0.826495 0.033372
vt 0.826495 0.036149
s 0
usemtl mFD_Dungeon
f 47/1/1 67/2/1 38/3/1 80/4/1 79/5/1
f 44/6/2 94/7/2 93/8/2 62/9/2 59/10/2
f 70/11/1 73/12/1 77/13/1 76/14/1 39/15/1
f 53/16/3 52/17/3 4/18/3 5/19/3
f 26/20/4 25/21/4 12/22/4 29/23/4 28/24/4 13/25/4
f 16/26/5 24/27/5 26/28/5 13/29/5 19/30/5
f 19/31/6 13/32/6 28/33/6 27/34/6 23/35/6
f 22/36/3 23/37/3 32/38/3 31/39/3 14/40/3
f 8/41/3 21/42/3 15/43/3 9/44/3
f 21/42/3 22/36/3 14/40/3 15/43/3
f 9/45/7 15/46/7 18/47/7 11/48/7
f 15/46/7 14/49/7 17/50/7 18/47/7
f 30/51/7 33/52/7 12/53/7 25/54/7 24/55/7 16/56/7
f 11/41/5 18/57/5 20/58/5 10/44/5
f 17/59/5 16/26/5 19/30/5 37/60/5 36/61/5
f 20/62/6 35/63/6 34/64/6 22/65/6 21/66/6
f 10/67/6 20/62/6 21/66/6 8/68/6
f 18/57/5 17/59/5 36/61/5 35/69/5 20/58/5
f 24/70/8 25/71/8 26/72/8
f 27/73/9 28/74/9 29/75/9
f 14/49/7 31/76/7 30/51/7 16/56/7 17/50/7
f 30/77/10 31/78/10 32/79/10
f 23/37/3 27/80/3 29/81/3 12/82/3 33/83/3 32/38/3
f 34/84/11 35/85/11 36/86/11
f 34/87/6 37/88/6 19/31/6 23/35/6 22/65/6
f 48/89/5 47/90/5 79/91/5 78/92/5 3/93/5
f 64/94/2 48/95/2 3/96/2 81/97/2 84/98/2
f 73/12/1 51/99/1 6/100/1 74/101/1 77/13/1
f 42/102/1 90/103/1 89/104/1 71/105/1 68/106/1
f 5/107/7 4/108/7 92/109/7 91/110/7 45/111/7
f 96/112/7 95/113/7 43/114/7 1/115/7 2/116/7
f 55/117/2 58/118/2 40/119/2 7/120/2
f 58/118/2 61/121/2 41/122/2 40/119/2
f 83/123/6 82/124/6 38/125/6 39/126/6 41/127/6
f 67/2/1 70/11/1 39/15/1 38/3/1
f 41/127/6 39/126/6 76/128/6 75/129/6 40/130/6
f 68/106/1 71/105/1 72/131/1 69/132/1
f 69/132/1 72/131/1 73/12/1 70/11/1
f 43/133/1 42/102/1 68/106/1 65/134/1
f 65/134/1 68/106/1 69/132/1 66/135/1
f 66/135/1 69/132/1 70/11/1 67/2/1
f 50/136/5 100/137/5 99/138/5 46/139/5 49/140/5
f 46/141/1 66/135/1 67/2/1 47/1/1
f 59/10/2 62/9/2 63/142/2 60/143/2
f 60/143/2 63/142/2 64/94/2 61/121/2
f 45/144/2 44/6/2 59/10/2 56/145/2
f 56/145/2 59/10/2 60/143/2 57/146/2
f 57/146/2 60/143/2 61/121/2 58/118/2
f 5/147/2 45/144/2 56/145/2 53/148/2
f 53/148/2 56/145/2 57/146/2 54/149/2
f 54/149/2 57/146/2 58/118/2 55/117/2
f 7/150/3 6/151/3 51/125/3 55/152/3
f 71/105/1 52/153/1 86/154/1 85/155/1 72/131/1
f 55/152/3 51/125/3 88/156/3 87/157/3 54/158/3
f 44/159/7 42/160/7 43/114/7 95/161/7 94/162/7
f 62/9/2 50/163/2 49/164/2 63/142/2
f 63/142/2 49/164/2 48/95/2 64/94/2
f 45/111/7 91/110/7 90/165/7 42/160/7 44/159/7
f 54/158/3 87/157/3 86/166/3 52/17/3 53/16/3
f 1/167/1 43/133/1 65/134/1 98/168/1 97/169/1
f 99/170/1 98/168/1 65/134/1 66/135/1 46/141/1
f 49/140/5 46/139/5 47/90/5 48/89/5
f 74/171/12 75/172/12 77/173/12
f 40/130/6 75/129/6 74/174/6 6/175/6 7/176/6
f 78/177/12 79/178/12 80/179/12
f 61/121/2 64/94/2 84/98/2 83/180/2 41/122/2
f 81/181/13 82/182/13 84/183/13
f 3/184/6 78/185/6 80/186/6 38/125/6 82/124/6 81/187/6
f 85/188/14 86/189/14 87/190/14
f 72/131/1 85/155/1 88/191/1 51/99/1 73/12/1
f 89/192/15 90/193/15 91/194/15
f 89/104/1 92/195/1 4/196/1 52/153/1 71/105/1
f 93/197/16 94/198/16 95/199/16
f 93/8/2 96/200/2 2/201/2 50/163/2 62/9/2
f 97/202/12 98/203/12 100/204/12
f 2/205/5 1/206/5 97/207/5 100/137/5 50/136/5
f 100/204/17 98/203/17 99/208/17
f 91/194/17 92/209/17 89/192/17
f 95/199/18 96/210/18 93/197/18
f 87/190/15 88/211/15 85/188/15
f 77/173/14 75/172/14 76/212/14
f 84/183/19 82/182/19 83/213/19
f 36/86/20 37/214/20 34/84/20
f 32/79/21 33/215/21 30/77/21
