# Blender 4.0.2
# www.blender.org
mtllib Stairs_03.mtl
o Stairs_03
v 0.500000 0.000000 1.000000
v 1.500000 0.000000 1.000000
v 0.500000 0.250000 1.000000
v 1.500000 0.250000 1.000000
v 0.500000 0.250000 0.750000
v 1.500000 0.250000 0.750000
v 0.500000 0.500000 0.750000
v 1.500000 0.500000 0.750000
v 0.500000 0.250000 0.750000
v 1.500000 0.250000 0.750000
v 0.500000 0.250000 1.000000
v 1.500000 0.250000 1.000000
v 0.500000 0.500000 0.500000
v 1.500000 0.500000 0.500000
v 0.500000 0.500000 0.750000
v 1.500000 0.500000 0.750000
v 0.500000 0.500000 0.500000
v 1.500000 0.500000 0.500000
v 0.500000 0.750000 0.500000
v 1.500000 0.750000 0.500000
v 0.500000 0.750000 0.250000
v 1.500000 0.750000 0.250000
v 0.500000 1.000000 0.250000
v 1.500000 1.000000 0.250000
v 0.500000 0.750000 0.250000
v 1.500000 0.750000 0.250000
v 0.500000 0.750000 0.500000
v 1.500000 0.750000 0.500000
v 0.500000 1.000000 0.000000
v 1.500000 1.000000 0.000000
v 0.500000 1.000000 0.250000
v 1.500000 1.000000 0.250000
v 0.500000 1.000000 0.000000
v 1.500000 1.000000 0.000000
v 0.500000 1.250000 0.000000
v 1.500000 1.250000 0.000000
v 0.500000 1.250000 -0.250000
v 1.500000 1.250000 -0.250000
v 0.500000 1.500000 -0.250000
v 1.500000 1.500000 -0.250000
v 0.500000 1.250000 -0.250000
v 1.500000 1.250000 -0.250000
v 0.500000 1.250000 0.000000
v 1.500000 1.250000 0.000000
v 0.500000 1.500000 -0.500000
v 1.500000 1.500000 -0.500000
v 0.500000 1.500000 -0.250000
v 1.500000 1.500000 -0.250000
v 0.500000 1.500000 -0.500000
v 1.500000 1.500000 -0.500000
v 0.500000 1.750000 -0.500000
v 1.500000 1.750000 -0.500000
v 0.500000 1.750000 -0.750000
v 1.500000 1.750000 -0.750000
v 0.500000 2.000000 -0.750000
v 1.500000 2.000000 -0.750000
v 0.500000 1.750000 -0.750000
v 1.500000 1.750000 -0.750000
v 0.500000 1.750000 -0.500000
v 1.500000 1.750000 -0.500000
v 0.500000 2.000000 -1.000000
v 1.500000 2.000000 -1.000000
v 0.500000 2.000000 -0.750000
v 1.500000 2.000000 -0.750000
v 1.500000 0.000000 1.000000
v 1.500000 2.000000 -1.000000
v 1.500000 0.000000 -1.000000
v 1.500000 0.250000 1.000000
v -1.500000 0.750000 0.500000
v -1.500000 1.000000 0.000000
v -1.500000 1.000000 0.250000
v -1.500000 1.250000 -0.250000
v -1.500000 1.250000 0.000000
v -1.500000 1.500000 -0.500000
v -1.500000 1.500000 -0.250000
v 1.500000 2.000000 -0.750000
v -1.500000 1.750000 -0.750000
v -1.500000 1.750000 -0.500000
v -1.500000 2.000000 -0.750000
v -1.500000 0.250000 1.000000
v -1.500000 0.000000 -1.000000
v -1.500000 2.000000 -1.000000
v -1.500000 0.000000 1.000000
v 1.500000 1.750000 -0.500000
v 1.500000 1.750000 -0.750000
v 1.500000 1.500000 -0.250000
v 1.500000 1.500000 -0.500000
v -1.500000 0.750000 0.250000
v 1.500000 1.250000 0.000000
v 1.500000 1.250000 -0.250000
v -1.500000 0.500000 0.750000
v -1.500000 2.000000 -1.000000
v 1.500000 1.000000 0.250000
v 1.500000 1.000000 0.000000
v -1.500000 0.500000 0.500000
v -0.500000 2.000000 -1.000000
v -0.500000 0.000000 -0.999999
v 1.500000 0.750000 0.500000
v 1.500000 0.750000 0.250000
v -1.500000 0.250000 0.750000
v -1.500000 0.000000 1.000000
v 1.500000 0.500000 0.750000
v 1.500000 0.500000 0.500000
v -1.500000 0.000000 -1.000000
v -0.500000 0.000000 1.000000
v 1.500000 0.250000 0.750000
v -0.500000 0.000000 -1.000000
v -1.500000 0.000000 -0.999999
v -1.500000 0.000000 1.000000
v -0.500000 0.000000 1.000000
v -1.500000 0.250000 1.000000
v -0.500000 0.250000 1.000000
v -1.500000 0.250000 0.750000
v -0.500000 0.250000 0.750000
v -1.500000 0.500000 0.750000
v -0.500000 0.500000 0.750000
v -1.500000 0.250000 0.750000
v -0.500000 0.250000 0.750000
v -1.500000 0.250000 1.000000
v -0.500000 0.250000 1.000000
v -1.500000 0.500000 0.500000
v -0.500000 0.500000 0.500000
v -1.500000 0.500000 0.750000
v -0.500000 0.500000 0.750000
v -1.500000 0.500000 0.500000
v -0.500000 0.500000 0.500000
v -1.500000 0.750000 0.500000
v -0.500000 0.750000 0.500000
v -1.500000 0.750000 0.250000
v -0.500000 0.750000 0.250000
v -1.500000 1.000000 0.250000
v -0.500000 1.000000 0.250000
v -1.500000 0.750000 0.250000
v -0.500000 0.750000 0.250000
v -1.500000 0.750000 0.500000
v -0.500000 0.750000 0.500000
v -1.500000 1.000000 0.000000
v -0.500000 1.000000 0.000000
v -1.500000 1.000000 0.250000
v -0.500000 1.000000 0.250000
v -1.500000 1.000000 0.000000
v -0.500000 1.000000 0.000000
v -1.500000 1.250000 0.000000
v -0.500000 1.250000 0.000000
v -1.500000 1.250000 -0.250000
v -0.500000 1.250000 -0.250000
v -1.500000 1.500000 -0.250000
v -0.500000 1.500000 -0.250000
v -1.500000 1.250000 -0.250000
v -0.500000 1.250000 -0.250000
v -1.500000 1.250000 0.000000
v -0.500000 1.250000 0.000000
v -1.500000 1.500000 -0.500000
v -0.500000 1.500000 -0.500000
v -1.500000 1.500000 -0.250000
v -0.500000 1.500000 -0.250000
v -1.500000 1.500000 -0.500000
v -0.500000 1.500000 -0.500000
v -1.500000 1.750000 -0.500000
v -0.500000 1.750000 -0.500000
v -1.500000 1.750000 -0.750000
v -0.500000 1.750000 -0.750000
v -1.500000 2.000000 -0.750000
v -0.500000 2.000000 -0.750000
v -1.500000 1.750000 -0.750000
v -0.500000 1.750000 -0.750000
v -1.500000 1.750000 -0.500000
v -0.500000 1.750000 -0.500000
v -1.500000 2.000000 -1.000000
v -0.500000 2.000000 -1.000000
v -1.500000 2.000000 -0.750000
v -0.500000 2.000000 -0.750000
v -0.500000 2.000000 -1.000000
v 0.500000 2.000000 -1.000000
v -0.500000 0.000000 -1.000000
v 0.500000 0.000000 -1.000000
v 0.500000 0.000000 -0.999999
v -0.500000 0.000000 1.000000
v 0.500000 0.000000 1.000000
v -0.500000 0.000000 -0.999999
v -0.500000 0.000000 1.000000
v 0.500000 0.000000 1.000000
v -0.500000 0.250000 1.000000
v 0.500000 0.250000 1.000000
v -0.500000 0.250000 0.750000
v 0.500000 0.250000 0.750000
v -0.500000 0.500000 0.750000
v 0.500000 0.500000 0.750000
v -0.500000 0.250000 0.750000
v 0.500000 0.250000 0.750000
v -0.500000 0.250000 1.000000
v 0.500000 0.250000 1.000000
v -0.500000 0.500000 0.500000
v 0.500000 0.500000 0.500000
v -0.500000 0.500000 0.750000
v 0.500000 0.500000 0.750000
v -0.500000 0.500000 0.500000
v 0.500000 0.500000 0.500000
v -0.500000 0.750000 0.500000
v 0.500000 0.750000 0.500000
v -0.500000 0.750000 0.250000
v 0.500000 0.750000 0.250000
v -0.500000 1.000000 0.250000
v 0.500000 1.000000 0.250000
v -0.500000 0.750000 0.250000
v 0.500000 0.750000 0.250000
v -0.500000 0.750000 0.500000
v 0.500000 0.750000 0.500000
v -0.500000 1.000000 0.000000
v 0.500000 1.000000 0.000000
v -0.500000 1.000000 0.250000
v 0.500000 1.000000 0.250000
v -0.500000 1.000000 0.000000
v 0.500000 1.000000 0.000000
v -0.500000 1.250000 0.000000
v 0.500000 1.250000 0.000000
v -0.500000 1.250000 -0.250000
v 0.500000 1.250000 -0.250000
v -0.500000 1.500000 -0.250000
v 0.500000 1.500000 -0.250000
v -0.500000 1.250000 -0.250000
v 0.500000 1.250000 -0.250000
v -0.500000 1.250000 0.000000
v 0.500000 1.250000 0.000000
v -0.500000 1.500000 -0.500000
v 0.500000 1.500000 -0.500000
v -0.500000 1.500000 -0.250000
v 0.500000 1.500000 -0.250000
v -0.500000 1.500000 -0.500000
v 0.500000 1.500000 -0.500000
v -0.500000 1.750000 -0.500000
v 0.500000 1.750000 -0.500000
v -0.500000 1.750000 -0.750000
v 0.500000 1.750000 -0.750000
v -0.500000 2.000000 -0.750000
v 0.500000 2.000000 -0.750000
v -0.500000 1.750000 -0.750000
v 0.500000 1.750000 -0.750000
v -0.500000 1.750000 -0.500000
v 0.500000 1.750000 -0.500000
v -0.500000 2.000000 -1.000000
v 0.500000 2.000000 -1.000000
v -0.500000 2.000000 -0.750000
v 0.500000 2.000000 -0.750000
v 1.500000 0.000000 -0.999999
v 0.500000 0.000000 1.000000
v 1.500000 0.000000 1.000000
v 0.500000 0.000000 -0.999999
v 0.500000 2.000000 -1.000000
v 1.500000 2.000000 -1.000000
v 0.500000 0.000000 -1.000000
v 1.500000 0.000000 -1.000000
vn -0.0000 -0.0000 1.0000
vn -0.0000 1.0000 -0.0000
vn -0.0000 -1.0000 -0.0000
vn -0.0000 -0.0000 -1.0000
vn -1.0000 -0.0000 -0.0000
vn 1.0000 -0.0000 -0.0000
vt 0.006410 0.427632
vt 0.108974 0.427632
vt 0.108974 0.453947
vt 0.006410 0.453947
vt 0.006410 0.460526
vt 0.006410 0.486842
vt 0.108974 0.486842
vt 0.108974 0.460526
vt 0.006410 0.809211
vt 0.006410 0.703947
vt 0.211538 0.703947
vt 0.211538 0.809211
vt 0.007151 0.493993
vt 0.007151 0.704050
vt 0.108974 0.703947
vt 0.108974 0.493421
vt 0.211538 0.493421
vt 0.006410 0.493421
vt 0.006410 0.519737
vt 0.032051 0.519737
vt 0.032051 0.546053
vt 0.057692 0.546053
vt 0.057692 0.572368
vt 0.083333 0.572368
vt 0.083333 0.598684
vt 0.108974 0.598684
vt 0.108974 0.625000
vt 0.134615 0.625000
vt 0.134615 0.651316
vt 0.160256 0.651316
vt 0.160256 0.677631
vt 0.185897 0.677631
vt 0.185897 0.703947
s 0
usemtl mFD_Dungeon
f 1/1/1 2/2/1 4/3/1 3/4/1
f 5/1/1 6/2/1 8/3/1 7/4/1
f 9/5/2 11/6/2 12/7/2 10/8/2
f 13/5/2 15/6/2 16/7/2 14/8/2
f 17/1/1 18/2/1 20/3/1 19/4/1
f 21/1/1 22/2/1 24/3/1 23/4/1
f 25/5/2 27/6/2 28/7/2 26/8/2
f 29/5/2 31/6/2 32/7/2 30/8/2
f 33/1/1 34/2/1 36/3/1 35/4/1
f 37/1/1 38/2/1 40/3/1 39/4/1
f 41/5/2 43/6/2 44/7/2 42/8/2
f 45/5/2 47/6/2 48/7/2 46/8/2
f 49/1/1 50/2/1 52/3/1 51/4/1
f 53/1/1 54/2/1 56/3/1 55/4/1
f 57/5/2 59/6/2 60/7/2 58/8/2
f 61/5/2 63/6/2 64/7/2 62/8/2
f 108/9/3 97/10/3 105/11/3 101/12/3
f 104/13/4 92/14/4 96/15/4 107/16/4
f 81/17/5 83/18/5 80/19/5 100/20/5 91/21/5 95/22/5 69/23/5 88/24/5 71/25/5 70/26/5 73/27/5 72/28/5 75/29/5 74/30/5 78/31/5 77/32/5 79/33/5 82/11/5
f 67/17/6 66/11/6 76/33/6 85/32/6 84/31/6 87/30/6 86/29/6 90/28/6 89/27/6 94/26/6 93/25/6 99/24/6 98/23/6 103/22/6 102/21/6 106/20/6 68/19/6 65/18/6
f 109/1/1 110/2/1 112/3/1 111/4/1
f 113/1/1 114/2/1 116/3/1 115/4/1
f 117/5/2 119/6/2 120/7/2 118/8/2
f 121/5/2 123/6/2 124/7/2 122/8/2
f 125/1/1 126/2/1 128/3/1 127/4/1
f 129/1/1 130/2/1 132/3/1 131/4/1
f 133/5/2 135/6/2 136/7/2 134/8/2
f 137/5/2 139/6/2 140/7/2 138/8/2
f 141/1/1 142/2/1 144/3/1 143/4/1
f 145/1/1 146/2/1 148/3/1 147/4/1
f 149/5/2 151/6/2 152/7/2 150/8/2
f 153/5/2 155/6/2 156/7/2 154/8/2
f 157/1/1 158/2/1 160/3/1 159/4/1
f 161/1/1 162/2/1 164/3/1 163/4/1
f 165/5/2 167/6/2 168/7/2 166/8/2
f 169/5/2 171/6/2 172/7/2 170/8/2
f 175/13/4 173/14/4 174/15/4 176/16/4
f 180/9/3 177/10/3 179/11/3 178/12/3
f 181/1/1 182/2/1 184/3/1 183/4/1
f 185/1/1 186/2/1 188/3/1 187/4/1
f 189/5/2 191/6/2 192/7/2 190/8/2
f 193/5/2 195/6/2 196/7/2 194/8/2
f 197/1/1 198/2/1 200/3/1 199/4/1
f 201/1/1 202/2/1 204/3/1 203/4/1
f 205/5/2 207/6/2 208/7/2 206/8/2
f 209/5/2 211/6/2 212/7/2 210/8/2
f 213/1/1 214/2/1 216/3/1 215/4/1
f 217/1/1 218/2/1 220/3/1 219/4/1
f 221/5/2 223/6/2 224/7/2 222/8/2
f 225/5/2 227/6/2 228/7/2 226/8/2
f 229/1/1 230/2/1 232/3/1 231/4/1
f 233/1/1 234/2/1 236/3/1 235/4/1
f 237/5/2 239/6/2 240/7/2 238/8/2
f 241/5/2 243/6/2 244/7/2 242/8/2
f 248/9/3 245/10/3 247/11/3 246/12/3
f 251/13/4 249/14/4 250/15/4 252/16/4
