# Blender 4.0.2
# www.blender.org
mtllib Stairs_04.mtl
o Stairs_04
v -0.750000 0.000000 0.125000
v -0.500000 0.000000 0.125000
v -0.750000 2.000000 0.125000
v -0.500000 2.000000 0.125000
v -0.625000 0.000000 0.125000
v -0.625000 2.000000 0.125000
v -0.500000 0.000000 0.125000
v -0.500000 0.000000 -0.125000
v -0.500000 2.000000 0.125000
v -0.500000 2.000000 -0.125000
v -0.500000 0.000000 0.000000
v -0.500000 2.000000 0.000000
v -0.750000 0.000000 0.125000
v -0.750000 0.000000 -0.125000
v -0.750000 2.000000 0.125000
v -0.750000 2.000000 -0.125000
v -0.750000 0.000000 0.000000
v -0.750000 2.000000 0.000000
v -0.750000 0.000000 -0.125000
v -0.500000 0.000000 -0.125000
v -0.750000 2.000000 -0.125000
v -0.500000 2.000000 -0.125000
v -0.625000 0.000000 -0.125000
v -0.625000 2.000000 -0.125000
v 0.500000 0.000000 0.125000
v 0.750000 0.000000 0.125000
v 0.500000 2.000000 0.125000
v 0.750000 2.000000 0.125000
v 0.625000 0.000000 0.125000
v 0.625000 2.000000 0.125000
v 0.750000 0.000000 0.125000
v 0.750000 0.000000 -0.125000
v 0.750000 2.000000 0.125000
v 0.750000 2.000000 -0.125000
v 0.750000 0.000000 0.000000
v 0.750000 2.000000 0.000000
v 0.500000 0.000000 0.125000
v 0.500000 0.000000 -0.125000
v 0.500000 2.000000 0.125000
v 0.500000 2.000000 -0.125000
v 0.500000 0.000000 0.000000
v 0.500000 2.000000 0.000000
v 0.500000 0.000000 -0.125000
v 0.750000 0.000000 -0.125000
v 0.500000 2.000000 -0.125000
v 0.750000 2.000000 -0.125000
v 0.625000 0.000000 -0.125000
v 0.625000 2.000000 -0.125000
v -0.500000 0.187500 0.125000
v 0.500000 0.187500 0.125000
v -0.500000 0.187500 -0.125000
v 0.500000 0.187500 -0.125000
v -0.500000 0.312500 0.125000
v 0.500000 0.312500 0.125000
v -0.500000 0.312500 -0.125000
v 0.500000 0.312500 -0.125000
v -0.500000 0.187500 0.125000
v 0.500000 0.187500 0.125000
v -0.500000 0.312500 0.125000
v 0.500000 0.312500 0.125000
v -0.500000 0.187500 -0.125000
v 0.500000 0.187500 -0.125000
v -0.500000 0.312500 -0.125000
v 0.500000 0.312500 -0.125000
v -0.500000 0.562500 0.125000
v 0.500000 0.562500 0.125000
v -0.500000 0.562500 -0.125000
v 0.500000 0.562500 -0.125000
v -0.500000 0.687500 0.125000
v 0.500000 0.687500 0.125000
v -0.500000 0.687500 -0.125000
v 0.500000 0.687500 -0.125000
v -0.500000 0.562500 0.125000
v 0.500000 0.562500 0.125000
v -0.500000 0.687500 0.125000
v 0.500000 0.687500 0.125000
v -0.500000 0.562500 -0.125000
v 0.500000 0.562500 -0.125000
v -0.500000 0.687500 -0.125000
v 0.500000 0.687500 -0.125000
v -0.500000 0.937500 0.125000
v 0.500000 0.937500 0.125000
v -0.500000 0.937500 -0.125000
v 0.500000 0.937500 -0.125000
v -0.500000 1.062500 0.125000
v 0.500000 1.062500 0.125000
v -0.500000 1.062500 -0.125000
v 0.500000 1.062500 -0.125000
v -0.500000 0.937500 0.125000
v 0.500000 0.937500 0.125000
v -0.500000 1.062500 0.125000
v 0.500000 1.062500 0.125000
v -0.500000 0.937500 -0.125000
v 0.500000 0.937500 -0.125000
v -0.500000 1.062500 -0.125000
v 0.500000 1.062500 -0.125000
v -0.500000 1.312500 0.125000
v 0.500000 1.312500 0.125000
v -0.500000 1.312500 -0.125000
v 0.500000 1.312500 -0.125000
v -0.500000 1.437500 0.125000
v 0.500000 1.437500 0.125000
v -0.500000 1.437500 -0.125000
v 0.500000 1.437500 -0.125000
v -0.500000 1.312500 0.125000
v 0.500000 1.312500 0.125000
v -0.500000 1.437500 0.125000
v 0.500000 1.437500 0.125000
v -0.500000 1.312500 -0.125000
v 0.500000 1.312500 -0.125000
v -0.500000 1.437500 -0.125000
v 0.500000 1.437500 -0.125000
v -0.500000 1.687500 0.125000
v 0.500000 1.687500 0.125000
v -0.500000 1.687500 -0.125000
v 0.500000 1.687500 -0.125000
v -0.500000 1.812500 0.125000
v 0.500000 1.812500 0.125000
v -0.500000 1.812500 -0.125000
v 0.500000 1.812500 -0.125000
v -0.500000 1.687500 0.125000
v 0.500000 1.687500 0.125000
v -0.500000 1.812500 0.125000
v 0.500000 1.812500 0.125000
v -0.500000 1.687500 -0.125000
v 0.500000 1.687500 -0.125000
v -0.500000 1.812500 -0.125000
v 0.500000 1.812500 -0.125000
v -0.750000 0.000000 0.125000
v -0.500000 0.000000 0.125000
v -0.750000 0.000000 -0.125000
v -0.500000 0.000000 -0.125000
v 0.500000 0.000000 0.125000
v 0.750000 0.000000 0.125000
v 0.500000 0.000000 -0.125000
v 0.750000 0.000000 -0.125000
v -0.750000 2.000000 0.125000
v -0.500000 2.000000 0.125000
v -0.750000 2.000000 -0.125000
v -0.500000 2.000000 -0.125000
v 0.500000 2.000000 0.125000
v 0.750000 2.000000 0.125000
v 0.500000 2.000000 -0.125000
v 0.750000 2.000000 -0.125000
vn -0.0000 -0.0000 1.0000
vn 1.0000 -0.0000 -0.0000
vn -1.0000 -0.0000 -0.0000
vn -0.0000 -0.0000 -1.0000
vn -0.0000 -1.0000 -0.0000
vn -0.0000 1.0000 -0.0000
vt 0.775641 0.131579
vt 0.788462 0.131579
vt 0.788462 0.342105
vt 0.775641 0.342105
vt 0.750000 0.131579
vt 0.762821 0.131579
vt 0.762821 0.342105
vt 0.750000 0.342105
vt 0.750000 0.348684
vt 0.750000 0.375000
vt 0.852564 0.375000
vt 0.852564 0.348684
vt 0.858974 0.315789
vt 0.961538 0.315789
vt 0.961538 0.328947
vt 0.858974 0.328947
vt 0.801282 0.039474
vt 0.801282 0.065789
vt 0.826923 0.065789
vt 0.826923 0.039474
vt 0.750000 0.032895
vt 0.775641 0.032895
vt 0.775641 0.059211
vt 0.750000 0.059211
s 0
usemtl mFD_Dungeon
f 5/1/1 2/2/1 4/3/1 6/4/1
f 1/5/1 5/6/1 6/7/1 3/8/1
f 11/1/2 8/2/2 10/3/2 12/4/2
f 7/5/2 11/6/2 12/7/2 9/8/2
f 17/1/3 18/4/3 16/3/3 14/2/3
f 13/5/3 15/8/3 18/7/3 17/6/3
f 23/1/4 24/4/4 22/3/4 20/2/4
f 19/5/4 21/8/4 24/7/4 23/6/4
f 29/1/1 26/2/1 28/3/1 30/4/1
f 25/5/1 29/6/1 30/7/1 27/8/1
f 35/1/2 32/2/2 34/3/2 36/4/2
f 31/5/2 35/6/2 36/7/2 33/8/2
f 41/1/3 42/4/3 40/3/3 38/2/3
f 37/5/3 39/8/3 42/7/3 41/6/3
f 47/1/4 48/4/4 46/3/4 44/2/4
f 43/5/4 45/8/4 48/7/4 47/6/4
f 49/9/5 51/10/5 52/11/5 50/12/5
f 53/9/6 54/12/6 56/11/6 55/10/6
f 57/13/1 58/14/1 60/15/1 59/16/1
f 61/13/4 63/16/4 64/15/4 62/14/4
f 65/9/5 67/10/5 68/11/5 66/12/5
f 69/9/6 70/12/6 72/11/6 71/10/6
f 73/13/1 74/14/1 76/15/1 75/16/1
f 77/13/4 79/16/4 80/15/4 78/14/4
f 81/9/5 83/10/5 84/11/5 82/12/5
f 85/9/6 86/12/6 88/11/6 87/10/6
f 89/13/1 90/14/1 92/15/1 91/16/1
f 93/13/4 95/16/4 96/15/4 94/14/4
f 97/9/5 99/10/5 100/11/5 98/12/5
f 101/9/6 102/12/6 104/11/6 103/10/6
f 105/13/1 106/14/1 108/15/1 107/16/1
f 109/13/4 111/16/4 112/15/4 110/14/4
f 113/9/5 115/10/5 116/11/5 114/12/5
f 117/9/6 118/12/6 120/11/6 119/10/6
f 121/13/1 122/14/1 124/15/1 123/16/1
f 125/13/4 127/16/4 128/15/4 126/14/4
f 129/17/5 131/18/5 132/19/5 130/20/5
f 133/17/5 135/18/5 136/19/5 134/20/5
f 137/21/6 138/22/6 140/23/6 139/24/6
f 141/21/6 142/22/6 144/23/6 143/24/6
