# Blender 4.0.2
# www.blender.org
mtllib Torch_02.mtl
o Torch_02
v -0.250000 0.750000 0.250000
v 0.250000 0.750000 0.250000
v -0.250000 0.750000 -0.250000
v 0.250000 0.750000 -0.250000
v -0.187500 0.750000 -0.187500
v -0.187500 0.750000 0.187500
v 0.187500 0.750000 0.187500
v 0.187500 0.750000 -0.187500
v -0.125000 0.687500 -0.125000
v -0.125000 0.687500 0.125000
v 0.125000 0.687500 0.125000
v 0.125000 0.687500 -0.125000
v -0.187500 0.687500 -0.187500
v -0.187500 0.687500 0.187500
v 0.187500 0.687500 0.187500
v 0.187500 0.687500 -0.187500
v -0.125000 0.625000 -0.125000
v -0.125000 0.625000 0.125000
v 0.125000 0.625000 0.125000
v 0.125000 0.625000 -0.125000
v -0.250000 0.750000 0.250000
v 0.250000 0.750000 0.250000
v -0.250000 0.687500 0.250000
v 0.250000 0.687500 0.250000
v -0.250000 0.687500 -0.250000
v 0.250000 0.687500 -0.250000
v -0.250000 0.687500 0.250000
v 0.250000 0.687500 0.250000
v -0.125000 0.562500 0.125000
v 0.125000 0.562500 0.125000
v -0.125000 0.562500 -0.125000
v 0.125000 0.562500 -0.125000
v -0.125000 0.562500 0.125000
v 0.125000 0.562500 0.125000
v 0.125000 0.562500 0.125000
v -0.125000 0.187500 0.125000
v 0.125000 0.187500 0.125000
v -0.125000 0.562500 0.125000
v 0.125000 0.562500 0.125000
v -0.125000 0.187500 0.000000
v -0.125000 0.562500 0.000000
v 0.125000 0.562500 -0.125000
v 0.125000 0.562500 0.125000
v 0.125000 0.187500 -0.125000
v 0.125000 0.187500 0.125000
v 0.000000 0.562500 -0.125000
v 0.000000 0.187500 -0.125000
v 0.125000 0.562500 -0.125000
v -0.125000 0.562500 -0.125000
v 0.125000 0.187500 -0.125000
v -0.125000 0.187500 -0.125000
v 0.000000 0.187500 0.125000
v 0.000000 0.562500 0.125000
v -0.125000 0.562500 -0.125000
v -0.125000 0.562500 0.125000
v -0.125000 0.187500 -0.125000
v -0.125000 0.187500 0.125000
v 0.125000 0.187500 0.000000
v 0.125000 0.562500 0.000000
v -0.125000 0.000000 -0.125000
v -0.125000 0.000000 0.125000
v 0.125000 0.000000 0.125000
v 0.125000 0.000000 -0.125000
v -0.125000 0.000000 0.125000
v 0.125000 0.000000 0.125000
v -0.125000 0.187500 0.125000
v 0.125000 0.187500 0.125000
v -0.125000 0.000000 0.000000
v -0.125000 0.187500 0.000000
v 0.125000 0.187500 -0.125000
v 0.125000 0.187500 0.125000
v 0.125000 0.000000 -0.125000
v 0.125000 0.000000 0.125000
v 0.000000 0.187500 -0.125000
v 0.000000 0.000000 -0.125000
v 0.125000 0.187500 -0.125000
v -0.125000 0.187500 -0.125000
v 0.125000 0.000000 -0.125000
v -0.125000 0.000000 -0.125000
v 0.000000 0.000000 0.125000
v 0.000000 0.187500 0.125000
v -0.125000 0.187500 -0.125000
v -0.125000 0.187500 0.125000
v -0.125000 0.000000 -0.125000
v -0.125000 0.000000 0.125000
v 0.125000 0.000000 0.000000
v 0.125000 0.187500 0.000000
vn -1.0000 -0.0000 -0.0000
vn -0.0000 1.0000 -0.0000
vn -0.0000 -0.0000 1.0000
vn 1.0000 -0.0000 -0.0000
vn -0.0000 -0.0000 -1.0000
vn -0.0000 -0.7071 0.7071
vn 0.7071 -0.7071 -0.0000
vn -0.0000 -0.7071 -0.7071
vn -0.7071 -0.7071 -0.0000
vn -0.0000 -1.0000 -0.0000
vt 0.846154 0.019737
vt 0.846154 0.059211
vt 0.750000 0.019737
vt 0.750000 0.059211
vt 0.743590 0.065789
vt 0.743590 0.013158
vt 0.788462 0.019737
vt 0.794872 0.013158
vt 0.788462 0.059211
vt 0.794872 0.065789
vt 0.839744 0.052632
vt 0.814103 0.052632
vt 0.807692 0.059211
vt 0.807692 0.019737
vt 0.814103 0.026316
vt 0.839744 0.026316
vt 0.826923 0.072368
vt 0.826923 0.125000
vt 0.820513 0.125000
vt 0.820513 0.072368
vt 0.814103 0.072368
vt 0.814103 0.125000
vt 0.807692 0.125000
vt 0.807692 0.072368
vt 0.801282 0.125000
vt 0.801282 0.072368
vt 0.820513 0.085526
vt 0.807692 0.085526
vt 0.775641 0.131579
vt 0.788462 0.131579
vt 0.788462 0.171053
vt 0.775641 0.171053
vt 0.750000 0.131579
vt 0.750000 0.171053
vt 0.762821 0.171053
vt 0.762821 0.131579
vt 0.788462 0.151316
vt 0.775641 0.151316
vt 0.750000 0.151316
vt 0.762821 0.151316
s 0
usemtl mFD_Dungeon
f 7/1/1 8/2/1 16/2/1 15/1/1
f 6/3/2 5/4/2 3/5/2 1/6/2
f 7/7/2 6/3/2 1/6/2 2/8/2
f 8/9/2 7/7/2 2/8/2 4/10/2
f 5/4/2 8/9/2 4/10/2 3/5/2
f 12/11/3 9/12/3 17/12/3 20/11/3
f 5/13/4 6/14/4 14/14/4 13/13/4
f 8/2/3 5/13/3 13/13/3 16/2/3
f 6/14/5 7/1/5 15/1/5 14/14/5
f 10/15/2 9/12/2 13/13/2 14/14/2
f 11/16/2 10/15/2 14/14/2 15/1/2
f 12/11/2 11/16/2 15/1/2 16/2/2
f 9/12/2 12/11/2 16/2/2 13/13/2
f 18/15/2 19/16/2 20/11/2 17/12/2
f 10/15/5 11/16/5 19/16/5 18/15/5
f 11/16/1 12/11/1 20/11/1 19/16/1
f 9/12/4 10/15/4 18/15/4 17/12/4
f 2/8/2 1/6/2 21/6/2 22/8/2
f 3/17/5 4/18/5 26/19/5 25/20/5
f 22/21/3 21/22/3 27/23/3 28/24/3
f 4/20/4 2/19/4 24/22/4 26/21/4
f 1/24/1 3/23/1 25/25/1 23/26/1
f 28/26/6 27/17/6 33/27/6 34/28/6
f 26/26/7 24/17/7 30/27/7 32/28/7
f 25/26/8 26/17/8 32/27/8 31/28/8
f 23/26/9 25/17/9 31/27/9 29/28/9
f 52/29/3 37/30/3 39/31/3 53/32/3
f 58/29/4 44/30/4 42/31/4 59/32/4
f 51/33/5 49/34/5 46/35/5 47/36/5
f 47/29/5 46/32/5 48/31/5 50/30/5
f 36/33/3 52/36/3 53/35/3 38/34/3
f 57/33/1 55/34/1 41/35/1 40/36/1
f 40/29/1 41/32/1 54/31/1 56/30/1
f 45/33/4 58/36/4 59/35/4 43/34/4
f 61/15/10 60/12/10 63/11/10 62/16/10
f 80/29/3 65/30/3 67/37/3 81/38/3
f 86/29/4 72/30/4 70/37/4 87/38/4
f 79/33/5 77/39/5 74/40/5 75/36/5
f 75/29/5 74/38/5 76/37/5 78/30/5
f 64/33/3 80/36/3 81/40/3 66/39/3
f 85/33/1 83/39/1 69/40/1 68/36/1
f 68/29/1 69/38/1 82/37/1 84/30/1
f 73/33/4 86/36/4 87/40/4 71/39/4
