# Blender 4.0.2
# www.blender.org
mtllib Torch_Wall_02.mtl
o Torch_Wall_02
v 0.187500 0.500000 -0.062500
v 0.187500 0.500000 -0.125000
v -0.187500 0.500000 -0.062500
v -0.187500 0.500000 -0.125000
v 0.187500 0.500000 -0.062500
v -0.187500 0.500000 -0.062500
v -0.125000 0.500000 -0.062500
v 0.125000 0.500000 -0.062500
v 0.062500 0.375000 -0.000000
v -0.062500 0.375000 0.000000
v 0.062500 0.375000 0.125000
v -0.062500 0.375000 0.125000
v -0.125000 0.500000 -0.062500
v -0.187500 0.500000 -0.125000
v 0.125000 0.500000 -0.062500
v 0.187500 0.500000 -0.125000
v -0.187500 0.250000 0.125000
v 0.187500 0.250000 -0.125000
v -0.062500 0.375000 0.125000
v -0.187500 0.250000 -0.125000
v -0.125000 0.500000 -0.062500
v 0.125000 0.500000 -0.062500
v -0.187500 0.500000 -0.125000
v -0.187500 0.250000 -0.125000
v 0.187500 0.500000 -0.125000
v 0.187500 0.250000 -0.125000
v -0.187500 0.500000 0.125000
v 0.187500 0.250000 0.125000
v 0.062500 0.250000 0.125000
v 0.125000 0.250000 0.124220
v -0.187500 0.250000 -0.125000
v 0.187500 0.250000 -0.125000
v 0.187500 0.500000 0.124018
v 0.125000 0.500000 0.124220
v 0.187500 0.500000 0.125000
v -0.125000 0.500000 0.125000
v -0.187500 0.500000 0.125241
v 0.125000 0.500000 0.125000
v -0.187500 0.500000 0.125241
v 0.187500 0.250000 0.125000
v -0.187500 0.500000 0.125000
v -0.125000 0.500000 0.125045
v -0.125000 0.500000 0.125045
v 0.062500 0.375000 0.125000
v -0.187500 0.250000 0.125000
v 0.187500 0.250000 0.125000
v 0.125000 0.250000 0.125000
v -0.062500 0.250000 0.125000
v 0.062500 0.250000 0.125000
v -0.062500 0.250000 0.125000
v -0.125000 0.250000 0.125045
v -0.187500 0.250000 0.125000
v -0.125000 0.250000 0.125000
v 0.062500 0.000000 -0.000000
v -0.062500 0.000000 0.000000
v -0.062500 0.000000 0.125000
v 0.062500 0.000000 0.125000
v 0.062500 0.250000 -0.062500
v -0.062500 0.250000 -0.062500
v -0.125000 0.250000 0.000000
v -0.125000 0.250000 0.125000
v -0.125000 0.250000 0.000000
v -0.062500 0.250000 -0.062500
v 0.062500 0.000000 -0.000000
v 0.062500 0.250000 -0.062500
v 0.125000 0.250000 -0.000000
v 0.062500 0.250000 -0.062500
v 0.062500 0.000000 -0.000000
v 0.062500 0.000000 0.125000
v 0.125000 0.250000 -0.000000
v 0.125000 0.250000 0.125000
v -0.062500 0.250000 0.125000
v 0.062500 0.250000 0.125000
v 0.062500 0.250000 0.125000
v 0.125000 0.250000 0.125000
v -0.062500 0.250000 0.125000
v -0.125000 0.250000 0.125000
vn -0.0000 1.0000 -0.0000
vn -0.0000 0.4472 0.8944
vn -0.0000 -0.0000 -1.0000
vn -1.0000 -0.0000 -0.0000
vn 1.0000 -0.0000 -0.0000
vn 0.0125 -0.0000 0.9999
vn -0.8944 0.4472 -0.0000
vn -0.0000 -1.0000 -0.0000
vn 0.8944 0.4472 -0.0000
vn -0.0000 -0.0000 1.0000
vn 0.0007 -0.0000 1.0000
vn 0.0016 -0.0006 1.0000
vn -0.0000 -0.2425 -0.9701
vn -0.9701 -0.2425 -0.0000
vn -0.6963 -0.1741 -0.6963
vn 0.6963 -0.1741 -0.6963
vn 0.9701 -0.2425 -0.0000
vt 0.782051 0.059211
vt 0.782051 0.065789
vt 0.743590 0.065789
vt 0.743590 0.059211
vt 0.801282 0.032895
vt 0.833333 0.032895
vt 0.833333 0.064693
vt 0.801282 0.064585
vt 0.814103 0.032895
vt 0.814103 0.065789
vt 0.801282 0.065789
vt 0.788462 0.348684
vt 0.826923 0.348684
vt 0.826923 0.375000
vt 0.788462 0.375000
vt 0.814103 0.348684
vt 0.814103 0.375000
vt 0.829366 0.029856
vt 0.816546 0.036978
vt 0.794872 0.039474
vt 0.788462 0.039474
vt 0.788462 0.019737
vt 0.794872 0.019737
vt 0.801282 0.041221
vt 0.814103 0.034099
vt 0.819428 0.375000
vt 0.826923 0.374212
vt 0.801282 0.098684
vt 0.839744 0.098684
vt 0.839744 0.125000
vt 0.801282 0.125000
vt 0.833333 0.065789
vt 0.801282 0.041113
vt 0.814103 0.033992
vt 0.803725 0.035231
vt 0.810135 0.035231
vt 0.848597 0.060450
vt 0.816546 0.060343
vt 0.829366 0.029749
vt 0.816546 0.036870
vt 0.801282 0.092105
vt 0.833333 0.125000
vt 0.833333 0.092105
vt 0.814103 0.105263
vt 0.846154 0.105263
s 0
usemtl mFD_Dungeon
f 1/1/1 2/2/1 4/3/1 3/4/1
f 9/5/1 10/6/1 19/7/1 44/8/1
f 13/5/2 10/9/2 9/10/2 15/11/2
f 18/12/3 20/13/3 14/14/3 16/15/3
f 24/12/4 45/16/4 37/17/4 23/15/4
f 26/12/5 25/15/5 33/17/5 46/16/5
f 44/18/6 29/18/6 30/19/6 34/19/6
f 38/20/1 35/21/1 5/22/1 8/23/1
f 34/24/7 22/11/7 9/10/7 44/25/7
f 36/26/1 41/27/1 27/14/1
f 39/20/1 42/21/1 7/22/1 6/23/1
f 40/28/8 17/29/8 31/30/8 32/31/8
f 44/8/1 19/7/1 12/32/1 11/11/1
f 43/33/9 19/34/9 10/10/9 21/11/9
f 35/35/10 38/36/10 47/36/10 28/35/10
f 19/37/10 48/37/10 49/38/10 44/38/10
f 19/39/11 43/40/11 51/40/11 50/39/11
f 42/35/12 39/36/12 52/36/12 53/35/12
f 54/41/8 57/31/8 56/42/8 55/43/8
f 55/43/13 59/43/13 58/41/13 54/41/13
f 56/42/14 61/42/14 60/43/14 55/43/14
f 55/43/15 62/43/15 63/43/15 59/43/15
f 64/43/16 65/43/16 67/43/16 66/43/16
f 69/42/17 68/43/17 70/43/17 71/42/17
f 57/44/10 73/44/10 72/45/10 56/45/10
f 69/45/10 71/45/10 75/45/10 74/45/10
f 56/45/10 76/45/10 77/45/10 61/45/10
