# Blender 4.0.2
# www.blender.org
mtllib Trap_03.mtl
o Trap_03
v -0.125000 0.000000 0.125000
v 0.125000 0.000000 0.125000
v -0.125000 0.000000 -0.125000
v 0.125000 0.000000 -0.125000
v 0.062500 0.062500 -0.062500
v 0.062500 0.062500 0.062500
v -0.062500 0.062500 -0.062500
v -0.062500 0.062500 0.062500
v -0.125000 0.125000 -0.125000
v -0.125000 0.125000 0.125000
v 0.125000 0.125000 0.125000
v 0.125000 0.125000 -0.125000
v -0.125000 0.125000 -0.125000
v -0.125000 0.125000 0.125000
v 0.125000 0.125000 0.125000
v 0.125000 0.125000 -0.125000
v -0.062500 0.125000 -0.062500
v -0.125000 0.125000 -0.125000
v -0.125000 0.125000 0.125000
v -0.062500 0.125000 0.062500
v 0.125000 0.125000 0.125000
v 0.062500 0.125000 0.062500
v 0.125000 0.125000 -0.125000
v 0.062500 0.125000 -0.062500
v -0.125000 0.000000 0.437500
v 0.125000 0.000000 0.437500
v -0.125000 0.000000 0.187500
v 0.125000 0.000000 0.187500
v 0.062500 0.062500 0.250000
v 0.062500 0.062500 0.375000
v -0.062500 0.062500 0.250000
v -0.062500 0.062500 0.375000
v -0.125000 0.125000 0.187500
v -0.125000 0.125000 0.437500
v 0.125000 0.125000 0.437500
v 0.125000 0.125000 0.187500
v -0.125000 0.125000 0.187500
v -0.125000 0.125000 0.437500
v 0.125000 0.125000 0.437500
v 0.125000 0.125000 0.187500
v -0.062500 0.125000 0.250000
v -0.125000 0.125000 0.187500
v -0.125000 0.125000 0.437500
v -0.062500 0.125000 0.375000
v 0.125000 0.125000 0.437500
v 0.062500 0.125000 0.375000
v 0.125000 0.125000 0.187500
v 0.062500 0.125000 0.250000
v -0.125000 0.000000 -0.187500
v 0.125000 0.000000 -0.187500
v -0.125000 0.000000 -0.437500
v 0.125000 0.000000 -0.437500
v 0.062500 0.062500 -0.375000
v 0.062500 0.062500 -0.250000
v -0.062500 0.062500 -0.375000
v -0.062500 0.062500 -0.250000
v -0.125000 0.125000 -0.437500
v -0.125000 0.125000 -0.187500
v 0.125000 0.125000 -0.187500
v 0.125000 0.125000 -0.437500
v -0.125000 0.125000 -0.437500
v -0.125000 0.125000 -0.187500
v 0.125000 0.125000 -0.187500
v 0.125000 0.125000 -0.437500
v -0.062500 0.125000 -0.375000
v -0.125000 0.125000 -0.437500
v -0.125000 0.125000 -0.187500
v -0.062500 0.125000 -0.250000
v 0.125000 0.125000 -0.187500
v 0.062500 0.125000 -0.250000
v 0.125000 0.125000 -0.437500
v 0.062500 0.125000 -0.375000
v -0.125000 0.000000 0.750000
v 0.125000 0.000000 0.750000
v -0.125000 0.000000 0.500000
v 0.125000 0.000000 0.500000
v 0.062500 0.062500 0.562500
v 0.062500 0.062500 0.687500
v -0.062500 0.062500 0.562500
v -0.062500 0.062500 0.687500
v -0.125000 0.125000 0.500000
v -0.125000 0.125000 0.750000
v 0.125000 0.125000 0.750000
v 0.125000 0.125000 0.500000
v -0.062500 0.125000 0.562500
v -0.125000 0.125000 0.500000
v -0.125000 0.125000 0.750000
v -0.062500 0.125000 0.687500
v 0.125000 0.125000 0.750000
v 0.062500 0.125000 0.687500
v 0.125000 0.125000 0.500000
v 0.062500 0.125000 0.562500
v -0.125000 0.000000 -0.500000
v 0.125000 0.000000 -0.500000
v -0.125000 0.000000 -0.750000
v 0.125000 0.000000 -0.750000
v 0.062500 0.062500 -0.687500
v 0.062500 0.062500 -0.562500
v -0.062500 0.062500 -0.687500
v -0.062500 0.062500 -0.562500
v -0.125000 0.125000 -0.750000
v -0.125000 0.125000 -0.500000
v 0.125000 0.125000 -0.500000
v 0.125000 0.125000 -0.750000
v -0.062500 0.125000 -0.687500
v -0.125000 0.125000 -0.750000
v -0.125000 0.125000 -0.500000
v -0.062500 0.125000 -0.562500
v 0.125000 0.125000 -0.500000
v 0.062500 0.125000 -0.562500
v 0.125000 0.125000 -0.750000
v 0.062500 0.125000 -0.687500
vn -0.0000 -1.0000 -0.0000
vn -0.0000 1.0000 -0.0000
vn -0.0000 -0.0000 1.0000
vn 1.0000 -0.0000 -0.0000
vn -1.0000 -0.0000 -0.0000
vn -0.0000 -0.0000 -1.0000
vt 0.801282 0.098684
vt 0.801282 0.125000
vt 0.826923 0.125000
vt 0.826923 0.098684
vt 0.000000 1.000000
vt 1.000000 1.000000
vt 0.525641 0.296053
vt 0.500000 0.296053
vt 0.500000 0.309211
vt 0.525641 0.309211
vt 0.474359 0.296053
vt 0.474359 0.309211
vt 0.519231 0.296053
vt 0.544872 0.296053
vt 0.544872 0.309211
vt 0.519231 0.309211
vt 0.525641 0.296053
vt 0.525641 0.309211
vt 0.000000 0.000000
vt 1.000000 0.000000
vt 0.808108 0.117995
vt 0.808108 0.105689
vt 0.782051 0.111842
vt 0.794872 0.111842
vt 0.794872 0.125000
vt 0.782051 0.125000
vt 0.820098 0.105689
vt 0.820098 0.117995
s 0
usemtl mFD_Dungeon
f 1/1/1 3/2/1 4/3/1 2/4/1
f 18/5/2 23/6/2 16/6/2 13/5/2
f 1/7/3 2/8/3 11/9/3 10/10/3
f 2/8/4 4/11/4 12/12/4 11/9/4
f 3/13/5 1/14/5 10/15/5 9/16/5
f 4/17/6 3/8/6 9/9/6 12/18/6
f 14/19/2 13/5/2 9/5/2 10/19/2
f 15/20/2 14/19/2 10/19/2 11/20/2
f 16/6/2 15/20/2 11/20/2 12/6/2
f 13/5/2 16/6/2 12/6/2 9/5/2
f 17/21/4 20/22/4 8/22/4 7/21/4
f 23/6/2 21/20/2 15/20/2 16/6/2
f 8/23/2 6/24/2 5/25/2 7/26/2
f 21/20/2 19/19/2 14/19/2 15/20/2
f 18/2/2 19/1/2 20/22/2 17/21/2
f 19/1/2 21/4/2 22/27/2 20/22/2
f 21/4/2 23/3/2 24/28/2 22/27/2
f 23/3/2 18/2/2 17/21/2 24/28/2
f 19/19/2 18/5/2 13/5/2 14/19/2
f 20/22/6 22/27/6 6/27/6 8/22/6
f 24/28/3 17/21/3 7/21/3 5/28/3
f 22/27/5 24/28/5 5/28/5 6/27/5
f 25/1/1 27/2/1 28/3/1 26/4/1
f 42/5/2 47/6/2 40/6/2 37/5/2
f 25/7/3 26/8/3 35/9/3 34/10/3
f 26/8/4 28/11/4 36/12/4 35/9/4
f 27/13/5 25/14/5 34/15/5 33/16/5
f 28/17/6 27/8/6 33/9/6 36/18/6
f 38/19/2 37/5/2 33/5/2 34/19/2
f 39/20/2 38/19/2 34/19/2 35/20/2
f 40/6/2 39/20/2 35/20/2 36/6/2
f 37/5/2 40/6/2 36/6/2 33/5/2
f 41/21/4 44/22/4 32/22/4 31/21/4
f 47/6/2 45/20/2 39/20/2 40/6/2
f 32/23/2 30/24/2 29/25/2 31/26/2
f 45/20/2 43/19/2 38/19/2 39/20/2
f 42/2/2 43/1/2 44/22/2 41/21/2
f 43/1/2 45/4/2 46/27/2 44/22/2
f 45/4/2 47/3/2 48/28/2 46/27/2
f 47/3/2 42/2/2 41/21/2 48/28/2
f 43/19/2 42/5/2 37/5/2 38/19/2
f 44/22/6 46/27/6 30/27/6 32/22/6
f 48/28/3 41/21/3 31/21/3 29/28/3
f 46/27/5 48/28/5 29/28/5 30/27/5
f 49/1/1 51/2/1 52/3/1 50/4/1
f 66/5/2 71/6/2 64/6/2 61/5/2
f 49/7/3 50/8/3 59/9/3 58/10/3
f 50/8/4 52/11/4 60/12/4 59/9/4
f 51/13/5 49/14/5 58/15/5 57/16/5
f 52/17/6 51/8/6 57/9/6 60/18/6
f 62/19/2 61/5/2 57/5/2 58/19/2
f 63/20/2 62/19/2 58/19/2 59/20/2
f 64/6/2 63/20/2 59/20/2 60/6/2
f 61/5/2 64/6/2 60/6/2 57/5/2
f 65/21/4 68/22/4 56/22/4 55/21/4
f 71/6/2 69/20/2 63/20/2 64/6/2
f 56/23/2 54/24/2 53/25/2 55/26/2
f 69/20/2 67/19/2 62/19/2 63/20/2
f 66/2/2 67/1/2 68/22/2 65/21/2
f 67/1/2 69/4/2 70/27/2 68/22/2
f 69/4/2 71/3/2 72/28/2 70/27/2
f 71/3/2 66/2/2 65/21/2 72/28/2
f 67/19/2 66/5/2 61/5/2 62/19/2
f 68/22/6 70/27/6 54/27/6 56/22/6
f 72/28/3 65/21/3 55/21/3 53/28/3
f 70/27/5 72/28/5 53/28/5 54/27/5
f 73/1/1 75/2/1 76/3/1 74/4/1
f 73/7/3 74/8/3 83/9/3 82/10/3
f 74/8/4 76/11/4 84/12/4 83/9/4
f 75/13/5 73/14/5 82/15/5 81/16/5
f 76/17/6 75/8/6 81/9/6 84/18/6
f 85/21/4 88/22/4 80/22/4 79/21/4
f 80/23/2 78/24/2 77/25/2 79/26/2
f 86/2/2 87/1/2 88/22/2 85/21/2
f 87/1/2 89/4/2 90/27/2 88/22/2
f 89/4/2 91/3/2 92/28/2 90/27/2
f 91/3/2 86/2/2 85/21/2 92/28/2
f 88/22/6 90/27/6 78/27/6 80/22/6
f 92/28/3 85/21/3 79/21/3 77/28/3
f 90/27/5 92/28/5 77/28/5 78/27/5
f 93/1/1 95/2/1 96/3/1 94/4/1
f 93/7/3 94/8/3 103/9/3 102/10/3
f 94/8/4 96/11/4 104/12/4 103/9/4
f 95/13/5 93/14/5 102/15/5 101/16/5
f 96/17/6 95/8/6 101/9/6 104/18/6
f 105/21/4 108/22/4 100/22/4 99/21/4
f 100/23/2 98/24/2 97/25/2 99/26/2
f 106/2/2 107/1/2 108/22/2 105/21/2
f 107/1/2 109/4/2 110/27/2 108/22/2
f 109/4/2 111/3/2 112/28/2 110/27/2
f 111/3/2 106/2/2 105/21/2 112/28/2
f 108/22/6 110/27/6 98/27/6 100/22/6
f 112/28/3 105/21/3 99/21/3 97/28/3
f 110/27/5 112/28/5 97/28/5 98/27/5
