# Blender 4.0.2
# www.blender.org
mtllib Trap_02_Spikes.mtl
o Trap_02_Spikes
v -0.062500 0.000000 0.062500
v 0.062500 0.000000 0.062500
v -0.062500 0.000000 -0.062500
v 0.062500 0.000000 -0.062500
v -0.062500 0.812500 -0.062500
v -0.062500 0.812500 0.062500
v 0.062500 0.812500 0.062500
v 0.000000 1.000000 0.000000
v 0.000000 1.000000 0.000000
v 0.000000 1.000000 0.000000
v 0.062500 0.812500 0.062500
v 0.062500 0.812500 -0.062500
v -0.062500 0.000000 -0.062500
v 0.062500 0.000000 -0.062500
v -0.062500 0.812500 -0.062500
v 0.062500 0.812500 -0.062500
v -0.062500 0.000000 -0.062500
v -0.062500 0.000000 0.062500
v -0.062500 0.812500 -0.062500
v -0.062500 0.812500 0.062500
v 0.062500 0.000000 -0.062500
v 0.062500 0.000000 0.062500
v 0.062500 0.812500 -0.062500
v 0.062500 0.812500 0.062500
v 0.000000 1.000000 0.000000
v -0.062500 0.812500 0.062500
v 0.062500 0.812500 0.062500
v 0.000000 1.000000 0.000000
v 0.000000 1.000000 0.000000
v 0.000000 1.000000 -0.000000
v 0.062500 0.812500 -0.062500
v -0.062500 0.812500 -0.062500
v -0.000000 1.000000 0.000000
v 0.187500 0.000000 0.375000
v 0.312500 0.000000 0.375000
v 0.187500 0.000000 0.250000
v 0.312500 0.000000 0.250000
v 0.187500 0.812500 0.250000
v 0.187500 0.812500 0.375000
v 0.312500 0.812500 0.375000
v 0.250000 1.000000 0.312500
v 0.250000 1.000000 0.312500
v 0.250000 1.000000 0.312500
v 0.312500 0.812500 0.375000
v 0.312500 0.812500 0.250000
v 0.187500 0.000000 0.250000
v 0.312500 0.000000 0.250000
v 0.187500 0.812500 0.250000
v 0.312500 0.812500 0.250000
v 0.187500 0.000000 0.250000
v 0.187500 0.000000 0.375000
v 0.187500 0.812500 0.250000
v 0.187500 0.812500 0.375000
v 0.312500 0.000000 0.250000
v 0.312500 0.000000 0.375000
v 0.312500 0.812500 0.250000
v 0.312500 0.812500 0.375000
v 0.250000 1.000000 0.312500
v 0.187500 0.812500 0.375000
v 0.312500 0.812500 0.375000
v 0.250000 1.000000 0.312500
v 0.250000 1.000000 0.312500
v 0.250000 1.000000 0.312500
v 0.312500 0.812500 0.250000
v 0.187500 0.812500 0.250000
v 0.250000 1.000000 0.312500
v 0.187500 0.000000 -0.250000
v 0.312500 0.000000 -0.250000
v 0.187500 0.000000 -0.375000
v 0.312500 0.000000 -0.375000
v 0.187500 0.812500 -0.375000
v 0.187500 0.812500 -0.250000
v 0.312500 0.812500 -0.250000
v 0.250000 1.000000 -0.312500
v 0.250000 1.000000 -0.312500
v 0.250000 1.000000 -0.312500
v 0.312500 0.812500 -0.250000
v 0.312500 0.812500 -0.375000
v 0.187500 0.000000 -0.375000
v 0.312500 0.000000 -0.375000
v 0.187500 0.812500 -0.375000
v 0.312500 0.812500 -0.375000
v 0.187500 0.000000 -0.375000
v 0.187500 0.000000 -0.250000
v 0.187500 0.812500 -0.375000
v 0.187500 0.812500 -0.250000
v 0.312500 0.000000 -0.375000
v 0.312500 0.000000 -0.250000
v 0.312500 0.812500 -0.375000
v 0.312500 0.812500 -0.250000
v 0.250000 1.000000 -0.312500
v 0.187500 0.812500 -0.250000
v 0.312500 0.812500 -0.250000
v 0.250000 1.000000 -0.312500
v 0.250000 1.000000 -0.312500
v 0.250000 1.000000 -0.312500
v 0.312500 0.812500 -0.375000
v 0.187500 0.812500 -0.375000
v 0.250000 1.000000 -0.312500
v -0.312500 0.000000 -0.250000
v -0.187500 0.000000 -0.250000
v -0.312500 0.000000 -0.375000
v -0.187500 0.000000 -0.375000
v -0.312500 0.812500 -0.375000
v -0.312500 0.812500 -0.250000
v -0.187500 0.812500 -0.250000
v -0.250000 1.000000 -0.312500
v -0.250000 1.000000 -0.312500
v -0.250000 1.000000 -0.312500
v -0.187500 0.812500 -0.250000
v -0.187500 0.812500 -0.375000
v -0.312500 0.000000 -0.375000
v -0.187500 0.000000 -0.375000
v -0.312500 0.812500 -0.375000
v -0.187500 0.812500 -0.375000
v -0.312500 0.000000 -0.375000
v -0.312500 0.000000 -0.250000
v -0.312500 0.812500 -0.375000
v -0.312500 0.812500 -0.250000
v -0.187500 0.000000 -0.375000
v -0.187500 0.000000 -0.250000
v -0.187500 0.812500 -0.375000
v -0.187500 0.812500 -0.250000
v -0.250000 1.000000 -0.312500
v -0.312500 0.812500 -0.250000
v -0.187500 0.812500 -0.250000
v -0.250000 1.000000 -0.312500
v -0.250000 1.000000 -0.312500
v -0.250000 1.000000 -0.312500
v -0.187500 0.812500 -0.375000
v -0.312500 0.812500 -0.375000
v -0.250000 1.000000 -0.312500
v -0.312500 0.000000 0.375000
v -0.187500 0.000000 0.375000
v -0.312500 0.000000 0.250000
v -0.187500 0.000000 0.250000
v -0.312500 0.812500 0.250000
v -0.312500 0.812500 0.375000
v -0.187500 0.812500 0.375000
v -0.250000 1.000000 0.312500
v -0.250000 1.000000 0.312500
v -0.250000 1.000000 0.312500
v -0.187500 0.812500 0.375000
v -0.187500 0.812500 0.250000
v -0.312500 0.000000 0.250000
v -0.187500 0.000000 0.250000
v -0.312500 0.812500 0.250000
v -0.187500 0.812500 0.250000
v -0.312500 0.000000 0.250000
v -0.312500 0.000000 0.375000
v -0.312500 0.812500 0.250000
v -0.312500 0.812500 0.375000
v -0.187500 0.000000 0.250000
v -0.187500 0.000000 0.375000
v -0.187500 0.812500 0.250000
v -0.187500 0.812500 0.375000
v -0.250000 1.000000 0.312500
v -0.312500 0.812500 0.375000
v -0.187500 0.812500 0.375000
v -0.250000 1.000000 0.312500
v -0.250000 1.000000 0.312500
v -0.250000 1.000000 0.312500
v -0.187500 0.812500 0.250000
v -0.312500 0.812500 0.250000
v -0.250000 1.000000 0.312500
vn -0.0000 -1.0000 -0.0000
vn -1.0000 -0.0000 -0.0000
vn 1.0000 -0.0000 -0.0000
vn -0.0000 -0.0000 -1.0000
vn -0.0000 -0.0000 1.0000
vn 0.9487 0.3162 -0.0000
vn -0.0000 0.3162 0.9487
vn -0.0000 0.3162 -0.9487
vn -0.9487 0.3162 -0.0000
vt 0.865385 0.098684
vt 0.865385 0.111842
vt 0.878205 0.111842
vt 0.878205 0.098684
vt 0.871795 0.098684
vt 0.858974 0.098684
vt 0.858974 0.184211
vt 0.871795 0.184211
vt 0.871795 0.118421
vt 0.865385 0.118421
s 0
usemtl mFD_Dungeon
f 1/1/1 3/2/1 4/3/1 2/4/1
f 17/5/2 18/6/2 20/7/2 19/8/2
f 21/5/3 23/8/3 24/7/3 22/6/3
f 13/5/4 15/8/4 16/7/4 14/6/4
f 1/5/5 2/6/5 7/7/5 6/8/5
f 12/9/6 8/10/6 25/1/6 11/5/6
f 26/9/7 27/5/7 30/1/7 29/10/7
f 32/9/8 28/10/8 33/1/8 31/5/8
f 5/9/9 6/5/9 10/1/9 9/10/9
f 34/1/1 36/2/1 37/3/1 35/4/1
f 50/5/2 51/6/2 53/7/2 52/8/2
f 54/5/3 56/8/3 57/7/3 55/6/3
f 46/5/4 48/8/4 49/7/4 47/6/4
f 34/5/5 35/6/5 40/7/5 39/8/5
f 45/9/6 41/10/6 58/1/6 44/5/6
f 59/9/7 60/5/7 63/1/7 62/10/7
f 65/9/8 61/10/8 66/1/8 64/5/8
f 38/9/9 39/5/9 43/1/9 42/10/9
f 67/1/1 69/2/1 70/3/1 68/4/1
f 83/5/2 84/6/2 86/7/2 85/8/2
f 87/5/3 89/8/3 90/7/3 88/6/3
f 79/5/4 81/8/4 82/7/4 80/6/4
f 67/5/5 68/6/5 73/7/5 72/8/5
f 78/9/6 74/10/6 91/1/6 77/5/6
f 92/9/7 93/5/7 96/1/7 95/10/7
f 98/9/8 94/10/8 99/1/8 97/5/8
f 71/9/9 72/5/9 76/1/9 75/10/9
f 100/1/1 102/2/1 103/3/1 101/4/1
f 116/5/2 117/6/2 119/7/2 118/8/2
f 120/5/3 122/8/3 123/7/3 121/6/3
f 112/5/4 114/8/4 115/7/4 113/6/4
f 100/5/5 101/6/5 106/7/5 105/8/5
f 111/9/6 107/10/6 124/1/6 110/5/6
f 125/9/7 126/5/7 129/1/7 128/10/7
f 131/9/8 127/10/8 132/1/8 130/5/8
f 104/9/9 105/5/9 109/1/9 108/10/9
f 133/1/1 135/2/1 136/3/1 134/4/1
f 149/5/2 150/6/2 152/7/2 151/8/2
f 153/5/3 155/8/3 156/7/3 154/6/3
f 145/5/4 147/8/4 148/7/4 146/6/4
f 133/5/5 134/6/5 139/7/5 138/8/5
f 144/9/6 140/10/6 157/1/6 143/5/6
f 158/9/7 159/5/7 162/1/7 161/10/7
f 164/9/8 160/10/8 165/1/8 163/5/8
f 137/9/9 138/5/9 142/1/9 141/10/9
