# Blender 4.0.2
# www.blender.org
mtllib Wall_2_Connector_01.mtl
o Wall_2_Connector_01
v -0.500000 0.000000 0.500000
v 0.500000 0.000000 0.500000
v -0.500000 0.000000 -0.500000
v 0.500000 0.000000 -0.500000
v -0.500000 0.000000 0.500000
v 0.500000 0.000000 0.500000
v -0.500000 0.250000 0.500000
v 0.500000 0.250000 0.500000
v -0.500000 0.250000 0.250000
v 0.500000 0.250000 0.250000
v -0.500000 0.250000 0.500000
v 0.500000 0.250000 0.500000
v 0.250000 2.000000 -0.250000
v 0.250000 2.000000 0.250000
v 0.250000 0.000000 -0.250000
v 0.250000 0.000000 0.250000
v 0.500000 2.000000 0.000000
v 0.500000 2.000000 -0.250000
v 0.500000 2.000000 -0.500000
v -0.500000 2.000000 -0.500000
v 0.500000 2.000000 0.500000
v -0.500000 2.000000 0.500000
v -0.500000 1.750000 0.500000
v 0.500000 1.750000 0.500000
v -0.500000 2.000000 0.500000
v 0.500000 2.000000 0.500000
v -0.500000 1.750000 0.250000
v 0.500000 1.750000 0.250000
v -0.500000 1.750000 0.500000
v 0.500000 1.750000 0.500000
v -0.500000 2.000000 -0.500000
v -0.250000 2.000000 -0.500000
v -0.500000 1.750000 -0.500000
v -0.250000 1.750000 -0.500000
v 0.500000 1.750000 -0.250000
v -0.500000 1.750000 -0.250000
v 0.500000 1.750000 -0.500000
v -0.500000 1.750000 -0.500000
v 0.250000 0.000000 -0.250000
v 0.250000 0.000000 -0.500000
v 0.250000 2.000000 -0.250000
v 0.250000 2.000000 -0.500000
v -0.250000 0.000000 -0.250000
v -0.250000 0.000000 -0.500000
v -0.250000 2.000000 -0.250000
v -0.250000 2.000000 -0.500000
v 0.250000 0.250000 0.250000
v 0.500000 0.250000 0.250000
v 0.250000 0.250000 -0.500000
v 0.500000 0.250000 -0.500000
v -0.500000 0.250000 -0.250000
v -0.250000 0.250000 -0.250000
v -0.500000 0.250000 -0.500000
v -0.250000 0.250000 -0.500000
v -0.500000 0.000000 -0.250000
v -0.500000 0.000000 -0.500000
v -0.500000 0.250000 -0.250000
v -0.500000 0.250000 -0.500000
v -0.500000 0.000000 0.500000
v -0.500000 0.000000 0.250000
v -0.500000 0.250000 0.500000
v -0.500000 0.250000 0.250000
v 0.500000 0.000000 0.500000
v 0.500000 0.000000 -0.500000
v 0.500000 0.250000 0.500000
v 0.500000 0.250000 -0.500000
v 0.500000 2.000000 -0.500000
v 0.500000 2.000000 0.500000
v 0.500000 1.750000 -0.500000
v 0.500000 1.750000 0.500000
v -0.250000 0.000000 -0.500000
v -0.500000 0.000000 -0.500000
v -0.250000 0.250000 -0.500000
v -0.500000 0.250000 -0.500000
v 0.500000 0.000000 -0.500000
v 0.250000 0.000000 -0.500000
v 0.500000 0.250000 -0.500000
v 0.250000 0.250000 -0.500000
v -0.500000 2.000000 -0.250000
v -0.500000 0.000000 -0.250000
v 0.250000 2.000000 -0.250000
v 0.250000 0.000000 -0.250000
v -0.500000 0.000000 0.250000
v -0.500000 0.000000 -0.250000
v -0.500000 2.000000 0.250000
v -0.500000 2.000000 -0.250000
v -0.500000 1.750000 -0.250000
v -0.500000 1.750000 -0.500000
v -0.500000 2.000000 -0.250000
v -0.500000 2.000000 -0.500000
v -0.500000 1.750000 0.500000
v -0.500000 1.750000 0.250000
v -0.500000 2.000000 0.500000
v -0.500000 2.000000 0.250000
v 0.250000 0.000000 -0.500000
v -0.250000 0.000000 -0.500000
v 0.250000 2.000000 -0.500000
v -0.250000 2.000000 -0.500000
v 0.500000 1.750000 -0.500000
v 0.250000 1.750000 -0.500000
v 0.500000 2.000000 -0.500000
v 0.250000 2.000000 -0.500000
v -0.500000 0.000000 0.250000
v -0.500000 2.000000 0.250000
v 0.250000 0.000000 0.250000
v 0.250000 2.000000 0.250000
v 0.500000 2.000000 0.250000
v -0.500000 2.000000 0.250000
v -0.500000 2.000000 0.000000
v -0.500000 2.000000 -0.250000
v -0.250000 2.000000 -0.500000
v 0.000000 2.000000 -0.500000
v 0.250000 2.000000 -0.500000
v 0.250000 2.000000 0.500000
v 0.000000 2.000000 0.500000
v -0.250000 2.000000 0.500000
v 0.250000 2.000000 0.250000
v 0.000000 2.000000 0.250000
v -0.250000 2.000000 0.250000
v 0.250000 2.000000 0.000000
v 0.000000 2.000000 0.000000
v -0.250000 2.000000 0.000000
v 0.250000 2.000000 -0.250000
v 0.000000 2.000000 -0.250000
v -0.250000 2.000000 -0.250000
v 0.250000 1.750000 0.250000
v 0.250000 1.750000 -0.250000
v 0.500000 1.750000 0.250000
v 0.500000 1.750000 -0.250000
vn -0.0000 -1.0000 -0.0000
vn -0.0000 -0.0000 1.0000
vn -0.0000 1.0000 -0.0000
vn 1.0000 -0.0000 -0.0000
vn -0.0000 -0.0000 -1.0000
vn -1.0000 -0.0000 -0.0000
vt 0.858974 0.348684
vt 0.858974 0.453947
vt 0.961538 0.453947
vt 0.961538 0.348684
vt 0.006410 0.427632
vt 0.108974 0.427632
vt 0.108974 0.453947
vt 0.006410 0.453947
vt 0.108974 0.486842
vt 0.108974 0.460526
vt 0.006410 0.460526
vt 0.006410 0.486842
vt 0.032051 0.493421
vt 0.083333 0.493421
vt 0.083333 0.703947
vt 0.032051 0.703947
vt 0.826923 0.348684
vt 0.852564 0.348684
vt 0.852564 0.375000
vt 0.826923 0.375000
vt 0.288403 0.915156
vt 0.288403 0.888840
vt 0.314044 0.888840
vt 0.314044 0.915156
vt 0.006410 0.835526
vt 0.108974 0.835526
vt 0.108974 0.861842
vt 0.006410 0.861842
vt 0.108974 0.861842
vt 0.006410 0.861842
vt 0.006410 0.835526
vt 0.108974 0.835526
vt 0.224359 0.427632
vt 0.250000 0.427632
vt 0.250000 0.453947
vt 0.224359 0.453947
vt 0.057692 0.493421
vt 0.057692 0.703947
vt 0.025641 0.493421
vt 0.025641 0.703947
vt 0.051282 0.703947
vt 0.051282 0.493421
vt 0.006410 0.486842
vt 0.006410 0.460526
vt 0.083333 0.460526
vt 0.083333 0.486842
vt 0.224359 0.394737
vt 0.250000 0.394737
vt 0.250000 0.421053
vt 0.224359 0.421053
vt 0.108974 0.493421
vt 0.032051 0.493421
vt 0.108974 0.703947
vt 0.006410 0.493421
vt 0.006410 0.703947
vt 0.852564 0.401316
vt 0.826923 0.401316
vt 0.852564 0.427632
vt 0.826923 0.427632
vt 0.006410 0.934211
vt 0.032051 0.934211
vt 0.032051 0.960526
vt 0.006410 0.960526
vt 0.057692 0.934211
vt 0.057692 0.960526
vt 0.083333 0.934211
vt 0.083333 0.960526
vt 0.006410 0.907895
vt 0.032051 0.907895
vt 0.057692 0.907895
vt 0.083333 0.907895
vt 0.032051 0.986842
vt 0.006410 0.986842
vt 0.057692 0.986842
vt 0.083333 0.986842
vt 0.006410 0.888158
vt 0.032051 0.888158
vt 0.032051 0.914474
vt 0.006410 0.914474
vt 0.775641 0.348684
vt 0.801282 0.348684
vt 0.801282 0.375000
vt 0.775641 0.375000
vt 0.083333 0.861842
vt 0.032051 0.861842
vt 0.032051 0.835526
vt 0.083333 0.835526
s 0
usemtl mFD_Dungeon
f 1/1/1 3/2/1 4/3/1 2/4/1
f 5/5/2 6/6/2 8/7/2 7/8/2
f 9/9/3 11/10/3 12/11/3 10/12/3
f 16/13/4 15/14/4 13/15/4 14/16/4
f 114/17/3 21/18/3 107/19/3 117/20/3
f 123/21/3 18/22/3 19/23/3 113/24/3
f 23/25/2 24/26/2 26/27/2 25/28/2
f 27/29/1 28/30/1 30/31/1 29/32/1
f 34/33/5 33/34/5 31/35/5 32/36/5
f 35/29/1 36/30/1 38/31/1 37/32/1
f 39/13/4 40/37/4 42/38/4 41/16/4
f 43/39/6 45/40/6 46/41/6 44/42/6
f 47/43/3 48/44/3 50/45/3 49/46/3
f 51/47/3 52/48/3 54/49/3 53/50/3
f 55/33/6 57/36/6 58/35/6 56/34/6
f 59/33/6 61/36/6 62/35/6 60/34/6
f 63/25/4 64/26/4 66/27/4 65/28/4
f 70/25/4 69/26/4 67/27/4 68/28/4
f 71/33/5 72/34/5 74/35/5 73/36/5
f 75/33/5 76/34/5 78/35/5 77/36/5
f 82/51/5 80/52/5 79/16/5 81/53/5
f 83/54/6 85/55/6 86/38/6 84/37/6
f 87/33/6 89/36/6 90/35/6 88/34/6
f 91/33/6 93/36/6 94/35/6 92/34/6
f 95/54/5 96/37/5 98/38/5 97/55/5
f 99/33/5 100/34/5 102/35/5 101/36/5
f 103/51/2 105/52/2 106/16/2 104/53/2
f 117/20/3 107/19/3 17/56/3 120/57/3
f 120/57/3 17/56/3 18/58/3 123/59/3
f 109/60/3 122/61/3 125/62/3 110/63/3
f 122/61/3 121/64/3 124/65/3 125/62/3
f 121/64/3 120/66/3 123/67/3 124/65/3
f 108/68/3 119/69/3 122/61/3 109/60/3
f 119/69/3 118/70/3 121/64/3 122/61/3
f 118/70/3 117/71/3 120/66/3 121/64/3
f 110/63/3 125/62/3 111/72/3 20/73/3
f 125/62/3 124/65/3 112/74/3 111/72/3
f 124/65/3 123/67/3 113/75/3 112/74/3
f 22/76/3 116/77/3 119/78/3 108/79/3
f 116/80/3 115/81/3 118/82/3 119/83/3
f 115/81/3 114/17/3 117/20/3 118/82/3
f 126/84/1 127/85/1 129/86/1 128/87/1
