# Blender 4.0.2
# www.blender.org
mtllib Wall_Door_03.mtl
o Wall_Door_03
v -1.500000 0.000000 0.250000
v -0.625000 0.000000 0.250000
v -1.500000 0.250000 0.500000
v -0.625000 0.250000 0.500000
v -1.500000 0.250000 0.250000
v -0.625000 0.250000 0.250000
v -1.500000 0.000000 0.500000
v -0.625000 0.000000 0.500000
v -1.500000 0.250000 0.500000
v -0.625000 0.250000 0.500000
v -1.500000 2.000000 0.500000
v 1.500000 2.000000 0.500000
v -1.500000 2.000000 -0.500000
v 1.500000 2.000000 -0.500000
v -1.500000 1.750000 0.500000
v 1.500000 1.750000 0.500000
v -1.500000 2.000000 0.500000
v 1.500000 2.000000 0.500000
v -1.500000 1.750000 0.500000
v 1.500000 1.750000 0.500000
v -1.500000 1.750000 0.250000
v 1.500000 1.750000 0.250000
v 0.625000 0.250000 -0.500000
v 1.500000 0.250000 -0.500000
v 0.625000 0.000000 -0.500000
v 1.500000 0.000000 -0.500000
v 0.625000 0.250000 -0.250000
v 1.500000 0.250000 -0.250000
v 0.625000 0.250000 -0.500000
v 1.500000 0.250000 -0.500000
v -0.625000 0.000000 -0.250000
v -0.625000 0.000000 0.250000
v 1.500000 1.750000 -0.500000
v -1.500000 1.750000 -0.500000
v 1.500000 2.000000 -0.500000
v -1.500000 2.000000 -0.500000
v 1.500000 1.750000 -0.500000
v -1.500000 1.750000 -0.500000
v 1.500000 1.750000 -0.250000
v -1.500000 1.750000 -0.250000
v 1.500000 0.000000 0.250000
v 1.500000 0.000000 -0.250000
v -1.500000 0.000000 0.250000
v -1.500000 0.000000 -0.250000
v 1.500000 0.000000 -0.250000
v 1.500000 0.000000 -0.500000
v 1.500000 0.250000 -0.250000
v 1.500000 0.250000 -0.500000
v 1.500000 0.000000 0.500000
v 1.500000 0.000000 0.250000
v 1.500000 0.250000 0.500000
v 1.500000 0.250000 0.250000
v -1.500000 0.000000 0.500000
v -1.500000 0.000000 0.250000
v -1.500000 0.250000 0.500000
v -1.500000 0.250000 0.250000
v -1.500000 0.000000 -0.250000
v -1.500000 0.000000 -0.500000
v -1.500000 0.250000 -0.250000
v -1.500000 0.250000 -0.500000
v -1.500000 1.750000 0.500000
v -1.500000 1.750000 0.250000
v -1.500000 2.000000 0.500000
v -1.500000 2.000000 0.250000
v -1.500000 1.750000 -0.250000
v -1.500000 1.750000 -0.500000
v -1.500000 2.000000 -0.250000
v -1.500000 2.000000 -0.500000
v 1.500000 1.750000 0.500000
v 1.500000 1.750000 0.250000
v 1.500000 2.000000 0.500000
v 1.500000 2.000000 0.250000
v 1.500000 1.750000 -0.250000
v 1.500000 1.750000 -0.500000
v 1.500000 2.000000 -0.250000
v 1.500000 2.000000 -0.500000
v -1.500000 2.000000 0.250000
v -0.625000 2.000000 0.250000
v 1.500000 2.000000 0.250000
v 1.500000 2.000000 -0.250000
v -1.500000 2.000000 0.250000
v -1.500000 2.000000 -0.250000
v 0.250000 2.000000 -0.250000
v 0.250000 2.000000 0.250000
v 0.625000 0.000000 -0.250000
v 1.500000 0.000000 -0.250000
v 0.625000 0.000000 0.250000
v 0.625000 0.000000 0.000000
v 1.500000 0.000000 0.250000
v 1.500000 0.000000 0.000000
v 1.500000 0.000000 -0.250000
v 1.500000 0.000000 0.000000
v 0.625000 0.000000 -0.250000
v 0.625000 0.000000 0.000000
v -1.500000 0.000000 0.000000
v -1.500000 0.000000 -0.250000
v -0.625000 0.000000 0.000000
v -0.625000 0.000000 -0.250000
v -0.625000 0.000000 0.000000
v -0.625000 0.000000 0.250000
v -1.500000 0.000000 0.000000
v -1.500000 0.000000 0.250000
v -1.500000 1.750000 -0.250000
v 1.500000 1.750000 -0.250000
v 0.625000 0.000000 0.250000
v 1.500000 0.000000 0.250000
v 0.625000 2.000000 0.250000
v 1.500000 2.000000 0.250000
v 0.625000 0.250000 0.500000
v 1.500000 0.250000 0.500000
v 0.625000 0.250000 0.250000
v 1.500000 0.250000 0.250000
v 0.625000 0.000000 0.500000
v 1.500000 0.000000 0.500000
v 0.625000 0.250000 0.500000
v 1.500000 0.250000 0.500000
v 0.625000 0.000000 -0.250000
v 1.500000 0.000000 0.250000
v 1.500000 0.000000 0.500000
v 0.625000 0.000000 0.250000
v 0.625000 0.000000 0.250000
v 0.625000 0.000000 0.500000
v -1.500000 0.000000 0.500000
v -1.500000 0.000000 0.250000
v -0.625000 0.000000 0.500000
v -0.625000 0.000000 0.250000
v 1.500000 2.000000 -0.250000
v 0.625000 2.000000 -0.250000
v 1.500000 1.750000 0.250000
v -1.500000 1.750000 0.250000
v -0.250000 2.000000 -0.250000
v -0.250000 2.000000 0.250000
v 0.625000 0.000000 -0.250000
v 0.625000 0.000000 -0.500000
v 0.625000 0.250000 -0.250000
v 0.625000 0.250000 -0.500000
v 0.625000 0.000000 0.500000
v 0.625000 0.000000 0.250000
v 0.625000 0.250000 0.500000
v 0.625000 0.250000 0.250000
v -0.625000 0.250000 0.250000
v -0.625000 0.250000 0.500000
v -0.625000 0.000000 0.250000
v -0.625000 0.000000 0.500000
v -0.625000 0.250000 -0.500000
v -0.625000 0.250000 -0.250000
v -0.625000 0.000000 -0.500000
v -0.625000 0.000000 -0.250000
v -1.500000 1.750000 0.000000
v 1.500000 1.750000 0.000000
v 1.500000 1.750000 0.000000
v -1.500000 1.750000 0.000000
v -0.625000 0.000000 -0.250000
v -1.500000 0.000000 -0.250000
v -0.625000 2.000000 -0.250000
v -1.500000 2.000000 -0.250000
v -0.625000 0.250000 -0.500000
v -1.500000 0.250000 -0.500000
v -0.625000 0.250000 -0.250000
v -1.500000 0.250000 -0.250000
v -0.625000 0.000000 -0.500000
v -1.500000 0.000000 -0.500000
v -0.625000 0.250000 -0.500000
v -1.500000 0.250000 -0.500000
v -1.500000 0.000000 -0.250000
v -1.500000 0.000000 -0.500000
v -0.625000 0.000000 -0.250000
v -0.625000 0.000000 -0.500000
v 1.500000 0.000000 -0.500000
v 1.500000 0.000000 -0.250000
v 0.625000 0.000000 -0.500000
v 0.625000 0.000000 -0.250000
v -0.625000 1.500000 -0.250000
v -0.625000 1.000000 -0.250000
v -0.625000 0.500000 -0.250000
v -0.625000 0.500000 0.250000
v -0.625000 1.000000 0.250000
v -0.625000 1.500000 0.250000
v -0.625000 2.000000 0.250000
v -0.625000 1.500000 0.250000
v -0.250000 2.000000 -0.250000
v -0.625000 1.500000 -0.250000
v -0.625000 2.000000 -0.250000
v -0.625000 1.500000 -0.250000
v 0.625000 1.500000 0.250000
v 0.625000 1.000000 0.250000
v 0.625000 0.500000 0.250000
v 0.625000 0.500000 -0.250000
v 0.625000 1.000000 -0.250000
v 0.625000 1.500000 -0.250000
v 0.625000 2.000000 -0.250000
v 0.625000 1.500000 -0.250000
v 0.250000 2.000000 0.250000
v 0.625000 1.500000 0.250000
v 0.625000 2.000000 0.250000
v 0.625000 1.500000 0.250000
vn -0.0000 1.0000 -0.0000
vn -0.0000 -0.0000 1.0000
vn -0.0000 -1.0000 -0.0000
vn -0.0000 -0.0000 -1.0000
vn 0.8000 -0.6000 -0.0000
vn 1.0000 -0.0000 -0.0000
vn -1.0000 -0.0000 -0.0000
vn -0.8000 -0.6000 -0.0000
vt 0.006410 0.460526
vt 0.096154 0.460526
vt 0.096154 0.486842
vt 0.006410 0.486842
vt 0.006410 0.427632
vt 0.096154 0.427632
vt 0.096154 0.453947
vt 0.006410 0.453947
vt 0.006410 0.888158
vt 0.314103 0.888158
vt 0.314103 0.993421
vt 0.006410 0.993421
vt 0.006410 0.835526
vt 0.314103 0.835526
vt 0.314103 0.861842
vt 0.006410 0.861842
vt 0.006410 0.651316
vt 0.057692 0.651316
vt 0.057692 0.703947
vt 0.006410 0.703947
vt 0.275641 0.427632
vt 0.301282 0.427632
vt 0.301282 0.453947
vt 0.275641 0.453947
vt 0.006410 0.493421
vt 0.057692 0.493421
vt 0.096154 0.493421
vt 0.096154 0.703947
vt 0.006410 0.703947
vt 0.006410 0.809211
vt 0.096154 0.809211
vt 0.096154 0.782895
vt 0.006410 0.782895
vt 0.224359 0.493421
vt 0.314103 0.493421
vt 0.314103 0.703947
vt 0.224359 0.703947
vt 0.224359 0.460526
vt 0.314103 0.460526
vt 0.314103 0.486842
vt 0.224359 0.486842
vt 0.224359 0.427632
vt 0.314103 0.427632
vt 0.314103 0.453947
vt 0.224359 0.453947
vt 0.057692 0.546053
vt 0.006410 0.546053
vt 0.057692 0.598684
vt 0.006410 0.598684
vt 0.275641 0.651316
vt 0.275641 0.703947
s 0
usemtl mFD_Dungeon
f 3/1/1 4/2/1 6/3/1 5/4/1
f 7/5/2 8/6/2 10/7/2 9/8/2
f 11/9/1 12/10/1 14/11/1 13/12/1
f 15/13/2 16/14/2 18/15/2 17/16/2
f 19/13/3 21/16/3 22/15/3 20/14/3
f 26/5/4 25/6/4 23/7/4 24/8/4
f 178/17/5 173/18/5 131/19/5 132/20/5
f 33/13/4 34/14/4 36/15/4 35/16/4
f 37/13/3 39/16/3 40/15/3 38/14/3
f 30/1/1 29/2/1 27/3/1 28/4/1
f 45/21/6 46/22/6 48/23/6 47/24/6
f 49/21/6 50/22/6 52/23/6 51/24/6
f 53/21/7 55/24/7 56/23/7 54/22/7
f 57/21/7 59/24/7 60/23/7 58/22/7
f 61/21/7 63/24/7 64/23/7 62/22/7
f 65/21/7 67/24/7 68/23/7 66/22/7
f 69/21/6 70/22/6 72/23/6 71/24/6
f 73/21/6 74/22/6 76/23/6 75/24/6
f 41/25/6 42/26/6 80/19/6 79/20/6
f 43/25/7 81/20/7 82/19/7 44/26/7
f 1/25/2 2/27/2 78/28/2 77/29/2
f 89/30/3 87/31/3 88/32/3 90/33/3
f 92/30/3 94/31/3 93/32/3 91/33/3
f 97/30/3 95/31/3 96/32/3 98/33/3
f 100/30/3 102/31/3 101/32/3 99/33/3
f 105/34/2 106/35/2 108/36/2 107/37/2
f 109/38/1 110/39/1 112/40/1 111/41/1
f 113/42/2 114/43/2 116/44/2 115/45/2
f 190/17/8 185/18/8 84/19/8 83/20/8
f 125/30/3 123/31/3 124/32/3 126/33/3
f 119/30/3 122/31/3 121/32/3 118/33/3
f 86/25/4 85/27/4 128/28/4 127/29/4
f 130/13/3 152/16/3 151/15/3 129/14/3
f 133/21/7 135/24/7 136/23/7 134/22/7
f 137/21/7 139/24/7 140/23/7 138/22/7
f 144/21/6 143/22/6 141/23/6 142/24/6
f 148/21/6 147/22/6 145/23/6 146/24/6
f 149/13/3 103/16/3 104/15/3 150/14/3
f 153/34/4 154/35/4 156/36/4 155/37/4
f 157/38/1 158/39/1 160/40/1 159/41/1
f 161/42/4 162/43/4 164/44/4 163/45/4
f 171/30/3 169/31/3 170/32/3 172/33/3
f 166/30/3 168/31/3 167/32/3 165/33/3
f 32/25/6 31/26/6 175/46/6 176/47/6
f 176/47/6 175/46/6 174/48/6 177/49/6
f 177/49/6 174/48/6 173/18/6 178/17/6
f 178/50/2 132/36/2 179/51/2 180/50/2
f 182/50/4 184/50/4 183/51/4 181/36/4
f 117/25/7 120/26/7 187/46/7 188/47/7
f 188/47/7 187/46/7 186/48/7 189/49/7
f 189/49/7 186/48/7 185/18/7 190/17/7
f 190/50/4 83/36/4 191/51/4 192/50/4
f 194/50/2 196/50/2 195/51/2 193/36/2
