# Blender 4.0.2
# www.blender.org
mtllib Wall_Str_03.mtl
o Wall_Str_03
v -1.499999 0.250000 0.500002
v 1.500001 0.250000 0.499998
v -1.500000 0.250000 0.250002
v 1.500000 0.250000 0.249998
v -1.499999 0.000000 0.500002
v 1.500001 0.000000 0.499998
v -1.499999 0.250000 0.500002
v 1.500001 0.250000 0.499998
v -1.499999 2.000000 0.500002
v 1.500001 2.000000 0.499998
v -1.500001 2.000000 -0.499998
v 1.499999 2.000000 -0.500002
v -1.499999 1.750000 0.500002
v 1.500001 1.750000 0.499998
v -1.499999 2.000000 0.500002
v 1.500001 2.000000 0.499998
v -1.499999 1.750000 0.500002
v 1.500001 1.750000 0.499998
v -1.500000 1.750000 0.250002
v 1.500000 1.750000 0.249998
v 1.499999 0.250000 -0.500002
v -1.500001 0.250000 -0.499998
v 1.500000 0.250000 -0.250002
v -1.500000 0.250000 -0.249998
v 1.499999 0.000000 -0.500002
v -1.500001 0.000000 -0.499998
v 1.499999 0.250000 -0.500002
v -1.500001 0.250000 -0.499998
v 0.500000 2.000000 -0.250001
v 1.499999 1.750000 -0.500002
v -1.500001 1.750000 -0.499998
v 1.499999 2.000000 -0.500002
v -1.500001 2.000000 -0.499998
v 1.499999 1.750000 -0.500002
v -1.500001 1.750000 -0.499998
v 1.500000 1.750000 -0.250002
v -1.500000 1.750000 -0.249998
v 1.500000 0.000000 0.249998
v 1.500000 0.000000 -0.250002
v -1.500000 0.000000 0.250002
v -1.500000 0.000000 -0.249998
v 1.500000 0.000000 -0.250002
v 1.499999 0.000000 -0.500002
v 1.500000 0.250000 -0.250002
v 1.499999 0.250000 -0.500002
v 1.500001 0.000000 0.499998
v 1.500000 0.000000 0.249998
v 1.500001 0.250000 0.499998
v 1.500000 0.250000 0.249998
v -1.499999 0.000000 0.500002
v -1.500000 0.000000 0.250002
v -1.499999 0.250000 0.500002
v -1.500000 0.250000 0.250002
v -1.500000 0.000000 -0.249998
v -1.500001 0.000000 -0.499998
v -1.500000 0.250000 -0.249998
v -1.500001 0.250000 -0.499998
v -1.499999 1.750000 0.500002
v -1.500000 1.750000 0.250002
v -1.499999 2.000000 0.500002
v -1.500000 2.000000 0.250002
v -1.500000 1.750000 -0.249998
v -1.500001 1.750000 -0.499998
v -1.500000 2.000000 -0.249998
v -1.500001 2.000000 -0.499998
v 1.500001 1.750000 0.499998
v 1.500000 1.750000 0.249998
v 1.500001 2.000000 0.499998
v 1.500000 2.000000 0.249998
v 1.500000 1.750000 -0.250002
v 1.499999 1.750000 -0.500002
v 1.500000 2.000000 -0.250002
v 1.499999 2.000000 -0.500002
v 1.500000 2.000000 0.249998
v 1.500000 2.000000 -0.250002
v -1.500000 2.000000 0.250002
v -1.500000 2.000000 -0.249998
v 0.500000 0.000000 -0.250001
v -0.500000 0.000000 0.250001
v 0.500000 0.000000 0.249999
v 0.500000 2.000000 0.249999
v -0.500000 2.000000 0.250001
v -0.500000 0.000000 -0.249999
v 0.500000 0.000000 -0.250001
v -0.500000 2.000000 -0.249999
v 0.500000 2.000000 -0.250001
v -1.499999 0.000000 0.500002
v 1.500001 0.000000 0.499998
v -1.500001 0.000000 -0.499998
v 1.499999 0.000000 -0.500002
v -0.500000 0.000000 -0.249999
v -0.500000 2.000000 -0.249999
v -1.500000 0.000000 -0.249998
v -1.500000 2.000000 -0.249998
v 1.500000 0.000000 -0.250002
v 1.500000 2.000000 -0.250002
v -0.500000 0.000000 0.250001
v 0.500000 0.000000 0.249999
v -0.500000 2.000000 0.250001
v 0.500000 2.000000 0.249999
v -1.500000 0.000000 0.250002
v 1.500000 0.000000 0.249998
v 1.500000 2.000000 0.249998
v -1.500000 2.000000 0.250002
vn -0.0000 1.0000 -0.0000
vn -0.0000 -0.0000 1.0000
vn -0.0000 -1.0000 -0.0000
vn -0.0000 -0.0000 -1.0000
vn 1.0000 -0.0000 -0.0000
vn -1.0000 -0.0000 -0.0000
vt 0.006410 0.460526
vt 0.314103 0.460526
vt 0.314103 0.486842
vt 0.006410 0.486842
vt 0.006410 0.427632
vt 0.314103 0.427632
vt 0.314103 0.453947
vt 0.006410 0.453947
vt 0.006410 0.888158
vt 0.314103 0.888158
vt 0.314103 0.993421
vt 0.006410 0.993421
vt 0.006410 0.835526
vt 0.314103 0.835526
vt 0.314103 0.861842
vt 0.006410 0.861842
vt 0.006410 0.493421
vt 0.006410 0.703947
vt 0.108974 0.703947
vt 0.108974 0.493421
vt 0.275641 0.427632
vt 0.301282 0.427632
vt 0.301282 0.453947
vt 0.275641 0.453947
vt 0.057692 0.493421
vt 0.057692 0.703947
vt 0.006410 0.703947
vt 0.865385 0.565789
vt 0.967949 0.565789
vt 0.967949 0.776316
vt 0.865385 0.776316
vt 0.647436 0.565789
vt 0.750000 0.565789
vt 0.750000 0.776316
vt 0.647436 0.776316
vt 0.314103 0.809211
vt 0.314103 0.703947
vt 0.006410 0.809211
vt 0.211538 0.493421
vt 0.211538 0.703947
vt 0.314103 0.703947
vt 0.314103 0.493421
vt 0.211538 0.493421
vt 0.211538 0.703947
s 0
usemtl mFD_Dungeon
f 1/1/1 2/2/1 4/3/1 3/4/1
f 5/5/2 6/6/2 8/7/2 7/8/2
f 9/9/1 10/10/1 12/11/1 11/12/1
f 13/13/2 14/14/2 16/15/2 15/16/2
f 17/13/3 19/16/3 20/15/3 18/14/3
f 21/1/1 22/2/1 24/3/1 23/4/1
f 25/5/4 26/6/4 28/7/4 27/8/4
f 30/13/4 31/14/4 33/15/4 32/16/4
f 34/13/3 36/16/3 37/15/3 35/14/3
f 78/17/4 29/18/4 96/19/4 95/20/4
f 42/21/5 43/22/5 45/23/5 44/24/5
f 46/21/5 47/22/5 49/23/5 48/24/5
f 50/21/6 52/24/6 53/23/6 51/22/6
f 54/21/6 56/24/6 57/23/6 55/22/6
f 58/21/6 60/24/6 61/23/6 59/22/6
f 62/21/6 64/24/6 65/23/6 63/22/6
f 66/21/5 67/22/5 69/23/5 68/24/5
f 70/21/5 71/22/5 73/23/5 72/24/5
f 38/17/5 39/25/5 75/26/5 74/27/5
f 40/17/6 76/27/6 77/26/6 41/25/6
f 79/28/2 80/29/2 81/30/2 82/31/2
f 84/32/4 83/33/4 85/34/4 86/35/4
f 87/36/3 89/37/3 90/18/3 88/38/3
f 93/39/4 94/40/4 92/41/4 91/42/4
f 102/43/2 103/44/2 100/37/2 98/42/2
f 97/17/2 99/18/2 104/19/2 101/20/2
