# Blender 4.0.2
# www.blender.org
mtllib Wall_End_02.mtl
o Wall_End_02
v -1.000000 0.000000 0.250002
v 1.000000 0.000000 0.249998
v -0.999999 0.250000 0.500002
v 1.000001 0.250000 0.499998
v -1.000000 0.250000 0.250002
v 1.000000 0.250000 0.249998
v -0.999999 0.000000 0.500002
v 1.000001 0.000000 0.499998
v -0.999999 0.250000 0.500002
v 1.000001 0.250000 0.499998
v -0.999999 2.000000 0.500002
v 1.000001 2.000000 0.499998
v -1.000001 2.000000 -0.499998
v 0.999999 2.000000 -0.500002
v -0.999999 1.750000 0.500002
v 1.000001 1.750000 0.499998
v -0.999999 2.000000 0.500002
v 1.000001 2.000000 0.499998
v -0.999999 1.750000 0.500002
v 1.000001 1.750000 0.499998
v -1.000000 1.750000 0.250002
v 1.000000 1.750000 0.249998
v 0.999999 0.250000 -0.500002
v -1.000001 0.250000 -0.499998
v 1.000000 0.250000 -0.250002
v -1.000000 0.250000 -0.249998
v 0.999999 0.000000 -0.500002
v -1.000001 0.000000 -0.499998
v 0.999999 0.250000 -0.500002
v -1.000001 0.250000 -0.499998
v 1.000001 0.000000 -0.250002
v -0.999999 0.000000 -0.249998
v 0.999999 1.750000 -0.500002
v -1.000001 1.750000 -0.499998
v 0.999999 2.000000 -0.500002
v -1.000001 2.000000 -0.499998
v -1.000000 0.000000 0.250002
v -1.000000 0.000000 -0.249998
v -0.999999 0.000000 0.500002
v -1.000000 0.000000 0.250002
v -0.999999 0.250000 0.500002
v -1.000000 0.250000 0.250002
v -1.000000 0.000000 -0.249998
v -1.000001 0.000000 -0.499998
v -1.000000 0.250000 -0.249998
v -1.000001 0.250000 -0.499998
v -0.999999 1.750000 0.500002
v -1.000000 1.750000 0.250002
v -0.999999 2.000000 0.500002
v -1.000000 2.000000 0.250002
v -1.000000 1.750000 -0.249998
v -1.000001 1.750000 -0.499998
v -1.000000 2.000000 -0.249998
v -1.000001 2.000000 -0.499998
v -1.000000 2.000000 0.250002
v 1.000000 2.000000 0.249998
v -1.000000 2.000000 0.250002
v -1.000000 2.000000 -0.249998
v 1.000001 2.000000 -0.250002
v -0.999999 2.000000 -0.249998
v -0.999999 0.000000 0.500002
v 1.000001 0.000000 0.499998
v -1.000001 0.000000 -0.499998
v 0.999999 0.000000 -0.500002
v 0.000001 0.000000 0.499999
v 0.000001 0.000000 0.500001
v -0.000001 0.000000 -0.499999
v -0.000001 0.000000 -0.500001
v 0.000001 0.000000 0.499999
v 0.000001 0.000000 0.500001
v 0.000001 0.250000 0.500001
v 0.000001 0.250000 0.499999
v 0.000001 0.250000 0.500001
v 0.000001 0.250000 0.499999
v 0.000000 0.250000 0.249999
v 0.000000 0.250000 0.250001
v 0.000001 1.750000 0.499999
v 0.000001 1.750000 0.500001
v 0.000000 1.750000 0.250001
v 0.000000 1.750000 0.249999
v 0.000001 1.750000 0.499999
v 0.000001 1.750000 0.500001
v 0.000001 2.000000 0.500001
v 0.000001 2.000000 0.499999
v 0.000001 0.000000 -0.249999
v 0.000001 0.000000 -0.250001
v 0.000001 2.000000 -0.249999
v 0.000001 2.000000 -0.250001
v 0.000000 0.000000 0.250001
v 0.000000 0.000000 0.249999
v 0.000000 2.000000 0.249999
v 0.000000 2.000000 0.250001
v -0.000001 1.750000 -0.499999
v -0.000001 1.750000 -0.500001
v -0.000001 2.000000 -0.500001
v -0.000001 2.000000 -0.499999
v 0.000001 2.000000 0.500001
v 0.000001 2.000000 0.499999
v -0.000001 2.000000 -0.500001
v -0.000001 2.000000 -0.499999
v -0.000001 0.250000 -0.499999
v -0.000001 0.250000 -0.500001
v -0.000000 0.250000 -0.250001
v -0.000000 0.250000 -0.249999
v -0.000001 0.000000 -0.499999
v -0.000001 0.000000 -0.500001
v -0.000001 0.250000 -0.500001
v -0.000001 0.250000 -0.499999
v 0.000000 1.750000 -0.500005
v 0.000001 1.750000 -0.250005
v -1.000000 1.750000 -0.500003
v -0.999999 1.750000 -0.250003
v 0.000000 1.750000 -0.499999
v 0.000001 1.750000 -0.249999
v 1.000000 1.750000 -0.500001
v 1.000001 1.750000 -0.250001
v 1.000000 0.250000 0.250000
v 1.000000 0.250000 -0.250000
v 1.250000 2.000000 0.500000
v 1.250000 2.000000 -0.500000
v 1.000000 2.000000 0.500000
v 1.000000 2.000000 -0.500000
v 1.000000 0.250000 -0.500000
v 1.000000 0.250000 0.500000
v 1.250000 0.250000 -0.500000
v 1.250000 0.250000 0.500000
v 1.250000 0.250000 -0.500000
v 1.250000 0.250000 0.500000
v 1.250000 0.000000 -0.500000
v 1.250000 0.000000 0.500000
v 1.250000 1.750000 0.500000
v 1.250000 1.750000 -0.500000
v 1.250000 2.000000 0.500000
v 1.250000 2.000000 -0.500000
v 1.000000 1.750000 0.250000
v 1.000000 1.750000 -0.250000
v 1.250000 1.750000 0.500000
v 1.250000 1.750000 -0.500000
v 1.000000 1.750000 0.500000
v 1.000000 1.750000 -0.500000
v 1.000000 0.000000 -0.500000
v 1.000000 0.000000 0.500000
v 1.250000 0.000000 -0.500000
v 1.250000 0.000000 0.500000
v 1.250000 0.000000 0.500001
v 1.000000 0.000000 0.500001
v 1.250000 0.250000 0.500001
v 1.000000 0.250000 0.500001
v 1.250000 0.000000 -0.499999
v 1.000000 0.000000 -0.499999
v 1.250000 0.250000 -0.499999
v 1.000000 0.250000 -0.499999
v 1.250000 1.750000 0.500001
v 1.000000 1.750000 0.500001
v 1.250000 2.000000 0.500001
v 1.000000 2.000000 0.500001
v 1.250000 1.750000 -0.499999
v 1.000000 1.750000 -0.499999
v 1.250000 2.000000 -0.499999
v 1.000000 2.000000 -0.499999
vn -0.0000 1.0000 -0.0000
vn -0.0000 -0.0000 1.0000
vn -0.0000 -1.0000 -0.0000
vn -0.0000 -0.0000 -1.0000
vn -1.0000 -0.0000 -0.0000
vn 1.0000 -0.0000 -0.0000
vt 0.211538 0.460526
vt 0.314103 0.460526
vt 0.314103 0.486842
vt 0.211538 0.486842
vt 0.211538 0.427632
vt 0.314103 0.427632
vt 0.314103 0.453947
vt 0.211538 0.453947
vt 0.211538 0.888158
vt 0.314103 0.888158
vt 0.314103 0.993421
vt 0.211538 0.993421
vt 0.211538 0.835526
vt 0.314103 0.835526
vt 0.314103 0.861842
vt 0.211538 0.861842
vt 0.211538 0.460526
vt 0.211538 0.486842
vt 0.211538 0.493421
vt 0.314103 0.493421
vt 0.314103 0.703947
vt 0.211538 0.703947
vt 0.275641 0.427632
vt 0.275641 0.453947
vt 0.301282 0.453947
vt 0.301282 0.427632
vt 0.006410 0.493421
vt 0.006410 0.703947
vt 0.057692 0.703947
vt 0.057692 0.493421
vt 0.211538 0.493421
vt 0.314103 0.703947
vt 0.108974 0.809211
vt 0.108974 0.703947
vt 0.006410 0.703947
vt 0.006410 0.809211
vt 0.314103 0.809211
vt 0.211538 0.809211
vt 0.006410 0.427632
vt 0.108974 0.427632
vt 0.108974 0.453947
vt 0.006410 0.453947
vt 0.006410 0.460526
vt 0.108974 0.460526
vt 0.108974 0.486842
vt 0.006410 0.486842
vt 0.006410 0.835526
vt 0.006410 0.861842
vt 0.108974 0.861842
vt 0.108974 0.835526
vt 0.108974 0.493421
vt 0.108974 0.493421
vt 0.006410 0.703947
vt 0.006410 0.888158
vt 0.108974 0.888158
vt 0.108974 0.993421
vt 0.006410 0.993421
vt 0.108974 0.460526
vt 0.108974 0.486842
vt 0.211538 0.888158
vt 0.314103 0.914474
vt 0.211538 0.914474
vt 0.211538 0.427632
vt 0.211538 0.835526
vt 0.211538 0.861842
vt 0.006410 0.519737
vt 0.057692 0.519737
vt 0.057692 0.677632
vt 0.006410 0.677632
vt 0.275641 0.835526
vt 0.275641 0.861842
vt 0.301282 0.861842
vt 0.301282 0.835526
s 0
usemtl mFD_Dungeon
f 74/1/1 4/2/1 6/3/1 75/4/1
f 69/5/2 8/6/2 10/7/2 72/8/2
f 98/9/1 12/10/1 14/11/1 99/12/1
f 81/13/2 16/14/2 18/15/2 84/16/2
f 77/13/3 80/16/3 22/15/3 20/14/3
f 101/17/1 24/2/1 26/3/1 104/18/1
f 105/5/4 28/6/4 30/7/4 108/8/4
f 93/13/4 34/14/4 36/15/4 96/16/4
f 85/19/4 32/20/4 60/21/4 87/22/4
f 39/23/5 41/24/5 42/25/5 40/26/5
f 43/23/5 45/24/5 46/25/5 44/26/5
f 47/23/5 49/24/5 50/25/5 48/26/5
f 51/23/5 53/24/5 54/25/5 52/26/5
f 37/27/5 57/28/5 58/29/5 38/30/5
f 90/31/2 2/20/2 56/32/2 91/22/2
f 65/33/3 68/34/3 64/35/3 62/36/3
f 61/37/3 63/32/3 67/22/3 66/38/3
f 7/39/2 70/40/2 71/41/2 9/42/2
f 3/43/1 73/44/1 76/45/1 5/46/1
f 19/47/3 21/48/3 79/49/3 78/50/3
f 15/47/2 82/50/2 83/49/2 17/48/2
f 31/27/4 86/51/4 88/34/4 59/28/4
f 1/27/2 89/52/2 92/34/2 55/53/2
f 33/47/4 94/50/4 95/49/4 35/48/4
f 11/54/1 97/55/1 100/56/1 13/57/1
f 23/43/1 102/58/1 103/59/1 25/46/1
f 27/39/4 106/40/4 107/41/4 29/42/4
f 109/47/3 110/48/3 112/49/3 111/50/3
f 115/13/3 116/16/3 114/15/3 113/14/3
f 119/60/1 120/10/1 122/61/1 121/62/1
f 126/1/1 125/2/1 123/3/1 124/18/1
f 130/63/6 129/6/6 127/7/6 128/8/6
f 131/64/6 132/14/6 134/15/6 133/65/6
f 117/66/6 118/67/6 136/68/6 135/69/6
f 137/1/3 139/18/3 140/3/3 138/2/3
f 144/1/3 142/18/3 141/3/3 143/2/3
f 145/23/2 147/24/2 148/25/2 146/26/2
f 149/23/4 150/26/4 152/25/4 151/24/4
f 153/70/2 155/71/2 156/72/2 154/73/2
f 157/70/4 158/73/4 160/72/4 159/71/4
