# Blender 4.0.2
# www.blender.org
mtllib Wall_4_Connector_01.mtl
o Wall_4_Connector_01
v -0.500000 0.000000 0.500000
v 0.500000 0.000000 0.500000
v -0.500000 0.000000 -0.500000
v 0.500000 0.000000 -0.500000
v -0.250000 0.250000 0.250000
v -0.500000 0.250000 0.250000
v -0.250000 0.250000 0.500000
v -0.500000 0.250000 0.500000
v 0.500000 0.250000 0.250000
v 0.250000 0.250000 0.250000
v 0.500000 0.250000 0.500000
v 0.250000 0.250000 0.500000
v 0.250000 2.000000 0.250000
v 0.250000 2.000000 0.500000
v 0.250000 0.000000 0.250000
v 0.250000 0.000000 0.500000
v 0.500000 0.000000 -0.250000
v -0.500000 0.000000 -0.250000
v 0.500000 2.000000 -0.250000
v -0.500000 2.000000 -0.250000
v -0.500000 2.000000 0.500000
v 0.500000 2.000000 0.500000
v -0.500000 2.000000 -0.500000
v 0.500000 2.000000 -0.500000
v -0.500000 2.000000 0.000000
v 0.500000 2.000000 0.000000
v -0.250000 1.750000 0.500000
v -0.500000 1.750000 0.500000
v -0.250000 2.000000 0.500000
v -0.500000 2.000000 0.500000
v -0.500000 1.750000 0.250000
v 0.500000 1.750000 0.250000
v -0.500000 1.750000 0.500000
v 0.500000 1.750000 0.500000
v -0.500000 2.000000 -0.500000
v -0.250000 2.000000 -0.500000
v -0.500000 1.750000 -0.500000
v -0.250000 1.750000 -0.500000
v 0.500000 1.750000 -0.250000
v -0.500000 1.750000 -0.250000
v 0.500000 1.750000 -0.500000
v -0.500000 1.750000 -0.500000
v 0.250000 0.000000 -0.250000
v 0.250000 0.000000 -0.500000
v 0.250000 2.000000 -0.250000
v 0.250000 2.000000 -0.500000
v -0.250000 0.000000 -0.250000
v -0.250000 0.000000 -0.500000
v -0.250000 2.000000 -0.250000
v -0.250000 2.000000 -0.500000
v 0.250000 0.250000 -0.250000
v 0.500000 0.250000 -0.250000
v 0.250000 0.250000 -0.500000
v 0.500000 0.250000 -0.500000
v -0.500000 0.250000 -0.250000
v -0.250000 0.250000 -0.250000
v -0.500000 0.250000 -0.500000
v -0.250000 0.250000 -0.500000
v -0.500000 0.000000 -0.250000
v -0.500000 0.000000 -0.500000
v -0.500000 0.250000 -0.250000
v -0.500000 0.250000 -0.500000
v -0.500000 0.000000 0.500000
v -0.500000 0.000000 0.250000
v -0.500000 0.250000 0.500000
v -0.500000 0.250000 0.250000
v 0.500000 0.000000 0.500000
v 0.500000 0.000000 0.250000
v 0.500000 0.250000 0.500000
v 0.500000 0.250000 0.250000
v 0.500000 0.000000 -0.250000
v 0.500000 0.000000 -0.500000
v 0.500000 0.250000 -0.250000
v 0.500000 0.250000 -0.500000
v -0.250000 0.000000 -0.500000
v -0.500000 0.000000 -0.500000
v -0.250000 0.250000 -0.500000
v -0.500000 0.250000 -0.500000
v 0.500000 0.000000 -0.500000
v 0.250000 0.000000 -0.500000
v 0.500000 0.250000 -0.500000
v 0.250000 0.250000 -0.500000
v 0.500000 0.000000 0.250000
v 0.500000 0.000000 -0.250000
v 0.500000 2.000000 0.250000
v 0.500000 2.000000 -0.250000
v -0.500000 0.000000 0.250000
v -0.500000 0.000000 -0.250000
v -0.500000 2.000000 0.250000
v -0.500000 2.000000 -0.250000
v -0.500000 1.750000 -0.250000
v -0.500000 1.750000 -0.500000
v -0.500000 2.000000 -0.250000
v -0.500000 2.000000 -0.500000
v -0.500000 1.750000 0.500000
v -0.500000 1.750000 0.250000
v -0.500000 2.000000 0.500000
v -0.500000 2.000000 0.250000
v 0.500000 1.750000 0.500000
v 0.500000 1.750000 0.250000
v 0.500000 2.000000 0.500000
v 0.500000 2.000000 0.250000
v 0.500000 1.750000 -0.250000
v 0.500000 1.750000 -0.500000
v 0.500000 2.000000 -0.250000
v 0.500000 2.000000 -0.500000
v 0.250000 0.000000 -0.500000
v -0.250000 0.000000 -0.500000
v 0.250000 2.000000 -0.500000
v -0.250000 2.000000 -0.500000
v 0.500000 1.750000 -0.500000
v 0.250000 1.750000 -0.500000
v 0.500000 2.000000 -0.500000
v 0.250000 2.000000 -0.500000
v -0.250000 0.000000 0.500000
v -0.250000 0.000000 0.250000
v -0.250000 2.000000 0.500000
v -0.250000 2.000000 0.250000
v -0.250000 0.000000 0.500000
v -0.500000 0.000000 0.500000
v -0.250000 0.250000 0.500000
v -0.500000 0.250000 0.500000
v 0.500000 0.000000 0.500000
v 0.250000 0.000000 0.500000
v 0.500000 0.250000 0.500000
v 0.250000 0.250000 0.500000
v 0.500000 0.000000 0.250000
v -0.500000 0.000000 0.250000
v 0.500000 2.000000 0.250000
v -0.500000 2.000000 0.250000
v 0.250000 0.000000 0.500000
v -0.250000 0.000000 0.500000
v 0.250000 2.000000 0.500000
v -0.250000 2.000000 0.500000
v 0.500000 1.750000 0.500000
v 0.250000 1.750000 0.500000
v 0.500000 2.000000 0.500000
v 0.250000 2.000000 0.500000
vn -0.0000 -1.0000 -0.0000
vn -0.0000 1.0000 -0.0000
vn 1.0000 -0.0000 -0.0000
vn -0.0000 -0.0000 -1.0000
vn -0.0000 -0.0000 1.0000
vn -1.0000 -0.0000 -0.0000
vt 0.858974 0.348684
vt 0.858974 0.453947
vt 0.961538 0.453947
vt 0.961538 0.348684
vt 0.224359 0.394737
vt 0.250000 0.394737
vt 0.250000 0.421053
vt 0.224359 0.421053
vt 0.032051 0.493421
vt 0.057692 0.493421
vt 0.057692 0.703947
vt 0.032051 0.703947
vt 0.006410 0.493421
vt 0.108974 0.493421
vt 0.108974 0.703947
vt 0.006410 0.703947
vt 0.006410 0.934211
vt 0.108974 0.934211
vt 0.108974 0.986842
vt 0.006410 0.986842
vt 0.006410 0.894737
vt 0.108974 0.894737
vt 0.108974 0.947368
vt 0.006410 0.947368
vt 0.224359 0.427632
vt 0.224359 0.453947
vt 0.250000 0.453947
vt 0.250000 0.427632
vt 0.108974 0.861842
vt 0.006410 0.861842
vt 0.006410 0.835526
vt 0.108974 0.835526
vt 0.025641 0.493421
vt 0.025641 0.703947
vt 0.051282 0.703947
vt 0.051282 0.493421
s 0
usemtl mFD_Dungeon
f 1/1/1 3/2/1 4/3/1 2/4/1
f 8/5/2 7/6/2 5/7/2 6/8/2
f 12/5/2 11/6/2 9/7/2 10/8/2
f 16/9/3 15/10/3 13/11/3 14/12/3
f 17/13/4 18/14/4 20/15/4 19/16/4
f 25/17/2 26/18/2 24/19/2 23/20/2
f 21/21/2 22/22/2 26/23/2 25/24/2
f 27/25/5 29/26/5 30/27/5 28/28/5
f 31/29/1 32/30/1 34/31/1 33/32/1
f 38/25/4 37/28/4 35/27/4 36/26/4
f 39/29/1 40/30/1 42/31/1 41/32/1
f 43/9/3 44/10/3 46/11/3 45/12/3
f 47/33/6 49/34/6 50/35/6 48/36/6
f 51/5/2 52/6/2 54/7/2 53/8/2
f 55/5/2 56/6/2 58/7/2 57/8/2
f 59/25/6 61/26/6 62/27/6 60/28/6
f 63/25/6 65/26/6 66/27/6 64/28/6
f 67/25/3 68/28/3 70/27/3 69/26/3
f 71/25/3 72/28/3 74/27/3 73/26/3
f 75/25/4 76/28/4 78/27/4 77/26/4
f 79/25/4 80/28/4 82/27/4 81/26/4
f 83/13/3 84/10/3 86/11/3 85/16/3
f 87/13/6 89/16/6 90/11/6 88/10/6
f 91/25/6 93/26/6 94/27/6 92/28/6
f 95/25/6 97/26/6 98/27/6 96/28/6
f 99/25/3 100/28/3 102/27/3 101/26/3
f 103/25/3 104/28/3 106/27/3 105/26/3
f 107/13/4 108/10/4 110/11/4 109/16/4
f 111/25/4 112/28/4 114/27/4 113/26/4
f 115/33/6 117/34/6 118/35/6 116/36/6
f 119/25/5 121/26/5 122/27/5 120/28/5
f 123/25/5 125/26/5 126/27/5 124/28/5
f 127/13/5 129/16/5 130/15/5 128/14/5
f 131/13/5 133/16/5 134/11/5 132/10/5
f 135/25/5 137/26/5 138/27/5 136/28/5
