# Blender 4.0.2
# www.blender.org
mtllib Wall_Door_02.mtl
o Wall_Door_02
v -1.500000 0.000000 0.250000
v -0.625000 0.000000 0.250000
v -1.500000 0.250000 0.500000
v -1.000000 0.250000 0.500000
v -1.500000 0.250000 0.250000
v -1.000000 0.250000 0.250000
v -1.500000 0.000000 0.500000
v -1.000000 0.000000 0.500000
v -1.500000 0.250000 0.500000
v -1.000000 0.250000 0.500000
v -1.500000 2.000000 0.500000
v 1.500000 2.000000 0.500000
v -1.500000 2.000000 -0.500000
v 1.500000 2.000000 -0.500000
v -1.500000 1.750000 0.500000
v 1.500000 1.750000 0.500000
v -1.500000 2.000000 0.500000
v 1.500000 2.000000 0.500000
v -1.500000 1.750000 0.500000
v 1.500000 1.750000 0.500000
v -1.500000 1.750000 0.250000
v 1.500000 1.750000 0.250000
v 1.000000 0.250000 -0.500000
v 1.500000 0.250000 -0.500000
v 1.000000 0.000000 -0.500000
v 1.500000 0.000000 -0.500000
v 1.000000 0.250000 -0.250000
v 1.500000 0.250000 -0.250000
v 1.000000 0.250000 -0.500000
v 1.500000 0.250000 -0.500000
v -0.625000 0.000000 0.000000
v -0.625000 0.000000 -0.250000
v 1.500000 1.750000 -0.500000
v -1.500000 1.750000 -0.500000
v 1.500000 2.000000 -0.500000
v -1.500000 2.000000 -0.500000
v 1.500000 1.750000 -0.500000
v -1.500000 1.750000 -0.500000
v 1.500000 1.750000 -0.250000
v -1.500000 1.750000 -0.250000
v 1.500000 0.000000 0.250000
v 1.500000 0.000000 -0.250000
v -1.500000 0.000000 0.250000
v -1.500000 0.000000 -0.250000
v 1.500000 0.000000 -0.250000
v 1.500000 0.000000 -0.500000
v 1.500000 0.250000 -0.250000
v 1.500000 0.250000 -0.500000
v 1.500000 0.000000 0.500000
v 1.500000 0.000000 0.250000
v 1.500000 0.250000 0.500000
v 1.500000 0.250000 0.250000
v -1.500000 0.000000 0.500000
v -1.500000 0.000000 0.250000
v -1.500000 0.250000 0.500000
v -1.500000 0.250000 0.250000
v -1.500000 0.000000 -0.250000
v -1.500000 0.000000 -0.500000
v -1.500000 0.250000 -0.250000
v -1.500000 0.250000 -0.500000
v -1.500000 1.750000 0.500000
v -1.500000 1.750000 0.250000
v -1.500000 2.000000 0.500000
v -1.500000 2.000000 0.250000
v -1.500000 1.750000 -0.250000
v -1.500000 1.750000 -0.500000
v -1.500000 2.000000 -0.250000
v -1.500000 2.000000 -0.500000
v 1.500000 1.750000 0.500000
v 1.500000 1.750000 0.250000
v 1.500000 2.000000 0.500000
v 1.500000 2.000000 0.250000
v 1.500000 1.750000 -0.250000
v 1.500000 1.750000 -0.500000
v 1.500000 2.000000 -0.250000
v 1.500000 2.000000 -0.500000
v -1.500000 2.000000 0.250000
v -0.625000 2.000000 0.250000
v 1.500000 2.000000 0.250000
v 1.500000 2.000000 -0.250000
v -1.500000 2.000000 0.250000
v -1.500000 2.000000 -0.250000
v -0.625000 0.000000 0.000000
v -0.625000 0.000000 0.250000
v 0.625000 0.000000 -0.250000
v 1.500000 0.000000 -0.250000
v 0.625000 1.750000 -0.250000
v 0.625000 1.750000 -0.375000
v 0.625000 0.000000 -0.375000
v 0.625000 0.000000 -0.250000
v 0.625000 1.750000 0.250000
v 0.625000 1.750000 0.375000
v 0.625000 0.000000 0.375000
v 0.625000 0.000000 0.250000
v -0.625000 1.750000 -0.250000
v -0.625000 1.750000 -0.375000
v -0.625000 0.000000 -0.375000
v -0.625000 0.000000 -0.250000
v -0.625000 1.750000 0.250000
v -0.625000 1.750000 0.375000
v -0.625000 0.000000 0.375000
v -0.625000 0.000000 0.250000
v 0.625000 0.000000 0.500000
v 1.000000 0.000000 0.500000
v 0.625000 1.750000 0.500000
v 1.000000 1.750000 0.500000
v 0.625000 0.000000 0.500000
v 0.625000 2.000000 -0.250000
v 0.625000 1.750000 0.500000
v 0.625000 2.000000 0.250000
v 1.000000 0.000000 0.500000
v 1.000000 0.000000 0.125000
v 1.000000 1.750000 0.500000
v 1.000000 1.750000 0.125000
v -1.000000 0.000000 0.500000
v -0.625000 0.000000 0.500000
v -1.000000 1.750000 0.500000
v -0.625000 1.750000 0.500000
v -1.000000 0.000000 0.500000
v -1.000000 0.000000 0.125000
v -1.000000 1.750000 0.500000
v -1.000000 1.750000 0.125000
v -0.625000 0.000000 0.500000
v 0.625000 0.000000 -0.250000
v -0.625000 1.750000 0.500000
v 0.625000 0.000000 0.250000
v 0.625000 0.000000 0.250000
v 1.500000 0.000000 0.250000
v 0.625000 2.000000 0.250000
v 1.500000 2.000000 0.250000
v -0.625000 1.375000 0.250000
v 0.625000 1.375000 0.250000
v -0.625000 2.000000 0.250000
v 0.625000 2.000000 0.250000
v 1.000000 0.250000 0.500000
v 1.500000 0.250000 0.500000
v 1.000000 0.250000 0.250000
v 1.500000 0.250000 0.250000
v 1.000000 0.000000 0.500000
v 1.500000 0.000000 0.500000
v 1.000000 0.250000 0.500000
v 1.500000 0.250000 0.500000
v -1.500000 0.000000 0.000000
v 1.500000 0.000000 0.250000
v 1.500000 0.000000 0.500000
v -1.500000 0.000000 0.250000
v 0.625000 0.000000 0.250000
v 0.625000 0.000000 0.500000
v -1.500000 0.000000 0.500000
v -1.500000 0.000000 0.250000
v -0.625000 0.000000 0.500000
v -0.625000 0.000000 0.250000
v 1.500000 2.000000 -0.250000
v 0.625000 2.000000 -0.250000
v -0.625000 0.000000 -0.500000
v -1.000000 0.000000 -0.500000
v -0.625000 1.750000 -0.500000
v -1.000000 1.750000 -0.500000
v -0.625000 0.000000 -0.500000
v -0.625000 2.000000 -0.250000
v -0.625000 1.750000 -0.500000
v -0.625000 2.000000 0.250000
v -1.000000 0.000000 -0.500000
v -1.000000 0.000000 -0.125000
v -1.000000 1.750000 -0.500000
v -1.000000 1.750000 -0.125000
v 1.000000 0.000000 -0.500000
v 0.625000 0.000000 -0.500000
v 1.000000 1.750000 -0.500000
v 0.625000 1.750000 -0.500000
v 1.000000 0.000000 -0.500000
v 1.000000 0.000000 -0.125000
v 1.000000 1.750000 -0.500000
v 1.000000 1.750000 -0.125000
v 0.625000 0.000000 -0.500000
v -0.625000 0.000000 -0.250000
v 0.625000 1.750000 -0.500000
v -0.625000 0.000000 0.250000
v -0.625000 0.000000 -0.250000
v -1.500000 0.000000 -0.250000
v -0.625000 2.000000 -0.250000
v -1.500000 2.000000 -0.250000
v 0.625000 1.375000 -0.250000
v -0.625000 1.375000 -0.250000
v 0.625000 2.000000 -0.250000
v -0.625000 2.000000 -0.250000
v -1.000000 0.250000 -0.500000
v -1.500000 0.250000 -0.500000
v -1.000000 0.250000 -0.250000
v -1.500000 0.250000 -0.250000
v -1.000000 0.000000 -0.500000
v -1.500000 0.000000 -0.500000
v -1.000000 0.250000 -0.500000
v -1.500000 0.250000 -0.500000
v -1.500000 0.000000 -0.250000
v -1.500000 0.000000 -0.500000
v -0.625000 0.000000 -0.250000
v -0.625000 0.000000 -0.500000
v 1.500000 0.000000 -0.500000
v 1.500000 0.000000 -0.250000
v 0.625000 0.000000 -0.500000
v 0.625000 0.000000 -0.250000
v -1.500000 0.000000 -0.250000
v -1.500000 0.000000 0.000000
v 1.500000 0.000000 0.000000
v 1.500000 0.000000 -0.250000
v 1.500000 0.000000 0.000000
v 1.500000 0.000000 0.250000
v 0.625000 0.000000 0.000000
v 0.625000 0.000000 0.250000
v 0.625000 0.000000 -0.250000
v 0.625000 0.000000 0.000000
v 0.625000 1.375000 0.000000
v 0.625000 1.375000 -0.250000
v 0.625000 1.375000 0.000000
v 0.625000 1.375000 0.250000
v -0.625000 1.375000 0.000000
v -0.625000 1.375000 0.250000
v -0.625000 1.375000 -0.250000
v -0.625000 1.375000 0.000000
vn -0.0000 1.0000 -0.0000
vn -0.0000 -0.0000 1.0000
vn -0.0000 -1.0000 -0.0000
vn -0.0000 -0.0000 -1.0000
vn 1.0000 -0.0000 -0.0000
vn -1.0000 -0.0000 -0.0000
vt 0.006410 0.460526
vt 0.057692 0.460526
vt 0.057692 0.486842
vt 0.006410 0.486842
vt 0.006410 0.427632
vt 0.057692 0.427632
vt 0.057692 0.453947
vt 0.006410 0.453947
vt 0.006410 0.888158
vt 0.314103 0.888158
vt 0.314103 0.993421
vt 0.006410 0.993421
vt 0.006410 0.835526
vt 0.314103 0.835526
vt 0.314103 0.861842
vt 0.006410 0.861842
vt 0.006410 0.809211
vt 0.096154 0.809211
vt 0.096154 0.782895
vt 0.006410 0.782895
vt 0.275641 0.427632
vt 0.301282 0.427632
vt 0.301282 0.453947
vt 0.275641 0.453947
vt 0.006410 0.493421
vt 0.057692 0.493421
vt 0.057692 0.703947
vt 0.006410 0.703947
vt 0.096154 0.493421
vt 0.096154 0.703947
vt 0.006410 0.703947
vt 0.762820 0.131579
vt 0.775641 0.131579
vt 0.775641 0.322368
vt 0.762820 0.322368
vt 0.750000 0.131579
vt 0.750000 0.322368
vt 0.788462 0.131579
vt 0.788462 0.322368
vt 0.224359 0.493421
vt 0.314103 0.493421
vt 0.314103 0.703947
vt 0.224359 0.703947
vt 0.096154 0.638158
vt 0.224359 0.638158
vt 0.262821 0.460526
vt 0.314103 0.460526
vt 0.314103 0.486842
vt 0.262821 0.486842
vt 0.262821 0.427632
vt 0.314103 0.427632
vt 0.314103 0.453947
vt 0.262821 0.453947
vt 0.134615 0.809211
vt 0.134615 0.782895
s 0
usemtl mFD_Dungeon
f 3/1/1 4/2/1 6/3/1 5/4/1
f 7/5/2 8/6/2 10/7/2 9/8/2
f 11/9/1 12/10/1 14/11/1 13/12/1
f 15/13/2 16/14/2 18/15/2 17/16/2
f 19/13/3 21/16/3 22/15/3 20/14/3
f 26/5/4 25/6/4 23/7/4 24/8/4
f 31/17/3 204/18/3 203/19/3 32/20/3
f 33/13/4 34/14/4 36/15/4 35/16/4
f 37/13/3 39/16/3 40/15/3 38/14/3
f 30/1/1 29/2/1 27/3/1 28/4/1
f 45/21/5 46/22/5 48/23/5 47/24/5
f 49/21/5 50/22/5 52/23/5 51/24/5
f 53/21/6 55/24/6 56/23/6 54/22/6
f 57/21/6 59/24/6 60/23/6 58/22/6
f 61/21/6 63/24/6 64/23/6 62/22/6
f 65/21/6 67/24/6 68/23/6 66/22/6
f 69/21/5 70/22/5 72/23/5 71/24/5
f 73/21/5 74/22/5 76/23/5 75/24/5
f 41/25/5 42/26/5 80/27/5 79/28/5
f 43/25/6 81/28/6 82/27/6 44/26/6
f 1/25/2 2/29/2 78/30/2 77/31/2
f 89/32/6 90/33/6 87/34/6 88/35/6
f 97/32/5 96/35/5 95/34/5 98/33/5
f 159/36/5 161/37/5 96/35/5 97/32/5
f 101/32/5 102/33/5 99/34/5 100/35/5
f 123/36/5 101/32/5 100/35/5 125/37/5
f 175/36/6 89/32/6 88/35/6 177/37/6
f 93/32/6 92/35/6 91/34/6 94/33/6
f 107/36/6 109/37/6 92/35/6 93/32/6
f 103/36/2 104/38/2 106/39/2 105/37/2
f 111/36/5 112/38/5 114/39/5 113/37/5
f 115/36/2 116/38/2 118/39/2 117/37/2
f 119/36/6 121/37/6 122/39/6 120/38/6
f 127/40/2 128/41/2 130/42/2 129/43/2
f 131/44/2 132/45/2 134/43/2 133/30/2
f 135/46/1 136/47/1 138/48/1 137/49/1
f 139/50/2 140/51/2 142/52/2 141/53/2
f 84/17/3 146/18/3 143/19/3 83/20/3
f 151/17/3 149/18/3 150/19/3 152/20/3
f 145/17/3 148/18/3 147/19/3 144/20/3
f 86/25/4 85/29/4 154/30/4 153/31/4
f 155/36/4 156/38/4 158/39/4 157/37/4
f 126/25/6 110/28/6 108/27/6 124/26/6
f 163/36/6 164/38/6 166/39/6 165/37/6
f 167/36/4 168/38/4 170/39/4 169/37/4
f 171/36/5 173/37/5 174/39/5 172/38/5
f 178/25/5 176/26/5 160/27/5 162/28/5
f 179/40/4 180/41/4 182/42/4 181/43/4
f 183/44/4 184/45/4 186/43/4 185/30/4
f 187/46/1 188/47/1 190/48/1 189/49/1
f 191/50/4 192/51/4 194/52/4 193/53/4
f 201/17/3 199/18/3 200/19/3 202/20/3
f 196/17/3 198/18/3 197/19/3 195/20/3
f 205/17/3 212/18/3 211/19/3 206/20/3
f 208/17/3 210/18/3 209/19/3 207/20/3
f 213/17/3 220/54/3 219/55/3 214/20/3
f 216/17/3 218/54/3 217/55/3 215/20/3
