# Blender 4.0.2
# www.blender.org
mtllib Wall_Str_05.mtl
o Wall_Str_05
v 0.500000 2.000000 0.250000
v -0.500000 2.000000 0.250000
v -1.500000 0.250000 0.500000
v 1.500000 0.250000 0.500000
v -1.500000 0.250000 0.250000
v 1.500000 0.250000 0.250000
v -1.500000 0.000000 0.500000
v 1.500000 0.000000 0.500000
v -1.500000 0.250000 0.500000
v 1.500000 0.250000 0.500000
v -1.500000 2.000000 0.500000
v 1.500000 2.000000 0.500000
v -1.500000 2.000000 -0.500000
v 1.500000 2.000000 -0.500000
v -1.500000 1.750000 0.500000
v 1.500000 1.750000 0.500000
v -1.500000 2.000000 0.500000
v 1.500000 2.000000 0.500000
v -1.500000 1.750000 0.500000
v 1.500000 1.750000 0.500000
v -1.500000 1.750000 0.250000
v 1.500000 1.750000 0.250000
v 1.500000 0.250000 -0.500000
v -1.500000 0.250000 -0.500000
v 1.500000 0.250000 -0.250000
v -1.500000 0.250000 -0.250000
v 1.500000 0.000000 -0.500000
v -1.500000 0.000000 -0.500000
v 1.500000 0.250000 -0.500000
v -1.500000 0.250000 -0.500000
v 1.500000 0.000000 -0.250000
v -1.500000 0.000000 -0.250000
v 1.500000 1.750000 -0.500000
v -1.500000 1.750000 -0.500000
v 1.500000 2.000000 -0.500000
v -1.500000 2.000000 -0.500000
v 1.500000 1.750000 -0.500000
v -1.500000 1.750000 -0.500000
v 1.500000 1.750000 -0.250000
v -1.500000 1.750000 -0.250000
v 1.500000 0.000000 0.250000
v 1.500000 0.000000 -0.250000
v -1.500000 0.000000 0.250000
v -1.500000 0.000000 -0.250000
v 1.500000 0.000000 -0.250000
v 1.500000 0.000000 -0.500000
v 1.500000 0.250000 -0.250000
v 1.500000 0.250000 -0.500000
v 1.500000 0.000000 0.500000
v 1.500000 0.000000 0.250000
v 1.500000 0.250000 0.500000
v 1.500000 0.250000 0.250000
v -1.500000 0.000000 0.500000
v -1.500000 0.000000 0.250000
v -1.500000 0.250000 0.500000
v -1.500000 0.250000 0.250000
v -1.500000 0.000000 -0.250000
v -1.500000 0.000000 -0.500000
v -1.500000 0.250000 -0.250000
v -1.500000 0.250000 -0.500000
v -1.500000 1.750000 0.500000
v -1.500000 1.750000 0.250000
v -1.500000 2.000000 0.500000
v -1.500000 2.000000 0.250000
v -1.500000 1.750000 -0.250000
v -1.500000 1.750000 -0.500000
v -1.500000 2.000000 -0.250000
v -1.500000 2.000000 -0.500000
v 1.500000 1.750000 0.500000
v 1.500000 1.750000 0.250000
v 1.500000 2.000000 0.500000
v 1.500000 2.000000 0.250000
v 1.500000 1.750000 -0.250000
v 1.500000 1.750000 -0.500000
v 1.500000 2.000000 -0.250000
v 1.500000 2.000000 -0.500000
v 0.500000 0.000000 0.250000
v -0.500000 0.000000 0.250000
v 1.500000 2.000000 0.250000
v 1.500000 2.000000 -0.250000
v -1.500000 2.000000 0.250000
v -1.500000 2.000000 -0.250000
v 1.500000 2.000000 -0.250000
v -1.500000 2.000000 -0.250000
v -0.500000 0.000000 0.250000
v 0.500000 0.000000 0.250000
v 0.500000 2.000000 0.250000
v -0.500000 2.000000 0.250000
v -0.500000 0.000000 -0.250000
v 0.500000 0.000000 -0.250000
v -0.500000 2.000000 -0.250000
v 0.500000 2.000000 -0.250000
v -1.500000 0.000000 0.500000
v 1.500000 0.000000 0.500000
v -1.500000 0.000000 -0.500000
v 1.500000 0.000000 -0.500000
v -1.500000 0.000000 0.250000
v 1.500000 0.000000 0.250000
v 1.500000 2.000000 0.250000
v -1.500000 2.000000 0.250000
vn -0.0000 1.0000 -0.0000
vn -0.0000 -0.0000 1.0000
vn -0.0000 -1.0000 -0.0000
vn -0.0000 -0.0000 -1.0000
vn 1.0000 -0.0000 -0.0000
vn -1.0000 -0.0000 -0.0000
vt 0.006410 0.460526
vt 0.314103 0.460526
vt 0.314103 0.486842
vt 0.006410 0.486842
vt 0.006410 0.427632
vt 0.314103 0.427632
vt 0.314103 0.453947
vt 0.006410 0.453947
vt 0.006410 0.888158
vt 0.314103 0.888158
vt 0.314103 0.993421
vt 0.006410 0.993421
vt 0.006410 0.835526
vt 0.314103 0.835526
vt 0.314103 0.861842
vt 0.006410 0.861842
vt 0.538462 0.565789
vt 0.641026 0.565789
vt 0.641026 0.776316
vt 0.538462 0.776316
vt 0.275641 0.427632
vt 0.301282 0.427632
vt 0.301282 0.453947
vt 0.275641 0.453947
vt 0.006410 0.493421
vt 0.057692 0.493421
vt 0.057692 0.703947
vt 0.006410 0.703947
vt 0.647436 0.565789
vt 0.647436 0.776316
vt 0.750000 0.776316
vt 0.750000 0.565789
vt 0.108974 0.493421
vt 0.211538 0.493421
vt 0.211538 0.703947
vt 0.108974 0.703947
vt 0.006410 0.703947
vt 0.756410 0.565789
vt 0.858974 0.565789
vt 0.858974 0.776316
vt 0.756410 0.776316
vt 0.314103 0.809211
vt 0.314103 0.703947
vt 0.006410 0.809211
s 0
usemtl mFD_Dungeon
f 3/1/1 4/2/1 6/3/1 5/4/1
f 7/5/2 8/6/2 10/7/2 9/8/2
f 11/9/1 12/10/1 14/11/1 13/12/1
f 15/13/2 16/14/2 18/15/2 17/16/2
f 19/13/3 21/16/3 22/15/3 20/14/3
f 23/1/1 24/2/1 26/3/1 25/4/1
f 27/5/4 28/6/4 30/7/4 29/8/4
f 33/13/4 34/14/4 36/15/4 35/16/4
f 37/13/3 39/16/3 40/15/3 38/14/3
f 89/17/4 32/18/4 84/19/4 91/20/4
f 45/21/5 46/22/5 48/23/5 47/24/5
f 49/21/5 50/22/5 52/23/5 51/24/5
f 53/21/6 55/24/6 56/23/6 54/22/6
f 57/21/6 59/24/6 60/23/6 58/22/6
f 61/21/6 63/24/6 64/23/6 62/22/6
f 65/21/6 67/24/6 68/23/6 66/22/6
f 69/21/5 70/22/5 72/23/5 71/24/5
f 73/21/5 74/22/5 76/23/5 75/24/5
f 41/25/5 42/26/5 80/27/5 79/28/5
f 43/25/6 81/28/6 82/27/6 44/26/6
f 78/29/2 2/30/2 100/31/2 97/32/2
f 98/29/2 99/30/2 1/31/2 77/32/2
f 85/33/2 86/34/2 87/35/2 88/36/2
f 31/25/4 90/33/4 92/36/4 83/37/4
f 90/38/4 89/39/4 91/40/4 92/41/4
f 93/42/3 95/43/3 96/37/3 94/44/3
