# Blender 4.0.2
# www.blender.org
mtllib Wall_3_Connector_01.mtl
o Wall_3_Connector_01
v -0.500000 0.000000 0.500000
v 0.500000 0.000000 0.500000
v -0.500000 0.000000 -0.500000
v 0.500000 0.000000 -0.500000
v -0.500000 0.000000 0.500000
v 0.500000 0.000000 0.500000
v -0.500000 0.250000 0.500000
v 0.500000 0.250000 0.500000
v -0.500000 0.250000 0.250000
v 0.500000 0.250000 0.250000
v -0.500000 0.250000 0.500000
v 0.500000 0.250000 0.500000
v -0.500000 0.000000 0.250000
v 0.500000 0.000000 0.250000
v -0.500000 2.000000 0.250000
v 0.500000 2.000000 0.250000
v 0.500000 0.000000 -0.250000
v -0.500000 0.000000 -0.250000
v 0.500000 2.000000 -0.250000
v -0.500000 2.000000 -0.250000
v -0.500000 2.000000 0.500000
v 0.500000 2.000000 0.500000
v -0.500000 2.000000 -0.500000
v 0.500000 2.000000 -0.500000
v -0.500000 2.000000 0.000000
v 0.500000 2.000000 0.000000
v -0.500000 1.750000 0.500000
v 0.500000 1.750000 0.500000
v -0.500000 2.000000 0.500000
v 0.500000 2.000000 0.500000
v -0.500000 1.750000 0.250000
v 0.500000 1.750000 0.250000
v -0.500000 1.750000 0.500000
v 0.500000 1.750000 0.500000
v -0.500000 2.000000 -0.500000
v -0.250000 2.000000 -0.500000
v -0.500000 1.750000 -0.500000
v -0.250000 1.750000 -0.500000
v 0.500000 1.750000 -0.250000
v -0.500000 1.750000 -0.250000
v 0.500000 1.750000 -0.500000
v -0.500000 1.750000 -0.500000
v 0.250000 0.000000 -0.250000
v 0.250000 0.000000 -0.500000
v 0.250000 2.000000 -0.250000
v 0.250000 2.000000 -0.500000
v -0.250000 0.000000 -0.250000
v -0.250000 0.000000 -0.500000
v -0.250000 2.000000 -0.250000
v -0.250000 2.000000 -0.500000
v 0.250000 0.250000 -0.250000
v 0.500000 0.250000 -0.250000
v 0.250000 0.250000 -0.500000
v 0.500000 0.250000 -0.500000
v -0.500000 0.250000 -0.250000
v -0.250000 0.250000 -0.250000
v -0.500000 0.250000 -0.500000
v -0.250000 0.250000 -0.500000
v -0.500000 0.000000 -0.250000
v -0.500000 0.000000 -0.500000
v -0.500000 0.250000 -0.250000
v -0.500000 0.250000 -0.500000
v -0.500000 0.000000 0.500000
v -0.500000 0.000000 0.250000
v -0.500000 0.250000 0.500000
v -0.500000 0.250000 0.250000
v 0.500000 0.000000 0.500000
v 0.500000 0.000000 0.250000
v 0.500000 0.250000 0.500000
v 0.500000 0.250000 0.250000
v 0.500000 0.000000 -0.250000
v 0.500000 0.000000 -0.500000
v 0.500000 0.250000 -0.250000
v 0.500000 0.250000 -0.500000
v -0.250000 0.000000 -0.500000
v -0.500000 0.000000 -0.500000
v -0.250000 0.250000 -0.500000
v -0.500000 0.250000 -0.500000
v 0.500000 0.000000 -0.500000
v 0.250000 0.000000 -0.500000
v 0.500000 0.250000 -0.500000
v 0.250000 0.250000 -0.500000
v 0.500000 0.000000 0.250000
v 0.500000 0.000000 -0.250000
v 0.500000 2.000000 0.250000
v 0.500000 2.000000 -0.250000
v -0.500000 0.000000 0.250000
v -0.500000 0.000000 -0.250000
v -0.500000 2.000000 0.250000
v -0.500000 2.000000 -0.250000
v -0.500000 1.750000 -0.250000
v -0.500000 1.750000 -0.500000
v -0.500000 2.000000 -0.250000
v -0.500000 2.000000 -0.500000
v -0.500000 1.750000 0.500000
v -0.500000 1.750000 0.250000
v -0.500000 2.000000 0.500000
v -0.500000 2.000000 0.250000
v 0.500000 1.750000 0.500000
v 0.500000 1.750000 0.250000
v 0.500000 2.000000 0.500000
v 0.500000 2.000000 0.250000
v 0.500000 1.750000 -0.250000
v 0.500000 1.750000 -0.500000
v 0.500000 2.000000 -0.250000
v 0.500000 2.000000 -0.500000
v 0.250000 0.000000 -0.500000
v -0.250000 0.000000 -0.500000
v 0.250000 2.000000 -0.500000
v -0.250000 2.000000 -0.500000
v 0.500000 1.750000 -0.500000
v 0.250000 1.750000 -0.500000
v 0.500000 2.000000 -0.500000
v 0.250000 2.000000 -0.500000
vn -0.0000 -1.0000 -0.0000
vn -0.0000 -0.0000 1.0000
vn -0.0000 1.0000 -0.0000
vn -0.0000 -0.0000 -1.0000
vn 1.0000 -0.0000 -0.0000
vn -1.0000 -0.0000 -0.0000
vt 0.858974 0.348684
vt 0.858974 0.453947
vt 0.961538 0.453947
vt 0.961538 0.348684
vt 0.006410 0.427632
vt 0.108974 0.427632
vt 0.108974 0.453947
vt 0.006410 0.453947
vt 0.108974 0.486842
vt 0.108974 0.460526
vt 0.006410 0.460526
vt 0.006410 0.486842
vt 0.006410 0.493421
vt 0.108974 0.493421
vt 0.108974 0.703947
vt 0.006410 0.703947
vt 0.006410 0.934211
vt 0.108974 0.934211
vt 0.108974 0.986842
vt 0.006410 0.986842
vt 0.006410 0.888158
vt 0.108974 0.888158
vt 0.108974 0.940789
vt 0.006410 0.940789
vt 0.006410 0.835526
vt 0.108974 0.835526
vt 0.108974 0.861842
vt 0.006410 0.861842
vt 0.108974 0.861842
vt 0.006410 0.861842
vt 0.006410 0.835526
vt 0.108974 0.835526
vt 0.224359 0.427632
vt 0.250000 0.427632
vt 0.250000 0.453947
vt 0.224359 0.453947
vt 0.032051 0.493421
vt 0.057692 0.493421
vt 0.057692 0.703947
vt 0.032051 0.703947
vt 0.025641 0.493421
vt 0.025641 0.703947
vt 0.051282 0.703947
vt 0.051282 0.493421
vt 0.224359 0.394737
vt 0.250000 0.394737
vt 0.250000 0.421053
vt 0.224359 0.421053
s 0
usemtl mFD_Dungeon
f 1/1/1 3/2/1 4/3/1 2/4/1
f 5/5/2 6/6/2 8/7/2 7/8/2
f 9/9/3 11/10/3 12/11/3 10/12/3
f 13/13/2 14/14/2 16/15/2 15/16/2
f 17/13/4 18/14/4 20/15/4 19/16/4
f 25/17/3 26/18/3 24/19/3 23/20/3
f 21/21/3 22/22/3 26/23/3 25/24/3
f 27/25/2 28/26/2 30/27/2 29/28/2
f 31/29/1 32/30/1 34/31/1 33/32/1
f 38/33/4 37/34/4 35/35/4 36/36/4
f 39/29/1 40/30/1 42/31/1 41/32/1
f 43/37/5 44/38/5 46/39/5 45/40/5
f 47/41/6 49/42/6 50/43/6 48/44/6
f 51/45/3 52/46/3 54/47/3 53/48/3
f 55/45/3 56/46/3 58/47/3 57/48/3
f 59/33/6 61/36/6 62/35/6 60/34/6
f 63/33/6 65/36/6 66/35/6 64/34/6
f 67/33/5 68/34/5 70/35/5 69/36/5
f 71/33/5 72/34/5 74/35/5 73/36/5
f 75/33/4 76/34/4 78/35/4 77/36/4
f 79/33/4 80/34/4 82/35/4 81/36/4
f 83/13/5 84/38/5 86/39/5 85/16/5
f 87/13/6 89/16/6 90/39/6 88/38/6
f 91/33/6 93/36/6 94/35/6 92/34/6
f 95/33/6 97/36/6 98/35/6 96/34/6
f 99/33/5 100/34/5 102/35/5 101/36/5
f 103/33/5 104/34/5 106/35/5 105/36/5
f 107/13/4 108/38/4 110/39/4 109/16/4
f 111/33/4 112/34/4 114/35/4 113/36/4
