# Blender 4.0.2
# www.blender.org
mtllib Wall_Door_01.mtl
o Wall_Door_01
v -1.500000 0.000000 0.250000
v -0.625000 0.000000 0.250000
v -1.500000 0.250000 0.500000
v -1.000000 0.250000 0.500000
v -1.500000 0.250000 0.250000
v -1.000000 0.250000 0.250000
v -1.500000 0.000000 0.500000
v -1.000000 0.000000 0.500000
v -1.500000 0.250000 0.500000
v -1.000000 0.250000 0.500000
v -1.500000 2.000000 0.500000
v 1.500000 2.000000 0.500000
v -1.500000 2.000000 -0.500000
v 1.500000 2.000000 -0.500000
v -1.500000 1.750000 0.500000
v 1.500000 1.750000 0.500000
v -1.500000 2.000000 0.500000
v 1.500000 2.000000 0.500000
v -1.500000 1.750000 0.500000
v 1.500000 1.750000 0.500000
v -1.500000 1.750000 0.250000
v 1.500000 1.750000 0.250000
v 1.000000 0.250000 -0.500000
v 1.500000 0.250000 -0.500000
v 1.000000 0.000000 -0.500000
v 1.500000 0.000000 -0.500000
v 1.000000 0.250000 -0.250000
v 1.500000 0.250000 -0.250000
v 1.000000 0.250000 -0.500000
v 1.500000 0.250000 -0.500000
v 1.500000 0.000000 0.000000
v 1.500000 0.000000 -0.250000
v 1.500000 1.750000 -0.500000
v -1.500000 1.750000 -0.500000
v 1.500000 2.000000 -0.500000
v -1.500000 2.000000 -0.500000
v 1.500000 1.750000 -0.500000
v -1.500000 1.750000 -0.500000
v 1.500000 1.750000 -0.250000
v -1.500000 1.750000 -0.250000
v 1.500000 0.000000 0.250000
v 1.500000 0.000000 -0.250000
v -1.500000 0.000000 0.250000
v -1.500000 0.000000 -0.250000
v 1.500000 0.000000 -0.250000
v 1.500000 0.000000 -0.500000
v 1.500000 0.250000 -0.250000
v 1.500000 0.250000 -0.500000
v 1.500000 0.000000 0.500000
v 1.500000 0.000000 0.250000
v 1.500000 0.250000 0.500000
v 1.500000 0.250000 0.250000
v -1.500000 0.000000 0.500000
v -1.500000 0.000000 0.250000
v -1.500000 0.250000 0.500000
v -1.500000 0.250000 0.250000
v -1.500000 0.000000 -0.250000
v -1.500000 0.000000 -0.500000
v -1.500000 0.250000 -0.250000
v -1.500000 0.250000 -0.500000
v -1.500000 1.750000 0.500000
v -1.500000 1.750000 0.250000
v -1.500000 2.000000 0.500000
v -1.500000 2.000000 0.250000
v -1.500000 1.750000 -0.250000
v -1.500000 1.750000 -0.500000
v -1.500000 2.000000 -0.250000
v -1.500000 2.000000 -0.500000
v 1.500000 1.750000 0.500000
v 1.500000 1.750000 0.250000
v 1.500000 2.000000 0.500000
v 1.500000 2.000000 0.250000
v 1.500000 1.750000 -0.250000
v 1.500000 1.750000 -0.500000
v 1.500000 2.000000 -0.250000
v 1.500000 2.000000 -0.500000
v -1.500000 2.000000 0.250000
v -0.625000 2.000000 0.250000
v 1.500000 2.000000 0.250000
v 1.500000 2.000000 -0.250000
v -1.500000 2.000000 0.250000
v -1.500000 2.000000 -0.250000
v -1.500000 0.000000 -0.250000
v -1.500000 0.000000 0.000000
v 0.625000 0.000000 -0.250000
v 1.500000 0.000000 -0.250000
v -0.625000 0.000000 0.250000
v 0.625000 0.000000 0.250000
v -0.625000 1.375000 0.250000
v 0.625000 1.375000 0.250000
v 0.250000 0.625000 0.312500
v 0.562500 0.625000 0.312500
v 0.500000 0.562500 0.312500
v 0.562500 0.375000 0.250000
v 0.562500 0.562500 0.250000
v 0.500000 0.375000 0.312500
v 0.250000 0.562500 0.312500
v 0.562500 0.562500 0.312500
v 0.562500 0.562500 0.312500
v 0.562500 0.375000 0.312500
v 0.562500 0.562500 0.312500
v 0.562500 0.375000 0.312500
v 0.500000 0.375000 0.250000
v 0.500000 0.562500 0.250000
v 0.500000 0.375000 0.312500
v 0.500000 0.562500 0.312500
v 0.250000 0.562500 0.312500
v 0.312500 0.375000 0.250000
v 0.312500 0.562500 0.250000
v 0.250000 0.375000 0.312500
v 0.312500 0.562500 0.312500
v 0.312500 0.375000 0.312500
v 0.312500 0.562500 0.312500
v 0.312500 0.375000 0.312500
v 0.250000 0.375000 0.250000
v 0.250000 0.562500 0.250000
v 0.250000 0.375000 0.312500
v 0.250000 0.562500 0.312500
v 0.500000 0.375000 0.312500
v 0.312500 0.312500 0.250000
v 0.500000 0.312500 0.250000
v 0.312500 0.375000 0.312500
v 0.500000 0.312500 0.312500
v 0.312500 0.312500 0.312500
v 0.500000 0.312500 0.312500
v 0.312500 0.312500 0.312500
v 0.312500 0.375000 0.250000
v 0.500000 0.375000 0.250000
v 0.312500 0.375000 0.312500
v 0.500000 0.375000 0.312500
v 0.500000 0.375000 0.250000
v 0.500000 0.312500 0.250000
v 0.500000 0.375000 0.312500
v 0.500000 0.312500 0.312500
v 0.312500 0.375000 0.250000
v 0.312500 0.312500 0.250000
v 0.312500 0.375000 0.312500
v 0.312500 0.312500 0.312500
v 0.312500 0.375000 0.250000
v 0.250000 0.375000 0.250000
v 0.312500 0.375000 0.312500
v 0.250000 0.375000 0.312500
v 0.562500 0.375000 0.250000
v 0.500000 0.375000 0.250000
v 0.562500 0.375000 0.312500
v 0.500000 0.375000 0.312500
v 0.250000 0.625000 0.312500
v 0.562500 0.625000 0.312500
v 0.250000 0.625000 0.250000
v 0.562500 0.625000 0.250000
v 0.250000 0.562500 0.312500
v 0.562500 0.562500 0.312500
v 0.250000 0.562500 0.250000
v 0.562500 0.562500 0.250000
v 0.562500 0.625000 0.250000
v 0.562500 0.562500 0.250000
v 0.562500 0.625000 0.312500
v 0.562500 0.562500 0.312500
v 0.250000 0.625000 0.250000
v 0.250000 0.562500 0.250000
v 0.250000 0.625000 0.312500
v 0.250000 0.562500 0.312500
v 0.625000 0.000000 0.500000
v 1.000000 0.000000 0.500000
v 0.625000 1.750000 0.500000
v 1.000000 1.750000 0.500000
v 0.625000 0.000000 0.500000
v 0.625000 0.000000 0.125000
v 0.625000 1.750000 0.500000
v 0.625000 1.750000 0.125000
v 1.000000 0.000000 0.500000
v 1.000000 0.000000 0.125000
v 1.000000 1.750000 0.500000
v 1.000000 1.750000 0.125000
v -1.000000 0.000000 0.500000
v -0.625000 0.000000 0.500000
v -1.000000 1.750000 0.500000
v -0.625000 1.750000 0.500000
v -1.000000 0.000000 0.500000
v -1.000000 0.000000 0.125000
v -1.000000 1.750000 0.500000
v -1.000000 1.750000 0.125000
v -0.625000 0.000000 0.500000
v -0.625000 0.000000 0.125000
v -0.625000 1.750000 0.500000
v -0.625000 1.750000 0.125000
v 0.625000 0.000000 0.250000
v 1.500000 0.000000 0.250000
v 0.625000 2.000000 0.250000
v 1.500000 2.000000 0.250000
v -0.625000 1.375000 0.250000
v 0.625000 1.375000 0.250000
v -0.625000 2.000000 0.250000
v 0.625000 2.000000 0.250000
v 1.000000 0.250000 0.500000
v 1.500000 0.250000 0.500000
v 1.000000 0.250000 0.250000
v 1.500000 0.250000 0.250000
v 1.000000 0.000000 0.500000
v 1.500000 0.000000 0.500000
v 1.000000 0.250000 0.500000
v 1.500000 0.250000 0.500000
v -1.500000 0.000000 0.250000
v 1.500000 0.000000 0.250000
v 1.500000 0.000000 0.500000
v 1.500000 0.000000 0.250000
v 0.625000 0.000000 0.250000
v 0.625000 0.000000 0.500000
v -1.500000 0.000000 0.500000
v -1.500000 0.000000 0.250000
v -0.625000 0.000000 0.500000
v -0.625000 0.000000 0.250000
v 1.500000 2.000000 -0.250000
v 0.625000 2.000000 -0.250000
v 0.625000 0.000000 -0.250000
v -0.625000 0.000000 -0.250000
v 0.625000 1.375000 -0.250000
v -0.625000 1.375000 -0.250000
v -0.250000 0.625000 -0.312500
v -0.562500 0.625000 -0.312500
v -0.500000 0.562500 -0.312500
v -0.562500 0.375000 -0.250000
v -0.562500 0.562500 -0.250000
v -0.500000 0.375000 -0.312500
v -0.250000 0.562500 -0.312500
v -0.562500 0.562500 -0.312500
v -0.562500 0.562500 -0.312500
v -0.562500 0.375000 -0.312500
v -0.562500 0.562500 -0.312500
v -0.562500 0.375000 -0.312500
v -0.500000 0.375000 -0.250000
v -0.500000 0.562500 -0.250000
v -0.500000 0.375000 -0.312500
v -0.500000 0.562500 -0.312500
v -0.250000 0.562500 -0.312500
v -0.312500 0.375000 -0.250000
v -0.312500 0.562500 -0.250000
v -0.250000 0.375000 -0.312500
v -0.312500 0.562500 -0.312500
v -0.312500 0.375000 -0.312500
v -0.312500 0.562500 -0.312500
v -0.312500 0.375000 -0.312500
v -0.250000 0.375000 -0.250000
v -0.250000 0.562500 -0.250000
v -0.250000 0.375000 -0.312500
v -0.250000 0.562500 -0.312500
v -0.500000 0.375000 -0.312500
v -0.312500 0.312500 -0.250000
v -0.500000 0.312500 -0.250000
v -0.312500 0.375000 -0.312500
v -0.500000 0.312500 -0.312500
v -0.312500 0.312500 -0.312500
v -0.500000 0.312500 -0.312500
v -0.312500 0.312500 -0.312500
v -0.312500 0.375000 -0.250000
v -0.500000 0.375000 -0.250000
v -0.312500 0.375000 -0.312500
v -0.500000 0.375000 -0.312500
v -0.500000 0.375000 -0.250000
v -0.500000 0.312500 -0.250000
v -0.500000 0.375000 -0.312500
v -0.500000 0.312500 -0.312500
v -0.312500 0.375000 -0.250000
v -0.312500 0.312500 -0.250000
v -0.312500 0.375000 -0.312500
v -0.312500 0.312500 -0.312500
v -0.312500 0.375000 -0.250000
v -0.250000 0.375000 -0.250000
v -0.312500 0.375000 -0.312500
v -0.250000 0.375000 -0.312500
v -0.562500 0.375000 -0.250000
v -0.500000 0.375000 -0.250000
v -0.562500 0.375000 -0.312500
v -0.500000 0.375000 -0.312500
v -0.250000 0.625000 -0.312500
v -0.562500 0.625000 -0.312500
v -0.250000 0.625000 -0.250000
v -0.562500 0.625000 -0.250000
v -0.250000 0.562500 -0.312500
v -0.562500 0.562500 -0.312500
v -0.250000 0.562500 -0.250000
v -0.562500 0.562500 -0.250000
v -0.562500 0.625000 -0.250000
v -0.562500 0.562500 -0.250000
v -0.562500 0.625000 -0.312500
v -0.562500 0.562500 -0.312500
v -0.250000 0.625000 -0.250000
v -0.250000 0.562500 -0.250000
v -0.250000 0.625000 -0.312500
v -0.250000 0.562500 -0.312500
v -0.625000 0.000000 -0.500000
v -1.000000 0.000000 -0.500000
v -0.625000 1.750000 -0.500000
v -1.000000 1.750000 -0.500000
v -0.625000 0.000000 -0.500000
v -0.625000 0.000000 -0.125000
v -0.625000 1.750000 -0.500000
v -0.625000 1.750000 -0.125000
v -1.000000 0.000000 -0.500000
v -1.000000 0.000000 -0.125000
v -1.000000 1.750000 -0.500000
v -1.000000 1.750000 -0.125000
v 1.000000 0.000000 -0.500000
v 0.625000 0.000000 -0.500000
v 1.000000 1.750000 -0.500000
v 0.625000 1.750000 -0.500000
v 1.000000 0.000000 -0.500000
v 1.000000 0.000000 -0.125000
v 1.000000 1.750000 -0.500000
v 1.000000 1.750000 -0.125000
v 0.625000 0.000000 -0.500000
v 0.625000 0.000000 -0.125000
v 0.625000 1.750000 -0.500000
v 0.625000 1.750000 -0.125000
v -0.625000 0.000000 -0.250000
v -1.500000 0.000000 -0.250000
v -0.625000 2.000000 -0.250000
v -1.500000 2.000000 -0.250000
v 0.625000 1.375000 -0.250000
v -0.625000 1.375000 -0.250000
v 0.625000 2.000000 -0.250000
v -0.625000 2.000000 -0.250000
v -1.000000 0.250000 -0.500000
v -1.500000 0.250000 -0.500000
v -1.000000 0.250000 -0.250000
v -1.500000 0.250000 -0.250000
v -1.000000 0.000000 -0.500000
v -1.500000 0.000000 -0.500000
v -1.000000 0.250000 -0.500000
v -1.500000 0.250000 -0.500000
v -1.500000 0.000000 -0.250000
v -1.500000 0.000000 -0.500000
v -0.625000 0.000000 -0.250000
v -0.625000 0.000000 -0.500000
v 1.500000 0.000000 -0.500000
v 1.500000 0.000000 -0.250000
v 0.625000 0.000000 -0.500000
v 0.625000 0.000000 -0.250000
vn -0.0000 1.0000 -0.0000
vn -0.0000 -0.0000 1.0000
vn -0.0000 -1.0000 -0.0000
vn -0.0000 -0.0000 -1.0000
vn 1.0000 -0.0000 -0.0000
vn -1.0000 -0.0000 -0.0000
vt 0.006410 0.460526
vt 0.057692 0.460526
vt 0.057692 0.486842
vt 0.006410 0.486842
vt 0.006410 0.427632
vt 0.057692 0.427632
vt 0.057692 0.453947
vt 0.006410 0.453947
vt 0.006410 0.888158
vt 0.314103 0.888158
vt 0.314103 0.993421
vt 0.006410 0.993421
vt 0.006410 0.835526
vt 0.314103 0.835526
vt 0.314103 0.861842
vt 0.006410 0.861842
vt 0.006410 0.730263
vt 0.006410 0.756579
vt 0.314103 0.756579
vt 0.314103 0.730263
vt 0.275641 0.427632
vt 0.301282 0.427632
vt 0.301282 0.453947
vt 0.275641 0.453947
vt 0.006410 0.493421
vt 0.057692 0.493421
vt 0.057692 0.703947
vt 0.006410 0.703947
vt 0.096154 0.493421
vt 0.096154 0.703947
vt 0.006410 0.703947
vt 0.858974 0.098684
vt 0.987179 0.098684
vt 0.987179 0.243421
vt 0.858974 0.243421
vt 0.967949 0.072368
vt 0.967949 0.078947
vt 0.935897 0.078947
vt 0.935897 0.072368
vt 0.961538 0.052632
vt 0.967949 0.052632
vt 0.961538 0.072368
vt 0.974359 0.052632
vt 0.980769 0.052632
vt 0.980769 0.072368
vt 0.974359 0.072368
vt 0.974359 0.059211
vt 0.980769 0.059211
vt 0.967949 0.085526
vt 0.935897 0.085526
vt 0.935897 0.092105
vt 0.967949 0.092105
vt 0.961538 0.085526
vt 0.961538 0.092105
vt 0.967949 0.092105
vt 0.967949 0.085526
vt 0.750000 0.131579
vt 0.788462 0.131579
vt 0.788462 0.322368
vt 0.750000 0.322368
vt 0.224359 0.493421
vt 0.314103 0.493421
vt 0.314103 0.703947
vt 0.224359 0.703947
vt 0.096154 0.638158
vt 0.224359 0.638158
vt 0.262821 0.460526
vt 0.314103 0.460526
vt 0.314103 0.486842
vt 0.262821 0.486842
vt 0.262821 0.427632
vt 0.314103 0.427632
vt 0.314103 0.453947
vt 0.262821 0.453947
vt 0.006410 0.782895
vt 0.314103 0.782895
vt 0.006410 0.809211
vt 0.096154 0.809211
vt 0.096154 0.782895
vt 0.006410 0.782895
s 0
usemtl mFD_Dungeon
f 3/1/1 4/2/1 6/3/1 5/4/1
f 7/5/2 8/6/2 10/7/2 9/8/2
f 11/9/1 12/10/1 14/11/1 13/12/1
f 15/13/2 16/14/2 18/15/2 17/16/2
f 19/13/3 21/16/3 22/15/3 20/14/3
f 26/5/4 25/6/4 23/7/4 24/8/4
f 32/17/3 31/18/3 84/19/3 83/20/3
f 33/13/4 34/14/4 36/15/4 35/16/4
f 37/13/3 39/16/3 40/15/3 38/14/3
f 30/1/1 29/2/1 27/3/1 28/4/1
f 45/21/5 46/22/5 48/23/5 47/24/5
f 49/21/5 50/22/5 52/23/5 51/24/5
f 53/21/6 55/24/6 56/23/6 54/22/6
f 57/21/6 59/24/6 60/23/6 58/22/6
f 61/21/6 63/24/6 64/23/6 62/22/6
f 65/21/6 67/24/6 68/23/6 66/22/6
f 69/21/5 70/22/5 72/23/5 71/24/5
f 73/21/5 74/22/5 76/23/5 75/24/5
f 41/25/5 42/26/5 80/27/5 79/28/5
f 43/25/6 81/28/6 82/27/6 44/26/6
f 1/25/2 2/29/2 78/30/2 77/31/2
f 87/32/2 88/33/2 90/34/2 89/35/2
f 98/36/2 92/37/2 91/38/2 97/39/2
f 96/40/2 102/41/2 99/36/2 93/42/2
f 100/43/5 94/44/5 95/45/5 101/46/5
f 105/43/6 106/46/6 104/45/6 103/44/6
f 110/40/2 114/41/2 111/36/2 107/42/2
f 112/43/5 108/44/5 109/45/5 113/46/5
f 117/43/6 118/46/6 116/45/6 115/44/6
f 122/40/2 126/41/2 123/36/2 119/42/2
f 124/43/3 120/44/3 121/45/3 125/46/3
f 129/43/1 130/46/1 128/45/1 127/44/1
f 133/43/5 134/47/5 132/48/5 131/44/5
f 137/43/6 135/44/6 136/48/6 138/47/6
f 141/43/3 142/47/3 140/48/3 139/44/3
f 145/43/3 146/47/3 144/48/3 143/44/3
f 150/49/1 149/50/1 147/51/1 148/52/1
f 154/49/3 152/52/3 151/51/3 153/50/3
f 157/53/5 158/54/5 156/55/5 155/56/5
f 161/53/6 159/56/6 160/55/6 162/54/6
f 163/57/2 164/58/2 166/59/2 165/60/2
f 167/57/6 169/60/6 170/59/6 168/58/6
f 171/57/5 172/58/5 174/59/5 173/60/5
f 175/57/2 176/58/2 178/59/2 177/60/2
f 179/57/6 181/60/6 182/59/6 180/58/6
f 183/57/5 184/58/5 186/59/5 185/60/5
f 187/61/2 188/62/2 190/63/2 189/64/2
f 191/65/2 192/66/2 194/64/2 193/30/2
f 195/67/1 196/68/1 198/69/1 197/70/1
f 199/71/2 200/72/2 202/73/2 201/74/2
f 31/18/3 206/75/3 203/76/3 84/19/3
f 211/77/3 209/78/3 210/79/3 212/80/3
f 205/77/3 208/78/3 207/79/3 204/80/3
f 86/25/4 85/29/4 214/30/4 213/31/4
f 215/32/4 216/33/4 218/34/4 217/35/4
f 226/36/4 220/37/4 219/38/4 225/39/4
f 224/40/4 230/41/4 227/36/4 221/42/4
f 228/43/6 222/44/6 223/45/6 229/46/6
f 233/43/5 234/46/5 232/45/5 231/44/5
f 238/40/4 242/41/4 239/36/4 235/42/4
f 240/43/6 236/44/6 237/45/6 241/46/6
f 245/43/5 246/46/5 244/45/5 243/44/5
f 250/40/4 254/41/4 251/36/4 247/42/4
f 252/43/3 248/44/3 249/45/3 253/46/3
f 257/43/1 258/46/1 256/45/1 255/44/1
f 261/43/6 262/47/6 260/48/6 259/44/6
f 265/43/5 263/44/5 264/48/5 266/47/5
f 269/43/3 270/47/3 268/48/3 267/44/3
f 273/43/3 274/47/3 272/48/3 271/44/3
f 278/49/1 277/50/1 275/51/1 276/52/1
f 282/49/3 280/52/3 279/51/3 281/50/3
f 285/53/6 286/54/6 284/55/6 283/56/6
f 289/53/5 287/56/5 288/55/5 290/54/5
f 291/57/4 292/58/4 294/59/4 293/60/4
f 295/57/5 297/60/5 298/59/5 296/58/5
f 299/57/6 300/58/6 302/59/6 301/60/6
f 303/57/4 304/58/4 306/59/4 305/60/4
f 307/57/5 309/60/5 310/59/5 308/58/5
f 311/57/6 312/58/6 314/59/6 313/60/6
f 315/61/4 316/62/4 318/63/4 317/64/4
f 319/65/4 320/66/4 322/64/4 321/30/4
f 323/67/1 324/68/1 326/69/1 325/70/1
f 327/71/4 328/72/4 330/73/4 329/74/4
f 337/77/3 335/78/3 336/79/3 338/80/3
f 332/77/3 334/78/3 333/79/3 331/80/3
