# Blender 4.0.2
# www.blender.org
mtllib Wall_3_Connector_02.mtl
o Wall_3_Connector_02
v -0.500000 0.000000 0.500000
v 0.500000 0.000000 0.500000
v -0.500000 0.000000 -0.500000
v 0.500000 0.000000 -0.500000
v -0.500000 0.000000 0.500000
v 0.500000 0.000000 0.500000
v -0.500000 0.250000 0.500000
v 0.500000 0.250000 0.500000
v -0.500000 0.250000 0.250000
v 0.500000 0.250000 0.250000
v -0.500000 0.250000 0.500000
v 0.500000 0.250000 0.500000
v -0.500000 0.000000 0.250000
v 0.500000 0.000000 0.250000
v -0.500000 2.000000 0.250000
v 0.500000 2.000000 0.250000
v 0.500000 0.000000 -0.250000
v -0.500000 0.000000 -0.250000
v 0.500000 2.000000 -0.250000
v -0.500000 2.000000 -0.250000
v -0.500000 2.000000 0.500000
v 0.500000 2.000000 0.500000
v -0.500000 2.000000 -0.500000
v 0.500000 2.000000 -0.500000
v -0.500000 2.000000 0.000000
v 0.500000 2.000000 0.000000
v -0.500000 1.750000 0.500000
v 0.500000 1.750000 0.500000
v -0.500000 2.000000 0.500000
v 0.500000 2.000000 0.500000
v -0.500000 1.750000 0.250000
v 0.500000 1.750000 0.250000
v -0.500000 1.750000 0.500000
v 0.500000 1.750000 0.500000
v 0.500000 1.750000 -0.250000
v -0.500000 1.750000 -0.250000
v 0.500000 1.750000 -0.500000
v -0.500000 1.750000 -0.500000
v 0.250000 0.000000 -0.250000
v 0.250000 0.000000 -0.500000
v 0.250000 2.000000 -0.250000
v 0.250000 2.000000 -0.500000
v -0.250000 0.000000 -0.250000
v -0.250000 0.000000 -0.500000
v -0.250000 2.000000 -0.250000
v -0.250000 2.000000 -0.500000
v 0.250000 0.250000 -0.250000
v 0.500000 0.250000 -0.250000
v 0.250000 0.250000 -0.500000
v 0.500000 0.250000 -0.500000
v -0.500000 0.250000 -0.250000
v -0.250000 0.250000 -0.250000
v -0.500000 0.250000 -0.500000
v -0.250000 0.250000 -0.500000
v -1.500000 0.000000 -0.250000
v -1.500000 0.000000 -0.500000
v -1.500000 0.250000 -0.250000
v -1.500000 0.250000 -0.500000
v -1.500000 0.000000 0.500000
v -1.500000 0.000000 0.250000
v -1.500000 0.250000 0.500000
v -1.500000 0.250000 0.250000
v 0.500000 0.000000 0.500000
v 0.500000 0.000000 0.250000
v 0.500000 0.250000 0.500000
v 0.500000 0.250000 0.250000
v 0.500000 0.000000 -0.250000
v 0.500000 0.000000 -0.500000
v 0.500000 0.250000 -0.250000
v 0.500000 0.250000 -0.500000
v 0.500000 0.000000 0.250000
v 0.500000 0.000000 -0.250000
v 0.500000 2.000000 0.250000
v 0.500000 2.000000 -0.250000
v -1.500000 0.000000 0.250000
v -1.500000 0.000000 -0.250000
v -1.500000 2.000000 0.250000
v -1.500000 2.000000 -0.250000
v -1.500000 1.750000 -0.250000
v -1.500000 1.750000 -0.500000
v -1.500000 2.000000 -0.250000
v -1.500000 2.000000 -0.500000
v -1.500000 1.750000 0.500000
v -1.500000 1.750000 0.250000
v -1.500000 2.000000 0.500000
v -1.500000 2.000000 0.250000
v 0.500000 1.750000 0.500000
v 0.500000 1.750000 0.250000
v 0.500000 2.000000 0.500000
v 0.500000 2.000000 0.250000
v 0.500000 1.750000 -0.250000
v 0.500000 1.750000 -0.500000
v 0.500000 2.000000 -0.250000
v 0.500000 2.000000 -0.500000
v -1.500000 0.000000 0.500000
v -0.500000 0.000000 0.500000
v -1.500000 0.000000 -0.500000
v -0.500000 0.000000 -0.500000
v -1.500000 0.000000 0.500000
v -0.500000 0.000000 0.500000
v -1.500000 0.250000 0.500000
v -0.500000 0.250000 0.500000
v -1.500000 0.250000 0.250000
v -0.500000 0.250000 0.250000
v -1.500000 0.250000 0.500000
v -0.500000 0.250000 0.500000
v -0.500000 0.000000 -0.500000
v -1.500000 0.000000 -0.500000
v -0.500000 0.250000 -0.500000
v -1.500000 0.250000 -0.500000
v -0.500000 0.250000 -0.250000
v -1.500000 0.250000 -0.250000
v -0.500000 0.250000 -0.500000
v -1.500000 0.250000 -0.500000
v -0.500000 2.000000 -0.250000
v -0.500000 0.000000 -0.250000
v -1.500000 2.000000 -0.250000
v -1.500000 0.000000 -0.250000
v -1.500000 2.000000 0.250000
v -1.500000 0.000000 0.250000
v -0.500000 2.000000 0.250000
v -0.500000 0.000000 0.250000
v -0.500000 2.000000 0.500000
v -0.500000 2.000000 -0.500000
v -1.500000 2.000000 0.500000
v -1.500000 2.000000 -0.500000
v -1.500000 1.750000 0.500000
v -0.500000 1.750000 0.500000
v -1.500000 2.000000 0.500000
v -0.500000 2.000000 0.500000
v -1.500000 1.750000 -0.500000
v -0.500000 1.750000 -0.500000
v -1.500000 2.000000 -0.500000
v -0.500000 2.000000 -0.500000
v -1.500000 1.750000 0.250000
v -0.500000 1.750000 0.250000
v -1.500000 1.750000 0.500000
v -0.500000 1.750000 0.500000
v -0.500000 1.750000 -0.250000
v -1.500000 1.750000 -0.250000
v -0.500000 1.750000 -0.500000
v -1.500000 1.750000 -0.500000
v 1.500000 0.000000 0.250000
v 1.500000 0.000000 0.500000
v 1.500000 0.250000 0.250000
v 1.500000 0.250000 0.500000
v 1.500000 0.000000 -0.500000
v 1.500000 0.000000 -0.250000
v 1.500000 0.250000 -0.500000
v 1.500000 0.250000 -0.250000
v 1.500000 0.000000 -0.250000
v 1.500000 0.000000 0.250000
v 1.500000 2.000000 -0.250000
v 1.500000 2.000000 0.250000
v 1.500000 1.750000 0.250000
v 1.500000 1.750000 0.500000
v 1.500000 2.000000 0.250000
v 1.500000 2.000000 0.500000
v 1.500000 1.750000 -0.500000
v 1.500000 1.750000 -0.250000
v 1.500000 2.000000 -0.500000
v 1.500000 2.000000 -0.250000
v 1.500000 0.000000 -0.500000
v 0.500000 0.000000 -0.500000
v 1.500000 0.000000 0.500000
v 0.500000 0.000000 0.500000
v 1.500000 0.000000 -0.500000
v 0.500000 0.000000 -0.500000
v 1.500000 0.250000 -0.500000
v 0.500000 0.250000 -0.500000
v 1.500000 0.250000 -0.250000
v 0.500000 0.250000 -0.250000
v 1.500000 0.250000 -0.500000
v 0.500000 0.250000 -0.500000
v 0.500000 0.000000 0.500000
v 1.500000 0.000000 0.500000
v 0.500000 0.250000 0.500000
v 1.500000 0.250000 0.500000
v 0.500000 0.250000 0.250000
v 1.500000 0.250000 0.250000
v 0.500000 0.250000 0.500000
v 1.500000 0.250000 0.500000
v 0.500000 2.000000 0.250000
v 0.500000 0.000000 0.250000
v 1.500000 2.000000 0.250000
v 1.500000 0.000000 0.250000
v 1.500000 2.000000 -0.250000
v 1.500000 0.000000 -0.250000
v 0.500000 2.000000 -0.250000
v 0.500000 0.000000 -0.250000
v 0.500000 2.000000 -0.500000
v 0.500000 2.000000 0.500000
v 1.500000 2.000000 -0.500000
v 1.500000 2.000000 0.500000
v 1.500000 1.750000 -0.500000
v 0.500000 1.750000 -0.500000
v 1.500000 2.000000 -0.500000
v 0.500000 2.000000 -0.500000
v 1.500000 1.750000 0.500000
v 0.500000 1.750000 0.500000
v 1.500000 2.000000 0.500000
v 0.500000 2.000000 0.500000
v 1.500000 1.750000 -0.250000
v 0.500000 1.750000 -0.250000
v 1.500000 1.750000 -0.500000
v 0.500000 1.750000 -0.500000
v 0.500000 1.750000 0.250000
v 1.500000 1.750000 0.250000
v 0.500000 1.750000 0.500000
v 1.500000 1.750000 0.500000
v 0.250000 0.000000 -1.500000
v 0.500000 0.000000 -1.500000
v 0.250000 0.250000 -1.500000
v 0.500000 0.250000 -1.500000
v -0.500000 0.000000 -1.500000
v -0.250000 0.000000 -1.500000
v -0.500000 0.250000 -1.500000
v -0.250000 0.250000 -1.500000
v -0.250000 0.000000 -1.500000
v 0.250000 0.000000 -1.500000
v -0.250000 2.000000 -1.500000
v 0.250000 2.000000 -1.500000
v 0.250000 1.750000 -1.500000
v 0.500000 1.750000 -1.500000
v 0.250000 2.000000 -1.500000
v 0.500000 2.000000 -1.500000
v -0.500000 1.750000 -1.500000
v -0.250000 1.750000 -1.500000
v -0.500000 2.000000 -1.500000
v -0.250000 2.000000 -1.500000
v -0.500000 0.000000 -1.500000
v -0.500000 0.000000 -0.500000
v 0.500000 0.000000 -1.500000
v 0.500000 0.000000 -0.500000
v -0.500000 0.000000 -1.500000
v -0.500000 0.000000 -0.500000
v -0.500000 0.250000 -1.500000
v -0.500000 0.250000 -0.500000
v -0.250000 0.250000 -1.500000
v -0.250000 0.250000 -0.500000
v -0.500000 0.250000 -1.500000
v -0.500000 0.250000 -0.500000
v 0.500000 0.000000 -0.500000
v 0.500000 0.000000 -1.500000
v 0.500000 0.250000 -0.500000
v 0.500000 0.250000 -1.500000
v 0.250000 0.250000 -0.500000
v 0.250000 0.250000 -1.500000
v 0.500000 0.250000 -0.500000
v 0.500000 0.250000 -1.500000
v 0.250000 2.000000 -0.500000
v 0.250000 0.000000 -0.500000
v 0.250000 2.000000 -1.500000
v 0.250000 0.000000 -1.500000
v -0.250000 2.000000 -1.500000
v -0.250000 0.000000 -1.500000
v -0.250000 2.000000 -0.500000
v -0.250000 0.000000 -0.500000
v -0.500000 2.000000 -0.500000
v 0.500000 2.000000 -0.500000
v -0.500000 2.000000 -1.500000
v 0.500000 2.000000 -1.500000
v -0.500000 1.750000 -1.500000
v -0.500000 1.750000 -0.500000
v -0.500000 2.000000 -1.500000
v -0.500000 2.000000 -0.500000
v 0.500000 1.750000 -1.500000
v 0.500000 1.750000 -0.500000
v 0.500000 2.000000 -1.500000
v 0.500000 2.000000 -0.500000
v -0.250000 1.750000 -1.500000
v -0.250000 1.750000 -0.500000
v -0.500000 1.750000 -1.500000
v -0.500000 1.750000 -0.500000
v 0.250000 1.750000 -0.500000
v 0.250000 1.750000 -1.500000
v 0.500000 1.750000 -0.500000
v 0.500000 1.750000 -1.500000
vn -0.0000 -1.0000 -0.0000
vn -0.0000 -0.0000 1.0000
vn -0.0000 1.0000 -0.0000
vn -0.0000 -0.0000 -1.0000
vn 1.0000 -0.0000 -0.0000
vn -1.0000 -0.0000 -0.0000
vt 0.858974 0.348684
vt 0.858974 0.453947
vt 0.961538 0.453947
vt 0.961538 0.348684
vt 0.006410 0.427632
vt 0.108974 0.427632
vt 0.108974 0.453947
vt 0.006410 0.453947
vt 0.108974 0.486842
vt 0.108974 0.460526
vt 0.006410 0.460526
vt 0.006410 0.486842
vt 0.006410 0.493421
vt 0.108974 0.493421
vt 0.108974 0.703947
vt 0.006410 0.703947
vt 0.006410 0.934211
vt 0.108974 0.934211
vt 0.108974 0.986842
vt 0.006410 0.986842
vt 0.006410 0.888158
vt 0.108974 0.888158
vt 0.108974 0.940789
vt 0.006410 0.940789
vt 0.006410 0.835526
vt 0.108974 0.835526
vt 0.108974 0.861842
vt 0.006410 0.861842
vt 0.108974 0.861842
vt 0.006410 0.861842
vt 0.006410 0.835526
vt 0.108974 0.835526
vt 0.032051 0.493421
vt 0.057692 0.493421
vt 0.057692 0.703947
vt 0.032051 0.703947
vt 0.025641 0.493421
vt 0.025641 0.703947
vt 0.051282 0.703947
vt 0.051282 0.493421
vt 0.224359 0.394737
vt 0.250000 0.394737
vt 0.250000 0.421053
vt 0.224359 0.421053
vt 0.224359 0.427632
vt 0.224359 0.453947
vt 0.250000 0.453947
vt 0.250000 0.427632
vt 0.211538 0.493421
vt 0.211538 0.703947
vt 0.064103 0.993421
vt 0.064103 0.888158
vt 0.166667 0.888158
vt 0.166667 0.993421
s 0
usemtl mFD_Dungeon
f 1/1/1 3/2/1 4/3/1 2/4/1
f 5/5/2 6/6/2 8/7/2 7/8/2
f 9/9/3 11/10/3 12/11/3 10/12/3
f 13/13/2 14/14/2 16/15/2 15/16/2
f 17/13/4 18/14/4 20/15/4 19/16/4
f 25/17/3 26/18/3 24/19/3 23/20/3
f 21/21/3 22/22/3 26/23/3 25/24/3
f 27/25/2 28/26/2 30/27/2 29/28/2
f 31/29/1 32/30/1 34/31/1 33/32/1
f 35/29/1 36/30/1 38/31/1 37/32/1
f 39/33/5 40/34/5 42/35/5 41/36/5
f 43/37/6 45/38/6 46/39/6 44/40/6
f 47/41/3 48/42/3 50/43/3 49/44/3
f 51/41/3 52/42/3 54/43/3 53/44/3
f 55/45/6 57/46/6 58/47/6 56/48/6
f 59/45/6 61/46/6 62/47/6 60/48/6
f 63/45/5 64/48/5 66/47/5 65/46/5
f 67/45/5 68/48/5 70/47/5 69/46/5
f 71/13/5 72/34/5 74/35/5 73/16/5
f 75/13/6 77/16/6 78/35/6 76/34/6
f 79/45/6 81/46/6 82/47/6 80/48/6
f 83/45/6 85/46/6 86/47/6 84/48/6
f 87/45/5 88/48/5 90/47/5 89/46/5
f 91/45/5 92/48/5 94/47/5 93/46/5
f 95/1/1 97/2/1 98/3/1 96/4/1
f 99/5/2 100/6/2 102/7/2 101/8/2
f 103/9/3 105/10/3 106/11/3 104/12/3
f 107/5/4 108/6/4 110/7/4 109/8/4
f 111/9/3 113/10/3 114/11/3 112/12/3
f 118/49/4 117/50/4 115/15/4 116/14/4
f 122/49/2 121/50/2 119/15/2 120/14/2
f 123/51/3 124/52/3 126/53/3 125/54/3
f 127/25/2 128/26/2 130/27/2 129/28/2
f 131/25/4 133/28/4 134/27/4 132/26/4
f 135/29/1 136/30/1 138/31/1 137/32/1
f 139/29/1 140/30/1 142/31/1 141/32/1
f 143/45/5 145/46/5 146/47/5 144/48/5
f 147/45/5 149/46/5 150/47/5 148/48/5
f 151/13/5 153/16/5 154/35/5 152/34/5
f 155/45/5 157/46/5 158/47/5 156/48/5
f 159/45/5 161/46/5 162/47/5 160/48/5
f 163/1/1 165/2/1 166/3/1 164/4/1
f 167/5/4 168/6/4 170/7/4 169/8/4
f 171/9/3 173/10/3 174/11/3 172/12/3
f 175/5/2 176/6/2 178/7/2 177/8/2
f 179/9/3 181/10/3 182/11/3 180/12/3
f 186/49/2 185/50/2 183/15/2 184/14/2
f 190/49/4 189/50/4 187/15/4 188/14/4
f 191/51/3 192/52/3 194/53/3 193/54/3
f 195/25/4 196/26/4 198/27/4 197/28/4
f 199/25/2 201/28/2 202/27/2 200/26/2
f 203/29/1 204/30/1 206/31/1 205/32/1
f 207/29/1 208/30/1 210/31/1 209/32/1
f 211/45/4 213/46/4 214/47/4 212/48/4
f 215/45/4 217/46/4 218/47/4 216/48/4
f 219/13/4 221/16/4 222/35/4 220/34/4
f 223/45/4 225/46/4 226/47/4 224/48/4
f 227/45/4 229/46/4 230/47/4 228/48/4
f 231/1/1 233/2/1 234/3/1 232/4/1
f 235/5/6 236/6/6 238/7/6 237/8/6
f 239/9/3 241/10/3 242/11/3 240/12/3
f 243/5/5 244/6/5 246/7/5 245/8/5
f 247/9/3 249/10/3 250/11/3 248/12/3
f 254/49/5 253/50/5 251/15/5 252/14/5
f 258/49/6 257/50/6 255/15/6 256/14/6
f 259/51/3 260/52/3 262/53/3 261/54/3
f 263/25/6 264/26/6 266/27/6 265/28/6
f 267/25/5 269/28/5 270/27/5 268/26/5
f 271/29/1 272/30/1 274/31/1 273/32/1
f 275/29/1 276/30/1 278/31/1 277/32/1
