# Blender 4.0.2
# www.blender.org
mtllib Fortress_Window_04.mtl
o Fortress_Window_04
v -0.500000 0.750000 -0.125000
v -0.500000 0.875000 -0.125000
v -0.500000 0.750000 0.125000
v -0.500000 0.875000 0.125000
v 0.500000 0.750000 -0.125000
v 0.500000 0.875000 -0.125000
v 0.500000 0.750000 0.125000
v 0.500000 0.875000 0.125000
v 0.250000 1.000000 -0.125000
v 0.000000 1.000000 -0.125000
v -0.250000 1.000000 -0.125000
v -0.250000 0.875000 -0.125000
v 0.000000 0.875000 -0.125000
v 0.250000 0.875000 -0.125000
v -0.250000 0.875000 -0.125000
v 0.000000 0.875000 -0.125000
v 0.250000 0.875000 -0.125000
v 0.250000 0.875000 0.125000
v 0.000000 0.875000 0.125000
v -0.250000 0.875000 0.125000
v 0.250000 1.000000 0.125000
v 0.000000 1.000000 0.125000
v -0.250000 1.000000 0.125000
v -0.250000 1.000000 -0.125000
v 0.000000 1.000000 -0.125000
v 0.250000 1.000000 -0.125000
v -0.250000 0.875000 0.125000
v 0.000000 0.875000 0.125000
v 0.250000 0.875000 0.125000
v 0.250000 1.000000 0.125000
v 0.500000 0.250000 -0.125000
v -0.500000 0.250000 -0.125000
v -0.500000 0.250000 0.125000
v 0.500000 0.250000 0.125000
v -0.500000 0.125000 -0.125000
v 0.500000 0.125000 0.125000
v -0.500000 0.125000 0.125000
v 0.500000 0.125000 -0.125000
v -0.500000 0.125000 0.125000
v -0.500000 0.125000 -0.125000
v 0.500000 0.125000 0.125000
v 0.500000 0.125000 -0.125000
v -0.500000 0.250000 0.125000
v -0.500000 0.250000 -0.125000
v 0.500000 0.250000 0.125000
v 0.500000 0.250000 -0.125000
v 0.500000 0.250000 0.125000
v 0.500000 0.125000 0.125000
v 0.500000 0.250000 -0.125000
v 0.500000 0.125000 -0.125000
v -0.500000 0.250000 0.125000
v -0.500000 0.125000 0.125000
v -0.500000 0.250000 -0.125000
v -0.500000 0.125000 -0.125000
v 0.000000 1.000000 0.125000
v -0.250000 1.000000 0.125000
v 0.500000 0.875000 -0.125000
v 0.500000 0.875000 0.125000
v -0.500000 0.875000 -0.125000
v -0.500000 0.875000 0.125000
v 0.500000 0.750000 -0.125000
v 0.500000 0.750000 0.125000
v -0.500000 0.750000 -0.125000
v -0.500000 0.750000 0.125000
v 0.500000 0.750000 -0.125000
v -0.500000 0.750000 0.125000
v 0.500000 0.875000 0.125000
v -0.500000 0.875000 0.125000
v 0.500000 0.750000 0.125000
v -0.500000 0.750000 -0.125000
v -0.500000 0.875000 -0.125000
v 0.500000 0.875000 -0.125000
v -0.125000 0.125000 0.125000
v -0.187500 0.125000 0.125000
v 0.312500 0.875000 0.062500
v 0.312500 0.125000 0.062500
v -0.312500 0.125000 0.125000
v -0.312500 0.125000 -0.125000
v -0.312500 0.875000 0.125000
v -0.312500 0.875000 -0.125000
v -0.437500 0.125000 0.125000
v -0.437500 0.125000 -0.125000
v -0.437500 0.875000 0.125000
v -0.437500 0.875000 -0.125000
v -0.125000 0.875000 0.125000
v -0.187500 0.875000 0.125000
v -0.312500 0.875000 0.062500
v -0.312500 0.125000 0.062500
v 0.437500 0.125000 0.125000
v 0.437500 0.125000 -0.125000
v 0.437500 0.875000 0.125000
v 0.437500 0.875000 -0.125000
v 0.312500 0.125000 0.125000
v 0.312500 0.125000 -0.125000
v 0.312500 0.875000 0.125000
v 0.312500 0.875000 -0.125000
v -0.312500 0.843750 -0.125000
v -0.312500 0.843750 0.125000
v -0.437500 0.781250 0.125000
v -0.312500 0.843750 -0.125000
v -0.312500 0.843750 0.125000
v -0.440082 0.779959 0.125000
v -0.437500 0.781250 -0.125000
v -0.437500 0.781250 -0.125000
v -0.437500 0.781250 0.125000
v -0.440082 0.779959 -0.125000
v 0.312500 0.843750 0.125000
v 0.437500 0.781250 -0.125000
v 0.437500 0.781250 0.125000
v 0.437500 0.781250 -0.125000
v 0.442638 0.778681 -0.125000
v 0.437500 0.781250 0.125000
v 0.312500 0.843750 0.125000
v 0.442638 0.778681 0.125000
v 0.312500 0.843750 -0.125000
v 0.312500 0.843750 -0.125000
v 0.187500 0.125000 0.125000
v 0.125000 0.125000 0.125000
v 0.187500 0.875000 0.125000
v 0.125000 0.875000 0.125000
v -0.125000 0.125000 0.062500
v -0.125000 0.125000 0.125000
v -0.125000 0.875000 0.062500
v -0.125000 0.875000 0.125000
v -0.187500 0.125000 0.062500
v -0.187500 0.125000 0.125000
v -0.187500 0.875000 0.062500
v -0.187500 0.875000 0.125000
v 0.187500 0.125000 0.062500
v 0.187500 0.125000 0.125000
v 0.187500 0.875000 0.062500
v 0.187500 0.875000 0.125000
v 0.125000 0.125000 0.062500
v 0.125000 0.125000 0.125000
v 0.125000 0.875000 0.062500
v 0.125000 0.875000 0.125000
v -0.312500 0.562500 0.125000
v -0.312500 0.625000 0.125000
v 0.312500 0.562500 0.125000
v 0.312500 0.625000 0.125000
v -0.312500 0.562500 0.062500
v -0.312500 0.562500 0.125000
v 0.312500 0.562500 0.062500
v 0.312500 0.562500 0.125000
v -0.312500 0.625000 0.062500
v -0.312500 0.625000 0.125000
v 0.312500 0.625000 0.062500
v 0.312500 0.625000 0.125000
v 0.250000 0.562500 0.125000
v 0.187500 0.562500 0.125000
v 0.125000 0.562500 0.125000
v 0.062500 0.562500 0.125000
v 0.000000 0.562500 0.125000
v -0.062500 0.562500 0.125000
v -0.125000 0.562500 0.125000
v -0.187500 0.562500 0.125000
v -0.250000 0.562500 0.125000
v -0.250000 0.625000 0.125000
v -0.187500 0.625000 0.125000
v -0.125000 0.625000 0.125000
v -0.062500 0.625000 0.125000
v 0.000000 0.625000 0.125000
v 0.062500 0.625000 0.125000
v 0.125000 0.625000 0.125000
v 0.187500 0.625000 0.125000
v 0.250000 0.625000 0.125000
v -0.312500 0.312500 0.125000
v -0.312500 0.375000 0.125000
v 0.312500 0.312500 0.125000
v 0.312500 0.375000 0.125000
v -0.312500 0.312500 0.062500
v -0.312500 0.312500 0.125000
v 0.312500 0.312500 0.062500
v 0.312500 0.312500 0.125000
v -0.312500 0.375000 0.062500
v -0.312500 0.375000 0.125000
v 0.312500 0.375000 0.062500
v 0.312500 0.375000 0.125000
v 0.250000 0.312500 0.125000
v 0.187500 0.312500 0.125000
v 0.125000 0.312500 0.125000
v 0.062500 0.312500 0.125000
v 0.000000 0.312500 0.125000
v -0.062500 0.312500 0.125000
v -0.125000 0.312500 0.125000
v -0.187500 0.312500 0.125000
v -0.250000 0.312500 0.125000
v -0.250000 0.375000 0.125000
v -0.187500 0.375000 0.125000
v -0.125000 0.375000 0.125000
v -0.062500 0.375000 0.125000
v 0.000000 0.375000 0.125000
v 0.062500 0.375000 0.125000
v 0.125000 0.375000 0.125000
v 0.187500 0.375000 0.125000
v 0.250000 0.375000 0.125000
v 0.312500 0.875000 -0.062500
v 0.312500 0.125000 -0.062500
v -0.312500 0.875000 -0.062500
v -0.312500 0.125000 -0.062500
v 0.250000 0.000000 -0.125000
v 0.000000 0.000000 -0.125000
v -0.250000 0.000000 -0.125000
v -0.250000 0.000000 0.125000
v 0.000000 0.000000 0.125000
v 0.250000 0.000000 0.125000
v -0.250000 0.125000 0.125000
v 0.000000 0.125000 0.125000
v 0.250000 0.125000 0.125000
v 0.250000 0.125000 -0.125000
v 0.000000 0.125000 -0.125000
v -0.250000 0.125000 -0.125000
v -0.250000 0.125000 0.125000
v 0.000000 0.125000 0.125000
v 0.250000 0.125000 0.125000
v 0.250000 0.000000 0.125000
v 0.000000 0.000000 0.125000
v -0.250000 0.000000 0.125000
v -0.250000 0.125000 -0.125000
v 0.000000 0.125000 -0.125000
v 0.250000 0.125000 -0.125000
v 0.250000 0.000000 -0.125000
v 0.000000 0.000000 -0.125000
v -0.250000 0.000000 -0.125000
v 0.437500 0.218750 -0.125000
v 0.312500 0.156250 0.125000
v 0.437500 0.218750 -0.125000
v 0.437500 0.218750 0.125000
v 0.441107 0.220554 0.125000
v 0.437500 0.218750 0.125000
v 0.312500 0.156250 -0.125000
v 0.312500 0.156250 -0.125000
v 0.441107 0.220554 -0.125000
v 0.312500 0.156250 0.125000
v -0.312500 0.156250 0.125000
v -0.441469 0.220735 0.125000
v -0.312500 0.156250 -0.125000
v -0.437500 0.218750 -0.125000
v -0.437500 0.218750 -0.125000
v -0.437500 0.218750 0.125000
v -0.306663 0.153332 -0.125000
v -0.437500 0.218750 0.125000
v -0.312500 0.156250 -0.125000
v -0.312500 0.156250 0.125000
vn -0.0000 -0.0000 -1.0000
vn -0.0000 -1.0000 -0.0000
vn 0.4472 -0.8944 -0.0000
vn -0.0000 1.0000 -0.0000
vn -0.4472 0.8944 -0.0000
vn -0.0000 -0.0000 1.0000
vn 1.0000 -0.0000 -0.0000
vn -1.0000 -0.0000 -0.0000
vn 0.4472 0.8944 -0.0000
vn -0.4472 -0.8944 -0.0000
vt 0.817073 0.327160
vt 0.841463 0.327160
vt 0.841463 0.314815
vt 0.817073 0.314815
vt 0.707317 0.308642
vt 0.682927 0.308642
vt 0.682927 0.283951
vt 0.707317 0.283951
vt 0.707317 0.333333
vt 0.682927 0.333333
vt 0.707317 0.358025
vt 0.682927 0.358025
vt 0.682927 0.352107
vt 0.707317 0.352107
vt 0.865854 0.333333
vt 0.841463 0.333333
vt 0.841463 0.358025
vt 0.865854 0.358025
vt 0.890244 0.333333
vt 0.890244 0.358025
vt 0.914634 0.333333
vt 0.914634 0.358025
vt 0.890244 0.327160
vt 0.914634 0.327160
vt 0.914634 0.314815
vt 0.890244 0.314815
vt 0.682927 0.259259
vt 0.707317 0.259259
vt 0.822819 0.333333
vt 0.822819 0.358025
vt 0.817073 0.327161
vt 0.817073 0.314815
vt 0.841463 0.314815
vt 0.841463 0.327161
vt 0.865854 0.327160
vt 0.865854 0.314815
vt 0.817073 0.333333
vt 0.817073 0.358025
vt 0.682927 0.264925
vt 0.707317 0.264925
vt 0.707317 0.263374
vt 0.682927 0.263374
vt 0.707317 0.271605
vt 0.682927 0.271605
vt 0.707317 0.271605
vt 0.682927 0.271605
vt 0.682927 0.263374
vt 0.621951 0.271605
vt 0.621951 0.345679
vt 0.628049 0.345679
vt 0.628049 0.271605
vt 0.682927 0.353909
vt 0.707317 0.353909
vt 0.682927 0.345679
vt 0.707317 0.345679
vt 0.707317 0.353909
vt 0.786585 0.259259
vt 0.713415 0.259259
vt 0.713415 0.333333
vt 0.786585 0.333333
vt 0.682927 0.345679
vt 0.707317 0.345679
vt 0.835366 0.246914
vt 0.896341 0.246914
vt 0.896341 0.240741
vt 0.835366 0.240741
vt 0.890244 0.240741
vt 0.890244 0.246914
vt 0.884146 0.246914
vt 0.884146 0.240741
vt 0.853658 0.246914
vt 0.853659 0.240741
vt 0.859756 0.240741
vt 0.865854 0.240741
vt 0.871951 0.240741
vt 0.878049 0.240741
vt 0.878049 0.246914
vt 0.871951 0.246914
vt 0.865854 0.246914
vt 0.859756 0.246914
vt 0.841463 0.240741
vt 0.847561 0.240741
vt 0.847561 0.246914
vt 0.841463 0.246914
vt 0.908924 0.333333
vt 0.895772 0.358025
vt 0.689024 0.263374
vt 0.701219 0.271605
vt 0.701219 0.345679
vt 0.689024 0.353909
vt 0.689024 0.353909
vt 0.689024 0.271605
vt 0.689024 0.345679
vt 0.701219 0.353909
vt 0.701219 0.263374
vt 0.689024 0.271605
vt 0.689024 0.345679
s 0
usemtl mFG_Fortress
f 71/1/1 11/2/1 12/3/1 70/4/1
f 19/5/2 16/6/2 17/7/2 18/8/2
f 20/9/2 15/10/2 16/6/2 19/5/2
f 64/11/3 63/12/3 106/13/3 102/14/3
f 22/15/4 21/16/4 26/17/4 25/18/4
f 23/19/4 22/15/4 25/18/4 24/20/4
f 60/21/5 23/19/5 24/20/5 59/22/5
f 221/23/1 31/24/1 38/25/1 222/26/1
f 206/8/3 201/7/3 42/27/3 41/28/3
f 215/23/6 216/26/6 36/25/6 34/24/6
f 209/16/5 229/29/5 233/30/5 210/17/5
f 47/31/7 48/32/7 50/33/7 49/34/7
f 51/31/8 53/34/8 54/33/8 52/32/8
f 4/31/8 2/34/8 1/33/8 3/32/8
f 8/31/7 7/32/7 5/33/7 6/34/7
f 55/35/6 28/36/6 29/26/6 30/23/6
f 56/2/6 27/3/6 28/36/6 55/35/6
f 68/1/6 66/4/6 27/3/6 56/2/6
f 10/35/1 9/23/1 14/26/1 13/36/1
f 21/16/9 58/37/9 57/38/9 26/17/9
f 30/23/6 29/26/6 69/25/6 67/24/6
f 11/2/1 10/35/1 13/36/1 12/3/1
f 18/8/10 17/7/10 111/39/10 114/40/10
f 9/23/1 72/24/1 65/25/1 14/26/1
f 77/27/7 78/28/7 237/41/7 235/42/7
f 81/27/7 82/28/7 239/43/7 242/44/7
f 89/27/7 90/28/7 225/45/7 228/46/7
f 93/27/7 94/28/7 231/41/7 226/47/7
f 126/48/8 128/49/8 127/50/8 125/51/8
f 118/48/6 117/51/6 119/50/6 120/49/6
f 74/48/6 73/51/6 85/50/6 86/49/6
f 101/52/7 100/53/7 80/11/7 79/12/7
f 102/14/3 106/13/3 15/10/3 20/9/3
f 99/54/7 104/55/7 84/11/7 83/12/7
f 113/52/7 116/56/7 96/11/7 95/12/7
f 122/48/7 121/51/7 123/50/7 124/49/7
f 114/40/10 111/39/10 61/27/10 62/28/10
f 88/57/6 76/58/6 75/59/6 87/60/6
f 109/61/7 108/62/7 92/11/7 91/12/7
f 134/48/8 136/49/8 135/50/8 133/51/8
f 130/48/7 129/51/7 131/50/7 132/49/7
f 176/63/4 178/64/4 177/65/4 175/66/4
f 146/63/4 148/64/4 147/65/4 145/66/4
f 142/63/2 141/66/2 143/65/2 144/64/2
f 179/67/6 169/65/6 170/64/6 196/68/6 195/69/6 180/70/6
f 149/67/6 139/65/6 140/64/6 166/68/6 165/69/6 150/70/6
f 200/57/1 199/60/1 197/59/1 198/58/1
f 190/71/6 185/72/6 184/73/6 183/74/6 182/75/6 181/76/6 194/77/6 193/78/6 192/79/6 191/80/6
f 168/63/6 167/66/6 187/81/6 186/82/6 189/83/6 188/84/6
f 138/63/6 137/66/6 157/81/6 156/82/6 159/83/6 158/84/6
f 160/71/6 155/72/6 154/73/6 153/74/6 152/75/6 151/76/6 164/77/6 163/78/6 162/79/6 161/80/6
f 172/63/2 171/66/2 173/65/2 174/64/2
f 39/11/10 40/12/10 203/10/10 204/9/10
f 204/9/2 203/10/2 202/6/2 205/5/2
f 205/5/2 202/6/2 201/7/2 206/8/2
f 43/21/9 236/85/9 241/86/9 44/22/9
f 207/19/4 208/15/4 211/18/4 212/20/4
f 208/15/4 209/16/4 210/17/4 211/18/4
f 33/1/6 37/4/6 218/3/6 213/2/6
f 213/2/6 218/3/6 217/36/6 214/35/6
f 214/35/6 217/36/6 216/26/6 215/23/6
f 32/1/1 219/2/1 224/3/1 35/4/1
f 219/2/1 220/35/1 223/36/1 224/3/1
f 220/35/1 221/23/1 222/26/1 223/36/1
f 226/47/8 113/52/8 116/56/8 231/41/8
f 234/87/6 230/88/6 112/89/6 107/90/6
f 232/87/1 115/91/1 110/89/1 227/88/1
f 228/46/7 225/45/7 108/62/7 109/61/7
f 229/29/5 45/37/5 46/38/5 233/30/5
f 236/85/9 207/19/9 212/20/9 241/86/9
f 238/92/1 103/93/1 97/94/1 243/95/1
f 235/42/7 237/41/7 100/53/7 101/52/7
f 242/44/8 99/54/8 104/55/8 239/43/8
f 240/96/6 244/95/6 98/94/6 105/97/6
