# Blender 4.0.2
# www.blender.org
mtllib Fortress_Window_05.mtl
o Fortress_Window_05
v -0.437500 0.312500 0.125000
v -0.312500 0.312500 0.062500
v -0.312500 0.250000 0.125000
v 0.437500 0.312500 -0.125000
v -0.312500 0.312500 0.125000
v -0.312500 0.312500 -0.125000
v 0.500000 0.812500 -0.125000
v -0.500000 0.812500 0.125000
v -0.437500 0.312500 0.125000
v -0.437500 0.312500 -0.125000
v 0.500000 0.812500 0.125000
v -0.500000 0.812500 -0.125000
v -0.312500 0.312500 0.125000
v 0.437500 0.312500 0.125000
v 0.312500 0.312500 -0.125000
v 0.312500 0.312500 0.062500
v 0.312500 0.250000 0.125000
v -0.312500 0.312500 -0.125000
v 0.312500 0.312500 0.125000
v -0.437500 0.312500 -0.125000
v 0.437500 0.312500 0.125000
v 0.437500 0.312500 -0.125000
v 0.500000 0.937500 0.125000
v -0.500000 0.937500 0.125000
v 0.312500 0.312500 0.125000
v 0.312500 0.312500 -0.125000
v -0.500000 0.937500 -0.125000
v 0.500000 0.937500 -0.125000
v -0.312500 0.125000 0.062500
v 0.312500 0.125000 0.062500
v -0.312500 0.750000 0.062500
v 0.312500 0.750000 0.062500
v -0.312500 0.562500 0.125000
v -0.312500 0.500000 0.125000
v 0.312500 0.562500 0.125000
v 0.312500 0.500000 0.125000
v -0.312500 0.562500 0.125000
v -0.312500 0.562500 0.062500
v 0.312500 0.562500 0.125000
v 0.312500 0.562500 0.062500
v -0.312500 0.500000 0.125000
v -0.312500 0.500000 0.062500
v 0.312500 0.500000 0.125000
v 0.312500 0.500000 0.062500
v -0.250000 0.937500 -0.125000
v 0.000000 0.937500 -0.125000
v 0.250000 0.937500 -0.125000
v 0.187500 0.750000 0.125000
v 0.187500 0.750000 0.062500
v 0.187500 0.125000 0.125000
v 0.187500 0.125000 0.062500
v 0.125000 0.750000 0.125000
v 0.125000 0.750000 0.062500
v 0.125000 0.125000 0.125000
v 0.125000 0.125000 0.062500
v 0.250000 0.937500 0.125000
v 0.000000 0.937500 0.125000
v -0.250000 0.937500 0.125000
v 0.250000 1.062500 0.125000
v 0.000000 1.062500 0.125000
v -0.250000 1.062500 0.125000
v -0.250000 1.062500 -0.125000
v 0.000000 1.062500 -0.125000
v 0.250000 1.062500 -0.125000
v 0.250000 1.062500 -0.125000
v 0.000000 1.062500 -0.125000
v -0.312500 0.312500 0.125000
v -0.312500 0.312500 0.125000
v 0.312500 0.312500 0.125000
v 0.312500 0.312500 0.125000
v -0.250000 1.062500 -0.125000
v -0.250000 0.937500 -0.125000
v 0.000000 0.937500 -0.125000
v 0.250000 0.937500 -0.125000
v 0.250000 1.062500 0.125000
v 0.000000 1.062500 0.125000
v -0.250000 1.062500 0.125000
v -0.250000 0.937500 0.125000
v 0.000000 0.937500 0.125000
v 0.250000 0.937500 0.125000
v -0.500000 0.812500 -0.125000
v -0.500000 0.937500 -0.125000
v -0.500000 0.812500 0.125000
v -0.500000 0.937500 0.125000
v 0.500000 0.125000 -0.125000
v -0.500000 0.125000 -0.125000
v -0.500000 0.125000 0.125000
v 0.500000 0.125000 0.125000
v -0.500000 0.000000 -0.125000
v 0.500000 0.000000 0.125000
v -0.500000 0.000000 0.125000
v 0.500000 0.000000 -0.125000
v -0.500000 0.000000 0.125000
v -0.500000 0.000000 -0.125000
v 0.500000 0.000000 0.125000
v 0.500000 0.000000 -0.125000
v -0.500000 0.125000 0.125000
v -0.500000 0.125000 -0.125000
v 0.500000 0.125000 0.125000
v 0.500000 0.125000 -0.125000
v 0.500000 0.125000 0.125000
v 0.500000 0.000000 0.125000
v 0.500000 0.125000 -0.125000
v 0.500000 0.000000 -0.125000
v -0.500000 0.125000 0.125000
v -0.500000 0.000000 0.125000
v -0.500000 0.125000 -0.125000
v -0.500000 0.000000 -0.125000
v 0.500000 0.812500 -0.125000
v 0.500000 0.937500 -0.125000
v 0.500000 0.812500 0.125000
v 0.500000 0.937500 0.125000
v 0.500000 0.937500 -0.125000
v 0.500000 0.937500 0.125000
v -0.500000 0.937500 -0.125000
v -0.500000 0.937500 0.125000
v 0.500000 0.812500 -0.125000
v 0.500000 0.812500 0.125000
v -0.500000 0.812500 -0.125000
v -0.500000 0.812500 0.125000
v -0.312500 0.250000 0.125000
v -0.312500 0.250000 0.062500
v 0.312500 0.250000 0.125000
v 0.312500 0.250000 0.062500
v 0.125000 0.750000 0.125000
v 0.187500 0.125000 0.125000
v 0.125000 0.125000 0.125000
v 0.187500 0.562500 0.125000
v 0.187500 0.500000 0.125000
v 0.187500 0.250000 0.125000
v 0.125000 0.250000 0.125000
v -0.187500 0.312500 0.125000
v -0.125000 0.312500 0.125000
v 0.125000 0.562500 0.125000
v -0.125000 0.750000 0.125000
v -0.125000 0.750000 0.062500
v -0.125000 0.125000 0.125000
v -0.125000 0.125000 0.062500
v -0.187500 0.750000 0.125000
v -0.187500 0.750000 0.062500
v -0.187500 0.125000 0.125000
v -0.187500 0.125000 0.062500
v -0.125000 0.750000 0.125000
v -0.125000 0.125000 0.125000
v -0.187500 0.125000 0.125000
v -0.125000 0.562500 0.125000
v -0.125000 0.500000 0.125000
v 0.125000 0.312500 0.125000
v -0.125000 0.250000 0.125000
v -0.187500 0.250000 0.125000
v 0.187500 0.312500 0.125000
v 0.125000 0.500000 0.125000
v -0.187500 0.562500 0.125000
v 0.187500 0.750000 0.125000
v -0.187500 0.750000 0.125000
v 0.440856 0.842072 0.125000
v 0.440856 0.842072 -0.125000
v 0.437500 0.843750 0.125000
v 0.312500 0.906250 -0.125000
v 0.437500 0.843750 -0.125000
v 0.312500 0.906250 0.125000
v 0.437500 0.843750 0.125000
v 0.437500 0.843750 -0.125000
v 0.312500 0.906250 0.125000
v 0.312500 0.906250 -0.125000
v -0.437500 0.843750 0.125000
v -0.437500 0.843750 -0.125000
v -0.312500 0.906250 -0.125000
v -0.438195 0.843403 -0.125000
v -0.438195 0.843403 0.125000
v -0.437500 0.843750 0.125000
v -0.437500 0.843750 -0.125000
v -0.312500 0.906250 0.125000
v -0.312500 0.906250 -0.125000
v -0.312500 0.906250 0.125000
v -0.312500 0.125000 -0.062500
v 0.312500 0.125000 -0.062500
v -0.312500 0.750000 -0.062500
v 0.312500 0.750000 -0.062500
v -0.312500 0.812500 0.125000
v -0.312500 0.750000 0.125000
v 0.312500 0.812500 0.125000
v 0.312500 0.750000 0.125000
v -0.312500 0.812500 0.125000
v -0.312500 0.812500 0.062500
v 0.312500 0.812500 0.125000
v 0.312500 0.812500 0.062500
v -0.312500 0.750000 0.125000
v -0.312500 0.750000 0.062500
v 0.312500 0.750000 0.125000
v 0.312500 0.750000 0.062500
v 0.187500 0.812500 0.125000
v 0.125000 0.812500 0.125000
v 0.187500 0.937500 0.125000
v 0.125000 0.937500 0.125000
v -0.125000 0.812500 0.125000
v -0.187500 0.812500 0.125000
v -0.125000 0.937500 0.125000
v -0.187500 0.937500 0.125000
v -0.187500 0.812500 0.062500
v -0.187500 0.812500 0.125000
v -0.187500 0.937500 0.062500
v -0.187500 0.937500 0.125000
v -0.125000 0.812500 0.062500
v -0.125000 0.812500 0.125000
v -0.125000 0.937500 0.062500
v -0.125000 0.937500 0.125000
v 0.125000 0.812500 0.062500
v 0.125000 0.812500 0.125000
v 0.125000 0.937500 0.062500
v 0.125000 0.937500 0.125000
v 0.187500 0.812500 0.062500
v 0.187500 0.812500 0.125000
v 0.187500 0.937500 0.062500
v 0.187500 0.937500 0.125000
v 0.312500 0.937500 0.062500
v -0.312500 0.937500 0.062500
v 0.312500 0.750000 0.062500
v -0.312500 0.750000 0.062500
v 0.312500 0.312500 -0.125000
v 0.437500 0.125000 0.125000
v 0.437500 0.312500 -0.125000
v 0.437500 0.125000 0.125000
v 0.437500 0.125000 -0.125000
v 0.312500 0.312500 -0.125000
v 0.312500 0.312500 0.125000
v 0.312500 0.125000 0.125000
v 0.437500 0.125000 -0.125000
v 0.312500 0.125000 -0.125000
v 0.312500 0.125000 0.125000
v 0.312500 0.125000 -0.125000
v -0.312500 0.312500 0.125000
v -0.312500 0.312500 0.125000
v -0.312500 0.312500 -0.125000
v -0.437500 0.312500 0.125000
v -0.437500 0.312500 -0.125000
v -0.312500 0.125000 0.125000
v -0.312500 0.312500 -0.125000
v -0.312500 0.125000 0.125000
v -0.312500 0.125000 -0.125000
v -0.437500 0.312500 -0.125000
v -0.437500 0.312500 0.125000
v -0.437500 0.125000 0.125000
v -0.312500 0.125000 -0.125000
v -0.437500 0.125000 -0.125000
v -0.437500 0.125000 0.125000
v -0.437500 0.125000 -0.125000
v -0.312500 0.750000 -0.062500
v 0.312500 0.750000 -0.062500
v -0.312500 0.937500 -0.062500
v 0.312500 0.937500 -0.062500
v -0.187500 0.500000 0.125000
vn -0.0000 -0.0000 -1.0000
vn 1.0000 -0.0000 -0.0000
vn -1.0000 -0.0000 -0.0000
vn -0.0000 -0.0000 1.0000
vn -0.0000 1.0000 -0.0000
vn -0.0000 -1.0000 -0.0000
vn 0.4472 -0.8944 -0.0000
vn -0.4472 0.8944 -0.0000
vn 0.4472 0.8944 -0.0000
vn -0.4472 -0.8944 -0.0000
vt 0.701219 0.358025
vt 0.701219 0.299383
vt 0.689024 0.305556
vt 0.689024 0.358025
vt 0.707317 0.358025
vt 0.682927 0.358025
vt 0.682927 0.299383
vt 0.707317 0.299383
vt 0.707317 0.305556
vt 0.682927 0.305556
vt 0.682927 0.305556
vt 0.707317 0.305556
vt 0.682927 0.299383
vt 0.713415 0.259259
vt 0.774390 0.259259
vt 0.774390 0.320988
vt 0.713415 0.320988
vt 0.896341 0.240741
vt 0.896341 0.246914
vt 0.835366 0.246914
vt 0.835366 0.240741
vt 0.609756 0.277778
vt 0.615854 0.277778
vt 0.615854 0.339506
vt 0.609756 0.339506
vt 0.707317 0.308642
vt 0.682927 0.308642
vt 0.682927 0.283951
vt 0.707317 0.283951
vt 0.707317 0.333333
vt 0.682927 0.333333
vt 0.682927 0.351920
vt 0.707317 0.351920
vt 0.865854 0.333333
vt 0.841463 0.333333
vt 0.841463 0.358025
vt 0.865854 0.358025
vt 0.689024 0.299383
vt 0.701220 0.305556
vt 0.701219 0.305556
vt 0.890244 0.333333
vt 0.890244 0.358025
vt 0.914634 0.333333
vt 0.914634 0.358025
vt 0.865854 0.327160
vt 0.890244 0.327160
vt 0.890244 0.314815
vt 0.865854 0.314815
vt 0.841463 0.327160
vt 0.841463 0.314815
vt 0.817073 0.327160
vt 0.914634 0.327160
vt 0.914634 0.314815
vt 0.817073 0.314815
vt 0.682927 0.259259
vt 0.707317 0.259259
vt 0.817073 0.333333
vt 0.817073 0.358025
vt 0.817073 0.327161
vt 0.817073 0.314815
vt 0.841463 0.314815
vt 0.841463 0.327161
vt 0.682927 0.265101
vt 0.707317 0.265101
vt 0.615854 0.296296
vt 0.609756 0.296296
vt 0.609756 0.327160
vt 0.615854 0.327161
vt 0.713415 0.339506
vt 0.774390 0.339506
vt 0.774390 0.358025
vt 0.713415 0.358025
vt 0.689024 0.339506
vt 0.701219 0.339506
vt 0.682927 0.339506
vt 0.707317 0.339506
s 0
usemtl mFG_Fortress
f 15/1/1 165/2/1 160/3/1 4/4/1
f 5/5/2 6/6/2 168/7/2 173/8/2
f 9/5/3 166/9/3 172/10/3 10/6/3
f 69/1/4 14/4/4 158/3/4 161/2/4
f 21/5/2 22/6/2 163/11/2 162/12/2
f 25/5/3 164/8/3 159/13/3 26/6/3
f 29/14/4 30/15/4 32/16/4 31/17/4
f 33/18/4 34/19/4 36/20/4 35/21/4
f 37/18/5 39/21/5 40/20/5 38/19/5
f 41/18/6 42/19/6 44/20/6 43/21/6
f 52/22/3 53/23/3 55/24/3 54/25/3
f 57/26/6 46/27/6 47/28/6 56/29/6
f 58/30/6 45/31/6 46/27/6 57/26/6
f 120/5/7 119/6/7 169/32/7 170/33/7
f 60/34/5 59/35/5 64/36/5 63/37/5
f 1/1/4 67/4/4 175/38/4 171/39/4
f 20/1/1 167/40/1 174/38/1 18/4/1
f 61/41/5 60/34/5 63/37/5 62/42/5
f 116/43/8 61/41/8 62/42/8 115/44/8
f 66/45/1 65/46/1 74/47/1 73/48/1
f 71/49/1 66/45/1 73/48/1 72/50/1
f 86/51/1 85/52/1 92/53/1 89/54/1
f 93/5/6 94/6/6 96/55/6 95/56/6
f 87/51/4 91/54/4 90/53/4 88/52/4
f 97/43/5 99/57/5 100/58/5 98/44/5
f 101/59/2 102/60/2 104/61/2 103/62/2
f 105/59/3 107/62/3 108/61/3 106/60/3
f 27/51/1 71/49/1 72/50/1 12/54/1
f 76/45/4 79/48/4 80/47/4 75/46/4
f 77/49/4 78/50/4 79/48/4 76/45/4
f 24/51/4 8/54/4 78/50/4 77/49/4
f 13/18/5 70/21/5 16/20/5 2/19/5
f 59/35/9 114/57/9 113/58/9 64/36/9
f 84/59/3 82/62/3 81/61/3 83/60/3
f 68/18/4 3/19/4 17/20/4 19/21/4
f 75/46/4 80/47/4 11/53/4 23/52/4
f 56/29/10 47/28/10 157/63/10 156/64/10
f 112/59/2 111/60/2 109/61/2 110/62/2
f 121/18/6 122/19/6 124/20/6 123/21/6
f 65/46/1 28/52/1 7/53/1 74/47/1
f 143/22/4 155/23/4 153/65/4 146/66/4
f 50/25/2 51/24/2 49/23/2 48/22/2
f 135/22/2 137/25/2 138/24/2 136/23/2
f 129/22/4 152/23/4 148/65/4 151/66/4
f 127/24/4 126/25/4 130/67/4 131/68/4
f 147/22/4 252/23/4 132/65/4 133/66/4
f 145/24/4 144/25/4 149/67/4 150/68/4
f 154/22/4 125/23/4 134/65/4 128/66/4
f 156/64/10 157/63/10 117/55/10 118/56/10
f 170/33/7 169/32/7 45/31/7 58/30/7
f 176/14/1 178/17/1 179/16/1 177/15/1
f 180/18/4 181/19/4 183/20/4 182/21/4
f 184/18/5 186/21/5 187/20/5 185/19/5
f 188/18/6 189/19/6 191/20/6 190/21/6
f 193/24/4 192/25/4 194/67/4 195/68/4
f 197/24/4 196/25/4 198/67/4 199/68/4
f 201/24/3 203/68/3 202/67/3 200/25/3
f 205/24/2 204/25/2 206/67/2 207/68/2
f 209/24/3 211/68/3 210/67/3 208/25/3
f 213/24/2 212/25/2 214/67/2 215/68/2
f 219/69/4 218/70/4 216/71/4 217/72/4
f 222/4/1 228/73/1 229/74/1 220/1/1
f 225/6/3 231/75/3 230/76/3 226/5/3
f 14/4/4 69/1/4 227/74/4 221/73/4
f 22/6/2 21/5/2 223/76/2 224/75/2
f 238/4/1 244/73/1 245/74/1 236/1/1
f 241/6/3 247/75/3 246/76/3 242/5/3
f 232/4/4 235/1/4 243/74/4 237/73/4
f 234/6/2 233/5/2 239/76/2 240/75/2
f 248/69/1 250/72/1 251/71/1 249/70/1
f 140/23/3 142/24/3 141/25/3 139/22/3
