# Blender 4.0.2
# www.blender.org
mtllib Fortress_Block_02.mtl
o Fortress_Block_02
v -1.500000 0.000000 -1.500000
v -1.500000 0.000000 -0.500000
v -0.500000 0.000000 -0.500000
v -0.500000 0.000000 -1.500000
v -0.500000 0.000000 -1.500000
v -0.500000 0.000000 -0.500000
v 0.500000 0.000000 -0.500000
v 0.500000 0.000000 -1.500000
v 0.500000 0.000000 -1.500000
v 0.500000 0.000000 -0.500000
v 1.500000 0.000000 -0.500000
v 1.500000 0.000000 -1.500000
v -1.500000 0.000000 -0.500000
v -1.500000 0.000000 0.500000
v -0.500000 0.000000 0.500000
v -0.500000 0.000000 -0.500000
v -0.500000 0.000000 -0.500000
v -0.500000 0.000000 0.500000
v 0.500000 0.000000 0.500000
v 0.500000 0.000000 -0.500000
v 0.500000 0.000000 -0.500000
v 0.500000 0.000000 0.500000
v 1.500000 0.000000 0.500000
v 1.500000 0.000000 -0.500000
v -1.500000 0.000000 0.500000
v -1.500000 0.000000 1.500000
v -0.500000 0.000000 1.500000
v -0.500000 0.000000 0.500000
v -0.500000 0.000000 0.500000
v -0.500000 0.000000 1.500000
v 0.500000 0.000000 1.500000
v 0.500000 0.000000 0.500000
v 0.500000 0.000000 0.500000
v 0.500000 0.000000 1.500000
v 1.500000 0.000000 1.500000
v 1.500000 0.000000 0.500000
v -1.500000 2.000000 -1.500000
v -1.500000 2.000000 -0.500000
v -0.500000 2.000000 -0.500000
v -0.500000 2.000000 -1.500000
v -0.500000 2.000000 -1.500000
v -0.500000 2.000000 -0.500000
v 0.500000 2.000000 -0.500000
v 0.500000 2.000000 -1.500000
v 0.500000 2.000000 -1.500000
v 0.500000 2.000000 -0.500000
v 1.500000 2.000000 -0.500000
v 1.500000 2.000000 -1.500000
v -1.500000 2.000000 -0.500000
v -1.500000 2.000000 0.500000
v -0.500000 2.000000 0.500000
v -0.500000 2.000000 -0.500000
v -0.500000 2.000000 -0.500000
v -0.500000 2.000000 0.500000
v 0.500000 2.000000 0.500000
v 0.500000 2.000000 -0.500000
v 0.500000 2.000000 -0.500000
v 0.500000 2.000000 0.500000
v 1.500000 2.000000 0.500000
v 1.500000 2.000000 -0.500000
v -1.500000 2.000000 0.500000
v -1.500000 2.000000 1.500000
v -0.500000 2.000000 1.500000
v -0.500000 2.000000 0.500000
v -0.500000 2.000000 0.500000
v -0.500000 2.000000 1.500000
v 0.500000 2.000000 1.500000
v 0.500000 2.000000 0.500000
v 0.500000 2.000000 0.500000
v 0.500000 2.000000 1.500000
v 1.500000 2.000000 1.500000
v 1.500000 2.000000 0.500000
v -1.500000 2.000000 1.500000
v -1.500000 0.000000 1.500000
v 1.500000 0.000000 1.500000
v 1.500000 2.000000 1.500000
v -1.500000 2.000000 -1.500000
v -1.500000 0.000000 -1.500000
v 1.500000 0.000000 -1.500000
v 1.500000 2.000000 -1.500000
v 1.500000 2.000000 1.500000
v 1.500000 0.000000 1.500000
v 1.500000 0.000000 -1.500000
v 1.500000 2.000000 -1.500000
v -1.500000 2.000000 1.500000
v -1.500000 0.000000 1.500000
v -1.500000 0.000000 -1.500000
v -1.500000 2.000000 -1.500000
vn -0.0000 -1.0000 -0.0000
vn -0.0000 1.0000 -0.0000
vn -0.0000 -0.0000 1.0000
vn -0.0000 -0.0000 -1.0000
vn 1.0000 -0.0000 -0.0000
vn -1.0000 -0.0000 -0.0000
vt 0.048780 0.012346
vt 0.048780 0.111111
vt 0.146341 0.111111
vt 0.146341 0.012346
vt 0.006098 0.617284
vt 0.298781 0.617284
vt 0.298781 0.814815
vt 0.006098 0.814815
vt 0.310976 0.617284
vt 0.310976 0.814815
vt 0.603659 0.814815
vt 0.603659 0.617284
vt 0.006098 0.314815
vt 0.298781 0.314815
vt 0.298781 0.512346
vt 0.006098 0.512346
vt 0.310976 0.314815
vt 0.310976 0.512346
vt 0.603659 0.512346
vt 0.603659 0.314815
s 0
usemtl mFG_Fortress
f 2/1/1 1/2/1 4/3/1 3/4/1
f 6/1/1 5/2/1 8/3/1 7/4/1
f 10/1/1 9/2/1 12/3/1 11/4/1
f 14/1/1 13/2/1 16/3/1 15/4/1
f 18/1/1 17/2/1 20/3/1 19/4/1
f 22/1/1 21/2/1 24/3/1 23/4/1
f 26/1/1 25/2/1 28/3/1 27/4/1
f 30/1/1 29/2/1 32/3/1 31/4/1
f 34/1/1 33/2/1 36/3/1 35/4/1
f 38/1/2 39/4/2 40/3/2 37/2/2
f 42/1/2 43/4/2 44/3/2 41/2/2
f 46/1/2 47/4/2 48/3/2 45/2/2
f 50/1/2 51/4/2 52/3/2 49/2/2
f 54/1/2 55/4/2 56/3/2 53/2/2
f 58/1/2 59/4/2 60/3/2 57/2/2
f 62/1/2 63/4/2 64/3/2 61/2/2
f 66/1/2 67/4/2 68/3/2 65/2/2
f 70/1/2 71/4/2 72/3/2 69/2/2
f 74/5/3 75/6/3 76/7/3 73/8/3
f 78/9/4 77/10/4 80/11/4 79/12/4
f 82/13/5 83/14/5 84/15/5 81/16/5
f 86/17/6 85/18/6 88/19/6 87/20/6
