# Blender 4.0.2
# www.blender.org
mtllib Fortress_Wall_01.mtl
o Fortress_Wall_01
v 0.500000 0.000000 -0.500000
v -0.500000 0.000000 -0.500000
v 0.500000 0.000000 0.500000
v -0.500000 0.000000 0.500000
v -1.500000 0.000000 0.500000
v -0.500000 0.000000 0.500000
v -1.500000 0.000000 -0.500000
v -0.500000 0.000000 -0.500000
v -1.500000 2.000000 0.500000
v -1.500000 0.000000 0.500000
v -1.500000 2.000000 -0.500000
v -1.500000 0.000000 -0.500000
v 1.500000 0.000000 -0.500000
v 1.500000 2.000000 -0.500000
v 1.500000 0.000000 0.500000
v 1.500000 2.000000 0.500000
v -1.500000 0.000000 0.500000
v 1.500000 0.000000 0.500000
v -1.500000 2.000000 0.500000
v 1.500000 2.000000 0.500000
v -1.500000 0.000000 -0.500000
v 1.500000 0.000000 -0.500000
v -1.500000 2.000000 -0.500000
v 1.500000 2.000000 -0.500000
v 0.500000 0.000000 0.500000
v 1.500000 0.000000 0.500000
v 0.500000 0.000000 -0.500000
v 1.500000 0.000000 -0.500000
v 0.500000 2.000000 -0.500000
v -0.500000 2.000000 -0.500000
v 0.500000 2.000000 0.500000
v -0.500000 2.000000 0.500000
v -1.500000 2.000000 0.500000
v -0.500000 2.000000 0.500000
v -1.500000 2.000000 -0.500000
v -0.500000 2.000000 -0.500000
v 0.500000 2.000000 0.500000
v 1.500000 2.000000 0.500000
v 0.500000 2.000000 -0.500000
v 1.500000 2.000000 -0.500000
vn -0.0000 -1.0000 -0.0000
vn -1.0000 -0.0000 -0.0000
vn 1.0000 -0.0000 -0.0000
vn -0.0000 -0.0000 1.0000
vn -0.0000 -0.0000 -1.0000
vn -0.0000 1.0000 -0.0000
vt 0.048780 0.012346
vt 0.048780 0.111111
vt 0.146341 0.111111
vt 0.146341 0.012346
vt 0.036585 0.512346
vt 0.134146 0.512346
vt 0.134146 0.314815
vt 0.036585 0.314815
vt 0.006098 0.512346
vt 0.006098 0.314815
vt 0.103659 0.314815
vt 0.103659 0.512346
vt 0.298781 0.314815
vt 0.298781 0.512346
s 0
usemtl mFG_Fortress
f 4/1/1 2/2/1 1/3/1 3/4/1
f 5/1/1 7/2/1 8/3/1 6/4/1
f 9/5/2 11/6/2 12/7/2 10/8/2
f 16/9/3 15/10/3 13/11/3 14/12/3
f 17/10/4 18/13/4 20/14/4 19/9/4
f 21/10/5 23/9/5 24/14/5 22/13/5
f 25/1/1 27/2/1 28/3/1 26/4/1
f 32/1/6 31/4/6 29/3/6 30/2/6
f 33/1/6 34/4/6 36/3/6 35/2/6
f 37/1/6 38/4/6 40/3/6 39/2/6
