# Blender 4.0.2
# www.blender.org
mtllib Fortress_Fences_01.mtl
o Fortress_Fences_01
v -0.125000 0.000000 0.125000
v 0.125000 0.000000 0.125000
v -0.125000 0.500000 0.125000
v 0.125000 0.500000 0.125000
v -0.125000 0.500000 -0.125000
v -0.125000 0.000000 -0.125000
v 0.125000 0.000000 -0.125000
v 0.125000 0.500000 -0.125000
vn -0.0000 -0.0000 1.0000
vn -0.0000 -0.0000 -1.0000
vn -0.0000 -1.0000 -0.0000
vn 1.0000 -0.0000 -0.0000
vn -1.0000 -0.0000 -0.0000
vn -0.0000 1.0000 -0.0000
vt 0.036585 0.314815
vt 0.060976 0.314815
vt 0.060976 0.364198
vt 0.036585 0.364198
vt 0.012195 0.228395
vt 0.012195 0.203704
vt 0.036585 0.203704
vt 0.036585 0.228395
vt 0.012195 0.314815
vt 0.012195 0.364198
vt 0.042683 0.364198
vt 0.067073 0.364198
vt 0.067073 0.314815
vt 0.042683 0.314815
vt 0.036585 0.172840
vt 0.036585 0.197531
vt 0.012195 0.197531
vt 0.012195 0.172840
s 0
usemtl mFG_Fortress
f 1/1/1 2/2/1 4/3/1 3/4/1
f 6/1/2 5/4/2 8/3/2 7/2/2
f 1/5/3 6/6/3 7/7/3 2/8/3
f 2/9/4 7/1/4 8/4/4 4/10/4
f 3/11/5 5/12/5 6/13/5 1/14/5
f 4/15/6 8/16/6 5/17/6 3/18/6
