# Blender 4.0.2
# www.blender.org
mtllib Fortress_Floor_08.mtl
o Fortress_Floor_08
v -1.500000 0.062500 -1.500000
v -1.500000 0.062500 -0.500000
v -0.500000 0.062500 -0.500000
v -0.500000 0.062500 -1.500000
v -0.500000 0.000000 -1.500000
v -0.500000 0.000000 -0.500000
v 0.500000 0.000000 -0.500000
v 0.500000 0.000000 -1.500000
v 0.500000 0.062500 -1.500000
v 0.500000 0.062500 -0.500000
v 1.500000 0.062500 -0.500000
v 1.500000 0.062500 -1.500000
v -1.500000 0.000000 -0.500000
v -1.500000 0.000000 0.500000
v -0.500000 0.000000 0.500000
v -0.500000 0.000000 -0.500000
v -0.500000 0.000000 -0.500000
v -0.500000 0.000000 0.500000
v 0.500000 0.000000 0.500000
v 0.500000 0.000000 -0.500000
v 0.500000 0.062500 -0.500000
v 0.500000 0.062500 0.500000
v 1.500000 0.062500 0.500000
v 1.500000 0.062500 -0.500000
v -1.500000 0.000000 0.500000
v -1.500000 0.000000 1.500000
v -0.500000 0.000000 1.500000
v -0.500000 0.000000 0.500000
v -0.500000 0.062500 0.500000
v -0.500000 0.062500 1.500000
v 0.500000 0.062500 1.500000
v 0.500000 0.062500 0.500000
v 0.500000 0.000000 0.500000
v 0.500000 0.000000 1.500000
v 1.500000 0.000000 1.500000
v 1.500000 0.000000 0.500000
v 0.500000 0.062500 0.500000
v 0.500000 0.000000 0.500000
v 1.500000 0.000000 0.500000
v 1.500000 0.062500 0.500000
v 0.500000 0.062500 -0.500000
v 0.500000 0.000000 -0.500000
v 1.500000 0.000000 -0.500000
v 1.500000 0.062500 -0.500000
v 0.500000 0.062500 -1.500000
v 0.500000 0.000000 -1.500000
v 1.500000 0.000000 -1.500000
v 1.500000 0.062500 -1.500000
v 1.500000 0.062500 -0.500000
v 1.500000 0.000000 -0.500000
v 1.500000 0.000000 -1.500000
v 1.500000 0.062500 -1.500000
v 0.500000 0.062500 -0.500000
v 0.500000 0.000000 -0.500000
v 0.500000 0.000000 -1.500000
v 0.500000 0.062500 -1.500000
v 1.500000 0.062500 0.500000
v 1.500000 0.000000 0.500000
v 1.500000 0.000000 -0.500000
v 1.500000 0.062500 -0.500000
v 0.500000 0.062500 0.500000
v 0.500000 0.000000 0.500000
v 0.500000 0.000000 -0.500000
v 0.500000 0.062500 -0.500000
v -0.500000 0.062500 1.500000
v -0.500000 0.000000 1.500000
v 0.500000 0.000000 1.500000
v 0.500000 0.062500 1.500000
v 0.500000 0.062500 1.500000
v 0.500000 0.000000 1.500000
v 0.500000 0.000000 0.500000
v 0.500000 0.062500 0.500000
v -0.500000 0.062500 1.500000
v -0.500000 0.000000 1.500000
v -0.500000 0.000000 0.500000
v -0.500000 0.062500 0.500000
v -0.500000 0.062500 0.500000
v -0.500000 0.000000 0.500000
v 0.500000 0.000000 0.500000
v 0.500000 0.062500 0.500000
v -1.500000 0.062500 -0.500000
v -1.500000 0.000000 -0.500000
v -0.500000 0.000000 -0.500000
v -0.500000 0.062500 -0.500000
v -0.500000 0.062500 -0.500000
v -0.500000 0.000000 -0.500000
v -0.500000 0.000000 -1.500000
v -0.500000 0.062500 -1.500000
v -1.500000 0.062500 -0.500000
v -1.500000 0.000000 -0.500000
v -1.500000 0.000000 -1.500000
v -1.500000 0.062500 -1.500000
v -1.500000 0.062500 -1.500000
v -1.500000 0.000000 -1.500000
v -0.500000 0.000000 -1.500000
v -0.500000 0.062500 -1.500000
vn -0.0000 1.0000 -0.0000
vn -0.0000 -0.0000 1.0000
vn -0.0000 -0.0000 -1.0000
vn 1.0000 -0.0000 -0.0000
vn -1.0000 -0.0000 -0.0000
vt 0.256098 0.012346
vt 0.353659 0.012346
vt 0.353659 0.111111
vt 0.256098 0.111111
vt 0.048780 0.012346
vt 0.146341 0.012346
vt 0.146341 0.111111
vt 0.048780 0.111111
vt 0.463415 0.012346
vt 0.560976 0.012346
vt 0.560976 0.111111
vt 0.463415 0.111111
vt 0.012195 0.160494
vt 0.109756 0.160494
vt 0.109756 0.166667
vt 0.012195 0.166667
s 0
usemtl mFG_Fortress
f 2/1/1 3/2/1 4/3/1 1/4/1
f 6/5/1 7/6/1 8/7/1 5/8/1
f 10/5/1 11/6/1 12/7/1 9/8/1
f 14/5/1 15/6/1 16/7/1 13/8/1
f 18/5/1 19/6/1 20/7/1 17/8/1
f 22/1/1 23/2/1 24/3/1 21/4/1
f 26/5/1 27/6/1 28/7/1 25/8/1
f 30/9/1 31/10/1 32/11/1 29/12/1
f 34/5/1 35/6/1 36/7/1 33/8/1
f 38/13/2 39/14/2 40/15/2 37/16/2
f 42/13/2 43/14/2 44/15/2 41/16/2
f 46/13/3 45/16/3 48/15/3 47/14/3
f 50/13/4 51/14/4 52/15/4 49/16/4
f 54/13/5 53/16/5 56/15/5 55/14/5
f 58/13/4 59/14/4 60/15/4 57/16/4
f 62/13/5 61/16/5 64/15/5 63/14/5
f 66/13/2 67/14/2 68/15/2 65/16/2
f 70/13/4 71/14/4 72/15/4 69/16/4
f 74/13/5 73/16/5 76/15/5 75/14/5
f 78/13/3 77/16/3 80/15/3 79/14/3
f 82/13/2 83/14/2 84/15/2 81/16/2
f 86/13/4 87/14/4 88/15/4 85/16/4
f 90/13/5 89/16/5 92/15/5 91/14/5
f 94/13/3 93/16/3 96/15/3 95/14/3
