# Blender 4.0.2
# www.blender.org
mtllib Fortress_Wall_Block_01.mtl
o Fortress_Wall_Block_01
v 0.500000 2.000000 0.500000
v 0.500000 0.000000 0.500000
v 0.500000 0.000000 -0.500000
v 0.500000 2.000000 -0.500000
v -0.500000 0.000000 -0.500000
v -0.500000 0.000000 0.500000
v 0.500000 0.000000 0.500000
v 0.500000 0.000000 -0.500000
v -0.500000 2.000000 -0.500000
v -0.500000 0.000000 -0.500000
v -0.500000 0.000000 0.500000
v -0.500000 2.000000 0.500000
v -0.500000 2.000000 -0.500000
v -0.500000 0.000000 -0.500000
v 0.500000 0.000000 -0.500000
v 0.500000 2.000000 -0.500000
v 0.500000 2.000000 0.500000
v 0.500000 0.000000 0.500000
v -0.500000 0.000000 0.500000
v -0.500000 2.000000 0.500000
v 0.500000 2.000000 -0.500000
v 0.500000 2.000000 0.500000
v -0.500000 2.000000 0.500000
v -0.500000 2.000000 -0.500000
vn 1.0000 -0.0000 -0.0000
vn -0.0000 -1.0000 -0.0000
vn -1.0000 -0.0000 -0.0000
vn -0.0000 -0.0000 -1.0000
vn -0.0000 -0.0000 1.0000
vn -0.0000 1.0000 -0.0000
vt 0.006098 0.314815
vt 0.103659 0.314815
vt 0.103659 0.512346
vt 0.006098 0.512346
vt 0.048780 0.012346
vt 0.048780 0.111111
vt 0.146341 0.111111
vt 0.146341 0.012346
s 0
usemtl mFG_Fortress
f 2/1/1 3/2/1 4/3/1 1/4/1
f 6/5/2 5/6/2 8/7/2 7/8/2
f 11/1/3 12/4/3 9/3/3 10/2/3
f 14/1/4 13/4/4 16/3/4 15/2/4
f 19/1/5 18/2/5 17/3/5 20/4/5
f 23/5/6 22/8/6 21/7/6 24/6/6
