# Blender 4.0.2
# www.blender.org
mtllib Fortress_Stairs_2.mtl
o Fortress_Stairs_2
v 0.000000 2.000000 -0.750000
v 1.000000 2.000000 -0.750000
v 0.000000 1.750000 -0.750000
v 1.000000 1.750000 -0.750000
v 0.000000 0.250000 1.000000
v 1.000000 0.250000 1.000000
v 0.000000 0.250000 0.750000
v 1.000000 0.250000 0.750000
v 0.000000 1.750000 -0.500000
v 1.000000 1.750000 -0.500000
v 0.000000 1.500000 -0.500000
v 1.000000 1.500000 -0.500000
v 0.000000 0.500000 0.750000
v 1.000000 0.500000 0.750000
v 0.000000 0.500000 0.500000
v 1.000000 0.500000 0.500000
v 0.000000 1.500000 -0.250000
v 1.000000 1.500000 -0.250000
v 0.000000 1.250000 -0.250000
v 1.000000 1.250000 -0.250000
v 0.000000 0.750000 0.500000
v 1.000000 0.750000 0.500000
v 0.000000 0.750000 0.250000
v 1.000000 0.750000 0.250000
v 0.000000 1.250000 0.000000
v 1.000000 1.250000 0.000000
v 0.000000 1.000000 0.000000
v 1.000000 1.000000 0.000000
v 0.000000 1.000000 0.250000
v 1.000000 1.000000 0.250000
v 0.000000 1.000000 0.000000
v 1.000000 1.000000 0.000000
v 0.000000 1.000000 0.250000
v 1.000000 1.000000 0.250000
v 0.000000 0.750000 0.250000
v 1.000000 0.750000 0.250000
v 0.000000 1.250000 0.000000
v 1.000000 1.250000 0.000000
v 0.000000 1.250000 -0.250000
v 1.000000 1.250000 -0.250000
v 0.000000 0.750000 0.500000
v 1.000000 0.750000 0.500000
v 0.000000 0.500000 0.500000
v 1.000000 0.500000 0.500000
v 0.000000 1.500000 -0.250000
v 1.000000 1.500000 -0.250000
v 0.000000 1.500000 -0.500000
v 1.000000 1.500000 -0.500000
v 0.000000 0.500000 0.750000
v 1.000000 0.500000 0.750000
v 0.000000 0.250000 0.750000
v 1.000000 0.250000 0.750000
v 0.000000 1.750000 -0.500000
v 1.000000 1.750000 -0.500000
v 0.000000 1.750000 -0.750000
v 1.000000 1.750000 -0.750000
v 0.000000 0.250000 1.000000
v 1.000000 0.250000 1.000000
v 0.000000 0.000000 1.000000
v 1.000000 0.000000 1.000000
v 0.000000 2.000000 -0.750000
v 1.000000 2.000000 -0.750000
v 0.000000 2.000000 -1.000000
v 1.000000 2.000000 -1.000000
v -1.000000 2.000000 -0.750000
v 0.000000 2.000000 -0.750000
v -1.000000 1.750000 -0.750000
v 0.000000 1.750000 -0.750000
v -1.000000 0.250000 1.000000
v 0.000000 0.250000 1.000000
v -1.000000 0.250000 0.750000
v 0.000000 0.250000 0.750000
v -1.000000 1.750000 -0.500000
v 0.000000 1.750000 -0.500000
v -1.000000 1.500000 -0.500000
v 0.000000 1.500000 -0.500000
v -1.000000 0.500000 0.750000
v 0.000000 0.500000 0.750000
v -1.000000 0.500000 0.500000
v 0.000000 0.500000 0.500000
v -1.000000 1.500000 -0.250000
v 0.000000 1.500000 -0.250000
v -1.000000 1.250000 -0.250000
v 0.000000 1.250000 -0.250000
v -1.000000 0.750000 0.500000
v 0.000000 0.750000 0.500000
v -1.000000 0.750000 0.250000
v 0.000000 0.750000 0.250000
v -1.000000 1.250000 0.000000
v 0.000000 1.250000 0.000000
v -1.000000 1.000000 0.000000
v 0.000000 1.000000 0.000000
v -1.000000 1.000000 0.250000
v 0.000000 1.000000 0.250000
v -1.000000 1.000000 0.000000
v 0.000000 1.000000 0.000000
v -1.000000 1.000000 0.250000
v 0.000000 1.000000 0.250000
v -1.000000 0.750000 0.250000
v 0.000000 0.750000 0.250000
v -1.000000 1.250000 0.000000
v 0.000000 1.250000 0.000000
v -1.000000 1.250000 -0.250000
v 0.000000 1.250000 -0.250000
v -1.000000 0.750000 0.500000
v 0.000000 0.750000 0.500000
v -1.000000 0.500000 0.500000
v 0.000000 0.500000 0.500000
v -1.000000 1.500000 -0.250000
v 0.000000 1.500000 -0.250000
v -1.000000 1.500000 -0.500000
v 0.000000 1.500000 -0.500000
v -1.000000 0.500000 0.750000
v 0.000000 0.500000 0.750000
v -1.000000 0.250000 0.750000
v 0.000000 0.250000 0.750000
v -1.000000 1.750000 -0.500000
v 0.000000 1.750000 -0.500000
v -1.000000 1.750000 -0.750000
v 0.000000 1.750000 -0.750000
v -1.000000 0.250000 1.000000
v 0.000000 0.250000 1.000000
v -1.000000 0.000000 1.000000
v 0.000000 0.000000 1.000000
v -1.000000 2.000000 -0.750000
v 0.000000 2.000000 -0.750000
v -1.000000 2.000000 -1.000000
v 0.000000 2.000000 -1.000000
v 1.000000 0.000000 -1.000000
v -1.000000 0.000000 -1.000000
v 1.000000 2.000000 -1.000000
v -1.000000 2.000000 -1.000000
v -1.000000 0.000000 0.000000
v 0.000000 0.000000 0.000000
v -1.000000 0.000000 -1.000000
v 0.000000 0.000000 -1.000000
v 0.000000 0.000000 0.000000
v 1.000000 0.000000 0.000000
v 0.000000 0.000000 -1.000000
v 1.000000 0.000000 -1.000000
v 0.000000 0.000000 1.000000
v 1.000000 0.000000 1.000000
v 0.000000 0.000000 0.000000
v 1.000000 0.000000 0.000000
v -1.000000 0.000000 1.000000
v 0.000000 0.000000 1.000000
v -1.000000 0.000000 0.000000
v 0.000000 0.000000 0.000000
v 1.000000 1.750000 -0.750000
v 1.000000 1.750000 -0.500000
v 1.000000 1.500000 -0.500000
v 1.000000 1.500000 -0.250000
v 1.000000 1.250000 -0.250000
v 1.000000 1.250000 0.000000
v 1.000000 1.000000 0.000000
v 1.000000 1.000000 0.250000
v 1.000000 0.750000 0.250000
v 1.000000 0.750000 0.500000
v 1.000000 0.500000 0.500000
v 1.000000 0.500000 0.750000
v 1.000000 0.250000 0.750000
v 1.000000 0.250000 1.000000
v 1.000000 2.000000 -0.750000
v 1.000000 2.000000 -1.000000
v 1.000000 0.000000 1.000000
v 1.000000 0.000000 -1.000000
v -1.000000 0.000000 -1.000000
v -1.000000 0.000000 1.000000
v -1.000000 2.000000 -1.000000
v -1.000000 2.000000 -0.750000
v -1.000000 0.250000 1.000000
v -1.000000 0.250000 0.750000
v -1.000000 0.500000 0.750000
v -1.000000 0.500000 0.500000
v -1.000000 0.750000 0.500000
v -1.000000 0.750000 0.250000
v -1.000000 1.000000 0.250000
v -1.000000 1.000000 0.000000
v -1.000000 1.250000 0.000000
v -1.000000 1.250000 -0.250000
v -1.000000 1.500000 -0.250000
v -1.000000 1.500000 -0.500000
v -1.000000 1.750000 -0.500000
v -1.000000 1.750000 -0.750000
vn -0.0000 -0.0000 1.0000
vn -0.0000 1.0000 -0.0000
vn -0.0000 -0.0000 -1.0000
vn -0.0000 -1.0000 -0.0000
vn 1.0000 -0.0000 -0.0000
vn -1.0000 -0.0000 -0.0000
vt 0.006098 0.487654
vt 0.006098 0.512346
vt 0.103659 0.512346
vt 0.103659 0.487654
vt 0.048780 0.259259
vt 0.146341 0.259259
vt 0.146341 0.283951
vt 0.048780 0.283951
vt 0.006098 0.462963
vt 0.103659 0.462963
vt 0.006098 0.438272
vt 0.103659 0.438272
vt 0.006098 0.413580
vt 0.103659 0.413580
vt 0.006098 0.388889
vt 0.103659 0.388889
vt 0.006098 0.364198
vt 0.103659 0.364198
vt 0.006098 0.339506
vt 0.103659 0.339506
vt 0.006098 0.314815
vt 0.103659 0.314815
vt 0.201220 0.314815
vt 0.201220 0.512346
vt 0.048780 0.012346
vt 0.048780 0.111111
vt 0.146341 0.111111
vt 0.146341 0.012346
vt 0.030488 0.512346
vt 0.030488 0.487654
vt 0.054878 0.487654
vt 0.054878 0.462963
vt 0.079268 0.462963
vt 0.079268 0.438272
vt 0.128049 0.413580
vt 0.128049 0.388889
vt 0.152439 0.388889
vt 0.152439 0.364198
vt 0.176829 0.364198
vt 0.176829 0.339506
vt 0.201220 0.339506
s 0
usemtl mFG_Fortress
f 4/1/1 2/2/1 1/3/1 3/4/1
f 5/5/2 6/6/2 8/7/2 7/8/2
f 12/9/1 10/1/1 9/4/1 11/10/1
f 13/5/2 14/6/2 16/7/2 15/8/2
f 20/11/1 18/9/1 17/10/1 19/12/1
f 21/5/2 22/6/2 24/7/2 23/8/2
f 28/13/1 26/11/1 25/12/1 27/14/1
f 29/5/2 30/6/2 32/7/2 31/8/2
f 36/15/1 34/13/1 33/14/1 35/16/1
f 37/5/2 38/6/2 40/7/2 39/8/2
f 44/17/1 42/15/1 41/16/1 43/18/1
f 45/5/2 46/6/2 48/7/2 47/8/2
f 52/19/1 50/17/1 49/18/1 51/20/1
f 53/5/2 54/6/2 56/7/2 55/8/2
f 60/21/1 58/19/1 57/20/1 59/22/1
f 61/5/2 62/6/2 64/7/2 63/8/2
f 68/1/1 66/2/1 65/3/1 67/4/1
f 69/5/2 70/6/2 72/7/2 71/8/2
f 76/9/1 74/1/1 73/4/1 75/10/1
f 77/5/2 78/6/2 80/7/2 79/8/2
f 84/11/1 82/9/1 81/10/1 83/12/1
f 85/5/2 86/6/2 88/7/2 87/8/2
f 92/13/1 90/11/1 89/12/1 91/14/1
f 93/5/2 94/6/2 96/7/2 95/8/2
f 100/15/1 98/13/1 97/14/1 99/16/1
f 101/5/2 102/6/2 104/7/2 103/8/2
f 108/17/1 106/15/1 105/16/1 107/18/1
f 109/5/2 110/6/2 112/7/2 111/8/2
f 116/19/1 114/17/1 113/18/1 115/20/1
f 117/5/2 118/6/2 120/7/2 119/8/2
f 124/21/1 122/19/1 121/20/1 123/22/1
f 125/5/2 126/6/2 128/7/2 127/8/2
f 129/21/3 130/23/3 132/24/3 131/2/3
f 133/25/4 135/26/4 136/27/4 134/28/4
f 137/25/4 139/26/4 140/27/4 138/28/4
f 141/25/4 143/26/4 144/27/4 142/28/4
f 145/25/4 147/26/4 148/27/4 146/28/4
f 166/21/5 164/2/5 163/29/5 149/30/5 150/31/5 151/32/5 152/33/5 153/34/5 154/12/5 155/14/5 156/35/5 157/36/5 158/37/5 159/38/5 160/39/5 161/40/5 162/41/5 165/23/5
f 167/21/6 168/23/6 171/41/6 172/40/6 173/39/6 174/38/6 175/37/6 176/36/6 177/35/6 178/14/6 179/12/6 180/34/6 181/33/6 182/32/6 183/31/6 184/30/6 170/29/6 169/2/6
