# Blender 4.0.2
# www.blender.org
mtllib Fortress_Floor_02.mtl
o Fortress_Floor_02
v -1.500000 0.000000 -1.500000
v -1.500000 0.000000 -0.500000
v -0.500000 0.000000 -0.500000
v -0.500000 0.000000 -1.500000
v -0.500000 0.000000 -1.500000
v -0.500000 0.000000 -0.500000
v 0.500000 0.000000 -0.500000
v 0.500000 0.000000 -1.500000
v 0.500000 0.000000 -1.500000
v 0.500000 0.000000 -0.500000
v 1.500000 0.000000 -0.500000
v 1.500000 0.000000 -1.500000
v -1.500000 0.000000 -0.500000
v -1.500000 0.000000 0.500000
v -0.500000 0.000000 0.500000
v -0.500000 0.000000 -0.500000
v -0.500000 0.000000 -0.500000
v -0.500000 0.000000 0.500000
v 0.500000 0.000000 0.500000
v 0.500000 0.000000 -0.500000
v 0.500000 0.062500 0.500000
v 1.500000 0.062500 0.500000
v 0.500000 0.062500 -0.500000
v 1.500000 0.000000 -0.500000
v -0.500000 0.000000 0.500000
v -0.500000 0.000000 1.500000
v 0.500000 0.000000 1.500000
v 0.500000 0.000000 0.500000
v 0.500000 0.000000 0.500000
v 0.500000 0.000000 1.500000
v 1.500000 0.000000 1.500000
v 1.500000 0.000000 0.500000
v 1.500000 0.062500 -0.500000
v 1.500000 0.000000 0.500000
v 0.500000 0.000000 0.500000
v 0.500000 0.000000 -0.500000
v 0.500000 0.000000 -0.500000
v 0.500000 0.000000 -1.500000
v 1.500000 0.000000 -0.500000
v 1.500000 0.000000 -1.500000
v -0.500000 0.062500 -1.500000
v -0.500000 0.062500 -0.500000
v 0.500000 0.062500 -0.500000
v 0.500000 0.062500 -1.500000
v -1.500000 0.062500 1.500000
v -0.500000 0.062500 1.500000
v -1.500000 0.062500 0.500000
v -0.500000 0.000000 0.500000
v -0.500000 0.062500 0.500000
v -0.500000 0.000000 1.500000
v -1.500000 0.000000 1.500000
v -1.500000 0.000000 0.500000
vn -0.0000 1.0000 -0.0000
vn -0.0000 -0.0000 1.0000
vn -1.0000 -0.0000 -0.0000
vn -0.0000 -0.0000 -1.0000
vn 1.0000 -0.0000 -0.0000
vt 0.048780 0.012346
vt 0.146341 0.012346
vt 0.146341 0.111111
vt 0.048780 0.111111
vt 0.012195 0.166667
vt 0.109756 0.166667
vt 0.109756 0.160494
vt 0.012195 0.160494
vt 0.359756 0.012346
vt 0.457317 0.012346
vt 0.457317 0.111111
vt 0.359756 0.111111
vt 0.463415 0.012346
vt 0.560976 0.012346
vt 0.560976 0.111111
vt 0.463415 0.111111
vt 0.152439 0.012346
vt 0.250000 0.012346
vt 0.250000 0.111111
vt 0.152439 0.111111
s 0
usemtl mFG_Fortress
f 2/1/1 3/2/1 4/3/1 1/4/1
f 10/1/1 11/2/1 12/3/1 9/4/1
f 14/1/1 15/2/1 16/3/1 13/4/1
f 18/1/1 19/2/1 20/3/1 17/4/1
f 35/5/2 34/6/2 22/7/2 21/8/2
f 26/1/1 27/2/1 28/3/1 25/4/1
f 30/1/1 31/2/1 32/3/1 29/4/1
f 51/5/2 50/6/2 46/7/2 45/8/2
f 36/6/3 35/7/3 21/8/3 23/5/3
f 24/7/4 36/8/4 23/5/4 33/6/4
f 34/8/5 24/5/5 33/6/5 22/7/5
f 21/9/1 22/10/1 33/11/1 23/12/1
f 12/6/1 9/5/1 38/5/1 40/6/1
f 10/8/1 11/7/1 39/7/1 37/8/1
f 11/7/1 12/6/1 40/6/1 39/7/1
f 9/5/1 10/8/1 37/8/1 38/5/1
f 42/13/1 43/14/1 44/15/1 41/16/1
f 8/7/4 5/8/4 41/5/4 44/6/4
f 6/5/2 7/6/2 43/7/2 42/8/2
f 7/8/5 8/5/5 44/6/5 43/7/5
f 5/6/3 6/7/3 42/8/3 41/5/3
f 52/6/3 51/7/3 45/8/3 47/5/3
f 48/7/4 52/8/4 47/5/4 49/6/4
f 50/8/5 48/5/5 49/6/5 46/7/5
f 45/17/1 46/18/1 49/19/1 47/20/1
