# Blender 4.0.2
# www.blender.org
mtllib Fortress_Door_Double_1.mtl
o Fortress_Door_Double_1
v -1.250000 0.000000 0.125000
v -1.000000 0.000000 0.125000
v -1.250000 0.000000 -0.125000
v -1.000000 0.000000 -0.125000
v -1.250000 0.000000 0.125000
v -1.000000 0.000000 0.125000
v -1.250000 1.500000 0.125000
v -1.000000 1.500000 0.125000
v -1.000000 0.000000 0.125000
v -1.000000 0.000000 -0.125000
v -1.000000 1.500000 0.125000
v -1.000000 1.500000 -0.125000
v -1.000000 0.000000 -0.125000
v -1.250000 0.000000 -0.125000
v -1.000000 1.500000 -0.125000
v -1.250000 1.500000 -0.125000
v -1.250000 0.000000 -0.125000
v -1.250000 0.000000 0.125000
v -1.250000 1.500000 -0.125000
v -1.250000 1.500000 0.125000
v 1.000000 0.000000 0.125000
v 1.250000 0.000000 0.125000
v 1.000000 0.000000 -0.125000
v 1.250000 0.000000 -0.125000
v 1.000000 0.000000 0.125000
v 1.250000 0.000000 0.125000
v 1.000000 1.500000 0.125000
v 1.250000 1.500000 0.125000
v 1.250000 0.000000 0.125000
v 1.250000 0.000000 -0.125000
v 1.250000 1.500000 0.125000
v 1.250000 1.500000 -0.125000
v 1.250000 0.000000 -0.125000
v 1.000000 0.000000 -0.125000
v 1.250000 1.500000 -0.125000
v 1.000000 1.500000 -0.125000
v 1.000000 0.000000 -0.125000
v 1.000000 0.000000 0.125000
v 1.000000 1.500000 -0.125000
v 1.000000 1.500000 0.125000
v -1.375000 1.500000 -0.125000
v -1.375000 1.500000 0.125000
v 0.875000 1.500000 -0.125000
v 0.875000 1.500000 0.125000
v 1.375000 1.500000 -0.125000
v 1.375000 1.500000 0.125000
v -1.375000 1.750000 -0.125000
v -1.375000 1.750000 0.125000
v 0.875000 1.750000 -0.125000
v 0.875000 1.750000 0.125000
v 1.375000 1.750000 -0.125000
v 1.375000 1.750000 0.125000
v -1.375000 1.750000 -0.125000
v -1.375000 1.500000 -0.125000
v 0.875000 1.750000 -0.125000
v 0.875000 1.500000 -0.125000
v 1.375000 1.750000 -0.125000
v 1.375000 1.500000 -0.125000
v -1.375000 1.750000 0.125000
v -1.375000 1.500000 0.125000
v 0.875000 1.750000 0.125000
v 0.875000 1.500000 0.125000
v 1.375000 1.750000 0.125000
v 1.375000 1.500000 0.125000
v 1.375000 1.750000 0.125000
v 1.375000 1.500000 0.125000
v 1.375000 1.750000 -0.125000
v 1.375000 1.500000 -0.125000
v -1.375000 1.750000 0.125000
v -1.375000 1.500000 0.125000
v -1.375000 1.750000 -0.125000
v -1.375000 1.500000 -0.125000
v 0.000000 1.000000 0.000000
v 1.000000 1.000000 0.000000
v 0.000000 0.000000 0.000000
v 1.000000 0.000000 0.000000
v 0.000000 1.500000 0.000000
v 1.000000 1.500000 0.000000
v 0.000000 1.000000 0.000000
v 1.000000 1.000000 0.000000
v -1.000000 1.000000 0.000000
v 0.000000 1.000000 0.000000
v -1.000000 0.000000 0.000000
v 0.000000 0.000000 0.000000
v -1.000000 1.500000 0.000000
v 0.000000 1.500000 0.000000
v -1.000000 1.000000 0.000000
v 0.000000 1.000000 0.000000
v 0.000000 1.000000 -0.001000
v 1.000000 1.000000 -0.001000
v 0.000000 0.000000 -0.001000
v 1.000000 0.000000 -0.001000
v 0.000000 1.500000 -0.001000
v 1.000000 1.500000 -0.001000
v 0.000000 1.000000 -0.001000
v 1.000000 1.000000 -0.001000
v -1.000000 1.000000 -0.001000
v 0.000000 1.000000 -0.001000
v -1.000000 0.000000 -0.001000
v 0.000000 0.000000 -0.001000
v -1.000000 1.500000 -0.001000
v 0.000000 1.500000 -0.001000
v -1.000000 1.000000 -0.001000
v 0.000000 1.000000 -0.001000
vn -0.0000 -1.0000 -0.0000
vn -0.0000 -0.0000 1.0000
vn 1.0000 -0.0000 -0.0000
vn -0.0000 -0.0000 -1.0000
vn -1.0000 -0.0000 -0.0000
vn -0.0000 1.0000 -0.0000
vt 0.609756 0.364198
vt 0.609756 0.388889
vt 0.634146 0.388889
vt 0.634146 0.364198
vt 0.634146 0.512346
vt 0.609756 0.512346
vt 0.640244 0.364198
vt 0.664634 0.364198
vt 0.664634 0.512346
vt 0.640244 0.512346
vt 0.670732 0.364198
vt 0.695122 0.364198
vt 0.695122 0.512346
vt 0.670732 0.512346
vt 0.701219 0.364198
vt 0.725610 0.364198
vt 0.725610 0.512346
vt 0.701219 0.512346
vt 0.658537 0.543210
vt 0.878049 0.543210
vt 0.878049 0.518519
vt 0.658537 0.518519
vt 0.829268 0.543210
vt 0.829268 0.518519
vt 0.658537 0.567901
vt 0.878049 0.567901
vt 0.829268 0.567901
vt 0.884146 0.543210
vt 0.884146 0.518519
vt 0.908537 0.518519
vt 0.908537 0.543210
vt 0.628049 0.543210
vt 0.652439 0.543210
vt 0.652439 0.518519
vt 0.628049 0.518519
vt 0.810976 0.358025
vt 0.810976 0.259259
vt 0.713415 0.259259
vt 0.713415 0.358025
vt 0.810976 0.308642
vt 0.713415 0.308642
s 0
usemtl mFG_Fortress
f 1/1/1 3/2/1 4/3/1 2/4/1
f 5/1/2 6/4/2 8/5/2 7/6/2
f 9/7/3 10/8/3 12/9/3 11/10/3
f 13/11/4 14/12/4 16/13/4 15/14/4
f 17/15/5 18/16/5 20/17/5 19/18/5
f 21/1/1 23/2/1 24/3/1 22/4/1
f 25/1/2 26/4/2 28/5/2 27/6/2
f 29/7/3 30/8/3 32/9/3 31/10/3
f 33/11/4 34/12/4 36/13/4 35/14/4
f 37/15/5 38/16/5 40/17/5 39/18/5
f 41/19/1 43/20/1 44/21/1 42/22/1
f 43/23/1 45/20/1 46/21/1 44/24/1
f 47/25/6 48/19/6 50/20/6 49/26/6
f 49/27/6 50/23/6 52/20/6 51/26/6
f 53/19/4 55/20/4 56/21/4 54/22/4
f 55/23/4 57/20/4 58/21/4 56/24/4
f 59/19/2 60/22/2 62/21/2 61/20/2
f 61/23/2 62/24/2 64/21/2 63/20/2
f 65/28/3 66/29/3 68/30/3 67/31/3
f 69/32/5 71/33/5 72/34/5 70/35/5
f 73/36/2 75/37/2 76/38/2 74/39/2
f 77/36/2 79/40/2 80/41/2 78/39/2
f 81/36/2 83/37/2 84/38/2 82/39/2
f 85/36/2 87/40/2 88/41/2 86/39/2
f 89/36/4 90/39/4 92/38/4 91/37/4
f 93/36/4 94/39/4 96/41/4 95/40/4
f 97/36/4 98/39/4 100/38/4 99/37/4
f 101/36/4 102/39/4 104/41/4 103/40/4
