# Blender 4.0.2
# www.blender.org
mtllib Fortress_Fences_03.mtl
o Fortress_Fences_03
v 0.000000 0.000000 0.125000
v 1.000000 0.000000 0.125000
v 0.000000 0.500000 0.125000
v 1.000000 0.500000 0.125000
v 0.000000 0.500000 -0.125000
v 0.000000 0.000000 -0.125000
v 1.000000 0.000000 -0.125000
v 1.000000 0.500000 -0.125000
v 0.312500 0.500000 0.125000
v 0.687500 0.500000 0.125000
v 0.312500 0.750000 0.125000
v 0.687500 0.750000 0.125000
v 0.687500 0.500000 -0.125000
v 0.312500 0.500000 -0.125000
v 0.687500 0.750000 -0.125000
v 0.312500 0.750000 -0.125000
v 0.687500 0.500000 -0.125000
v 0.687500 0.500000 0.125000
v 0.687500 0.750000 -0.125000
v 0.687500 0.750000 0.125000
v 0.312500 0.500000 0.125000
v 0.312500 0.500000 -0.125000
v 0.312500 0.750000 0.125000
v 0.312500 0.750000 -0.125000
v 0.312500 0.750000 0.125000
v 0.687500 0.750000 0.125000
v 0.312500 0.750000 -0.125000
v 0.687500 0.750000 -0.125000
v -1.000000 0.000000 0.125000
v 0.000000 0.000000 0.125000
v -1.000000 0.500000 0.125000
v 0.000000 0.500000 0.125000
v -1.000000 0.500000 -0.125000
v -1.000000 0.000000 -0.125000
v 0.000000 0.000000 -0.125000
v 0.000000 0.500000 -0.125000
v -0.687500 0.500000 0.125000
v -0.312500 0.500000 0.125000
v -0.687500 0.750000 0.125000
v -0.312500 0.750000 0.125000
v -0.312500 0.500000 -0.125000
v -0.687500 0.500000 -0.125000
v -0.312500 0.750000 -0.125000
v -0.687500 0.750000 -0.125000
v -0.312500 0.500000 -0.125000
v -0.312500 0.500000 0.125000
v -0.312500 0.750000 -0.125000
v -0.312500 0.750000 0.125000
v -0.687500 0.500000 0.125000
v -0.687500 0.500000 -0.125000
v -0.687500 0.750000 0.125000
v -0.687500 0.750000 -0.125000
v -0.687500 0.750000 0.125000
v -0.312500 0.750000 0.125000
v -0.687500 0.750000 -0.125000
v -0.312500 0.750000 -0.125000
vn -0.0000 -0.0000 1.0000
vn -0.0000 -0.0000 -1.0000
vn -0.0000 -1.0000 -0.0000
vn 1.0000 -0.0000 -0.0000
vn -0.0000 1.0000 -0.0000
vn -1.0000 -0.0000 -0.0000
vt 0.012195 0.314815
vt 0.109756 0.314815
vt 0.109756 0.364198
vt 0.012195 0.364198
vt 0.012195 0.228395
vt 0.012195 0.203704
vt 0.109756 0.203704
vt 0.109756 0.228395
vt 0.097561 0.314815
vt 0.121951 0.314815
vt 0.121951 0.364198
vt 0.097561 0.364198
vt 0.109756 0.172840
vt 0.109756 0.197531
vt 0.012195 0.197531
vt 0.012195 0.172840
vt 0.048780 0.314815
vt 0.085366 0.314815
vt 0.085366 0.339506
vt 0.048780 0.339506
vt 0.060976 0.314815
vt 0.060976 0.339506
vt 0.048780 0.172840
vt 0.048780 0.197531
vt 0.042683 0.364198
vt 0.067073 0.364198
vt 0.067073 0.314815
vt 0.042683 0.314815
s 0
usemtl mFG_Fortress
f 1/1/1 2/2/1 4/3/1 3/4/1
f 6/1/2 5/4/2 8/3/2 7/2/2
f 1/5/3 6/6/3 7/7/3 2/8/3
f 2/9/4 7/10/4 8/11/4 4/12/4
f 4/13/5 8/14/5 5/15/5 3/16/5
f 9/17/1 10/18/1 12/19/1 11/20/1
f 13/17/2 14/18/2 16/19/2 15/20/2
f 17/21/4 19/22/4 20/19/4 18/18/4
f 21/21/6 23/22/6 24/19/6 22/18/6
f 26/23/5 28/24/5 27/15/5 25/16/5
f 29/1/1 30/2/1 32/3/1 31/4/1
f 34/1/2 33/4/2 36/3/2 35/2/2
f 29/5/3 34/6/3 35/7/3 30/8/3
f 31/25/6 33/26/6 34/27/6 29/28/6
f 32/13/5 36/14/5 33/15/5 31/16/5
f 37/17/1 38/18/1 40/19/1 39/20/1
f 41/17/2 42/18/2 44/19/2 43/20/2
f 45/21/4 47/22/4 48/19/4 46/18/4
f 49/21/6 51/22/6 52/19/6 50/18/6
f 54/23/5 56/24/5 55/15/5 53/16/5
