# Blender 4.0.2
# www.blender.org
mtllib Fortress_Floor_06.mtl
o Fortress_Floor_06
v -1.500000 0.000000 -1.500000
v -1.500000 0.000000 -0.500000
v -0.500000 0.000000 -0.500000
v -0.500000 0.000000 -1.500000
v -0.500000 0.000000 -1.500000
v -0.500000 0.000000 -0.500000
v 0.500000 0.000000 -0.500000
v 0.500000 0.000000 -1.500000
v 0.500000 0.000000 -1.500000
v 0.500000 0.000000 -0.500000
v 1.500000 0.000000 -0.500000
v 1.500000 0.000000 -1.500000
v -1.500000 0.062500 -0.500000
v -1.500000 0.062500 0.500000
v -0.500000 0.062500 0.500000
v -0.500000 0.062500 -0.500000
v -0.500000 0.000000 -0.500000
v -0.500000 0.000000 0.500000
v 0.500000 0.000000 0.500000
v 0.500000 0.000000 -0.500000
v 0.500000 0.062500 -0.500000
v 0.500000 0.062500 0.500000
v 1.500000 0.062500 0.500000
v 1.500000 0.062500 -0.500000
v -1.500000 0.000000 0.500000
v -1.500000 0.000000 1.500000
v -0.500000 0.000000 1.500000
v -0.500000 0.000000 0.500000
v -0.500000 0.062500 0.500000
v -0.500000 0.062500 1.500000
v 0.500000 0.062500 1.500000
v 0.500000 0.062500 0.500000
v 0.500000 0.000000 0.500000
v 0.500000 0.000000 1.500000
v 1.500000 0.000000 1.500000
v 1.500000 0.000000 0.500000
v 0.500000 0.062500 0.500000
v 0.500000 0.000000 0.500000
v 1.500000 0.000000 0.500000
v 1.500000 0.062500 0.500000
v 0.500000 0.062500 -0.500000
v 0.500000 0.000000 -0.500000
v 1.500000 0.000000 -0.500000
v 1.500000 0.062500 -0.500000
v 1.500000 0.062500 0.500000
v 1.500000 0.000000 0.500000
v 1.500000 0.000000 -0.500000
v 1.500000 0.062500 -0.500000
v 0.500000 0.062500 0.500000
v 0.500000 0.000000 0.500000
v 0.500000 0.000000 -0.500000
v 0.500000 0.062500 -0.500000
v -1.500000 0.062500 0.500000
v -1.500000 0.000000 0.500000
v -0.500000 0.000000 0.500000
v -0.500000 0.062500 0.500000
v -1.500000 0.062500 -0.500000
v -1.500000 0.000000 -0.500000
v -0.500000 0.000000 -0.500000
v -0.500000 0.062500 -0.500000
v -0.500000 0.062500 0.500000
v -0.500000 0.000000 0.500000
v -0.500000 0.000000 -0.500000
v -0.500000 0.062500 -0.500000
v -1.500000 0.062500 0.500000
v -1.500000 0.000000 0.500000
v -1.500000 0.000000 -0.500000
v -1.500000 0.062500 -0.500000
v -0.500000 0.062500 1.500000
v -0.500000 0.000000 1.500000
v 0.500000 0.000000 1.500000
v 0.500000 0.062500 1.500000
v -0.500000 0.062500 0.500000
v -0.500000 0.000000 0.500000
v 0.500000 0.000000 0.500000
v 0.500000 0.062500 0.500000
v 0.500000 0.062500 1.500000
v 0.500000 0.000000 1.500000
v 0.500000 0.000000 0.500000
v 0.500000 0.062500 0.500000
v -0.500000 0.062500 1.500000
v -0.500000 0.000000 1.500000
v -0.500000 0.000000 0.500000
v -0.500000 0.062500 0.500000
vn -0.0000 1.0000 -0.0000
vn -0.0000 -0.0000 1.0000
vn -0.0000 -0.0000 -1.0000
vn 1.0000 -0.0000 -0.0000
vn -1.0000 -0.0000 -0.0000
vt 0.048780 0.012346
vt 0.146341 0.012346
vt 0.146341 0.111111
vt 0.048780 0.111111
vt 0.463415 0.012346
vt 0.560976 0.012346
vt 0.560976 0.111111
vt 0.463415 0.111111
vt 0.359756 0.012346
vt 0.457317 0.012346
vt 0.457317 0.111111
vt 0.359756 0.111111
vt 0.152439 0.012346
vt 0.250000 0.012346
vt 0.250000 0.111111
vt 0.152439 0.111111
vt 0.012195 0.160494
vt 0.109756 0.160494
vt 0.109756 0.166667
vt 0.012195 0.166667
s 0
usemtl mFG_Fortress
f 2/1/1 3/2/1 4/3/1 1/4/1
f 6/1/1 7/2/1 8/3/1 5/4/1
f 10/1/1 11/2/1 12/3/1 9/4/1
f 14/5/1 15/6/1 16/7/1 13/8/1
f 18/1/1 19/2/1 20/3/1 17/4/1
f 22/9/1 23/10/1 24/11/1 21/12/1
f 26/1/1 27/2/1 28/3/1 25/4/1
f 30/13/1 31/14/1 32/15/1 29/16/1
f 34/1/1 35/2/1 36/3/1 33/4/1
f 38/17/2 39/18/2 40/19/2 37/20/2
f 42/17/3 41/20/3 44/19/3 43/18/3
f 46/17/4 47/18/4 48/19/4 45/20/4
f 50/17/5 49/20/5 52/19/5 51/18/5
f 54/17/2 55/18/2 56/19/2 53/20/2
f 58/17/3 57/20/3 60/19/3 59/18/3
f 62/17/4 63/18/4 64/19/4 61/20/4
f 66/17/5 65/20/5 68/19/5 67/18/5
f 70/17/2 71/18/2 72/19/2 69/20/2
f 74/17/3 73/20/3 76/19/3 75/18/3
f 78/17/4 79/18/4 80/19/4 77/20/4
f 82/17/5 81/20/5 84/19/5 83/18/5
