# Blender 4.0.2
# www.blender.org
mtllib Fortress_Stairs_6.mtl
o Fortress_Stairs_6
v 0.500000 2.000000 -0.250000
v 1.500000 2.000000 -0.250000
v 0.500000 1.750000 -0.250000
v 1.500000 1.750000 -0.250000
v 0.500000 0.250000 1.500000
v 1.500000 0.250000 1.500000
v 0.500000 0.250000 1.250000
v 1.500000 0.250000 1.250000
v 0.500000 1.750000 0.000000
v 1.500000 1.750000 0.000000
v 0.500000 1.500000 0.000000
v 1.500000 1.500000 0.000000
v 0.500000 0.500000 1.250000
v 1.500000 0.500000 1.250000
v 0.500000 0.500000 1.000000
v 1.500000 0.500000 1.000000
v 0.500000 1.500000 0.250000
v 1.500000 1.500000 0.250000
v 0.500000 1.250000 0.250000
v 1.500000 1.250000 0.250000
v 0.500000 0.750000 1.000000
v 1.500000 0.750000 1.000000
v 0.500000 0.750000 0.750000
v 1.500000 0.750000 0.750000
v 0.500000 1.250000 0.500000
v 1.500000 1.250000 0.500000
v 0.500000 1.000000 0.500000
v 1.500000 1.000000 0.500000
v 0.500000 1.000000 0.750000
v 1.500000 1.000000 0.750000
v 0.500000 1.000000 0.500000
v 1.500000 1.000000 0.500000
v 0.500000 1.000000 0.750000
v 1.500000 1.000000 0.750000
v 0.500000 0.750000 0.750000
v 1.500000 0.750000 0.750000
v 0.500000 1.250000 0.500000
v 1.500000 1.250000 0.500000
v 0.500000 1.250000 0.250000
v 1.500000 1.250000 0.250000
v 0.500000 0.750000 1.000000
v 1.500000 0.750000 1.000000
v 0.500000 0.500000 1.000000
v 1.500000 0.500000 1.000000
v 0.500000 1.500000 0.250000
v 1.500000 1.500000 0.250000
v 0.500000 1.500000 0.000000
v 1.500000 1.500000 0.000000
v 0.500000 0.500000 1.250000
v 1.500000 0.500000 1.250000
v 0.500000 0.250000 1.250000
v 1.500000 0.250000 1.250000
v 0.500000 1.750000 0.000000
v 1.500000 1.750000 0.000000
v 0.500000 1.750000 -0.250000
v 1.500000 1.750000 -0.250000
v 0.500000 0.250000 1.500000
v 1.500000 0.250000 1.500000
v 0.500000 0.000000 1.500000
v 1.500000 0.000000 1.500000
v 0.500000 2.000000 -0.250000
v 1.500000 2.000000 -0.250000
v 0.500000 2.000000 -0.500000
v 1.500000 2.000000 -0.500000
v -1.500000 2.000000 -0.250000
v -0.500000 2.000000 -0.250000
v -1.500000 1.750000 -0.250000
v -0.500000 1.750000 -0.250000
v -1.500000 0.250000 1.500000
v -0.500000 0.250000 1.500000
v -1.500000 0.250000 1.250000
v -0.500000 0.250000 1.250000
v -1.500000 1.750000 0.000000
v -0.500000 1.750000 0.000000
v -1.500000 1.500000 0.000000
v -0.500000 1.500000 0.000000
v -1.500000 0.500000 1.250000
v -0.500000 0.500000 1.250000
v -1.500000 0.500000 1.000000
v -0.500000 0.500000 1.000000
v -1.500000 1.500000 0.250000
v -0.500000 1.500000 0.250000
v -1.500000 1.250000 0.250000
v -0.500000 1.250000 0.250000
v -1.500000 0.750000 1.000000
v -0.500000 0.750000 1.000000
v -1.500000 0.750000 0.750000
v -0.500000 0.750000 0.750000
v -1.500000 1.250000 0.500000
v -0.500000 1.250000 0.500000
v -1.500000 1.000000 0.500000
v -0.500000 1.000000 0.500000
v -1.500000 1.000000 0.750000
v -0.500000 1.000000 0.750000
v -1.500000 1.000000 0.500000
v -0.500000 1.000000 0.500000
v -1.500000 1.000000 0.750000
v -0.500000 1.000000 0.750000
v -1.500000 0.750000 0.750000
v -0.500000 0.750000 0.750000
v -1.500000 1.250000 0.500000
v -0.500000 1.250000 0.500000
v -1.500000 1.250000 0.250000
v -0.500000 1.250000 0.250000
v -1.500000 0.750000 1.000000
v -0.500000 0.750000 1.000000
v -1.500000 0.500000 1.000000
v -0.500000 0.500000 1.000000
v -1.500000 1.500000 0.250000
v -0.500000 1.500000 0.250000
v -1.500000 1.500000 0.000000
v -0.500000 1.500000 0.000000
v -1.500000 0.500000 1.250000
v -0.500000 0.500000 1.250000
v -1.500000 0.250000 1.250000
v -0.500000 0.250000 1.250000
v -1.500000 1.750000 0.000000
v -0.500000 1.750000 0.000000
v -1.500000 1.750000 -0.250000
v -0.500000 1.750000 -0.250000
v -1.500000 0.250000 1.500000
v -0.500000 0.250000 1.500000
v -1.500000 0.000000 1.500000
v -0.500000 0.000000 1.500000
v -1.500000 2.000000 -0.250000
v -0.500000 2.000000 -0.250000
v -1.500000 2.000000 -0.500000
v -0.500000 2.000000 -0.500000
v -0.500000 2.000000 -0.250000
v 0.500000 2.000000 -0.250000
v -0.500000 1.750000 -0.250000
v 0.500000 1.750000 -0.250000
v -0.500000 0.250000 1.500000
v 0.500000 0.250000 1.500000
v -0.500000 0.250000 1.250000
v 0.500000 0.250000 1.250000
v -0.500000 1.750000 0.000000
v 0.500000 1.750000 0.000000
v -0.500000 1.500000 0.000000
v 0.500000 1.500000 0.000000
v -0.500000 0.500000 1.250000
v 0.500000 0.500000 1.250000
v -0.500000 0.500000 1.000000
v 0.500000 0.500000 1.000000
v -0.500000 1.500000 0.250000
v 0.500000 1.500000 0.250000
v -0.500000 1.250000 0.250000
v 0.500000 1.250000 0.250000
v -0.500000 0.750000 1.000000
v 0.500000 0.750000 1.000000
v -0.500000 0.750000 0.750000
v 0.500000 0.750000 0.750000
v -0.500000 1.250000 0.500000
v 0.500000 1.250000 0.500000
v -0.500000 1.000000 0.500000
v 0.500000 1.000000 0.500000
v -0.500000 1.000000 0.750000
v 0.500000 1.000000 0.750000
v -0.500000 1.000000 0.500000
v 0.500000 1.000000 0.500000
v -0.500000 1.000000 0.750000
v 0.500000 1.000000 0.750000
v -0.500000 0.750000 0.750000
v 0.500000 0.750000 0.750000
v -0.500000 1.250000 0.500000
v 0.500000 1.250000 0.500000
v -0.500000 1.250000 0.250000
v 0.500000 1.250000 0.250000
v -0.500000 0.750000 1.000000
v 0.500000 0.750000 1.000000
v -0.500000 0.500000 1.000000
v 0.500000 0.500000 1.000000
v -0.500000 1.500000 0.250000
v 0.500000 1.500000 0.250000
v -0.500000 1.500000 0.000000
v 0.500000 1.500000 0.000000
v -0.500000 0.500000 1.250000
v 0.500000 0.500000 1.250000
v -0.500000 0.250000 1.250000
v 0.500000 0.250000 1.250000
v -0.500000 1.750000 0.000000
v 0.500000 1.750000 0.000000
v -0.500000 1.750000 -0.250000
v 0.500000 1.750000 -0.250000
v -0.500000 0.250000 1.500000
v 0.500000 0.250000 1.500000
v -0.500000 0.000000 1.500000
v 0.500000 0.000000 1.500000
v -0.500000 2.000000 -0.250000
v 0.500000 2.000000 -0.250000
v -0.500000 2.000000 -0.500000
v 0.500000 2.000000 -0.500000
v -0.500000 0.000000 1.500000
v 0.500000 0.000000 1.500000
v -0.500000 0.000000 0.500000
v 0.500000 0.000000 0.500000
v -1.500000 0.000000 1.500000
v -0.500000 0.000000 1.500000
v -1.500000 0.000000 0.500000
v -0.500000 0.000000 0.500000
v 0.500000 0.000000 1.500000
v 1.500000 0.000000 1.500000
v 0.500000 0.000000 0.500000
v 1.500000 0.000000 0.500000
v -0.500000 0.000000 0.500000
v 0.500000 0.000000 0.500000
v -0.500000 0.000000 -0.500000
v 0.500000 0.000000 -0.500000
v -1.500000 0.000000 0.500000
v -0.500000 0.000000 0.500000
v -1.500000 0.000000 -0.500000
v -0.500000 0.000000 -0.500000
v 0.500000 0.000000 0.500000
v 1.500000 0.000000 0.500000
v 0.500000 0.000000 -0.500000
v 1.500000 0.000000 -0.500000
v 0.500000 2.250000 -0.500000
v 1.500000 2.250000 -0.500000
v 0.500000 2.250000 -0.750000
v 1.500000 2.250000 -0.750000
v 0.500000 2.500000 -0.750000
v 1.500000 2.500000 -0.750000
v 0.500000 2.500000 -1.000000
v 1.500000 2.500000 -1.000000
v 0.500000 2.750000 -1.000000
v 1.500000 2.750000 -1.000000
v 0.500000 2.750000 -1.250000
v 1.500000 2.750000 -1.250000
v 0.500000 3.000000 -1.250000
v 1.500000 3.000000 -1.250000
v 0.500000 3.000000 -1.500000
v 1.500000 3.000000 -1.500000
v 0.500000 3.000000 -1.250000
v 1.500000 3.000000 -1.250000
v 0.500000 2.750000 -1.250000
v 1.500000 2.750000 -1.250000
v 0.500000 2.750000 -1.000000
v 1.500000 2.750000 -1.000000
v 0.500000 2.500000 -1.000000
v 1.500000 2.500000 -1.000000
v 0.500000 2.500000 -0.750000
v 1.500000 2.500000 -0.750000
v 0.500000 2.250000 -0.750000
v 1.500000 2.250000 -0.750000
v 0.500000 2.250000 -0.500000
v 1.500000 2.250000 -0.500000
v 0.500000 2.000000 -0.500000
v 1.500000 2.000000 -0.500000
v -1.500000 2.250000 -0.500000
v -0.500000 2.250000 -0.500000
v -1.500000 2.250000 -0.750000
v -0.500000 2.250000 -0.750000
v -1.500000 2.500000 -0.750000
v -0.500000 2.500000 -0.750000
v -1.500000 2.500000 -1.000000
v -0.500000 2.500000 -1.000000
v -1.500000 2.750000 -1.000000
v -0.500000 2.750000 -1.000000
v -1.500000 2.750000 -1.250000
v -0.500000 2.750000 -1.250000
v -1.500000 3.000000 -1.250000
v -0.500000 3.000000 -1.250000
v -1.500000 3.000000 -1.500000
v -0.500000 3.000000 -1.500000
v -1.500000 3.000000 -1.250000
v -0.500000 3.000000 -1.250000
v -1.500000 2.750000 -1.250000
v -0.500000 2.750000 -1.250000
v -1.500000 2.750000 -1.000000
v -0.500000 2.750000 -1.000000
v -1.500000 2.500000 -1.000000
v -0.500000 2.500000 -1.000000
v -1.500000 2.500000 -0.750000
v -0.500000 2.500000 -0.750000
v -1.500000 2.250000 -0.750000
v -0.500000 2.250000 -0.750000
v -1.500000 2.250000 -0.500000
v -0.500000 2.250000 -0.500000
v -1.500000 2.000000 -0.500000
v -0.500000 2.000000 -0.500000
v -0.500000 2.250000 -0.500000
v 0.500000 2.250000 -0.500000
v -0.500000 2.250000 -0.750000
v 0.500000 2.250000 -0.750000
v -0.500000 2.500000 -0.750000
v 0.500000 2.500000 -0.750000
v -0.500000 2.500000 -1.000000
v 0.500000 2.500000 -1.000000
v -0.500000 2.750000 -1.000000
v 0.500000 2.750000 -1.000000
v -0.500000 2.750000 -1.250000
v 0.500000 2.750000 -1.250000
v -0.500000 3.000000 -1.250000
v 0.500000 3.000000 -1.250000
v -0.500000 3.000000 -1.500000
v 0.500000 3.000000 -1.500000
v -0.500000 3.000000 -1.250000
v 0.500000 3.000000 -1.250000
v -0.500000 2.750000 -1.250000
v 0.500000 2.750000 -1.250000
v -0.500000 2.750000 -1.000000
v 0.500000 2.750000 -1.000000
v -0.500000 2.500000 -1.000000
v 0.500000 2.500000 -1.000000
v -0.500000 2.500000 -0.750000
v 0.500000 2.500000 -0.750000
v -0.500000 2.250000 -0.750000
v 0.500000 2.250000 -0.750000
v -0.500000 2.250000 -0.500000
v 0.500000 2.250000 -0.500000
v -0.500000 2.000000 -0.500000
v 0.500000 2.000000 -0.500000
v -0.500000 0.000000 -0.500000
v 0.500000 0.000000 -0.500000
v -0.500000 0.000000 -1.500000
v 0.500000 0.000000 -1.500000
v -1.500000 0.000000 -0.500000
v -0.500000 0.000000 -0.500000
v -1.500000 0.000000 -1.500000
v -0.500000 0.000000 -1.500000
v 0.500000 0.000000 -0.500000
v 1.500000 0.000000 -0.500000
v 0.500000 0.000000 -1.500000
v 1.500000 0.000000 -1.500000
v 1.500000 3.000000 -1.500000
v -1.500000 3.000000 -1.500000
v 1.500000 0.000000 -1.500000
v -1.500000 0.000000 -1.500000
v 1.500000 1.500000 0.000000
v 1.500000 1.500000 0.250000
v 1.500000 1.250000 0.250000
v 1.500000 1.250000 0.500000
v 1.500000 1.000000 0.500000
v 1.500000 1.000000 0.750000
v 1.500000 0.750000 0.750000
v 1.500000 0.750000 1.000000
v 1.500000 0.500000 1.000000
v -1.500000 0.000000 -1.500000
v 1.500000 0.500000 1.250000
v -1.500000 0.000000 1.500000
v 1.500000 0.250000 1.250000
v -1.500000 3.000000 -1.500000
v 1.500000 3.000000 -1.250000
v 1.500000 2.750000 -1.250000
v -1.500000 0.250000 1.500000
v -1.500000 3.000000 -1.250000
v -1.500000 0.250000 1.250000
v -1.500000 0.500000 1.250000
v -1.500000 0.500000 1.000000
v -1.500000 0.750000 1.000000
v -1.500000 0.750000 0.750000
v -1.500000 1.000000 0.750000
v -1.500000 1.000000 0.500000
v -1.500000 1.250000 0.500000
v -1.500000 1.250000 0.250000
v -1.500000 1.500000 0.250000
v 1.500000 0.250000 1.500000
v 1.500000 3.000000 -1.500000
v 1.500000 0.000000 1.500000
v 1.500000 0.000000 -1.500000
v -1.500000 1.500000 0.000000
v -1.500000 1.750000 0.000000
v -1.500000 1.750000 -0.250000
v -1.500000 2.000000 -0.250000
v -1.500000 2.000000 -0.500000
v -1.500000 2.250000 -0.500000
v -1.500000 2.250000 -0.750000
v -1.500000 2.500000 -0.750000
v -1.500000 2.500000 -1.000000
v -1.500000 2.750000 -1.000000
v -1.500000 2.750000 -1.250000
v 1.500000 2.750000 -1.000000
v 1.500000 2.500000 -1.000000
v 1.500000 2.500000 -0.750000
v 1.500000 2.250000 -0.750000
v 1.500000 2.250000 -0.500000
v 1.500000 2.000000 -0.500000
v 1.500000 2.000000 -0.250000
v 1.500000 1.750000 -0.250000
v 1.500000 1.750000 0.000000
vn -0.0000 -0.0000 1.0000
vn -0.0000 1.0000 -0.0000
vn -0.0000 -1.0000 -0.0000
vn -0.0000 -0.0000 -1.0000
vn -1.0000 -0.0000 -0.0000
vn 1.0000 -0.0000 -0.0000
vt 0.006098 0.487654
vt 0.006098 0.512346
vt 0.103659 0.512346
vt 0.103659 0.487654
vt 0.048780 0.259259
vt 0.146341 0.259259
vt 0.146341 0.283951
vt 0.048780 0.283951
vt 0.006098 0.462963
vt 0.103659 0.462963
vt 0.006098 0.438272
vt 0.103659 0.438272
vt 0.006098 0.413580
vt 0.103659 0.413580
vt 0.006098 0.388889
vt 0.103659 0.388889
vt 0.006098 0.364198
vt 0.103659 0.364198
vt 0.006098 0.339506
vt 0.103659 0.339506
vt 0.006098 0.314815
vt 0.103659 0.314815
vt 0.048780 0.012346
vt 0.048780 0.111111
vt 0.146341 0.111111
vt 0.146341 0.012346
vt 0.006098 0.617284
vt 0.006098 0.913580
vt 0.298781 0.913580
vt 0.298781 0.617284
vt 0.298781 0.314815
vt 0.298781 0.339506
vt 0.274390 0.339506
vt 0.274390 0.364198
vt 0.250000 0.364198
vt 0.250000 0.388889
vt 0.225610 0.388889
vt 0.225610 0.413580
vt 0.201220 0.413580
vt 0.201220 0.438272
vt 0.176829 0.438272
vt 0.176829 0.462963
vt 0.152439 0.462963
vt 0.152439 0.487654
vt 0.128049 0.487654
vt 0.128049 0.512346
vt 0.103659 0.537037
vt 0.079268 0.537037
vt 0.079268 0.561728
vt 0.054878 0.561728
vt 0.054878 0.586420
vt 0.030488 0.586420
vt 0.030488 0.611111
vt 0.006098 0.611111
s 0
usemtl mFG_Fortress
f 4/1/1 2/2/1 1/3/1 3/4/1
f 5/5/2 6/6/2 8/7/2 7/8/2
f 12/9/1 10/1/1 9/4/1 11/10/1
f 13/5/2 14/6/2 16/7/2 15/8/2
f 20/11/1 18/9/1 17/10/1 19/12/1
f 21/5/2 22/6/2 24/7/2 23/8/2
f 28/13/1 26/11/1 25/12/1 27/14/1
f 29/5/2 30/6/2 32/7/2 31/8/2
f 36/15/1 34/13/1 33/14/1 35/16/1
f 37/5/2 38/6/2 40/7/2 39/8/2
f 44/17/1 42/15/1 41/16/1 43/18/1
f 45/5/2 46/6/2 48/7/2 47/8/2
f 52/19/1 50/17/1 49/18/1 51/20/1
f 53/5/2 54/6/2 56/7/2 55/8/2
f 60/21/1 58/19/1 57/20/1 59/22/1
f 61/5/2 62/6/2 64/7/2 63/8/2
f 68/1/1 66/2/1 65/3/1 67/4/1
f 69/5/2 70/6/2 72/7/2 71/8/2
f 76/9/1 74/1/1 73/4/1 75/10/1
f 77/5/2 78/6/2 80/7/2 79/8/2
f 84/11/1 82/9/1 81/10/1 83/12/1
f 85/5/2 86/6/2 88/7/2 87/8/2
f 92/13/1 90/11/1 89/12/1 91/14/1
f 93/5/2 94/6/2 96/7/2 95/8/2
f 100/15/1 98/13/1 97/14/1 99/16/1
f 101/5/2 102/6/2 104/7/2 103/8/2
f 108/17/1 106/15/1 105/16/1 107/18/1
f 109/5/2 110/6/2 112/7/2 111/8/2
f 116/19/1 114/17/1 113/18/1 115/20/1
f 117/5/2 118/6/2 120/7/2 119/8/2
f 124/21/1 122/19/1 121/20/1 123/22/1
f 125/5/2 126/6/2 128/7/2 127/8/2
f 132/1/1 130/2/1 129/3/1 131/4/1
f 133/5/2 134/6/2 136/7/2 135/8/2
f 140/9/1 138/1/1 137/4/1 139/10/1
f 141/5/2 142/6/2 144/7/2 143/8/2
f 148/11/1 146/9/1 145/10/1 147/12/1
f 149/5/2 150/6/2 152/7/2 151/8/2
f 156/13/1 154/11/1 153/12/1 155/14/1
f 157/5/2 158/6/2 160/7/2 159/8/2
f 164/15/1 162/13/1 161/14/1 163/16/1
f 165/5/2 166/6/2 168/7/2 167/8/2
f 172/17/1 170/15/1 169/16/1 171/18/1
f 173/5/2 174/6/2 176/7/2 175/8/2
f 180/19/1 178/17/1 177/18/1 179/20/1
f 181/5/2 182/6/2 184/7/2 183/8/2
f 188/21/1 186/19/1 185/20/1 187/22/1
f 189/5/2 190/6/2 192/7/2 191/8/2
f 193/23/3 195/24/3 196/25/3 194/26/3
f 197/23/3 199/24/3 200/25/3 198/26/3
f 201/23/3 203/24/3 204/25/3 202/26/3
f 205/23/3 207/24/3 208/25/3 206/26/3
f 209/23/3 211/24/3 212/25/3 210/26/3
f 213/23/3 215/24/3 216/25/3 214/26/3
f 217/5/2 218/6/2 220/7/2 219/8/2
f 221/5/2 222/6/2 224/7/2 223/8/2
f 225/5/2 226/6/2 228/7/2 227/8/2
f 229/5/2 230/6/2 232/7/2 231/8/2
f 236/15/1 234/13/1 233/14/1 235/16/1
f 240/17/1 238/15/1 237/16/1 239/18/1
f 244/19/1 242/17/1 241/18/1 243/20/1
f 248/21/1 246/19/1 245/20/1 247/22/1
f 249/5/2 250/6/2 252/7/2 251/8/2
f 253/5/2 254/6/2 256/7/2 255/8/2
f 257/5/2 258/6/2 260/7/2 259/8/2
f 261/5/2 262/6/2 264/7/2 263/8/2
f 268/15/1 266/13/1 265/14/1 267/16/1
f 272/17/1 270/15/1 269/16/1 271/18/1
f 276/19/1 274/17/1 273/18/1 275/20/1
f 280/21/1 278/19/1 277/20/1 279/22/1
f 281/5/2 282/6/2 284/7/2 283/8/2
f 285/5/2 286/6/2 288/7/2 287/8/2
f 289/5/2 290/6/2 292/7/2 291/8/2
f 293/5/2 294/6/2 296/7/2 295/8/2
f 300/15/1 298/13/1 297/14/1 299/16/1
f 304/17/1 302/15/1 301/16/1 303/18/1
f 308/19/1 306/17/1 305/18/1 307/20/1
f 312/21/1 310/19/1 309/20/1 311/22/1
f 313/23/3 315/24/3 316/25/3 314/26/3
f 317/23/3 319/24/3 320/25/3 318/26/3
f 321/23/3 323/24/3 324/25/3 322/26/3
f 328/27/4 326/28/4 325/29/4 327/30/4
f 338/21/5 340/31/5 345/32/5 347/33/5 348/34/5 349/35/5 350/36/5 351/37/5 352/38/5 353/39/5 354/40/5 355/41/5 356/42/5 361/43/5 362/44/5 363/45/5 364/46/5 365/3/5 366/47/5 367/48/5 368/49/5 369/50/5 370/51/5 371/52/5 346/53/5 342/54/5
f 360/21/6 358/54/6 343/53/6 344/52/6 372/51/6 373/50/6 374/49/6 375/48/6 376/47/6 377/3/6 378/46/6 379/45/6 380/44/6 329/43/6 330/42/6 331/41/6 332/40/6 333/39/6 334/38/6 335/37/6 336/36/6 337/35/6 339/34/6 341/33/6 357/32/6 359/31/6
