# Blender 4.0.2
# www.blender.org
mtllib Fortress_Door_3.mtl
o Fortress_Door_3
v 0.000000 0.000000 0.062500
v 0.000000 1.500000 0.062500
v 0.000000 0.000000 0.000000
v 0.000000 1.500000 0.000000
v -1.000000 1.500000 0.000000
v -1.000000 0.000000 0.000000
v -1.000000 1.500000 0.062500
v -1.000000 0.000000 0.062500
v -1.000000 1.500000 0.062500
v -1.000000 1.500000 0.000000
v -1.000000 0.000000 0.062500
v -1.000000 0.000000 0.000000
v 0.000000 1.500000 0.000000
v -1.000000 1.500000 0.000000
v 0.000000 1.500000 0.062500
v -1.000000 1.500000 0.062500
v 0.000000 0.000000 0.000000
v 0.000000 0.000000 0.062500
v 0.000000 1.500000 0.000000
v 0.000000 1.500000 0.062500
v -0.875000 0.625000 0.125000
v -0.875000 0.437500 0.125000
v -0.875000 0.625000 0.062500
v -0.875000 0.437500 0.062500
v -0.625000 0.437500 0.062500
v -0.625000 0.625000 0.062500
v -0.625000 0.437500 0.125000
v -0.625000 0.625000 0.125000
v -0.562500 0.625000 0.125000
v -0.562500 0.437500 0.125000
v -0.562500 0.625000 0.062500
v -0.562500 0.437500 0.062500
v -0.875000 0.687500 0.125000
v -0.562500 0.687500 0.125000
v -0.875000 0.625000 0.125000
v -0.562500 0.625000 0.125000
v -0.625000 0.625000 0.125000
v -0.812500 0.625000 0.125000
v -0.875000 0.625000 0.125000
v -0.875000 0.437500 0.125000
v -0.812500 0.437500 0.125000
v -0.812500 0.625000 0.125000
v -0.562500 0.437500 0.125000
v -0.562500 0.625000 0.125000
v -0.625000 0.437500 0.125000
v -0.625000 0.625000 0.125000
v -0.812500 0.375000 0.125000
v -0.625000 0.375000 0.125000
v -0.625000 0.437500 0.125000
v -0.812500 0.437500 0.125000
v -0.812500 0.625000 0.125000
v -0.812500 0.437500 0.125000
v -0.812500 0.625000 0.062500
v -0.812500 0.437500 0.062500
v -0.812500 0.375000 0.062500
v -0.625000 0.375000 0.062500
v -0.625000 0.375000 0.125000
v -0.812500 0.375000 0.125000
v -0.812500 0.437500 0.062500
v -0.625000 0.437500 0.062500
v -0.625000 0.437500 0.125000
v -0.812500 0.437500 0.125000
v -0.625000 0.625000 0.062500
v -0.812500 0.625000 0.062500
v -0.812500 0.687500 0.062500
v -0.625000 0.687500 0.062500
v -0.562500 0.687500 0.062500
v -0.875000 0.687500 0.062500
v -0.562500 0.687500 0.125000
v -0.875000 0.687500 0.125000
v -0.562500 0.625000 0.062500
v -0.875000 0.625000 0.062500
v -0.562500 0.625000 0.125000
v -0.875000 0.625000 0.125000
v -0.875000 0.687500 0.125000
v -0.875000 0.687500 0.062500
v -0.562500 0.625000 0.062500
v -0.562500 0.687500 0.062500
v -0.562500 0.625000 0.125000
v -0.562500 0.687500 0.125000
v -0.875000 0.625000 0.062500
v -0.875000 0.625000 0.125000
v -0.625000 0.437500 0.062500
v -0.625000 0.437500 0.125000
v -0.562500 0.437500 0.062500
v -0.562500 0.437500 0.125000
v -0.875000 0.437500 0.062500
v -0.875000 0.437500 0.125000
v -0.812500 0.437500 0.062500
v -0.812500 0.437500 0.125000
v -0.812500 0.375000 0.062500
v -0.812500 0.375000 0.125000
v -0.812500 0.437500 0.062500
v -0.812500 0.437500 0.125000
v -0.625000 0.375000 0.062500
v -0.625000 0.375000 0.125000
v -0.625000 0.437500 0.062500
v -0.625000 0.437500 0.125000
v -1.000000 0.000000 0.062500
v 0.000000 0.000000 0.062500
v -1.000000 0.000000 0.000000
v 0.000000 0.000000 0.000000
v -0.562500 0.625000 -0.062500
v -0.562500 0.437500 -0.062500
v -0.562500 0.625000 0.000000
v -0.562500 0.437500 0.000000
v -0.812500 0.437500 0.000000
v -0.812500 0.625000 0.000000
v -0.812500 0.437500 -0.062500
v -0.812500 0.625000 -0.062500
v -0.875000 0.625000 -0.062500
v -0.875000 0.437500 -0.062500
v -0.875000 0.625000 0.000000
v -0.875000 0.437500 0.000000
v -0.562500 0.687500 -0.062500
v -0.875000 0.687500 -0.062500
v -0.562500 0.625000 -0.062500
v -0.875000 0.625000 -0.062500
v -0.812500 0.625000 -0.062500
v -0.625000 0.625000 -0.062500
v -0.562500 0.625000 -0.062500
v -0.562500 0.437500 -0.062500
v -0.625000 0.437500 -0.062500
v -0.625000 0.625000 -0.062500
v -0.875000 0.437500 -0.062500
v -0.875000 0.625000 -0.062500
v -0.812500 0.437500 -0.062500
v -0.812500 0.625000 -0.062500
v -0.625000 0.375000 -0.062500
v -0.812500 0.375000 -0.062500
v -0.812500 0.437500 -0.062500
v -0.625000 0.437500 -0.062500
v -0.625000 0.625000 -0.062500
v -0.625000 0.437500 -0.062500
v -0.625000 0.625000 0.000000
v -0.625000 0.437500 0.000000
v -0.625000 0.375000 0.000000
v -0.812500 0.375000 0.000000
v -0.812500 0.375000 -0.062500
v -0.625000 0.375000 -0.062500
v -0.625000 0.437500 0.000000
v -0.812500 0.437500 0.000000
v -0.812500 0.437500 -0.062500
v -0.625000 0.437500 -0.062500
v -0.812500 0.625000 0.000000
v -0.625000 0.625000 0.000000
v -0.625000 0.687500 0.000000
v -0.812500 0.687500 0.000000
v -0.875000 0.687500 0.000000
v -0.562500 0.687500 0.000000
v -0.875000 0.687500 -0.062500
v -0.562500 0.687500 -0.062500
v -0.875000 0.625000 0.000000
v -0.562500 0.625000 0.000000
v -0.875000 0.625000 -0.062500
v -0.562500 0.625000 -0.062500
v -0.562500 0.687500 -0.062500
v -0.562500 0.687500 0.000000
v -0.875000 0.625000 0.000000
v -0.875000 0.687500 0.000000
v -0.875000 0.625000 -0.062500
v -0.875000 0.687500 -0.062500
v -0.562500 0.625000 0.000000
v -0.562500 0.625000 -0.062500
v -0.812500 0.437500 0.000000
v -0.812500 0.437500 -0.062500
v -0.875000 0.437500 0.000000
v -0.875000 0.437500 -0.062500
v -0.562500 0.437500 0.000000
v -0.562500 0.437500 -0.062500
v -0.625000 0.437500 0.000000
v -0.625000 0.437500 -0.062500
v -0.625000 0.375000 0.000000
v -0.625000 0.375000 -0.062500
v -0.625000 0.437500 0.000000
v -0.625000 0.437500 -0.062500
v -0.812500 0.375000 0.000000
v -0.812500 0.375000 -0.062500
v -0.812500 0.437500 0.000000
v -0.812500 0.437500 -0.062500
vn -0.0000 -0.0000 1.0000
vn -0.0000 -0.0000 -1.0000
vn -0.0000 1.0000 -0.0000
vn -1.0000 -0.0000 -0.0000
vn 1.0000 -0.0000 -0.0000
vn -0.0000 -1.0000 -0.0000
vt 0.829268 0.364198
vt 0.926829 0.364198
vt 0.926829 0.512346
vt 0.829268 0.512346
vt 0.829268 0.364198
vt 0.926829 0.370370
vt 0.829268 0.370370
vt 0.823171 0.364198
vt 0.829268 0.512346
vt 0.823171 0.512346
vt 0.969512 0.320988
vt 0.975610 0.320988
vt 0.975610 0.339506
vt 0.969512 0.339506
vt 0.957317 0.339506
vt 0.963415 0.339506
vt 0.963415 0.345679
vt 0.932927 0.345679
vt 0.932927 0.339506
vt 0.939024 0.339506
vt 0.932927 0.320988
vt 0.939024 0.320988
vt 0.957317 0.320988
vt 0.963415 0.320988
vt 0.939024 0.314815
vt 0.957317 0.314815
vt 0.939024 0.302469
vt 0.957317 0.302469
vt 0.957317 0.308642
vt 0.939024 0.308642
vt 0.957317 0.351852
vt 0.963415 0.351852
vt 0.963415 0.358025
vt 0.932927 0.358025
vt 0.932927 0.351852
vt 0.939024 0.351852
vt 0.957317 0.358025
vt 0.951219 0.351852
vt 0.951219 0.358025
s 0
usemtl mFG_Fortress
f 8/1/1 1/2/1 2/3/1 7/4/1
f 6/1/2 5/4/2 4/3/2 3/2/2
f 16/5/3 15/2/3 13/6/3 14/7/3
f 12/8/4 11/5/4 9/9/4 10/10/4
f 17/8/5 19/10/5 20/9/5 18/5/5
f 52/11/5 54/12/5 53/13/5 51/14/5
f 22/11/4 21/14/4 23/13/4 24/12/4
f 27/11/4 28/14/4 26/13/4 25/12/4
f 30/11/5 32/12/5 31/13/5 29/14/5
f 37/15/1 36/16/1 34/17/1 33/18/1 35/19/1 38/20/1
f 42/20/1 39/19/1 40/21/1 41/22/1
f 45/23/1 43/24/1 44/16/1 46/15/1
f 47/25/1 48/26/1 49/23/1 50/22/1
f 55/27/6 56/28/6 57/29/6 58/30/6
f 59/27/3 62/30/3 61/29/3 60/28/3
f 63/31/6 71/32/6 73/33/6 74/34/6 72/35/6 64/36/6
f 66/31/3 65/36/3 68/35/3 70/34/3 69/33/3 67/32/3
f 80/31/5 79/32/5 77/33/5 78/37/5
f 82/31/4 75/37/4 76/33/4 81/32/4
f 86/38/6 84/39/6 83/37/6 85/31/6
f 90/38/6 88/39/6 87/37/6 89/31/6
f 94/38/4 93/31/4 91/37/4 92/39/4
f 98/38/5 96/39/5 95/37/5 97/31/5
f 99/5/6 101/7/6 102/6/6 100/2/6
f 134/11/4 136/12/4 135/13/4 133/14/4
f 104/11/5 103/14/5 105/13/5 106/12/5
f 109/11/5 110/14/5 108/13/5 107/12/5
f 112/11/4 114/12/4 113/13/4 111/14/4
f 119/15/2 118/16/2 116/17/2 115/18/2 117/19/2 120/20/2
f 124/20/2 121/19/2 122/21/2 123/22/2
f 127/23/2 125/24/2 126/16/2 128/15/2
f 129/25/2 130/26/2 131/23/2 132/22/2
f 137/27/6 138/28/6 139/29/6 140/30/6
f 141/27/3 144/30/3 143/29/3 142/28/3
f 145/31/6 153/32/6 155/33/6 156/34/6 154/35/6 146/36/6
f 148/31/3 147/36/3 150/35/3 152/34/3 151/33/3 149/32/3
f 162/31/4 161/32/4 159/33/4 160/37/4
f 164/31/5 157/37/5 158/33/5 163/32/5
f 168/38/6 166/39/6 165/37/6 167/31/6
f 172/38/6 170/39/6 169/37/6 171/31/6
f 176/38/5 175/31/5 173/37/5 174/39/5
f 180/38/4 178/39/4 177/37/4 179/31/4
