# Blender 4.0.2
# www.blender.org
mtllib Fortress_Block_01.mtl
o Fortress_Block_01
v -1.000000 0.000000 -1.000000
v -1.000000 0.000000 0.000000
v 0.000000 0.000000 0.000000
v 0.000000 0.000000 -1.000000
v 0.000000 0.000000 -1.000000
v 0.000000 0.000000 0.000000
v 1.000000 0.000000 0.000000
v 1.000000 0.000000 -1.000000
v 1.000000 2.000000 1.000000
v 1.000000 0.000000 1.000000
v -1.000000 0.000000 1.000000
v -1.000000 2.000000 1.000000
v -1.000000 0.000000 0.000000
v -1.000000 0.000000 1.000000
v 0.000000 0.000000 1.000000
v 0.000000 0.000000 0.000000
v 0.000000 0.000000 0.000000
v 0.000000 0.000000 1.000000
v 1.000000 0.000000 1.000000
v 1.000000 0.000000 0.000000
v 1.000000 2.000000 0.000000
v 1.000000 2.000000 1.000000
v 0.000000 2.000000 1.000000
v 0.000000 2.000000 0.000000
v 0.000000 2.000000 0.000000
v 0.000000 2.000000 1.000000
v -1.000000 2.000000 1.000000
v -1.000000 2.000000 0.000000
v 1.000000 2.000000 -1.000000
v 1.000000 2.000000 0.000000
v 0.000000 2.000000 0.000000
v 0.000000 2.000000 -1.000000
v 0.000000 2.000000 -1.000000
v 0.000000 2.000000 0.000000
v -1.000000 2.000000 0.000000
v -1.000000 2.000000 -1.000000
v 1.000000 2.000000 -1.000000
v 1.000000 0.000000 -1.000000
v -1.000000 0.000000 -1.000000
v -1.000000 2.000000 -1.000000
v 1.000000 2.000000 -1.000000
v 1.000000 0.000000 -1.000000
v 1.000000 0.000000 1.000000
v 1.000000 2.000000 1.000000
v -1.000000 2.000000 -1.000000
v -1.000000 0.000000 -1.000000
v -1.000000 0.000000 1.000000
v -1.000000 2.000000 1.000000
vn -0.0000 -1.0000 -0.0000
vn -0.0000 -0.0000 1.0000
vn -0.0000 1.0000 -0.0000
vn -0.0000 -0.0000 -1.0000
vn 1.0000 -0.0000 -0.0000
vn -1.0000 -0.0000 -0.0000
vt 0.048780 0.012346
vt 0.048780 0.111111
vt 0.146341 0.111111
vt 0.146341 0.012346
vt 0.006098 0.314815
vt 0.201220 0.314815
vt 0.201220 0.512346
vt 0.006098 0.512346
vt 0.006098 0.617284
vt 0.006098 0.814815
vt 0.201220 0.814815
vt 0.201220 0.617284
vt 0.310976 0.314815
vt 0.506098 0.314815
vt 0.506098 0.512346
vt 0.310976 0.512346
vt 0.310976 0.617284
vt 0.310976 0.814815
vt 0.506098 0.814815
vt 0.506098 0.617284
s 0
usemtl mFG_Fortress
f 2/1/1 1/2/1 4/3/1 3/4/1
f 6/1/1 5/2/1 8/3/1 7/4/1
f 11/5/2 10/6/2 9/7/2 12/8/2
f 14/1/1 13/2/1 16/3/1 15/4/1
f 18/1/1 17/2/1 20/3/1 19/4/1
f 23/1/3 22/4/3 21/3/3 24/2/3
f 27/1/3 26/4/3 25/3/3 28/2/3
f 31/1/3 30/4/3 29/3/3 32/2/3
f 35/1/3 34/4/3 33/3/3 36/2/3
f 39/9/4 40/10/4 37/11/4 38/12/4
f 43/13/5 42/14/5 41/15/5 44/16/5
f 47/17/6 48/18/6 45/19/6 46/20/6
