# Blender 4.0.2
# www.blender.org
mtllib Fortress_Door_Double_2.mtl
o Fortress_Door_Double_2
v -1.000000 0.000000 0.062500
v 1.000000 0.000000 0.062500
v -1.000000 1.500000 0.062500
v 1.000000 1.500000 0.062500
v -1.000000 0.000000 -0.062500
v 1.000000 0.000000 -0.062500
v -1.000000 1.500000 -0.062500
v 1.000000 1.500000 -0.062500
v -1.250000 0.000000 0.125000
v -1.000000 0.000000 0.125000
v -1.250000 0.000000 -0.125000
v -1.000000 0.000000 -0.125000
v -1.250000 0.000000 0.125000
v -1.000000 0.000000 0.125000
v -1.250000 1.500000 0.125000
v -1.000000 1.500000 0.125000
v -1.000000 0.000000 0.125000
v -1.000000 0.000000 -0.125000
v -1.000000 1.500000 0.125000
v -1.000000 1.500000 -0.125000
v -1.000000 0.000000 -0.125000
v -1.250000 0.000000 -0.125000
v -1.000000 1.500000 -0.125000
v -1.250000 1.500000 -0.125000
v -1.250000 0.000000 -0.125000
v -1.250000 0.000000 0.125000
v -1.250000 1.500000 -0.125000
v -1.250000 1.500000 0.125000
v 1.000000 0.000000 0.125000
v 1.250000 0.000000 0.125000
v 1.000000 0.000000 -0.125000
v 1.250000 0.000000 -0.125000
v 1.000000 0.000000 0.125000
v 1.250000 0.000000 0.125000
v 1.000000 1.500000 0.125000
v 1.250000 1.500000 0.125000
v 1.250000 0.000000 0.125000
v 1.250000 0.000000 -0.125000
v 1.250000 1.500000 0.125000
v 1.250000 1.500000 -0.125000
v 1.250000 0.000000 -0.125000
v 1.000000 0.000000 -0.125000
v 1.250000 1.500000 -0.125000
v 1.000000 1.500000 -0.125000
v 1.000000 0.000000 -0.125000
v 1.000000 0.000000 0.125000
v 1.000000 1.500000 -0.125000
v 1.000000 1.500000 0.125000
v -1.375000 1.500000 -0.125000
v -1.375000 1.500000 0.125000
v 0.875000 1.500000 -0.125000
v 0.875000 1.500000 0.125000
v 1.375000 1.500000 -0.125000
v 1.375000 1.500000 0.125000
v -1.375000 1.750000 -0.125000
v -1.375000 1.750000 0.125000
v 0.875000 1.750000 -0.125000
v 0.875000 1.750000 0.125000
v 1.375000 1.750000 -0.125000
v 1.375000 1.750000 0.125000
v -1.375000 1.750000 -0.125000
v -1.375000 1.500000 -0.125000
v 0.875000 1.750000 -0.125000
v 0.875000 1.500000 -0.125000
v 1.375000 1.750000 -0.125000
v 1.375000 1.500000 -0.125000
v -1.375000 1.750000 0.125000
v -1.375000 1.500000 0.125000
v 0.875000 1.750000 0.125000
v 0.875000 1.500000 0.125000
v 1.375000 1.750000 0.125000
v 1.375000 1.500000 0.125000
v 1.375000 1.750000 0.125000
v 1.375000 1.500000 0.125000
v 1.375000 1.750000 -0.125000
v 1.375000 1.500000 -0.125000
v -1.375000 1.750000 0.125000
v -1.375000 1.500000 0.125000
v -1.375000 1.750000 -0.125000
v -1.375000 1.500000 -0.125000
v 0.125000 0.625000 0.125000
v 0.125000 0.437500 0.125000
v 0.125000 0.625000 0.062500
v 0.125000 0.437500 0.062500
v 0.375000 0.437500 0.062500
v 0.375000 0.625000 0.062500
v 0.375000 0.437500 0.125000
v 0.375000 0.625000 0.125000
v 0.437500 0.625000 0.125000
v 0.437500 0.437500 0.125000
v 0.437500 0.625000 0.062500
v 0.437500 0.437500 0.062500
v 0.125000 0.687500 0.125000
v 0.437500 0.687500 0.125000
v 0.125000 0.625000 0.125000
v 0.437500 0.625000 0.125000
v 0.375000 0.625000 0.125000
v 0.187500 0.625000 0.125000
v 0.125000 0.625000 0.125000
v 0.125000 0.437500 0.125000
v 0.187500 0.437500 0.125000
v 0.187500 0.625000 0.125000
v 0.437500 0.437500 0.125000
v 0.437500 0.625000 0.125000
v 0.375000 0.437500 0.125000
v 0.375000 0.625000 0.125000
v 0.187500 0.375000 0.125000
v 0.375000 0.375000 0.125000
v 0.375000 0.437500 0.125000
v 0.187500 0.437500 0.125000
v 0.187500 0.625000 0.125000
v 0.187500 0.437500 0.125000
v 0.187500 0.625000 0.062500
v 0.187500 0.437500 0.062500
v 0.187500 0.375000 0.062500
v 0.375000 0.375000 0.062500
v 0.375000 0.375000 0.125000
v 0.187500 0.375000 0.125000
v 0.187500 0.437500 0.062500
v 0.375000 0.437500 0.062500
v 0.375000 0.437500 0.125000
v 0.187500 0.437500 0.125000
v 0.375000 0.625000 0.062500
v 0.187500 0.625000 0.062500
v 0.187500 0.687500 0.062500
v 0.375000 0.687500 0.062500
v 0.437500 0.687500 0.062500
v 0.125000 0.687500 0.062500
v 0.437500 0.687500 0.125000
v 0.125000 0.687500 0.125000
v 0.437500 0.625000 0.062500
v 0.125000 0.625000 0.062500
v 0.437500 0.625000 0.125000
v 0.125000 0.625000 0.125000
v 0.125000 0.687500 0.125000
v 0.125000 0.687500 0.062500
v 0.437500 0.625000 0.062500
v 0.437500 0.687500 0.062500
v 0.437500 0.625000 0.125000
v 0.437500 0.687500 0.125000
v 0.125000 0.625000 0.062500
v 0.125000 0.625000 0.125000
v 0.375000 0.437500 0.062500
v 0.375000 0.437500 0.125000
v 0.437500 0.437500 0.062500
v 0.437500 0.437500 0.125000
v 0.125000 0.437500 0.062500
v 0.125000 0.437500 0.125000
v 0.187500 0.437500 0.062500
v 0.187500 0.437500 0.125000
v 0.187500 0.375000 0.062500
v 0.187500 0.375000 0.125000
v 0.187500 0.437500 0.062500
v 0.187500 0.437500 0.125000
v 0.375000 0.375000 0.062500
v 0.375000 0.375000 0.125000
v 0.375000 0.437500 0.062500
v 0.375000 0.437500 0.125000
v -0.437500 0.625000 0.125000
v -0.437500 0.437500 0.125000
v -0.437500 0.625000 0.062500
v -0.437500 0.437500 0.062500
v -0.187500 0.437500 0.062500
v -0.187500 0.625000 0.062500
v -0.187500 0.437500 0.125000
v -0.187500 0.625000 0.125000
v -0.125000 0.625000 0.125000
v -0.125000 0.437500 0.125000
v -0.125000 0.625000 0.062500
v -0.125000 0.437500 0.062500
v -0.437500 0.687500 0.125000
v -0.125000 0.687500 0.125000
v -0.437500 0.625000 0.125000
v -0.125000 0.625000 0.125000
v -0.187500 0.625000 0.125000
v -0.375000 0.625000 0.125000
v -0.437500 0.625000 0.125000
v -0.437500 0.437500 0.125000
v -0.375000 0.437500 0.125000
v -0.375000 0.625000 0.125000
v -0.125000 0.437500 0.125000
v -0.125000 0.625000 0.125000
v -0.187500 0.437500 0.125000
v -0.187500 0.625000 0.125000
v -0.375000 0.375000 0.125000
v -0.187500 0.375000 0.125000
v -0.187500 0.437500 0.125000
v -0.375000 0.437500 0.125000
v -0.375000 0.625000 0.125000
v -0.375000 0.437500 0.125000
v -0.375000 0.625000 0.062500
v -0.375000 0.437500 0.062500
v -0.375000 0.375000 0.062500
v -0.187500 0.375000 0.062500
v -0.187500 0.375000 0.125000
v -0.375000 0.375000 0.125000
v -0.375000 0.437500 0.062500
v -0.187500 0.437500 0.062500
v -0.187500 0.437500 0.125000
v -0.375000 0.437500 0.125000
v -0.187500 0.625000 0.062500
v -0.375000 0.625000 0.062500
v -0.375000 0.687500 0.062500
v -0.187500 0.687500 0.062500
v -0.125000 0.687500 0.062500
v -0.437500 0.687500 0.062500
v -0.125000 0.687500 0.125000
v -0.437500 0.687500 0.125000
v -0.125000 0.625000 0.062500
v -0.437500 0.625000 0.062500
v -0.125000 0.625000 0.125000
v -0.437500 0.625000 0.125000
v -0.437500 0.687500 0.125000
v -0.437500 0.687500 0.062500
v -0.125000 0.625000 0.062500
v -0.125000 0.687500 0.062500
v -0.125000 0.625000 0.125000
v -0.125000 0.687500 0.125000
v -0.437500 0.625000 0.062500
v -0.437500 0.625000 0.125000
v -0.187500 0.437500 0.062500
v -0.187500 0.437500 0.125000
v -0.125000 0.437500 0.062500
v -0.125000 0.437500 0.125000
v -0.437500 0.437500 0.062500
v -0.437500 0.437500 0.125000
v -0.375000 0.437500 0.062500
v -0.375000 0.437500 0.125000
v -0.375000 0.375000 0.062500
v -0.375000 0.375000 0.125000
v -0.375000 0.437500 0.062500
v -0.375000 0.437500 0.125000
v -0.187500 0.375000 0.062500
v -0.187500 0.375000 0.125000
v -0.187500 0.437500 0.062500
v -0.187500 0.437500 0.125000
v -1.000000 0.000000 0.062500
v 0.000000 0.000000 0.062500
v -1.000000 0.000000 -0.062500
v 0.000000 0.000000 -0.062500
v 0.000000 0.000000 0.062500
v 1.000000 0.000000 0.062500
v 0.000000 0.000000 -0.062500
v 1.000000 0.000000 -0.062500
v -0.125000 0.625000 -0.125000
v -0.125000 0.437500 -0.125000
v -0.125000 0.625000 -0.062500
v -0.125000 0.437500 -0.062500
v -0.375000 0.437500 -0.062500
v -0.375000 0.625000 -0.062500
v -0.375000 0.437500 -0.125000
v -0.375000 0.625000 -0.125000
v -0.437500 0.625000 -0.125000
v -0.437500 0.437500 -0.125000
v -0.437500 0.625000 -0.062500
v -0.437500 0.437500 -0.062500
v -0.125000 0.687500 -0.125000
v -0.437500 0.687500 -0.125000
v -0.125000 0.625000 -0.125000
v -0.437500 0.625000 -0.125000
v -0.375000 0.625000 -0.125000
v -0.187500 0.625000 -0.125000
v -0.125000 0.625000 -0.125000
v -0.125000 0.437500 -0.125000
v -0.187500 0.437500 -0.125000
v -0.187500 0.625000 -0.125000
v -0.437500 0.437500 -0.125000
v -0.437500 0.625000 -0.125000
v -0.375000 0.437500 -0.125000
v -0.375000 0.625000 -0.125000
v -0.187500 0.375000 -0.125000
v -0.375000 0.375000 -0.125000
v -0.375000 0.437500 -0.125000
v -0.187500 0.437500 -0.125000
v -0.187500 0.625000 -0.125000
v -0.187500 0.437500 -0.125000
v -0.187500 0.625000 -0.062500
v -0.187500 0.437500 -0.062500
v -0.187500 0.375000 -0.062500
v -0.375000 0.375000 -0.062500
v -0.375000 0.375000 -0.125000
v -0.187500 0.375000 -0.125000
v -0.187500 0.437500 -0.062500
v -0.375000 0.437500 -0.062500
v -0.375000 0.437500 -0.125000
v -0.187500 0.437500 -0.125000
v -0.375000 0.625000 -0.062500
v -0.187500 0.625000 -0.062500
v -0.187500 0.687500 -0.062500
v -0.375000 0.687500 -0.062500
v -0.437500 0.687500 -0.062500
v -0.125000 0.687500 -0.062500
v -0.437500 0.687500 -0.125000
v -0.125000 0.687500 -0.125000
v -0.437500 0.625000 -0.062500
v -0.125000 0.625000 -0.062500
v -0.437500 0.625000 -0.125000
v -0.125000 0.625000 -0.125000
v -0.125000 0.687500 -0.125000
v -0.125000 0.687500 -0.062500
v -0.437500 0.625000 -0.062500
v -0.437500 0.687500 -0.062500
v -0.437500 0.625000 -0.125000
v -0.437500 0.687500 -0.125000
v -0.125000 0.625000 -0.062500
v -0.125000 0.625000 -0.125000
v -0.375000 0.437500 -0.062500
v -0.375000 0.437500 -0.125000
v -0.437500 0.437500 -0.062500
v -0.437500 0.437500 -0.125000
v -0.125000 0.437500 -0.062500
v -0.125000 0.437500 -0.125000
v -0.187500 0.437500 -0.062500
v -0.187500 0.437500 -0.125000
v -0.187500 0.375000 -0.062500
v -0.187500 0.375000 -0.125000
v -0.187500 0.437500 -0.062500
v -0.187500 0.437500 -0.125000
v -0.375000 0.375000 -0.062500
v -0.375000 0.375000 -0.125000
v -0.375000 0.437500 -0.062500
v -0.375000 0.437500 -0.125000
v 0.437500 0.625000 -0.125000
v 0.437500 0.437500 -0.125000
v 0.437500 0.625000 -0.062500
v 0.437500 0.437500 -0.062500
v 0.187500 0.437500 -0.062500
v 0.187500 0.625000 -0.062500
v 0.187500 0.437500 -0.125000
v 0.187500 0.625000 -0.125000
v 0.125000 0.625000 -0.125000
v 0.125000 0.437500 -0.125000
v 0.125000 0.625000 -0.062500
v 0.125000 0.437500 -0.062500
v 0.437500 0.687500 -0.125000
v 0.125000 0.687500 -0.125000
v 0.437500 0.625000 -0.125000
v 0.125000 0.625000 -0.125000
v 0.187500 0.625000 -0.125000
v 0.375000 0.625000 -0.125000
v 0.437500 0.625000 -0.125000
v 0.437500 0.437500 -0.125000
v 0.375000 0.437500 -0.125000
v 0.375000 0.625000 -0.125000
v 0.125000 0.437500 -0.125000
v 0.125000 0.625000 -0.125000
v 0.187500 0.437500 -0.125000
v 0.187500 0.625000 -0.125000
v 0.375000 0.375000 -0.125000
v 0.187500 0.375000 -0.125000
v 0.187500 0.437500 -0.125000
v 0.375000 0.437500 -0.125000
v 0.375000 0.625000 -0.125000
v 0.375000 0.437500 -0.125000
v 0.375000 0.625000 -0.062500
v 0.375000 0.437500 -0.062500
v 0.375000 0.375000 -0.062500
v 0.187500 0.375000 -0.062500
v 0.187500 0.375000 -0.125000
v 0.375000 0.375000 -0.125000
v 0.375000 0.437500 -0.062500
v 0.187500 0.437500 -0.062500
v 0.187500 0.437500 -0.125000
v 0.375000 0.437500 -0.125000
v 0.187500 0.625000 -0.062500
v 0.375000 0.625000 -0.062500
v 0.375000 0.687500 -0.062500
v 0.187500 0.687500 -0.062500
v 0.125000 0.687500 -0.062500
v 0.437500 0.687500 -0.062500
v 0.125000 0.687500 -0.125000
v 0.437500 0.687500 -0.125000
v 0.125000 0.625000 -0.062500
v 0.437500 0.625000 -0.062500
v 0.125000 0.625000 -0.125000
v 0.437500 0.625000 -0.125000
v 0.437500 0.687500 -0.125000
v 0.437500 0.687500 -0.062500
v 0.125000 0.625000 -0.062500
v 0.125000 0.687500 -0.062500
v 0.125000 0.625000 -0.125000
v 0.125000 0.687500 -0.125000
v 0.437500 0.625000 -0.062500
v 0.437500 0.625000 -0.125000
v 0.187500 0.437500 -0.062500
v 0.187500 0.437500 -0.125000
v 0.125000 0.437500 -0.062500
v 0.125000 0.437500 -0.125000
v 0.437500 0.437500 -0.062500
v 0.437500 0.437500 -0.125000
v 0.375000 0.437500 -0.062500
v 0.375000 0.437500 -0.125000
v 0.375000 0.375000 -0.062500
v 0.375000 0.375000 -0.125000
v 0.375000 0.437500 -0.062500
v 0.375000 0.437500 -0.125000
v 0.187500 0.375000 -0.062500
v 0.187500 0.375000 -0.125000
v 0.187500 0.437500 -0.062500
v 0.187500 0.437500 -0.125000
vn -0.0000 -0.0000 1.0000
vn -0.0000 -0.0000 -1.0000
vn -0.0000 -1.0000 -0.0000
vn 1.0000 -0.0000 -0.0000
vn -1.0000 -0.0000 -0.0000
vn -0.0000 1.0000 -0.0000
vt 0.731707 0.364198
vt 0.926829 0.364198
vt 0.926829 0.512346
vt 0.731707 0.512346
vt 0.609756 0.364198
vt 0.609756 0.388889
vt 0.634146 0.388889
vt 0.634146 0.364198
vt 0.634146 0.512346
vt 0.609756 0.512346
vt 0.640244 0.364198
vt 0.664634 0.364198
vt 0.664634 0.512346
vt 0.640244 0.512346
vt 0.670732 0.364198
vt 0.695122 0.364198
vt 0.695122 0.512346
vt 0.670732 0.512346
vt 0.701219 0.364198
vt 0.725610 0.364198
vt 0.725610 0.512346
vt 0.701219 0.512346
vt 0.658537 0.543210
vt 0.878049 0.543210
vt 0.878049 0.518519
vt 0.658537 0.518519
vt 0.829268 0.543210
vt 0.829268 0.518519
vt 0.658537 0.567901
vt 0.878049 0.567901
vt 0.829268 0.567901
vt 0.884146 0.543210
vt 0.884146 0.518519
vt 0.908537 0.518519
vt 0.908537 0.543210
vt 0.628049 0.543210
vt 0.652439 0.543210
vt 0.652439 0.518519
vt 0.628049 0.518519
vt 0.969512 0.320988
vt 0.975610 0.320988
vt 0.975610 0.339506
vt 0.969512 0.339506
vt 0.957317 0.339506
vt 0.963415 0.339506
vt 0.963415 0.345679
vt 0.932927 0.345679
vt 0.932927 0.339506
vt 0.939024 0.339506
vt 0.932927 0.320988
vt 0.939024 0.320988
vt 0.957317 0.320988
vt 0.963415 0.320988
vt 0.939024 0.314815
vt 0.957317 0.314815
vt 0.939024 0.302469
vt 0.957317 0.302469
vt 0.957317 0.308642
vt 0.939024 0.308642
vt 0.957317 0.351852
vt 0.963415 0.351852
vt 0.963415 0.358025
vt 0.932927 0.358025
vt 0.932927 0.351852
vt 0.939024 0.351852
vt 0.957317 0.358025
vt 0.951219 0.351852
vt 0.951219 0.358025
vt 0.658537 0.530864
vt 0.756098 0.543210
vt 0.756098 0.530864
s 0
usemtl mFG_Fortress
f 1/1/1 2/2/1 4/3/1 3/4/1
f 5/1/2 7/4/2 8/3/2 6/2/2
f 9/5/3 11/6/3 12/7/3 10/8/3
f 13/5/1 14/8/1 16/9/1 15/10/1
f 17/11/4 18/12/4 20/13/4 19/14/4
f 21/15/2 22/16/2 24/17/2 23/18/2
f 25/19/5 26/20/5 28/21/5 27/22/5
f 29/5/3 31/6/3 32/7/3 30/8/3
f 33/5/1 34/8/1 36/9/1 35/10/1
f 37/11/4 38/12/4 40/13/4 39/14/4
f 41/15/2 42/16/2 44/17/2 43/18/2
f 45/19/5 46/20/5 48/21/5 47/22/5
f 49/23/3 51/24/3 52/25/3 50/26/3
f 51/27/3 53/24/3 54/25/3 52/28/3
f 55/29/6 56/23/6 58/24/6 57/30/6
f 57/31/6 58/27/6 60/24/6 59/30/6
f 61/23/2 63/24/2 64/25/2 62/26/2
f 63/27/2 65/24/2 66/25/2 64/28/2
f 67/23/1 68/26/1 70/25/1 69/24/1
f 69/27/1 70/28/1 72/25/1 71/24/1
f 73/32/4 74/33/4 76/34/4 75/35/4
f 77/36/5 79/37/5 80/38/5 78/39/5
f 112/40/4 114/41/4 113/42/4 111/43/4
f 82/40/5 81/43/5 83/42/5 84/41/5
f 87/40/5 88/43/5 86/42/5 85/41/5
f 90/40/4 92/41/4 91/42/4 89/43/4
f 97/44/1 96/45/1 94/46/1 93/47/1 95/48/1 98/49/1
f 102/49/1 99/48/1 100/50/1 101/51/1
f 105/52/1 103/53/1 104/45/1 106/44/1
f 107/54/1 108/55/1 109/52/1 110/51/1
f 115/56/3 116/57/3 117/58/3 118/59/3
f 119/56/6 122/59/6 121/58/6 120/57/6
f 123/60/3 131/61/3 133/62/3 134/63/3 132/64/3 124/65/3
f 126/60/6 125/65/6 128/64/6 130/63/6 129/62/6 127/61/6
f 140/60/4 139/61/4 137/62/4 138/66/4
f 142/60/5 135/66/5 136/62/5 141/61/5
f 146/67/3 144/68/3 143/66/3 145/60/3
f 150/67/3 148/68/3 147/66/3 149/60/3
f 154/67/5 153/60/5 151/66/5 152/68/5
f 158/67/4 156/68/4 155/66/4 157/60/4
f 190/40/4 192/41/4 191/42/4 189/43/4
f 160/40/5 159/43/5 161/42/5 162/41/5
f 165/40/5 166/43/5 164/42/5 163/41/5
f 168/40/4 170/41/4 169/42/4 167/43/4
f 175/44/1 174/45/1 172/46/1 171/47/1 173/48/1 176/49/1
f 180/49/1 177/48/1 178/50/1 179/51/1
f 183/52/1 181/53/1 182/45/1 184/44/1
f 185/54/1 186/55/1 187/52/1 188/51/1
f 193/56/3 194/57/3 195/58/3 196/59/3
f 197/56/6 200/59/6 199/58/6 198/57/6
f 201/60/3 209/61/3 211/62/3 212/63/3 210/64/3 202/65/3
f 204/60/6 203/65/6 206/64/6 208/63/6 207/62/6 205/61/6
f 218/60/4 217/61/4 215/62/4 216/66/4
f 220/60/5 213/66/5 214/62/5 219/61/5
f 224/67/3 222/68/3 221/66/3 223/60/3
f 228/67/3 226/68/3 225/66/3 227/60/3
f 232/67/5 231/60/5 229/66/5 230/68/5
f 236/67/4 234/68/4 233/66/4 235/60/4
f 237/69/3 239/23/3 240/70/3 238/71/3
f 241/69/3 243/23/3 244/70/3 242/71/3
f 276/40/5 278/41/5 277/42/5 275/43/5
f 246/40/4 245/43/4 247/42/4 248/41/4
f 251/40/4 252/43/4 250/42/4 249/41/4
f 254/40/5 256/41/5 255/42/5 253/43/5
f 261/44/2 260/45/2 258/46/2 257/47/2 259/48/2 262/49/2
f 266/49/2 263/48/2 264/50/2 265/51/2
f 269/52/2 267/53/2 268/45/2 270/44/2
f 271/54/2 272/55/2 273/52/2 274/51/2
f 279/56/3 280/57/3 281/58/3 282/59/3
f 283/56/6 286/59/6 285/58/6 284/57/6
f 287/60/3 295/61/3 297/62/3 298/63/3 296/64/3 288/65/3
f 290/60/6 289/65/6 292/64/6 294/63/6 293/62/6 291/61/6
f 304/60/5 303/61/5 301/62/5 302/66/5
f 306/60/4 299/66/4 300/62/4 305/61/4
f 310/67/3 308/68/3 307/66/3 309/60/3
f 314/67/3 312/68/3 311/66/3 313/60/3
f 318/67/4 317/60/4 315/66/4 316/68/4
f 322/67/5 320/68/5 319/66/5 321/60/5
f 354/40/5 356/41/5 355/42/5 353/43/5
f 324/40/4 323/43/4 325/42/4 326/41/4
f 329/40/4 330/43/4 328/42/4 327/41/4
f 332/40/5 334/41/5 333/42/5 331/43/5
f 339/44/2 338/45/2 336/46/2 335/47/2 337/48/2 340/49/2
f 344/49/2 341/48/2 342/50/2 343/51/2
f 347/52/2 345/53/2 346/45/2 348/44/2
f 349/54/2 350/55/2 351/52/2 352/51/2
f 357/56/3 358/57/3 359/58/3 360/59/3
f 361/56/6 364/59/6 363/58/6 362/57/6
f 365/60/3 373/61/3 375/62/3 376/63/3 374/64/3 366/65/3
f 368/60/6 367/65/6 370/64/6 372/63/6 371/62/6 369/61/6
f 382/60/5 381/61/5 379/62/5 380/66/5
f 384/60/4 377/66/4 378/62/4 383/61/4
f 388/67/3 386/68/3 385/66/3 387/60/3
f 392/67/3 390/68/3 389/66/3 391/60/3
f 396/67/4 395/60/4 393/66/4 394/68/4
f 400/67/5 398/68/5 397/66/5 399/60/5
