# Blender 4.0.2
# www.blender.org
mtllib Fortress_Stairs_5.mtl
o Fortress_Stairs_5
v 0.000000 2.000000 -0.250000
v 1.000000 2.000000 -0.250000
v 0.000000 1.750000 -0.250000
v 1.000000 1.750000 -0.250000
v 0.000000 0.250000 1.500000
v 1.000000 0.250000 1.500000
v 0.000000 0.250000 1.250000
v 1.000000 0.250000 1.250000
v 0.000000 1.750000 0.000000
v 1.000000 1.750000 0.000000
v 0.000000 1.500000 0.000000
v 1.000000 1.500000 0.000000
v 0.000000 0.500000 1.250000
v 1.000000 0.500000 1.250000
v 0.000000 0.500000 1.000000
v 1.000000 0.500000 1.000000
v 0.000000 1.500000 0.250000
v 1.000000 1.500000 0.250000
v 0.000000 1.250000 0.250000
v 1.000000 1.250000 0.250000
v 0.000000 0.750000 1.000000
v 1.000000 0.750000 1.000000
v 0.000000 0.750000 0.750000
v 1.000000 0.750000 0.750000
v 0.000000 1.250000 0.500000
v 1.000000 1.250000 0.500000
v 0.000000 1.000000 0.500000
v 1.000000 1.000000 0.500000
v 0.000000 1.000000 0.750000
v 1.000000 1.000000 0.750000
v 0.000000 1.000000 0.500000
v 1.000000 1.000000 0.500000
v 0.000000 1.000000 0.750000
v 1.000000 1.000000 0.750000
v 0.000000 0.750000 0.750000
v 1.000000 0.750000 0.750000
v 0.000000 1.250000 0.500000
v 1.000000 1.250000 0.500000
v 0.000000 1.250000 0.250000
v 1.000000 1.250000 0.250000
v 0.000000 0.750000 1.000000
v 1.000000 0.750000 1.000000
v 0.000000 0.500000 1.000000
v 1.000000 0.500000 1.000000
v 0.000000 1.500000 0.250000
v 1.000000 1.500000 0.250000
v 0.000000 1.500000 0.000000
v 1.000000 1.500000 0.000000
v 0.000000 0.500000 1.250000
v 1.000000 0.500000 1.250000
v 0.000000 0.250000 1.250000
v 1.000000 0.250000 1.250000
v 0.000000 1.750000 0.000000
v 1.000000 1.750000 0.000000
v 0.000000 1.750000 -0.250000
v 1.000000 1.750000 -0.250000
v 0.000000 0.250000 1.500000
v 1.000000 0.250000 1.500000
v 0.000000 0.000000 1.500000
v 1.000000 0.000000 1.500000
v 0.000000 2.000000 -0.250000
v 1.000000 2.000000 -0.250000
v 0.000000 2.000000 -0.500000
v 1.000000 2.000000 -0.500000
v -1.000000 2.000000 -0.250000
v 0.000000 2.000000 -0.250000
v -1.000000 1.750000 -0.250000
v 0.000000 1.750000 -0.250000
v -1.000000 0.250000 1.500000
v 0.000000 0.250000 1.500000
v -1.000000 0.250000 1.250000
v 0.000000 0.250000 1.250000
v -1.000000 1.750000 0.000000
v 0.000000 1.750000 0.000000
v -1.000000 1.500000 0.000000
v 0.000000 1.500000 0.000000
v -1.000000 0.500000 1.250000
v 0.000000 0.500000 1.250000
v -1.000000 0.500000 1.000000
v 0.000000 0.500000 1.000000
v -1.000000 1.500000 0.250000
v 0.000000 1.500000 0.250000
v -1.000000 1.250000 0.250000
v 0.000000 1.250000 0.250000
v -1.000000 0.750000 1.000000
v 0.000000 0.750000 1.000000
v -1.000000 0.750000 0.750000
v 0.000000 0.750000 0.750000
v -1.000000 1.250000 0.500000
v 0.000000 1.250000 0.500000
v -1.000000 1.000000 0.500000
v 0.000000 1.000000 0.500000
v -1.000000 1.000000 0.750000
v 0.000000 1.000000 0.750000
v -1.000000 1.000000 0.500000
v 0.000000 1.000000 0.500000
v -1.000000 1.000000 0.750000
v 0.000000 1.000000 0.750000
v -1.000000 0.750000 0.750000
v 0.000000 0.750000 0.750000
v -1.000000 1.250000 0.500000
v 0.000000 1.250000 0.500000
v -1.000000 1.250000 0.250000
v 0.000000 1.250000 0.250000
v -1.000000 0.750000 1.000000
v 0.000000 0.750000 1.000000
v -1.000000 0.500000 1.000000
v 0.000000 0.500000 1.000000
v -1.000000 1.500000 0.250000
v 0.000000 1.500000 0.250000
v -1.000000 1.500000 0.000000
v 0.000000 1.500000 0.000000
v -1.000000 0.500000 1.250000
v 0.000000 0.500000 1.250000
v -1.000000 0.250000 1.250000
v 0.000000 0.250000 1.250000
v -1.000000 1.750000 0.000000
v 0.000000 1.750000 0.000000
v -1.000000 1.750000 -0.250000
v 0.000000 1.750000 -0.250000
v -1.000000 0.250000 1.500000
v 0.000000 0.250000 1.500000
v -1.000000 0.000000 1.500000
v 0.000000 0.000000 1.500000
v -1.000000 2.000000 -0.250000
v 0.000000 2.000000 -0.250000
v -1.000000 2.000000 -0.500000
v 0.000000 2.000000 -0.500000
v 1.000000 0.000000 -1.500000
v -1.000000 0.000000 -1.500000
v 1.000000 3.000000 -1.500000
v -1.000000 3.000000 -1.500000
v -1.000000 0.000000 0.500000
v 0.000000 0.000000 0.500000
v -1.000000 0.000000 -0.500000
v 0.000000 0.000000 -0.500000
v 0.000000 0.000000 0.500000
v 1.000000 0.000000 0.500000
v 0.000000 0.000000 -0.500000
v 1.000000 0.000000 -0.500000
v 0.000000 0.000000 1.500000
v 1.000000 0.000000 1.500000
v 0.000000 0.000000 0.500000
v 1.000000 0.000000 0.500000
v -1.000000 0.000000 1.500000
v 0.000000 0.000000 1.500000
v -1.000000 0.000000 0.500000
v 0.000000 0.000000 0.500000
v 0.000000 2.250000 -0.500000
v 1.000000 2.250000 -0.500000
v 0.000000 2.250000 -0.750000
v 1.000000 2.250000 -0.750000
v 0.000000 2.500000 -0.750000
v 1.000000 2.500000 -0.750000
v 0.000000 2.500000 -1.000000
v 1.000000 2.500000 -1.000000
v 0.000000 2.750000 -1.000000
v 1.000000 2.750000 -1.000000
v 0.000000 2.750000 -1.250000
v 1.000000 2.750000 -1.250000
v 0.000000 3.000000 -1.250000
v 1.000000 3.000000 -1.250000
v 0.000000 3.000000 -1.500000
v 1.000000 3.000000 -1.500000
v 0.000000 3.000000 -1.250000
v 1.000000 3.000000 -1.250000
v 0.000000 2.750000 -1.250000
v 1.000000 2.750000 -1.250000
v 0.000000 2.750000 -1.000000
v 1.000000 2.750000 -1.000000
v 0.000000 2.500000 -1.000000
v 1.000000 2.500000 -1.000000
v 0.000000 2.500000 -0.750000
v 1.000000 2.500000 -0.750000
v 0.000000 2.250000 -0.750000
v 1.000000 2.250000 -0.750000
v 0.000000 2.250000 -0.500000
v 1.000000 2.250000 -0.500000
v 0.000000 2.000000 -0.500000
v 1.000000 2.000000 -0.500000
v -1.000000 2.250000 -0.500000
v 0.000000 2.250000 -0.500000
v -1.000000 2.250000 -0.750000
v 0.000000 2.250000 -0.750000
v -1.000000 2.500000 -0.750000
v 0.000000 2.500000 -0.750000
v -1.000000 2.500000 -1.000000
v 0.000000 2.500000 -1.000000
v -1.000000 2.750000 -1.000000
v 0.000000 2.750000 -1.000000
v -1.000000 2.750000 -1.250000
v 0.000000 2.750000 -1.250000
v -1.000000 3.000000 -1.250000
v 0.000000 3.000000 -1.250000
v -1.000000 3.000000 -1.500000
v 0.000000 3.000000 -1.500000
v -1.000000 3.000000 -1.250000
v 0.000000 3.000000 -1.250000
v -1.000000 2.750000 -1.250000
v 0.000000 2.750000 -1.250000
v -1.000000 2.750000 -1.000000
v 0.000000 2.750000 -1.000000
v -1.000000 2.500000 -1.000000
v 0.000000 2.500000 -1.000000
v -1.000000 2.500000 -0.750000
v 0.000000 2.500000 -0.750000
v -1.000000 2.250000 -0.750000
v 0.000000 2.250000 -0.750000
v -1.000000 2.250000 -0.500000
v 0.000000 2.250000 -0.500000
v -1.000000 2.000000 -0.500000
v 0.000000 2.000000 -0.500000
v -1.000000 0.000000 -0.500000
v 0.000000 0.000000 -0.500000
v -1.000000 0.000000 -1.500000
v 0.000000 0.000000 -1.500000
v 0.000000 0.000000 -0.500000
v 1.000000 0.000000 -0.500000
v 0.000000 0.000000 -1.500000
v 1.000000 0.000000 -1.500000
v 1.000000 1.500000 0.000000
v 1.000000 1.500000 0.250000
v 1.000000 1.250000 0.250000
v 1.000000 1.250000 0.500000
v 1.000000 1.000000 0.500000
v 1.000000 1.000000 0.750000
v 1.000000 0.750000 0.750000
v 1.000000 0.750000 1.000000
v 1.000000 0.500000 1.000000
v -1.000000 0.000000 -1.500000
v 1.000000 0.500000 1.250000
v -1.000000 0.000000 1.500000
v 1.000000 0.250000 1.250000
v -1.000000 3.000000 -1.500000
v 1.000000 3.000000 -1.250000
v 1.000000 2.750000 -1.250000
v -1.000000 0.250000 1.500000
v -1.000000 3.000000 -1.250000
v -1.000000 0.250000 1.250000
v -1.000000 0.500000 1.250000
v -1.000000 0.500000 1.000000
v -1.000000 0.750000 1.000000
v -1.000000 0.750000 0.750000
v -1.000000 1.000000 0.750000
v -1.000000 1.000000 0.500000
v -1.000000 1.250000 0.500000
v -1.000000 1.250000 0.250000
v -1.000000 1.500000 0.250000
v 1.000000 0.250000 1.500000
v 1.000000 3.000000 -1.500000
v 1.000000 0.000000 1.500000
v 1.000000 0.000000 -1.500000
v -1.000000 1.500000 0.000000
v -1.000000 1.750000 0.000000
v -1.000000 1.750000 -0.250000
v -1.000000 2.000000 -0.250000
v -1.000000 2.000000 -0.500000
v -1.000000 2.250000 -0.500000
v -1.000000 2.250000 -0.750000
v -1.000000 2.500000 -0.750000
v -1.000000 2.500000 -1.000000
v -1.000000 2.750000 -1.000000
v -1.000000 2.750000 -1.250000
v 1.000000 2.750000 -1.000000
v 1.000000 2.500000 -1.000000
v 1.000000 2.500000 -0.750000
v 1.000000 2.250000 -0.750000
v 1.000000 2.250000 -0.500000
v 1.000000 2.000000 -0.500000
v 1.000000 2.000000 -0.250000
v 1.000000 1.750000 -0.250000
v 1.000000 1.750000 0.000000
vn -0.0000 -0.0000 1.0000
vn -0.0000 1.0000 -0.0000
vn -0.0000 -0.0000 -1.0000
vn -0.0000 -1.0000 -0.0000
vn -1.0000 -0.0000 -0.0000
vn 1.0000 -0.0000 -0.0000
vt 0.006098 0.487654
vt 0.006098 0.512346
vt 0.103659 0.512346
vt 0.103659 0.487654
vt 0.048780 0.259259
vt 0.146341 0.259259
vt 0.146341 0.283951
vt 0.048780 0.283951
vt 0.006098 0.462963
vt 0.103659 0.462963
vt 0.006098 0.438272
vt 0.103659 0.438272
vt 0.006098 0.413580
vt 0.103659 0.413580
vt 0.006098 0.388889
vt 0.103659 0.388889
vt 0.006098 0.364198
vt 0.103659 0.364198
vt 0.006098 0.339506
vt 0.103659 0.339506
vt 0.006098 0.314815
vt 0.103659 0.314815
vt 0.201220 0.314815
vt 0.201220 0.611111
vt 0.006098 0.611111
vt 0.048780 0.012346
vt 0.048780 0.111111
vt 0.146341 0.111111
vt 0.146341 0.012346
vt 0.298781 0.314815
vt 0.298781 0.339506
vt 0.274390 0.339506
vt 0.274390 0.364198
vt 0.250000 0.364198
vt 0.250000 0.388889
vt 0.225610 0.388889
vt 0.225610 0.413580
vt 0.201220 0.413580
vt 0.201220 0.438272
vt 0.176829 0.438272
vt 0.176829 0.462963
vt 0.152439 0.462963
vt 0.152439 0.487654
vt 0.128049 0.487654
vt 0.128049 0.512346
vt 0.103659 0.537037
vt 0.079268 0.537037
vt 0.079268 0.561728
vt 0.054878 0.561728
vt 0.054878 0.586420
vt 0.030488 0.586420
vt 0.030488 0.611111
s 0
usemtl mFG_Fortress
f 4/1/1 2/2/1 1/3/1 3/4/1
f 5/5/2 6/6/2 8/7/2 7/8/2
f 12/9/1 10/1/1 9/4/1 11/10/1
f 13/5/2 14/6/2 16/7/2 15/8/2
f 20/11/1 18/9/1 17/10/1 19/12/1
f 21/5/2 22/6/2 24/7/2 23/8/2
f 28/13/1 26/11/1 25/12/1 27/14/1
f 29/5/2 30/6/2 32/7/2 31/8/2
f 36/15/1 34/13/1 33/14/1 35/16/1
f 37/5/2 38/6/2 40/7/2 39/8/2
f 44/17/1 42/15/1 41/16/1 43/18/1
f 45/5/2 46/6/2 48/7/2 47/8/2
f 52/19/1 50/17/1 49/18/1 51/20/1
f 53/5/2 54/6/2 56/7/2 55/8/2
f 60/21/1 58/19/1 57/20/1 59/22/1
f 61/5/2 62/6/2 64/7/2 63/8/2
f 68/1/1 66/2/1 65/3/1 67/4/1
f 69/5/2 70/6/2 72/7/2 71/8/2
f 76/9/1 74/1/1 73/4/1 75/10/1
f 77/5/2 78/6/2 80/7/2 79/8/2
f 84/11/1 82/9/1 81/10/1 83/12/1
f 85/5/2 86/6/2 88/7/2 87/8/2
f 92/13/1 90/11/1 89/12/1 91/14/1
f 93/5/2 94/6/2 96/7/2 95/8/2
f 100/15/1 98/13/1 97/14/1 99/16/1
f 101/5/2 102/6/2 104/7/2 103/8/2
f 108/17/1 106/15/1 105/16/1 107/18/1
f 109/5/2 110/6/2 112/7/2 111/8/2
f 116/19/1 114/17/1 113/18/1 115/20/1
f 117/5/2 118/6/2 120/7/2 119/8/2
f 124/21/1 122/19/1 121/20/1 123/22/1
f 125/5/2 126/6/2 128/7/2 127/8/2
f 129/21/3 130/23/3 132/24/3 131/25/3
f 133/26/4 135/27/4 136/28/4 134/29/4
f 137/26/4 139/27/4 140/28/4 138/29/4
f 141/26/4 143/27/4 144/28/4 142/29/4
f 145/26/4 147/27/4 148/28/4 146/29/4
f 149/5/2 150/6/2 152/7/2 151/8/2
f 153/5/2 154/6/2 156/7/2 155/8/2
f 157/5/2 158/6/2 160/7/2 159/8/2
f 161/5/2 162/6/2 164/7/2 163/8/2
f 168/15/1 166/13/1 165/14/1 167/16/1
f 172/17/1 170/15/1 169/16/1 171/18/1
f 176/19/1 174/17/1 173/18/1 175/20/1
f 180/21/1 178/19/1 177/20/1 179/22/1
f 181/5/2 182/6/2 184/7/2 183/8/2
f 185/5/2 186/6/2 188/7/2 187/8/2
f 189/5/2 190/6/2 192/7/2 191/8/2
f 193/5/2 194/6/2 196/7/2 195/8/2
f 200/15/1 198/13/1 197/14/1 199/16/1
f 204/17/1 202/15/1 201/16/1 203/18/1
f 208/19/1 206/17/1 205/18/1 207/20/1
f 212/21/1 210/19/1 209/20/1 211/22/1
f 213/26/4 215/27/4 216/28/4 214/29/4
f 217/26/4 219/27/4 220/28/4 218/29/4
f 230/21/5 232/30/5 237/31/5 239/32/5 240/33/5 241/34/5 242/35/5 243/36/5 244/37/5 245/38/5 246/39/5 247/40/5 248/41/5 253/42/5 254/43/5 255/44/5 256/45/5 257/3/5 258/46/5 259/47/5 260/48/5 261/49/5 262/50/5 263/51/5 238/52/5 234/25/5
f 252/21/6 250/25/6 235/52/6 236/51/6 264/50/6 265/49/6 266/48/6 267/47/6 268/46/6 269/3/6 270/45/6 271/44/6 272/43/6 221/42/6 222/41/6 223/40/6 224/39/6 225/38/6 226/37/6 227/36/6 228/35/6 229/34/6 231/33/6 233/32/6 249/31/6 251/30/6
