# Blender 4.0.2
# www.blender.org
mtllib Fortress_Fences_Complete_3x3.mtl
o Fortress_Fences_Complete_3x3
v 0.500000 0.000000 1.500001
v 1.500000 0.000000 1.500001
v 0.500000 0.500000 1.500001
v 1.500000 0.500000 1.500001
v 0.500000 0.500000 1.250001
v 0.500000 0.000000 1.250001
v 1.500000 0.000000 1.250001
v 1.500000 0.500000 1.250001
v 1.500000 0.000000 1.250001
v 1.500000 0.000000 0.500001
v 1.500000 0.500000 1.250001
v 1.500000 0.500000 0.500001
v 1.250000 0.500000 1.250001
v 1.250000 0.000000 1.250001
v 1.250000 0.000000 0.500001
v 1.250000 0.500000 0.500001
v 1.500000 0.500000 1.250001
v 1.500000 0.500000 0.500001
v 1.250000 0.500000 1.250001
v 1.250000 0.500000 0.500001
v 1.500000 0.000000 0.500001
v 1.500000 0.500000 0.500001
v 1.250000 0.000000 0.500001
v 1.250000 0.500000 0.500001
v 1.500000 0.500000 1.500001
v 1.500000 0.500000 1.062501
v 1.500000 0.750000 1.500001
v 1.500000 0.750000 1.062501
v 1.500000 0.500000 1.500001
v 1.062500 0.500000 1.500001
v 1.500000 0.750000 1.500001
v 1.062500 0.750000 1.500001
v 1.250000 0.750000 1.250001
v 1.062500 0.750000 1.250001
v 1.250000 0.500000 1.250001
v 1.062500 0.500000 1.250001
v 1.250000 0.500000 1.062501
v 1.250000 0.500000 1.250001
v 1.250000 0.750000 1.062501
v 1.250000 0.750000 1.250001
v 1.250000 0.750000 1.500001
v 1.250000 0.750000 1.062501
v 1.500000 0.750000 1.500001
v 1.500000 0.750000 1.062501
v 1.250000 0.750000 1.500001
v 1.062500 0.750000 1.500001
v 1.250000 0.750000 1.250001
v 1.062500 0.750000 1.250001
v 1.062500 0.750000 1.250001
v 1.062500 0.750000 1.500001
v 1.062500 0.500000 1.250001
v 1.062500 0.500000 1.500001
v 1.250000 0.750000 1.062501
v 1.500000 0.750000 1.062501
v 1.250000 0.500000 1.062501
v 1.500000 0.500000 1.062501
v -1.500000 0.000000 0.500001
v -1.500000 0.000000 1.500001
v -1.500000 0.500000 0.500001
v -1.500000 0.500000 1.500001
v -1.250000 0.500000 0.500001
v -1.250000 0.000000 0.500001
v -1.250000 0.000000 1.500001
v -1.250000 0.500000 1.500001
v -1.250000 0.000000 1.500001
v -0.500000 0.000000 1.500001
v -1.250000 0.500000 1.500001
v -0.500000 0.500000 1.500001
v -1.250000 0.500000 1.250001
v -1.250000 0.000000 1.250001
v -0.500000 0.000000 1.250001
v -0.500000 0.500000 1.250001
v -1.250000 0.500000 1.500001
v -0.500000 0.500000 1.500001
v -1.250000 0.500000 1.250001
v -0.500000 0.500000 1.250001
v -0.500000 0.000000 1.500001
v -0.500000 0.500000 1.500001
v -0.500000 0.000000 1.250001
v -0.500000 0.500000 1.250001
v -1.500000 0.500000 1.500001
v -1.062500 0.500000 1.500001
v -1.500000 0.750000 1.500001
v -1.062500 0.750000 1.500001
v -1.500000 0.500000 1.500001
v -1.500000 0.500000 1.062501
v -1.500000 0.750000 1.500001
v -1.500000 0.750000 1.062501
v -1.250000 0.750000 1.250001
v -1.250000 0.750000 1.062501
v -1.250000 0.500000 1.250001
v -1.250000 0.500000 1.062501
v -1.062500 0.500000 1.250001
v -1.250000 0.500000 1.250001
v -1.062500 0.750000 1.250001
v -1.250000 0.750000 1.250001
v -1.500000 0.750000 1.250001
v -1.062500 0.750000 1.250001
v -1.500000 0.750000 1.500001
v -1.062500 0.750000 1.500001
v -1.500000 0.750000 1.250001
v -1.500000 0.750000 1.062501
v -1.250000 0.750000 1.250001
v -1.250000 0.750000 1.062501
v -1.250000 0.750000 1.062501
v -1.500000 0.750000 1.062501
v -1.250000 0.500000 1.062501
v -1.500000 0.500000 1.062501
v -1.062500 0.750000 1.250001
v -1.062500 0.750000 1.500001
v -1.062500 0.500000 1.250001
v -1.062500 0.500000 1.500001
v 1.500000 0.000000 0.500002
v 1.500000 0.000000 -0.499998
v 1.500000 0.500000 0.500002
v 1.500000 0.500000 -0.499998
v 1.250000 0.500000 0.500002
v 1.250000 0.000000 0.500002
v 1.250000 0.000000 -0.499998
v 1.250000 0.500000 -0.499998
v 1.500000 0.500000 0.187502
v 1.500000 0.500000 -0.187498
v 1.500000 0.750000 0.187502
v 1.500000 0.750000 -0.187498
v 1.250000 0.500000 -0.187498
v 1.250000 0.500000 0.187502
v 1.250000 0.750000 -0.187498
v 1.250000 0.750000 0.187502
v 1.250000 0.500000 -0.187498
v 1.500000 0.500000 -0.187498
v 1.250000 0.750000 -0.187498
v 1.500000 0.750000 -0.187498
v 1.500000 0.500000 0.187502
v 1.250000 0.500000 0.187502
v 1.500000 0.750000 0.187502
v 1.250000 0.750000 0.187502
v 1.500000 0.750000 0.187502
v 1.500000 0.750000 -0.187498
v 1.250000 0.750000 0.187502
v 1.250000 0.750000 -0.187498
v 1.500000 0.000000 -0.499999
v 1.500000 0.000000 -1.499999
v 1.500000 0.500000 -0.499999
v 1.500000 0.500000 -1.499999
v 1.250000 0.500000 -0.499999
v 1.250000 0.000000 -0.499999
v 1.250000 0.000000 -1.499999
v 1.250000 0.500000 -1.499999
v 1.250000 0.000000 -1.499999
v 0.500000 0.000000 -1.499999
v 1.250000 0.500000 -1.499999
v 0.500000 0.500000 -1.499999
v 1.250000 0.500000 -1.249999
v 1.250000 0.000000 -1.249999
v 0.500000 0.000000 -1.249999
v 0.500000 0.500000 -1.249999
v 1.250000 0.500000 -1.499999
v 0.500000 0.500000 -1.499999
v 1.250000 0.500000 -1.249999
v 0.500000 0.500000 -1.249999
v 0.500000 0.000000 -1.499999
v 0.500000 0.500000 -1.499999
v 0.500000 0.000000 -1.249999
v 0.500000 0.500000 -1.249999
v 1.500000 0.500000 -1.499999
v 1.062500 0.500000 -1.499999
v 1.500000 0.750000 -1.499999
v 1.062500 0.750000 -1.499999
v 1.500000 0.500000 -1.499999
v 1.500000 0.500000 -1.062499
v 1.500000 0.750000 -1.499999
v 1.500000 0.750000 -1.062499
v 1.250000 0.750000 -1.249999
v 1.250000 0.750000 -1.062499
v 1.250000 0.500000 -1.249999
v 1.250000 0.500000 -1.062499
v 1.062500 0.500000 -1.249999
v 1.250000 0.500000 -1.249999
v 1.062500 0.750000 -1.249999
v 1.250000 0.750000 -1.249999
v 1.500000 0.750000 -1.249999
v 1.062500 0.750000 -1.249999
v 1.500000 0.750000 -1.499999
v 1.062500 0.750000 -1.499999
v 1.500000 0.750000 -1.249999
v 1.500000 0.750000 -1.062499
v 1.250000 0.750000 -1.249999
v 1.250000 0.750000 -1.062499
v 1.250000 0.750000 -1.062499
v 1.500000 0.750000 -1.062499
v 1.250000 0.500000 -1.062499
v 1.500000 0.500000 -1.062499
v 1.062500 0.750000 -1.249999
v 1.062500 0.750000 -1.499999
v 1.062500 0.500000 -1.249999
v 1.062500 0.500000 -1.499999
v 0.500000 0.000000 -1.499999
v -0.500000 0.000000 -1.499999
v 0.500000 0.500000 -1.499999
v -0.500000 0.500000 -1.499999
v 0.500000 0.500000 -1.249999
v 0.500000 0.000000 -1.249999
v -0.500000 0.000000 -1.249999
v -0.500000 0.500000 -1.249999
v 0.187500 0.500000 -1.499999
v -0.187500 0.500000 -1.499999
v 0.187500 0.750000 -1.499999
v -0.187500 0.750000 -1.499999
v -0.187500 0.500000 -1.249999
v 0.187500 0.500000 -1.249999
v -0.187500 0.750000 -1.249999
v 0.187500 0.750000 -1.249999
v -0.187500 0.500000 -1.249999
v -0.187500 0.500000 -1.499999
v -0.187500 0.750000 -1.249999
v -0.187500 0.750000 -1.499999
v 0.187500 0.500000 -1.499999
v 0.187500 0.500000 -1.249999
v 0.187500 0.750000 -1.499999
v 0.187500 0.750000 -1.249999
v 0.187500 0.750000 -1.499999
v -0.187500 0.750000 -1.499999
v 0.187500 0.750000 -1.249999
v -0.187500 0.750000 -1.249999
v -0.500000 0.000000 -1.500000
v -1.500000 0.000000 -1.499999
v -0.500000 0.500000 -1.500000
v -1.500000 0.500000 -1.499999
v -0.500000 0.500000 -1.250000
v -0.500000 0.000000 -1.249999
v -1.500000 0.000000 -1.249999
v -1.500000 0.500000 -1.249999
v -1.500000 0.000000 -1.249999
v -1.499999 0.000000 -0.499999
v -1.500000 0.500000 -1.249999
v -1.499999 0.500000 -0.499999
v -1.250000 0.500000 -1.249999
v -1.250000 0.000000 -1.249999
v -1.249999 0.000000 -0.499999
v -1.249999 0.500000 -0.499999
v -1.500000 0.500000 -1.249999
v -1.499999 0.500000 -0.499999
v -1.250000 0.500000 -1.249999
v -1.249999 0.500000 -0.499999
v -1.499999 0.000000 -0.499999
v -1.499999 0.500000 -0.499999
v -1.249999 0.000000 -0.499999
v -1.249999 0.500000 -0.499999
v -1.500000 0.500000 -1.499999
v -1.500000 0.500000 -1.062499
v -1.500000 0.750000 -1.499999
v -1.500000 0.750000 -1.062499
v -1.500000 0.500000 -1.499999
v -1.062500 0.500000 -1.499999
v -1.500000 0.750000 -1.499999
v -1.062500 0.750000 -1.499999
v -1.250000 0.750000 -1.249999
v -1.062500 0.750000 -1.249999
v -1.250000 0.500000 -1.249999
v -1.062500 0.500000 -1.249999
v -1.250000 0.500000 -1.062499
v -1.250000 0.500000 -1.249999
v -1.250000 0.750000 -1.062499
v -1.250000 0.750000 -1.249999
v -1.250000 0.750000 -1.499999
v -1.250000 0.750000 -1.062499
v -1.500000 0.750000 -1.499999
v -1.500000 0.750000 -1.062499
v -1.250000 0.750000 -1.499999
v -1.062500 0.750000 -1.499999
v -1.250000 0.750000 -1.249999
v -1.062500 0.750000 -1.249999
v -1.062500 0.750000 -1.249999
v -1.062500 0.750000 -1.499999
v -1.062500 0.500000 -1.249999
v -1.062500 0.500000 -1.499999
v -1.250000 0.750000 -1.062499
v -1.500000 0.750000 -1.062499
v -1.250000 0.500000 -1.062499
v -1.500000 0.500000 -1.062499
v -1.500000 0.000000 -0.499998
v -1.500000 0.000000 0.500002
v -1.500000 0.500000 -0.499998
v -1.500000 0.500000 0.500002
v -1.250000 0.500000 -0.499998
v -1.250000 0.000000 -0.499998
v -1.250000 0.000000 0.500002
v -1.250000 0.500000 0.500002
v -1.500000 0.500000 -0.187498
v -1.500000 0.500000 0.187502
v -1.500000 0.750000 -0.187498
v -1.500000 0.750000 0.187502
v -1.250000 0.500000 0.187502
v -1.250000 0.500000 -0.187498
v -1.250000 0.750000 0.187502
v -1.250000 0.750000 -0.187498
v -1.250000 0.500000 0.187502
v -1.500000 0.500000 0.187502
v -1.250000 0.750000 0.187502
v -1.500000 0.750000 0.187502
v -1.500000 0.500000 -0.187498
v -1.250000 0.500000 -0.187498
v -1.500000 0.750000 -0.187498
v -1.250000 0.750000 -0.187498
v -1.500000 0.750000 -0.187498
v -1.500000 0.750000 0.187502
v -1.250000 0.750000 -0.187498
v -1.250000 0.750000 0.187502
v -0.500000 0.000000 1.500001
v 0.500000 0.000000 1.500001
v -0.500000 0.500000 1.500001
v 0.500000 0.500000 1.500001
v -0.500000 0.500000 1.250001
v -0.500000 0.000000 1.250001
v 0.500000 0.000000 1.250000
v 0.500000 0.500000 1.250001
v -0.187500 0.500000 1.500001
v 0.187500 0.500000 1.500001
v -0.187500 0.750000 1.500001
v 0.187500 0.750000 1.500001
v 0.187500 0.500000 1.250001
v -0.187500 0.500000 1.250001
v 0.187500 0.750000 1.250001
v -0.187500 0.750000 1.250001
v 0.187500 0.500000 1.250001
v 0.187500 0.500000 1.500001
v 0.187500 0.750000 1.250001
v 0.187500 0.750000 1.500001
v -0.187500 0.500000 1.500001
v -0.187500 0.500000 1.250001
v -0.187500 0.750000 1.500001
v -0.187500 0.750000 1.250001
v -0.187500 0.750000 1.500001
v 0.187500 0.750000 1.500001
v -0.187500 0.750000 1.250001
v 0.187500 0.750000 1.250001
v -1.500000 0.000000 -1.250000
v -1.500000 0.000000 -0.500000
v -1.250000 0.000000 -1.250000
v -1.250000 0.000000 -0.500000
v -1.250000 0.000000 1.500000
v -0.500000 0.000000 1.500000
v -1.250000 0.000000 1.250000
v -0.500000 0.000000 1.250000
v 1.250000 0.000000 0.500000
v 1.250000 0.000000 1.250000
v 1.500000 0.000000 0.500000
v 1.500000 0.000000 1.250000
v 0.500000 0.000000 -1.250000
v 1.250000 0.000000 -1.250000
v 0.500000 0.000000 -1.500000
v 1.250000 0.000000 -1.500000
vn -0.0000 -0.0000 1.0000
vn -0.0000 -0.0000 -1.0000
vn -0.0000 -1.0000 -0.0000
vn 1.0000 -0.0000 -0.0000
vn -1.0000 -0.0000 -0.0000
vn -0.0000 1.0000 -0.0000
vt 0.012195 0.314815
vt 0.109756 0.314815
vt 0.109756 0.364198
vt 0.012195 0.364198
vt 0.012195 0.228395
vt 0.012195 0.203704
vt 0.109756 0.203704
vt 0.109756 0.228395
vt 0.097561 0.314815
vt 0.121951 0.314815
vt 0.121951 0.364198
vt 0.097561 0.364198
vt 0.042683 0.364198
vt 0.067073 0.364198
vt 0.067073 0.314815
vt 0.042683 0.314815
vt 0.115854 0.172840
vt 0.115854 0.197531
vt 0.018293 0.197531
vt 0.018293 0.172840
vt 0.024390 0.314815
vt 0.024390 0.364198
vt 0.097561 0.172840
vt 0.097561 0.197531
vt 0.024390 0.197531
vt 0.024390 0.172840
vt 0.091463 0.314815
vt 0.091463 0.339506
vt 0.048780 0.339506
vt 0.048780 0.314815
vt 0.079268 0.314815
vt 0.060976 0.314815
vt 0.060976 0.339506
vt 0.079268 0.339506
vt 0.213415 0.172840
vt 0.170732 0.172840
vt 0.170732 0.197531
vt 0.213415 0.197531
vt 0.195122 0.172840
vt 0.195122 0.197531
vt 0.085366 0.314815
vt 0.085366 0.339506
vt 0.109756 0.172840
vt 0.109756 0.197531
vt 0.012195 0.197531
vt 0.012195 0.172840
vt 0.048780 0.172840
vt 0.048780 0.197531
s 0
usemtl mFG_Fortress
f 1/1/1 2/2/1 4/3/1 3/4/1
f 6/1/2 5/4/2 8/3/2 7/2/2
f 1/5/3 6/6/3 7/7/3 2/8/3
f 2/9/4 7/10/4 8/11/4 4/12/4
f 3/13/5 5/14/5 6/15/5 1/16/5
f 4/17/6 8/18/6 5/19/6 3/20/6
f 9/21/4 10/9/4 12/12/4 11/22/4
f 14/21/5 13/22/5 16/12/5 15/9/5
f 18/23/6 20/24/6 19/25/6 17/26/6
f 21/9/2 23/10/2 24/11/2 22/12/2
f 26/27/4 28/28/4 27/29/4 25/30/4
f 30/27/1 29/30/1 31/29/1 32/28/1
f 35/31/2 36/32/2 34/33/2 33/34/2
f 38/31/5 40/34/5 39/33/5 37/32/5
f 42/35/6 41/36/6 43/37/6 44/38/6
f 46/35/6 45/39/6 47/40/6 48/38/6
f 51/41/5 52/32/5 50/33/5 49/42/5
f 55/41/2 53/42/2 54/33/2 56/32/2
f 57/1/5 58/2/5 60/3/5 59/4/5
f 62/1/4 61/4/4 64/3/4 63/2/4
f 57/5/3 62/6/3 63/7/3 58/8/3
f 58/9/1 63/10/1 64/11/1 60/12/1
f 59/13/2 61/14/2 62/15/2 57/16/2
f 60/17/6 64/18/6 61/19/6 59/20/6
f 65/21/1 66/9/1 68/12/1 67/22/1
f 70/21/2 69/22/2 72/12/2 71/9/2
f 74/23/6 76/24/6 75/25/6 73/26/6
f 77/9/4 79/10/4 80/11/4 78/12/4
f 82/27/1 84/28/1 83/29/1 81/30/1
f 86/27/5 85/30/5 87/29/5 88/28/5
f 91/31/4 92/32/4 90/33/4 89/34/4
f 94/31/2 96/34/2 95/33/2 93/32/2
f 98/35/6 97/36/6 99/37/6 100/38/6
f 102/35/6 101/39/6 103/40/6 104/38/6
f 107/41/2 108/32/2 106/33/2 105/42/2
f 111/41/4 109/42/4 110/33/4 112/32/4
f 113/1/4 114/2/4 116/3/4 115/4/4
f 118/1/5 117/4/5 120/3/5 119/2/5
f 113/5/3 118/6/3 119/7/3 114/8/3
f 114/9/2 119/10/2 120/11/2 116/12/2
f 115/13/1 117/14/1 118/15/1 113/16/1
f 116/43/6 120/44/6 117/45/6 115/46/6
f 121/30/4 122/41/4 124/42/4 123/29/4
f 125/30/5 126/41/5 128/42/5 127/29/5
f 129/32/2 131/33/2 132/42/2 130/41/2
f 133/32/1 135/33/1 136/42/1 134/41/1
f 138/47/6 140/48/6 139/45/6 137/46/6
f 141/1/4 142/2/4 144/3/4 143/4/4
f 146/1/5 145/4/5 148/3/5 147/2/5
f 141/5/3 146/6/3 147/7/3 142/8/3
f 142/9/2 147/10/2 148/11/2 144/12/2
f 143/13/1 145/14/1 146/15/1 141/16/1
f 144/17/6 148/18/6 145/19/6 143/20/6
f 149/21/2 150/9/2 152/12/2 151/22/2
f 154/21/1 153/22/1 156/12/1 155/9/1
f 158/23/6 160/24/6 159/25/6 157/26/6
f 161/9/5 163/10/5 164/11/5 162/12/5
f 166/27/2 168/28/2 167/29/2 165/30/2
f 170/27/4 169/30/4 171/29/4 172/28/4
f 175/31/5 176/32/5 174/33/5 173/34/5
f 178/31/1 180/34/1 179/33/1 177/32/1
f 182/35/6 181/36/6 183/37/6 184/38/6
f 186/35/6 185/39/6 187/40/6 188/38/6
f 191/41/1 192/32/1 190/33/1 189/42/1
f 195/41/5 193/42/5 194/33/5 196/32/5
f 197/1/2 198/2/2 200/3/2 199/4/2
f 202/1/1 201/4/1 204/3/1 203/2/1
f 197/5/3 202/6/3 203/7/3 198/8/3
f 198/9/5 203/10/5 204/11/5 200/12/5
f 199/13/4 201/14/4 202/15/4 197/16/4
f 200/43/6 204/44/6 201/45/6 199/46/6
f 205/30/2 206/41/2 208/42/2 207/29/2
f 209/30/1 210/41/1 212/42/1 211/29/1
f 213/32/5 215/33/5 216/42/5 214/41/5
f 217/32/4 219/33/4 220/42/4 218/41/4
f 222/47/6 224/48/6 223/45/6 221/46/6
f 225/1/2 226/2/2 228/3/2 227/4/2
f 230/1/1 229/4/1 232/3/1 231/2/1
f 225/5/3 230/6/3 231/7/3 226/8/3
f 226/9/5 231/10/5 232/11/5 228/12/5
f 227/13/4 229/14/4 230/15/4 225/16/4
f 228/17/6 232/18/6 229/19/6 227/20/6
f 233/21/5 234/9/5 236/12/5 235/22/5
f 238/21/4 237/22/4 240/12/4 239/9/4
f 242/23/6 244/24/6 243/25/6 241/26/6
f 245/9/1 247/10/1 248/11/1 246/12/1
f 250/27/5 252/28/5 251/29/5 249/30/5
f 254/27/2 253/30/2 255/29/2 256/28/2
f 259/31/1 260/32/1 258/33/1 257/34/1
f 262/31/4 264/34/4 263/33/4 261/32/4
f 266/35/6 265/36/6 267/37/6 268/38/6
f 270/35/6 269/39/6 271/40/6 272/38/6
f 275/41/4 276/32/4 274/33/4 273/42/4
f 279/41/1 277/42/1 278/33/1 280/32/1
f 281/1/5 282/2/5 284/3/5 283/4/5
f 286/1/4 285/4/4 288/3/4 287/2/4
f 281/5/3 286/6/3 287/7/3 282/8/3
f 282/9/1 287/10/1 288/11/1 284/12/1
f 283/13/2 285/14/2 286/15/2 281/16/2
f 284/43/6 288/44/6 285/45/6 283/46/6
f 289/30/5 290/41/5 292/42/5 291/29/5
f 293/30/4 294/41/4 296/42/4 295/29/4
f 297/32/1 299/33/1 300/42/1 298/41/1
f 301/32/2 303/33/2 304/42/2 302/41/2
f 306/47/6 308/48/6 307/45/6 305/46/6
f 309/1/1 310/2/1 312/3/1 311/4/1
f 314/1/2 313/4/2 316/3/2 315/2/2
f 309/5/3 314/6/3 315/7/3 310/8/3
f 310/9/4 315/10/4 316/11/4 312/12/4
f 311/13/5 313/14/5 314/15/5 309/16/5
f 312/43/6 316/44/6 313/45/6 311/46/6
f 317/30/1 318/41/1 320/42/1 319/29/1
f 321/30/2 322/41/2 324/42/2 323/29/2
f 325/32/4 327/33/4 328/42/4 326/41/4
f 329/32/5 331/33/5 332/42/5 330/41/5
f 334/47/6 336/48/6 335/45/6 333/46/6
f 337/5/3 339/6/3 340/7/3 338/8/3
f 341/5/3 343/6/3 344/7/3 342/8/3
f 345/5/3 347/6/3 348/7/3 346/8/3
f 349/5/3 351/6/3 352/7/3 350/8/3
