# Blender 4.0.2
# www.blender.org
mtllib Fortress_Floor_05.mtl
o Fortress_Floor_05
v -1.500000 0.000000 -1.500000
v -1.500000 0.000000 -0.500000
v -0.500000 0.000000 -0.500000
v -0.500000 0.000000 -1.500000
v -0.500000 0.062500 -1.500000
v -0.500000 0.062500 -0.500000
v 0.500000 0.062500 -0.500000
v 0.500000 0.062500 -1.500000
v 0.500000 0.000000 -1.500000
v 0.500000 0.000000 -0.500000
v 1.500000 0.000000 -0.500000
v 1.500000 0.000000 -1.500000
v -1.500000 0.000000 -0.500000
v -1.500000 0.000000 0.500000
v -0.500000 0.000000 0.500000
v -0.500000 0.000000 -0.500000
v -0.500000 0.062500 -0.500000
v -0.500000 0.062500 0.500000
v 0.500000 0.062500 0.500000
v 0.500000 0.062500 -0.500000
v 0.500000 0.062500 -0.500000
v 0.500000 0.062500 0.500000
v 1.500000 0.062500 0.500000
v 1.500000 0.062500 -0.500000
v -1.500000 0.062500 0.500000
v -1.500000 0.062500 1.500000
v -0.500000 0.062500 1.500000
v -0.500000 0.062500 0.500000
v -0.500000 0.000000 0.500000
v -0.500000 0.000000 1.500000
v 0.500000 0.000000 1.500000
v 0.500000 0.000000 0.500000
v 0.500000 0.000000 0.500000
v 0.500000 0.000000 1.500000
v 1.500000 0.000000 1.500000
v 1.500000 0.000000 0.500000
v -0.500000 0.062500 -0.500000
v -0.500000 0.000000 -0.500000
v 0.500000 0.000000 -0.500000
v 0.500000 0.062500 -0.500000
v 0.500000 0.062500 0.500000
v 0.500000 0.000000 0.500000
v 0.500000 0.000000 -0.500000
v 0.500000 0.062500 -0.500000
v -0.500000 0.062500 0.500000
v -0.500000 0.000000 0.500000
v -0.500000 0.000000 -0.500000
v -0.500000 0.062500 -0.500000
v -1.500000 0.062500 1.500000
v -1.500000 0.000000 1.500000
v -0.500000 0.000000 1.500000
v -0.500000 0.062500 1.500000
v -1.500000 0.062500 0.500000
v -1.500000 0.000000 0.500000
v -0.500000 0.000000 0.500000
v -0.500000 0.062500 0.500000
v -0.500000 0.062500 1.500000
v -0.500000 0.000000 1.500000
v -0.500000 0.000000 0.500000
v -0.500000 0.062500 0.500000
v -1.500000 0.062500 1.500000
v -1.500000 0.000000 1.500000
v -1.500000 0.000000 0.500000
v -1.500000 0.062500 0.500000
v 0.500000 0.062500 -0.500000
v 0.500000 0.000000 -0.500000
v 1.500000 0.000000 -0.500000
v 1.500000 0.062500 -0.500000
v 1.500000 0.062500 0.500000
v 1.500000 0.000000 0.500000
v 1.500000 0.000000 -0.500000
v 1.500000 0.062500 -0.500000
v -0.500000 0.062500 -1.500000
v -0.500000 0.000000 -1.500000
v 0.500000 0.000000 -1.500000
v 0.500000 0.062500 -1.500000
v 0.500000 0.062500 -0.500000
v 0.500000 0.000000 -0.500000
v 0.500000 0.000000 -1.500000
v 0.500000 0.062500 -1.500000
v -0.500000 0.062500 -0.500000
v -0.500000 0.000000 -0.500000
v -0.500000 0.000000 -1.500000
v -0.500000 0.062500 -1.500000
vn -0.0000 1.0000 -0.0000
vn -0.0000 -0.0000 1.0000
vn 1.0000 -0.0000 -0.0000
vn -1.0000 -0.0000 -0.0000
vn -0.0000 -0.0000 -1.0000
vt 0.048780 0.012346
vt 0.146341 0.012346
vt 0.146341 0.111111
vt 0.048780 0.111111
vt 0.359756 0.012346
vt 0.457317 0.012346
vt 0.457317 0.111111
vt 0.359756 0.111111
vt 0.152439 0.012346
vt 0.250000 0.012346
vt 0.250000 0.111111
vt 0.152439 0.111111
vt 0.256098 0.012346
vt 0.353659 0.012346
vt 0.353659 0.111111
vt 0.256098 0.111111
vt 0.012195 0.160494
vt 0.109756 0.160494
vt 0.109756 0.166667
vt 0.012195 0.166667
s 0
usemtl mFG_Fortress
f 2/1/1 3/2/1 4/3/1 1/4/1
f 6/5/1 7/6/1 8/7/1 5/8/1
f 10/1/1 11/2/1 12/3/1 9/4/1
f 14/1/1 15/2/1 16/3/1 13/4/1
f 18/1/1 19/2/1 20/3/1 17/4/1
f 22/9/1 23/10/1 24/11/1 21/12/1
f 26/13/1 27/14/1 28/15/1 25/16/1
f 30/1/1 31/2/1 32/3/1 29/4/1
f 34/1/1 35/2/1 36/3/1 33/4/1
f 38/17/2 39/18/2 40/19/2 37/20/2
f 42/17/3 43/18/3 44/19/3 41/20/3
f 46/17/4 45/20/4 48/19/4 47/18/4
f 50/17/2 51/18/2 52/19/2 49/20/2
f 54/17/5 53/20/5 56/19/5 55/18/5
f 58/17/3 59/18/3 60/19/3 57/20/3
f 62/17/4 61/20/4 64/19/4 63/18/4
f 66/17/5 65/20/5 68/19/5 67/18/5
f 70/17/3 71/18/3 72/19/3 69/20/3
f 74/17/5 73/20/5 76/19/5 75/18/5
f 78/17/3 79/18/3 80/19/3 77/20/3
f 82/17/4 81/20/4 84/19/4 83/18/4
