# Blender 4.0.2
# www.blender.org
mtllib Fortress_Stairs_3.mtl
o Fortress_Stairs_3
v 0.500000 2.000000 -0.750000
v 1.500000 2.000000 -0.750000
v 0.500000 1.750000 -0.750000
v 1.500000 1.750000 -0.750000
v 0.500000 0.250000 1.000000
v 1.500000 0.250000 1.000000
v 0.500000 0.250000 0.750000
v 1.500000 0.250000 0.750000
v 0.500000 1.750000 -0.500000
v 1.500000 1.750000 -0.500000
v 0.500000 1.500000 -0.500000
v 1.500000 1.500000 -0.500000
v 0.500000 0.500000 0.750000
v 1.500000 0.500000 0.750000
v 0.500000 0.500000 0.500000
v 1.500000 0.500000 0.500000
v 0.500000 1.500000 -0.250000
v 1.500000 1.500000 -0.250000
v 0.500000 1.250000 -0.250000
v 1.500000 1.250000 -0.250000
v 0.500000 0.750000 0.500000
v 1.500000 0.750000 0.500000
v 0.500000 0.750000 0.250000
v 1.500000 0.750000 0.250000
v 0.500000 1.250000 0.000000
v 1.500000 1.250000 0.000000
v 0.500000 1.000000 0.000000
v 1.500000 1.000000 0.000000
v 0.500000 1.000000 0.250000
v 1.500000 1.000000 0.250000
v 0.500000 1.000000 0.000000
v 1.500000 1.000000 0.000000
v 0.500000 1.000000 0.250000
v 1.500000 1.000000 0.250000
v 0.500000 0.750000 0.250000
v 1.500000 0.750000 0.250000
v 0.500000 1.250000 0.000000
v 1.500000 1.250000 0.000000
v 0.500000 1.250000 -0.250000
v 1.500000 1.250000 -0.250000
v 0.500000 0.750000 0.500000
v 1.500000 0.750000 0.500000
v 0.500000 0.500000 0.500000
v 1.500000 0.500000 0.500000
v 0.500000 1.500000 -0.250000
v 1.500000 1.500000 -0.250000
v 0.500000 1.500000 -0.500000
v 1.500000 1.500000 -0.500000
v 0.500000 0.500000 0.750000
v 1.500000 0.500000 0.750000
v 0.500000 0.250000 0.750000
v 1.500000 0.250000 0.750000
v 0.500000 1.750000 -0.500000
v 1.500000 1.750000 -0.500000
v 0.500000 1.750000 -0.750000
v 1.500000 1.750000 -0.750000
v 0.500000 0.250000 1.000000
v 1.500000 0.250000 1.000000
v 0.500000 0.000000 1.000000
v 1.500000 0.000000 1.000000
v 0.500000 2.000000 -0.750000
v 1.500000 2.000000 -0.750000
v 0.500000 2.000000 -1.000000
v 1.500000 2.000000 -1.000000
v -1.500000 2.000000 -0.750000
v -0.500000 2.000000 -0.750000
v -1.500000 1.750000 -0.750000
v -0.500000 1.750000 -0.750000
v -1.500000 0.250000 1.000000
v -0.500000 0.250000 1.000000
v -1.500000 0.250000 0.750000
v -0.500000 0.250000 0.750000
v -1.500000 1.750000 -0.500000
v -0.500000 1.750000 -0.500000
v -1.500000 1.500000 -0.500000
v -0.500000 1.500000 -0.500000
v -1.500000 0.500000 0.750000
v -0.500000 0.500000 0.750000
v -1.500000 0.500000 0.500000
v -0.500000 0.500000 0.500000
v -1.500000 1.500000 -0.250000
v -0.500000 1.500000 -0.250000
v -1.500000 1.250000 -0.250000
v -0.500000 1.250000 -0.250000
v -1.500000 0.750000 0.500000
v -0.500000 0.750000 0.500000
v -1.500000 0.750000 0.250000
v -0.500000 0.750000 0.250000
v -1.500000 1.250000 0.000000
v -0.500000 1.250000 0.000000
v -1.500000 1.000000 0.000000
v -0.500000 1.000000 0.000000
v -1.500000 1.000000 0.250000
v -0.500000 1.000000 0.250000
v -1.500000 1.000000 0.000000
v -0.500000 1.000000 0.000000
v -1.500000 1.000000 0.250000
v -0.500000 1.000000 0.250000
v -1.500000 0.750000 0.250000
v -0.500000 0.750000 0.250000
v -1.500000 1.250000 0.000000
v -0.500000 1.250000 0.000000
v -1.500000 1.250000 -0.250000
v -0.500000 1.250000 -0.250000
v -1.500000 0.750000 0.500000
v -0.500000 0.750000 0.500000
v -1.500000 0.500000 0.500000
v -0.500000 0.500000 0.500000
v -1.500000 1.500000 -0.250000
v -0.500000 1.500000 -0.250000
v -1.500000 1.500000 -0.500000
v -0.500000 1.500000 -0.500000
v -1.500000 0.500000 0.750000
v -0.500000 0.500000 0.750000
v -1.500000 0.250000 0.750000
v -0.500000 0.250000 0.750000
v -1.500000 1.750000 -0.500000
v -0.500000 1.750000 -0.500000
v -1.500000 1.750000 -0.750000
v -0.500000 1.750000 -0.750000
v -1.500000 0.250000 1.000000
v -0.500000 0.250000 1.000000
v -1.500000 0.000000 1.000000
v -0.500000 0.000000 1.000000
v -1.500000 2.000000 -0.750000
v -0.500000 2.000000 -0.750000
v -1.500000 2.000000 -1.000000
v -0.500000 2.000000 -1.000000
v -0.500000 2.000000 -0.750000
v 0.500000 2.000000 -0.750000
v -0.500000 1.750000 -0.750000
v 0.500000 1.750000 -0.750000
v -0.500000 0.250000 1.000000
v 0.500000 0.250000 1.000000
v -0.500000 0.250000 0.750000
v 0.500000 0.250000 0.750000
v -0.500000 1.750000 -0.500000
v 0.500000 1.750000 -0.500000
v -0.500000 1.500000 -0.500000
v 0.500000 1.500000 -0.500000
v -0.500000 0.500000 0.750000
v 0.500000 0.500000 0.750000
v -0.500000 0.500000 0.500000
v 0.500000 0.500000 0.500000
v -0.500000 1.500000 -0.250000
v 0.500000 1.500000 -0.250000
v -0.500000 1.250000 -0.250000
v 0.500000 1.250000 -0.250000
v -0.500000 0.750000 0.500000
v 0.500000 0.750000 0.500000
v -0.500000 0.750000 0.250000
v 0.500000 0.750000 0.250000
v -0.500000 1.250000 0.000000
v 0.500000 1.250000 0.000000
v -0.500000 1.000000 0.000000
v 0.500000 1.000000 0.000000
v -0.500000 1.000000 0.250000
v 0.500000 1.000000 0.250000
v -0.500000 1.000000 0.000000
v 0.500000 1.000000 0.000000
v -0.500000 1.000000 0.250000
v 0.500000 1.000000 0.250000
v -0.500000 0.750000 0.250000
v 0.500000 0.750000 0.250000
v -0.500000 1.250000 0.000000
v 0.500000 1.250000 0.000000
v -0.500000 1.250000 -0.250000
v 0.500000 1.250000 -0.250000
v -0.500000 0.750000 0.500000
v 0.500000 0.750000 0.500000
v -0.500000 0.500000 0.500000
v 0.500000 0.500000 0.500000
v -0.500000 1.500000 -0.250000
v 0.500000 1.500000 -0.250000
v -0.500000 1.500000 -0.500000
v 0.500000 1.500000 -0.500000
v -0.500000 0.500000 0.750000
v 0.500000 0.500000 0.750000
v -0.500000 0.250000 0.750000
v 0.500000 0.250000 0.750000
v -0.500000 1.750000 -0.500000
v 0.500000 1.750000 -0.500000
v -0.500000 1.750000 -0.750000
v 0.500000 1.750000 -0.750000
v -0.500000 0.250000 1.000000
v 0.500000 0.250000 1.000000
v -0.500000 0.000000 1.000000
v 0.500000 0.000000 1.000000
v -0.500000 2.000000 -0.750000
v 0.500000 2.000000 -0.750000
v -0.500000 2.000000 -1.000000
v 0.500000 2.000000 -1.000000
v 1.500000 0.000000 -1.000000
v -1.500000 0.000000 -1.000000
v 1.500000 2.000000 -1.000000
v -1.500000 2.000000 -1.000000
v -0.500000 0.000000 1.000000
v 0.500000 0.000000 1.000000
v -0.500000 0.000000 0.000000
v 0.500000 0.000000 0.000000
v -1.500000 0.000000 1.000000
v -0.500000 0.000000 1.000000
v -1.500000 0.000000 0.000000
v -0.500000 0.000000 0.000000
v 0.500000 0.000000 1.000000
v 1.500000 0.000000 1.000000
v 0.500000 0.000000 0.000000
v 1.500000 0.000000 0.000000
v -0.500000 0.000000 0.000000
v 0.500000 0.000000 0.000000
v -0.500000 0.000000 -1.000000
v 0.500000 0.000000 -1.000000
v -1.500000 0.000000 0.000000
v -0.500000 0.000000 0.000000
v -1.500000 0.000000 -1.000000
v -0.500000 0.000000 -1.000000
v 0.500000 0.000000 0.000000
v 1.500000 0.000000 0.000000
v 0.500000 0.000000 -1.000000
v 1.500000 0.000000 -1.000000
v 1.500000 1.750000 -0.750000
v 1.500000 1.750000 -0.500000
v 1.500000 1.500000 -0.500000
v 1.500000 1.500000 -0.250000
v 1.500000 1.250000 -0.250000
v 1.500000 1.250000 0.000000
v 1.500000 1.000000 0.000000
v 1.500000 1.000000 0.250000
v 1.500000 0.750000 0.250000
v 1.500000 0.750000 0.500000
v 1.500000 0.500000 0.500000
v 1.500000 0.500000 0.750000
v 1.500000 0.250000 0.750000
v 1.500000 0.250000 1.000000
v 1.500000 2.000000 -0.750000
v 1.500000 2.000000 -1.000000
v 1.500000 0.000000 1.000000
v 1.500000 0.000000 -1.000000
v -1.500000 0.000000 -1.000000
v -1.500000 0.000000 1.000000
v -1.500000 2.000000 -1.000000
v -1.500000 2.000000 -0.750000
v -1.500000 0.250000 1.000000
v -1.500000 0.250000 0.750000
v -1.500000 0.500000 0.750000
v -1.500000 0.500000 0.500000
v -1.500000 0.750000 0.500000
v -1.500000 0.750000 0.250000
v -1.500000 1.000000 0.250000
v -1.500000 1.000000 0.000000
v -1.500000 1.250000 0.000000
v -1.500000 1.250000 -0.250000
v -1.500000 1.500000 -0.250000
v -1.500000 1.500000 -0.500000
v -1.500000 1.750000 -0.500000
v -1.500000 1.750000 -0.750000
vn -0.0000 -0.0000 1.0000
vn -0.0000 1.0000 -0.0000
vn -0.0000 -0.0000 -1.0000
vn -0.0000 -1.0000 -0.0000
vn 1.0000 -0.0000 -0.0000
vn -1.0000 -0.0000 -0.0000
vt 0.006098 0.487654
vt 0.006098 0.512346
vt 0.103659 0.512346
vt 0.103659 0.487654
vt 0.048780 0.259259
vt 0.146341 0.259259
vt 0.146341 0.283951
vt 0.048780 0.283951
vt 0.006098 0.462963
vt 0.103659 0.462963
vt 0.006098 0.438272
vt 0.103659 0.438272
vt 0.006098 0.413580
vt 0.103659 0.413580
vt 0.006098 0.388889
vt 0.103659 0.388889
vt 0.006098 0.364198
vt 0.103659 0.364198
vt 0.006098 0.339506
vt 0.103659 0.339506
vt 0.006098 0.314815
vt 0.103659 0.314815
vt 0.298781 0.314815
vt 0.298781 0.512346
vt 0.048780 0.012346
vt 0.048780 0.111111
vt 0.146341 0.111111
vt 0.146341 0.012346
vt 0.030488 0.512346
vt 0.030488 0.487654
vt 0.054878 0.487654
vt 0.054878 0.462963
vt 0.079268 0.462963
vt 0.079268 0.438272
vt 0.128049 0.413580
vt 0.128049 0.388889
vt 0.152439 0.388889
vt 0.152439 0.364198
vt 0.176829 0.364198
vt 0.176829 0.339506
vt 0.201220 0.339506
vt 0.201220 0.314815
s 0
usemtl mFG_Fortress
f 4/1/1 2/2/1 1/3/1 3/4/1
f 5/5/2 6/6/2 8/7/2 7/8/2
f 12/9/1 10/1/1 9/4/1 11/10/1
f 13/5/2 14/6/2 16/7/2 15/8/2
f 20/11/1 18/9/1 17/10/1 19/12/1
f 21/5/2 22/6/2 24/7/2 23/8/2
f 28/13/1 26/11/1 25/12/1 27/14/1
f 29/5/2 30/6/2 32/7/2 31/8/2
f 36/15/1 34/13/1 33/14/1 35/16/1
f 37/5/2 38/6/2 40/7/2 39/8/2
f 44/17/1 42/15/1 41/16/1 43/18/1
f 45/5/2 46/6/2 48/7/2 47/8/2
f 52/19/1 50/17/1 49/18/1 51/20/1
f 53/5/2 54/6/2 56/7/2 55/8/2
f 60/21/1 58/19/1 57/20/1 59/22/1
f 61/5/2 62/6/2 64/7/2 63/8/2
f 68/1/1 66/2/1 65/3/1 67/4/1
f 69/5/2 70/6/2 72/7/2 71/8/2
f 76/9/1 74/1/1 73/4/1 75/10/1
f 77/5/2 78/6/2 80/7/2 79/8/2
f 84/11/1 82/9/1 81/10/1 83/12/1
f 85/5/2 86/6/2 88/7/2 87/8/2
f 92/13/1 90/11/1 89/12/1 91/14/1
f 93/5/2 94/6/2 96/7/2 95/8/2
f 100/15/1 98/13/1 97/14/1 99/16/1
f 101/5/2 102/6/2 104/7/2 103/8/2
f 108/17/1 106/15/1 105/16/1 107/18/1
f 109/5/2 110/6/2 112/7/2 111/8/2
f 116/19/1 114/17/1 113/18/1 115/20/1
f 117/5/2 118/6/2 120/7/2 119/8/2
f 124/21/1 122/19/1 121/20/1 123/22/1
f 125/5/2 126/6/2 128/7/2 127/8/2
f 132/1/1 130/2/1 129/3/1 131/4/1
f 133/5/2 134/6/2 136/7/2 135/8/2
f 140/9/1 138/1/1 137/4/1 139/10/1
f 141/5/2 142/6/2 144/7/2 143/8/2
f 148/11/1 146/9/1 145/10/1 147/12/1
f 149/5/2 150/6/2 152/7/2 151/8/2
f 156/13/1 154/11/1 153/12/1 155/14/1
f 157/5/2 158/6/2 160/7/2 159/8/2
f 164/15/1 162/13/1 161/14/1 163/16/1
f 165/5/2 166/6/2 168/7/2 167/8/2
f 172/17/1 170/15/1 169/16/1 171/18/1
f 173/5/2 174/6/2 176/7/2 175/8/2
f 180/19/1 178/17/1 177/18/1 179/20/1
f 181/5/2 182/6/2 184/7/2 183/8/2
f 188/21/1 186/19/1 185/20/1 187/22/1
f 189/5/2 190/6/2 192/7/2 191/8/2
f 193/21/3 194/23/3 196/24/3 195/2/3
f 197/25/4 199/26/4 200/27/4 198/28/4
f 201/25/4 203/26/4 204/27/4 202/28/4
f 205/25/4 207/26/4 208/27/4 206/28/4
f 209/25/4 211/26/4 212/27/4 210/28/4
f 213/25/4 215/26/4 216/27/4 214/28/4
f 217/25/4 219/26/4 220/27/4 218/28/4
f 238/21/5 236/2/5 235/29/5 221/30/5 222/31/5 223/32/5 224/33/5 225/34/5 226/12/5 227/14/5 228/35/5 229/36/5 230/37/5 231/38/5 232/39/5 233/40/5 234/41/5 237/42/5
f 239/21/6 240/42/6 243/41/6 244/40/6 245/39/6 246/38/6 247/37/6 248/36/6 249/35/6 250/14/6 251/12/6 252/34/6 253/33/6 254/32/6 255/31/6 256/30/6 242/29/6 241/2/6
