# Blender 4.0.2
# www.blender.org
mtllib Fortress_Door_Frame_1.mtl
o Fortress_Door_Frame_1
v -0.875000 0.000000 0.125000
v -0.625000 0.000000 0.125000
v -0.875000 0.000000 -0.125000
v -0.625000 0.000000 -0.125000
v -0.875000 0.000000 0.125000
v -0.625000 0.000000 0.125000
v -0.875000 1.500000 0.125000
v -0.625000 1.500000 0.125000
v -0.625000 0.000000 0.125000
v -0.625000 0.000000 -0.125000
v -0.625000 1.500000 0.125000
v -0.625000 1.500000 -0.125000
v -0.625000 0.000000 -0.125000
v -0.875000 0.000000 -0.125000
v -0.625000 1.500000 -0.125000
v -0.875000 1.500000 -0.125000
v -0.875000 0.000000 -0.125000
v -0.875000 0.000000 0.125000
v -0.875000 1.500000 -0.125000
v -0.875000 1.500000 0.125000
v 0.625000 0.000000 0.125000
v 0.875000 0.000000 0.125000
v 0.625000 0.000000 -0.125000
v 0.875000 0.000000 -0.125000
v 0.625000 0.000000 0.125000
v 0.875000 0.000000 0.125000
v 0.625000 1.500000 0.125000
v 0.875000 1.500000 0.125000
v 0.875000 0.000000 0.125000
v 0.875000 0.000000 -0.125000
v 0.875000 1.500000 0.125000
v 0.875000 1.500000 -0.125000
v 0.875000 0.000000 -0.125000
v 0.625000 0.000000 -0.125000
v 0.875000 1.500000 -0.125000
v 0.625000 1.500000 -0.125000
v 0.625000 0.000000 -0.125000
v 0.625000 0.000000 0.125000
v 0.625000 1.500000 -0.125000
v 0.625000 1.500000 0.125000
v -1.000000 1.500000 -0.125000
v -1.000000 1.500000 0.125000
v 1.000000 1.500000 -0.125000
v 1.000000 1.500000 0.125000
v -1.000000 1.750000 -0.125000
v -1.000000 1.750000 0.125000
v 1.000000 1.750000 -0.125000
v 1.000000 1.750000 0.125000
v -1.000000 1.750000 -0.125000
v -1.000000 1.500000 -0.125000
v 1.000000 1.750000 -0.125000
v 1.000000 1.500000 -0.125000
v -1.000000 1.750000 0.125000
v -1.000000 1.500000 0.125000
v 1.000000 1.750000 0.125000
v 1.000000 1.500000 0.125000
v -0.375000 0.000000 0.000000
v -0.625000 0.000000 0.000000
v 1.000000 1.750000 0.125000
v 1.000000 1.500000 0.125000
v 1.000000 1.750000 -0.125000
v 1.000000 1.500000 -0.125000
v -1.000000 1.750000 0.125000
v -1.000000 1.500000 0.125000
v -1.000000 1.750000 -0.125000
v -1.000000 1.500000 -0.125000
v -0.375000 1.000000 0.000000
v -0.625000 1.000000 0.000000
v -0.375000 1.000000 0.000000
v 0.625000 1.000000 0.000000
v -0.375000 0.000000 -0.000000
v 0.625000 0.000000 -0.000000
v -0.375000 1.500000 0.000000
v -0.625000 1.500000 0.000000
v -0.375000 1.500000 0.000000
v 0.625000 1.500000 0.000000
v -0.375000 1.000000 0.000000
v 0.625000 1.000000 0.000000
v -0.375000 1.000000 0.000000
v -0.625000 1.000000 0.000000
v -0.375000 0.000000 -0.001000
v -0.625000 0.000000 -0.001000
v -0.375000 1.000000 -0.001000
v -0.625000 1.000000 -0.001000
v -0.375000 1.000000 -0.001000
v 0.625000 1.000000 -0.001000
v -0.375000 0.000000 -0.001000
v 0.625000 0.000000 -0.001000
v -0.375000 1.500000 -0.001000
v -0.625000 1.500000 -0.001000
v -0.375000 1.500000 -0.001000
v 0.625000 1.500000 -0.001000
v -0.375000 1.000000 -0.001000
v 0.625000 1.000000 -0.001000
v -0.375000 1.000000 -0.001000
v -0.625000 1.000000 -0.001000
vn -0.0000 -1.0000 -0.0000
vn -0.0000 -0.0000 1.0000
vn 1.0000 -0.0000 -0.0000
vn -0.0000 -0.0000 -1.0000
vn -1.0000 -0.0000 -0.0000
vn -0.0000 1.0000 -0.0000
vt 0.609756 0.364198
vt 0.609756 0.388889
vt 0.634146 0.388889
vt 0.634146 0.364198
vt 0.634146 0.512346
vt 0.609756 0.512346
vt 0.640244 0.364198
vt 0.664634 0.364198
vt 0.664634 0.512346
vt 0.640244 0.512346
vt 0.670732 0.364198
vt 0.695122 0.364198
vt 0.695122 0.512346
vt 0.670732 0.512346
vt 0.701219 0.364198
vt 0.725610 0.364198
vt 0.725610 0.512346
vt 0.701219 0.512346
vt 0.658537 0.543210
vt 0.853659 0.543210
vt 0.853659 0.518519
vt 0.658537 0.518519
vt 0.658537 0.567901
vt 0.853659 0.567901
vt 0.884146 0.543210
vt 0.884146 0.518519
vt 0.908537 0.518519
vt 0.908537 0.543210
vt 0.628049 0.543210
vt 0.652439 0.543210
vt 0.652439 0.518519
vt 0.628049 0.518519
vt 0.737805 0.358025
vt 0.737805 0.259259
vt 0.713415 0.259259
vt 0.713415 0.358025
vt 0.810976 0.358025
vt 0.810976 0.259259
vt 0.810976 0.308642
vt 0.713415 0.308642
vt 0.737805 0.308642
s 0
usemtl mFG_Fortress
f 1/1/1 3/2/1 4/3/1 2/4/1
f 5/1/2 6/4/2 8/5/2 7/6/2
f 9/7/3 10/8/3 12/9/3 11/10/3
f 13/11/4 14/12/4 16/13/4 15/14/4
f 17/15/5 18/16/5 20/17/5 19/18/5
f 21/1/1 23/2/1 24/3/1 22/4/1
f 25/1/2 26/4/2 28/5/2 27/6/2
f 29/7/3 30/8/3 32/9/3 31/10/3
f 33/11/4 34/12/4 36/13/4 35/14/4
f 37/15/5 38/16/5 40/17/5 39/18/5
f 41/19/1 43/20/1 44/21/1 42/22/1
f 45/23/6 46/19/6 48/20/6 47/24/6
f 49/19/4 51/20/4 52/21/4 50/22/4
f 53/19/2 54/22/2 56/21/2 55/20/2
f 59/25/3 60/26/3 62/27/3 61/28/3
f 63/29/5 65/30/5 66/31/5 64/32/5
f 68/33/2 58/34/2 57/35/2 67/36/2
f 69/37/2 71/38/2 72/35/2 70/36/2
f 75/37/2 77/39/2 78/40/2 76/36/2
f 74/33/2 80/41/2 79/40/2 73/36/2
f 84/33/4 83/36/4 81/35/4 82/34/4
f 85/37/4 86/36/4 88/35/4 87/38/4
f 91/37/4 92/36/4 94/40/4 93/39/4
f 90/33/4 89/36/4 95/40/4 96/41/4
