# Blender 4.0.2
# www.blender.org
mtllib Fortress_Window_02.mtl
o Fortress_Window_02
v -0.312500 0.312500 0.062500
v -0.312500 0.250000 0.125000
v 0.500000 0.625000 -0.125000
v -0.500000 0.625000 0.125000
v 0.500000 0.625000 0.125000
v -0.500000 0.625000 -0.125000
v -0.312500 0.312500 0.125000
v 0.312500 0.312500 0.062500
v 0.312500 0.250000 0.125000
v 0.312500 0.312500 0.125000
v 0.500000 0.750000 0.125000
v -0.500000 0.750000 0.125000
v -0.500000 0.750000 -0.125000
v 0.500000 0.750000 -0.125000
v -0.312500 0.125000 0.062500
v 0.312500 0.125000 0.062500
v -0.312500 0.750000 0.062500
v 0.312500 0.750000 0.062500
v -0.312500 0.562500 0.125000
v -0.312500 0.500000 0.125000
v 0.312500 0.562500 0.125000
v 0.312500 0.500000 0.125000
v -0.312500 0.562500 0.125000
v -0.312500 0.562500 0.062500
v 0.312500 0.562500 0.125000
v 0.312500 0.562500 0.062500
v -0.312500 0.500000 0.125000
v -0.312500 0.500000 0.062500
v 0.312500 0.500000 0.125000
v 0.312500 0.500000 0.062500
v -0.250000 0.750000 -0.125000
v 0.000000 0.750000 -0.125000
v 0.250000 0.750000 -0.125000
v 0.187500 0.750000 0.125000
v 0.187500 0.750000 0.062500
v 0.187500 0.125000 0.125000
v 0.187500 0.125000 0.062500
v 0.125000 0.750000 0.125000
v 0.125000 0.750000 0.062500
v 0.125000 0.125000 0.125000
v 0.125000 0.125000 0.062500
v 0.250000 0.750000 0.125000
v 0.000000 0.750000 0.125000
v -0.250000 0.750000 0.125000
v 0.250000 0.875000 0.125000
v 0.000000 0.875000 0.125000
v -0.250000 0.875000 0.125000
v -0.250000 0.875000 -0.125000
v 0.000000 0.875000 -0.125000
v 0.250000 0.875000 -0.125000
v 0.250000 0.875000 -0.125000
v 0.000000 0.875000 -0.125000
v -0.312500 0.312500 0.125000
v 0.312500 0.312500 0.125000
v -0.250000 0.875000 -0.125000
v -0.250000 0.750000 -0.125000
v 0.000000 0.750000 -0.125000
v 0.250000 0.750000 -0.125000
v 0.250000 0.875000 0.125000
v 0.000000 0.875000 0.125000
v -0.250000 0.875000 0.125000
v -0.250000 0.750000 0.125000
v 0.000000 0.750000 0.125000
v 0.250000 0.750000 0.125000
v -0.500000 0.625000 -0.125000
v -0.500000 0.750000 -0.125000
v -0.500000 0.625000 0.125000
v -0.500000 0.750000 0.125000
v 0.500000 0.250000 -0.125000
v -0.500000 0.250000 -0.125000
v -0.500000 0.250000 0.125000
v 0.500000 0.250000 0.125000
v -0.500000 0.125000 -0.125000
v 0.500000 0.125000 0.125000
v -0.500000 0.125000 0.125000
v 0.500000 0.125000 -0.125000
v -0.500000 0.125000 0.125000
v -0.500000 0.125000 -0.125000
v 0.500000 0.125000 0.125000
v 0.500000 0.125000 -0.125000
v -0.500000 0.250000 0.125000
v -0.500000 0.250000 -0.125000
v 0.500000 0.250000 0.125000
v 0.500000 0.250000 -0.125000
v 0.500000 0.250000 0.125000
v 0.500000 0.125000 0.125000
v 0.500000 0.250000 -0.125000
v 0.500000 0.125000 -0.125000
v -0.500000 0.250000 0.125000
v -0.500000 0.125000 0.125000
v -0.500000 0.250000 -0.125000
v -0.500000 0.125000 -0.125000
v 0.500000 0.625000 -0.125000
v 0.500000 0.750000 -0.125000
v 0.500000 0.625000 0.125000
v 0.500000 0.750000 0.125000
v 0.500000 0.750000 -0.125000
v 0.500000 0.750000 0.125000
v -0.500000 0.750000 -0.125000
v -0.500000 0.750000 0.125000
v 0.500000 0.625000 -0.125000
v 0.500000 0.625000 0.125000
v -0.500000 0.625000 -0.125000
v -0.500000 0.625000 0.125000
v -0.312500 0.250000 0.125000
v -0.312500 0.250000 0.062500
v 0.312500 0.250000 0.125000
v 0.312500 0.250000 0.062500
v 0.125000 0.750000 0.125000
v 0.187500 0.125000 0.125000
v 0.125000 0.125000 0.125000
v 0.187500 0.687500 0.125000
v 0.187500 0.625000 0.125000
v 0.187500 0.562500 0.125000
v 0.187500 0.500000 0.125000
v 0.187500 0.437500 0.125000
v 0.187500 0.375000 0.125000
v 0.187500 0.312500 0.125000
v 0.187500 0.250000 0.125000
v 0.187500 0.187500 0.125000
v 0.125000 0.187500 0.125000
v 0.125000 0.250000 0.125000
v 0.125000 0.312500 0.125000
v 0.125000 0.375000 0.125000
v 0.125000 0.437500 0.125000
v 0.125000 0.500000 0.125000
v 0.125000 0.562500 0.125000
v 0.125000 0.625000 0.125000
v 0.125000 0.687500 0.125000
v -0.125000 0.750000 0.125000
v -0.125000 0.750000 0.062500
v -0.125000 0.125000 0.125000
v -0.125000 0.125000 0.062500
v -0.187500 0.750000 0.125000
v -0.187500 0.750000 0.062500
v -0.187500 0.125000 0.125000
v -0.187500 0.125000 0.062500
v -0.125000 0.750000 0.125000
v -0.125000 0.125000 0.125000
v -0.187500 0.125000 0.125000
v -0.125000 0.687500 0.125000
v -0.125000 0.625000 0.125000
v -0.125000 0.562500 0.125000
v -0.125000 0.500000 0.125000
v -0.125000 0.437500 0.125000
v -0.125000 0.375000 0.125000
v -0.125000 0.312500 0.125000
v -0.125000 0.250000 0.125000
v -0.125000 0.187500 0.125000
v -0.187500 0.187500 0.125000
v -0.187500 0.250000 0.125000
v -0.187500 0.312500 0.125000
v -0.187500 0.375000 0.125000
v -0.187500 0.437500 0.125000
v -0.187500 0.500000 0.125000
v -0.187500 0.562500 0.125000
v -0.187500 0.625000 0.125000
v -0.187500 0.687500 0.125000
v 0.187500 0.746094 0.062500
v 0.166667 0.750000 0.125000
v 0.187500 0.746094 0.125000
v 0.187500 0.746094 0.125000
v -0.187500 0.746094 0.125000
v -0.187500 0.746094 0.125000
v -0.187500 0.746094 0.062500
v -0.166667 0.750000 0.125000
v 0.440856 0.654572 0.125000
v 0.440856 0.654572 -0.125000
v 0.437500 0.656250 0.125000
v 0.312500 0.718750 -0.125000
v 0.437500 0.656250 -0.125000
v 0.312500 0.718750 0.125000
v 0.437500 0.656250 0.125000
v 0.437500 0.656250 -0.125000
v 0.312500 0.718750 0.125000
v 0.312500 0.718750 -0.125000
v -0.437500 0.656250 0.125000
v -0.437500 0.656250 -0.125000
v -0.312500 0.718750 -0.125000
v -0.438195 0.655903 -0.125000
v -0.438195 0.655903 0.125000
v -0.437500 0.656250 0.125000
v -0.437500 0.656250 -0.125000
v -0.312500 0.718750 0.125000
v -0.312500 0.718750 -0.125000
v -0.312500 0.718750 0.125000
v 0.250000 0.000000 -0.125000
v 0.000000 0.000000 -0.125000
v -0.250000 0.000000 -0.125000
v -0.250000 0.000000 0.125000
v 0.000000 0.000000 0.125000
v 0.250000 0.000000 0.125000
v -0.250000 0.125000 0.125000
v 0.000000 0.125000 0.125000
v 0.250000 0.125000 0.125000
v 0.250000 0.000000 0.125000
v 0.000000 0.000000 0.125000
v -0.250000 0.000000 0.125000
v -0.250000 0.125000 -0.125000
v 0.000000 0.125000 -0.125000
v 0.250000 0.125000 -0.125000
v 0.250000 0.000000 -0.125000
v 0.000000 0.000000 -0.125000
v -0.250000 0.000000 -0.125000
v -0.250000 0.125000 0.125000
v 0.000000 0.125000 0.125000
v 0.250000 0.125000 0.125000
v 0.250000 0.125000 -0.125000
v 0.000000 0.125000 -0.125000
v -0.250000 0.125000 -0.125000
v -0.312500 0.156250 -0.125000
v -0.312500 0.156250 -0.125000
v -0.309322 0.154661 -0.125000
v -0.312500 0.156250 0.125000
v -0.312500 0.156250 0.125000
v -0.437500 0.218750 -0.125000
v -0.309322 0.154661 0.125000
v -0.437500 0.218750 0.125000
v -0.437500 0.218750 -0.125000
v -0.437500 0.218750 0.125000
v 0.312500 0.156250 0.125000
v 0.306808 0.153404 -0.125000
v 0.437500 0.218750 -0.125000
v 0.312500 0.156250 -0.125000
v 0.437500 0.218750 0.125000
v 0.312500 0.156250 0.125000
v 0.437500 0.218750 0.125000
v 0.312500 0.156250 -0.125000
v 0.306808 0.153404 0.125000
v 0.437500 0.218750 -0.125000
v -0.312500 0.125000 -0.062500
v 0.312500 0.125000 -0.062500
v -0.312500 0.750000 -0.062500
v 0.312500 0.750000 -0.062500
vn -0.0000 -0.0000 1.0000
vn -0.0000 1.0000 -0.0000
vn -0.0000 -1.0000 -0.0000
vn -1.0000 -0.0000 -0.0000
vn 0.4472 -0.8944 -0.0000
vn -0.4472 0.8944 -0.0000
vn -0.0000 -0.0000 -1.0000
vn 1.0000 -0.0000 -0.0000
vn 0.4472 0.8944 -0.0000
vn -0.4472 -0.8944 -0.0000
vt 0.713415 0.259259
vt 0.774390 0.259259
vt 0.774390 0.320988
vt 0.713415 0.320988
vt 0.896341 0.240741
vt 0.896341 0.246914
vt 0.835366 0.246914
vt 0.835366 0.240741
vt 0.609756 0.277778
vt 0.615854 0.277778
vt 0.615854 0.278164
vt 0.609756 0.278164
vt 0.615854 0.339506
vt 0.609756 0.339506
vt 0.707317 0.308642
vt 0.682927 0.308642
vt 0.682927 0.283951
vt 0.707317 0.283951
vt 0.707317 0.333333
vt 0.682927 0.333333
vt 0.707317 0.358025
vt 0.682927 0.358025
vt 0.682927 0.351920
vt 0.707317 0.351920
vt 0.865854 0.333333
vt 0.841463 0.333333
vt 0.841463 0.358025
vt 0.865854 0.358025
vt 0.890244 0.333333
vt 0.890244 0.358025
vt 0.914634 0.333333
vt 0.914634 0.358025
vt 0.865854 0.327160
vt 0.890244 0.327160
vt 0.890244 0.314815
vt 0.865854 0.314815
vt 0.841463 0.327160
vt 0.841463 0.314815
vt 0.914634 0.327160
vt 0.914634 0.314815
vt 0.682927 0.259259
vt 0.707317 0.259259
vt 0.835921 0.333333
vt 0.835921 0.358025
vt 0.817073 0.327161
vt 0.817073 0.314815
vt 0.841463 0.314815
vt 0.841463 0.327161
vt 0.817073 0.327160
vt 0.817073 0.314815
vt 0.817073 0.333333
vt 0.817073 0.358025
vt 0.682927 0.265101
vt 0.707317 0.265101
vt 0.613821 0.277778
vt 0.615854 0.278164
vt 0.615854 0.283951
vt 0.615854 0.290123
vt 0.615854 0.296296
vt 0.609756 0.296296
vt 0.609756 0.290123
vt 0.609756 0.283951
vt 0.609756 0.302469
vt 0.615854 0.302469
vt 0.615854 0.308642
vt 0.615854 0.314815
vt 0.615854 0.320988
vt 0.609756 0.320988
vt 0.609756 0.314815
vt 0.609756 0.308642
vt 0.615854 0.333333
vt 0.609756 0.333333
vt 0.609756 0.327160
vt 0.615854 0.327161
vt 0.609756 0.278164
vt 0.611789 0.277778
vt 0.896031 0.333333
vt 0.896031 0.358025
vt 0.707317 0.348765
vt 0.707317 0.305556
vt 0.682927 0.305556
vt 0.682927 0.348765
vt 0.701220 0.348765
vt 0.689024 0.354938
vt 0.689024 0.299383
vt 0.701220 0.305556
vt 0.701219 0.348765
vt 0.701219 0.305556
vt 0.689024 0.354938
vt 0.707317 0.354938
vt 0.682927 0.354938
vt 0.682927 0.299383
vt 0.707317 0.299383
vt 0.682927 0.299383
vt 0.701219 0.354938
vt 0.689024 0.348765
vt 0.689024 0.305556
vt 0.701219 0.299383
vt 0.689024 0.348765
vt 0.707317 0.348765
vt 0.682927 0.305556
vt 0.707317 0.305556
s 0
usemtl mFG_Fortress
f 15/1/1 16/2/1 18/3/1 17/4/1
f 19/5/1 20/6/1 22/7/1 21/8/1
f 23/5/2 25/8/2 26/7/2 24/6/2
f 27/5/3 28/6/3 30/7/3 29/8/3
f 34/9/4 35/10/4 159/11/4 161/12/4
f 38/9/4 39/10/4 41/13/4 40/14/4
f 43/15/3 32/16/3 33/17/3 42/18/3
f 44/19/3 31/20/3 32/16/3 43/15/3
f 104/21/5 103/22/5 180/23/5 181/24/5
f 46/25/2 45/26/2 50/27/2 49/28/2
f 47/29/2 46/25/2 49/28/2 48/30/2
f 100/31/6 47/29/6 48/30/6 99/32/6
f 52/33/7 51/34/7 58/35/7 57/36/7
f 55/37/7 52/33/7 57/36/7 56/38/7
f 201/34/7 69/39/7 76/40/7 202/35/7
f 192/18/5 187/17/5 80/41/5 79/42/5
f 195/34/1 196/35/1 74/40/1 72/39/1
f 207/26/6 229/43/6 222/44/6 208/27/6
f 85/45/8 86/46/8 88/47/8 87/48/8
f 89/45/4 91/48/4 92/47/4 90/46/4
f 13/49/7 55/37/7 56/38/7 6/50/7
f 60/33/1 63/36/1 64/35/1 59/34/1
f 61/37/1 62/38/1 63/36/1 60/33/1
f 12/49/1 4/50/1 62/38/1 61/37/1
f 7/5/2 54/8/2 8/7/2 1/6/2
f 45/26/9 98/51/9 97/52/9 50/27/9
f 68/45/4 66/48/4 65/47/4 67/46/4
f 53/5/1 2/6/1 9/7/1 10/8/1
f 59/34/1 64/35/1 5/40/1 11/39/1
f 42/18/10 33/17/10 168/53/10 167/54/10
f 96/45/8 95/46/8 93/47/8 94/48/8
f 105/5/3 106/6/3 108/7/3 107/8/3
f 51/34/7 14/39/7 3/40/7 58/35/7
f 138/9/1 166/55/1 164/56/1 158/57/1 157/58/1 156/59/1 143/60/1 142/61/1 141/62/1
f 134/9/4 135/10/4 165/11/4 163/12/4
f 130/9/8 132/14/8 133/13/8 131/10/8
f 161/12/8 36/14/8 37/13/8 159/11/8
f 144/63/1 155/64/1 154/65/1 153/66/1 152/67/1 147/68/1 146/69/1 145/70/1
f 121/71/1 111/13/1 110/14/1 120/72/1 119/73/1 122/74/1
f 115/63/1 126/64/1 125/65/1 124/66/1 123/67/1 118/68/1 117/69/1 116/70/1
f 150/71/1 140/13/1 139/14/1 149/72/1 148/73/1 151/74/1
f 162/75/1 160/76/1 109/10/1 129/57/1 128/58/1 127/59/1 114/60/1 113/61/1 112/62/1
f 163/12/4 165/11/4 137/13/4 136/14/4
f 167/54/10 168/53/10 101/41/10 102/42/10
f 181/24/5 180/23/5 31/20/5 44/19/5
f 77/21/10 78/22/10 189/20/10 190/19/10
f 190/19/3 189/20/3 188/16/3 191/15/3
f 191/15/3 188/16/3 187/17/3 192/18/3
f 71/49/1 75/50/1 198/38/1 193/37/1
f 193/37/1 198/38/1 197/36/1 194/33/1
f 194/33/1 197/36/1 196/35/1 195/34/1
f 70/49/7 199/37/7 204/38/7 73/50/7
f 199/37/7 200/33/7 203/36/7 204/38/7
f 200/33/7 201/34/7 202/35/7 203/36/7
f 81/31/9 217/77/9 213/78/9 82/32/9
f 205/29/2 206/25/2 209/28/2 210/30/2
f 206/25/2 207/26/2 208/27/2 209/28/2
f 220/79/4 177/80/4 183/81/4 219/82/4
f 218/83/1 215/84/1 186/85/1 182/86/1
f 216/87/7 178/88/7 185/85/7 212/89/7
f 217/77/9 205/29/9 210/30/9 213/78/9
f 214/90/8 211/91/8 179/92/8 184/93/8
f 221/90/4 175/93/4 170/94/4 228/91/4
f 226/95/1 227/96/1 169/97/1 172/98/1
f 224/95/7 176/98/7 171/97/7 223/99/7
f 225/100/8 230/82/8 174/101/8 173/102/8
f 229/43/6 83/51/6 84/52/6 222/44/6
f 231/1/7 233/4/7 234/3/7 232/2/7
