# Blender 4.0.2
# www.blender.org
mtllib Fortress_Wall_Corner_Block.mtl
o Fortress_Wall_Corner_Block
v 0.125000 0.250000 -0.125000
v -0.125000 0.250000 -0.125000
v 0.125000 0.250000 0.125000
v -0.125000 0.250000 0.125000
v -0.125000 0.000000 0.125000
v 0.125000 0.000000 0.125000
v -0.125000 0.000000 -0.125000
v 0.125000 0.000000 -0.125000
v -0.125000 0.250000 0.125000
v -0.125000 0.000000 0.125000
v -0.125000 0.250000 -0.125000
v -0.125000 0.000000 -0.125000
v 0.125000 0.250000 0.125000
v 0.125000 0.000000 0.125000
v -0.125000 0.250000 0.125000
v -0.125000 0.000000 0.125000
v 0.125000 0.000000 -0.125000
v 0.125000 0.250000 -0.125000
v 0.125000 0.000000 0.125000
v 0.125000 0.250000 0.125000
v 0.125000 0.250000 -0.125000
v 0.125000 0.000000 -0.125000
v -0.125000 0.250000 -0.125000
v -0.125000 0.000000 -0.125000
vn -0.0000 1.0000 -0.0000
vn -0.0000 -1.0000 -0.0000
vn -1.0000 -0.0000 -0.0000
vn -0.0000 -0.0000 1.0000
vn 1.0000 -0.0000 -0.0000
vn -0.0000 -0.0000 -1.0000
vt 0.048780 0.111111
vt 0.048780 0.086420
vt 0.073171 0.086420
vt 0.073171 0.111111
vt 0.006098 0.203704
vt 0.006098 0.228395
vt 0.030488 0.228395
vt 0.030488 0.203704
vt 0.006098 0.141975
vt 0.030488 0.141975
vt 0.030488 0.117284
vt 0.006098 0.117284
s 0
usemtl mFG_Fortress
f 4/1/1 3/2/1 1/3/1 2/4/1
f 5/5/2 7/6/2 8/7/2 6/8/2
f 9/9/3 11/10/3 12/11/3 10/12/3
f 13/9/4 15/10/4 16/11/4 14/12/4
f 20/9/5 19/12/5 17/11/5 18/10/5
f 21/9/6 22/12/6 24/11/6 23/10/6
